<svg id="Layer_1" data-name="Layer 1" xmlns="http://www.w3.org/2000/svg" viewBox="0 0 208.96 44.42"><defs><style>.cls-1{fill:#56a8de;}.cls-2{fill:#36a9e1;}.cls-3{fill:#fff;}.cls-4{fill:#1d1d1b;}</style></defs><path class="cls-1" d="M15.18,49.11a8.82,8.82,0,0,1-2.65-.42,7.57,7.57,0,0,1-2.47-1.29,7.11,7.11,0,0,1-1.84-2.21A6.62,6.62,0,0,1,7.48,42v-.41a2.74,2.74,0,0,1,.06-.56c.13-1.35.35-3,.65-4.94s.62-4,1-6.05.7-4.21,1.11-6.36.75-4,1.07-5.77.59-3.18.83-4.34.39-1.9.46-2.17l.17-.68.7-.07,2.5-.25c1-.1,1.88-.18,2.72-.25l4.39-.44-.28,1.34q-1.3,6-2.3,10.94c-.3,1.41-.59,2.81-.88,4.2s-.55,2.69-.8,3.86l-1.1,5.11c-.11.52-.25,1.19-.39,2a11.31,11.31,0,0,0-.21,2,1.13,1.13,0,0,0,.19.71c.1.13.16.13.21.13a.71.71,0,0,0,.62-.3,5.2,5.2,0,0,0,.77-1.36,9.06,9.06,0,0,0,.5-1.74c.12-.66.23-1.2.34-1.61l.67-3.17c.24-1.17.49-2.4.74-3.68s.5-2.59.75-3.92.49-2.63.73-3.9c.56-2.91,1.11-6,1.64-9.08l.14-.78,9.68-.64-.25,1.27L33,15.9c-.26,1.43-.56,3.06-.87,4.88s-.68,3.79-1.08,5.76-.79,3.93-1.18,5.85-.76,3.69-1.13,5.3a17.25,17.25,0,0,1-2.1,5.16,13.4,13.4,0,0,1-3.24,3.56,12.75,12.75,0,0,1-4,2.06A14.12,14.12,0,0,1,15.18,49.11Z" transform="translate(-4.33 -5.81)"/><path class="cls-2" d="M21.83,10.86q-1.3,6.06-2.3,11c-.3,1.4-.59,2.8-.88,4.2s-.55,2.69-.8,3.85-.46,2.18-.65,3-.33,1.54-.45,2.08-.25,1.2-.4,2a12.43,12.43,0,0,0-.22,2.23,2.09,2.09,0,0,0,.4,1.32,1.2,1.2,0,0,0,1,.52,1.74,1.74,0,0,0,1.4-.67,6.29,6.29,0,0,0,.92-1.62,9.8,9.8,0,0,0,.55-1.93q.18-1,.33-1.53c.2-1,.42-2,.67-3.22s.5-2.42.75-3.7.5-2.59.75-3.93.49-2.63.73-3.9c.57-2.93,1.11-6,1.65-9.1l7.6-.5c-.34,1.74-.64,3.32-.9,4.75s-.56,3.07-.88,4.9-.67,3.75-1.07,5.73-.79,3.93-1.18,5.85-.76,3.67-1.12,5.28a16.23,16.23,0,0,1-2,4.84,12.26,12.26,0,0,1-3,3.3,12,12,0,0,1-3.67,1.91,13.19,13.19,0,0,1-3.9.59,7.83,7.83,0,0,1-2.35-.37,6.6,6.6,0,0,1-2.15-1.13A6.09,6.09,0,0,1,9.1,44.72,5.66,5.66,0,0,1,8.48,42v-.41a1.31,1.31,0,0,1,0-.39c.13-1.37.35-3,.65-4.95s.61-4,1-6.06.7-4.2,1.1-6.32.76-4,1.07-5.78.59-3.17.83-4.32.38-1.86.45-2.12l2.5-.25c1-.11,1.87-.19,2.7-.25l3-.31M24.36,8.6l-2.73.27-3,.3c-.82.07-1.73.15-2.72.26l-2.48.24L12,9.81l-.34,1.37c0,.11-.12.46-.47,2.21-.23,1.15-.51,2.62-.83,4.37s-.68,3.65-1.08,5.76-.78,4.3-1.11,6.38S7.5,34,7.2,36s-.51,3.58-.65,4.94a3.49,3.49,0,0,0-.07.71V42a7.52,7.52,0,0,0,.87,3.65,7.89,7.89,0,0,0,2.09,2.51,8.58,8.58,0,0,0,2.79,1.47,9.85,9.85,0,0,0,2.95.46,15.53,15.53,0,0,0,4.49-.68A14.15,14.15,0,0,0,24,47.21a14.4,14.4,0,0,0,3.48-3.82,18.29,18.29,0,0,0,2.23-5.45c.38-1.64.76-3.44,1.14-5.36s.78-3.86,1.18-5.84.76-3.93,1.08-5.78.61-3.45.87-4.88l.9-4.74.49-2.54L32.75,9l-7.6.5-1,.06.2-.93Z" transform="translate(-4.33 -5.81)"/><path class="cls-1" d="M36.43,48.31A9.45,9.45,0,0,1,32,47.12a13.67,13.67,0,0,1-4.16-3.69l-.39-.5,4.86-9.52.9,1.68A4.55,4.55,0,0,0,34,36.17a7.09,7.09,0,0,0,1.38,1A11.51,11.51,0,0,0,37,38a3.52,3.52,0,0,0,1.23.27,3.32,3.32,0,0,0,1-.16,3.09,3.09,0,0,0,.91-.45A2.21,2.21,0,0,0,40.7,37a1.27,1.27,0,0,0,.18-.69,2.65,2.65,0,0,0-.57-1.63,10.49,10.49,0,0,0-1.76-1.77C37.8,32.27,37,31.65,36.1,31A23.43,23.43,0,0,1,33.52,29a12.46,12.46,0,0,1-2.09-2.56A6.42,6.42,0,0,1,30.48,23a9.41,9.41,0,0,1,1.72-5.41,16.54,16.54,0,0,1,4.13-4.13,21.66,21.66,0,0,1,5.32-2.7,16.94,16.94,0,0,1,5.53-1,11.15,11.15,0,0,1,2.81.36,6.62,6.62,0,0,1,2.45,1.25,6.43,6.43,0,0,1,1.67,2.16,7.47,7.47,0,0,1,.62,3.19,9.44,9.44,0,0,1-.14,1.57c-.08.45-.16.93-.22,1.45l-.08.65-9.55,2.77.42-1.69c.06-.24.11-.49.16-.74a3.18,3.18,0,0,0,.06-.62,2.58,2.58,0,0,0-.32-1.56.68.68,0,0,0-.58-.29,1.32,1.32,0,0,0-.51.19,6,6,0,0,0-1,.66,3.57,3.57,0,0,0-.76.88,1.6,1.6,0,0,0-.25.87,2,2,0,0,0,.44,1.36A7.74,7.74,0,0,0,43.9,23.5c.64.45,1.36.92,2.13,1.39A10.53,10.53,0,0,1,48.43,27a10.68,10.68,0,0,1,1.85,3.17A13,13,0,0,1,51,34.86a12.92,12.92,0,0,1-1.17,5.51,13.47,13.47,0,0,1-3.14,4.24,13.88,13.88,0,0,1-4.62,2.74A16.51,16.51,0,0,1,36.43,48.31Z" transform="translate(-4.33 -5.81)"/><path class="cls-2" d="M47.18,10.71a9.58,9.58,0,0,1,2.55.33,5.48,5.48,0,0,1,2.07,1.05,5.14,5.14,0,0,1,1.4,1.83,6.33,6.33,0,0,1,.53,2.75,7.27,7.27,0,0,1-.13,1.39c-.08.47-.16,1-.22,1.5l-7.25,2.11c.06-.27.12-.54.17-.81a4.26,4.26,0,0,0,.08-.8,3.55,3.55,0,0,0-.53-2.17,1.66,1.66,0,0,0-1.37-.68,2.24,2.24,0,0,0-1,.3,6.88,6.88,0,0,0-1.15.78,4.4,4.4,0,0,0-1,1.13,2.55,2.55,0,0,0-.4,1.39,3,3,0,0,0,.67,2,8.23,8.23,0,0,0,1.68,1.5c.66.47,1.39,1,2.17,1.43a9.51,9.51,0,0,1,2.18,1.87,10,10,0,0,1,1.67,2.88A12.11,12.11,0,0,1,50,34.86,11.71,11.71,0,0,1,49,39.94a12,12,0,0,1-2.9,3.92,12.87,12.87,0,0,1-4.3,2.56,15.43,15.43,0,0,1-5.32.89,8.31,8.31,0,0,1-4-1.07,12.59,12.59,0,0,1-3.85-3.43l3.7-7.25a5.26,5.26,0,0,0,1,1.33,7.64,7.64,0,0,0,1.57,1.17,12,12,0,0,0,1.75.83,4.56,4.56,0,0,0,1.58.33,4.39,4.39,0,0,0,1.25-.2,4.5,4.5,0,0,0,1.2-.6,3.32,3.32,0,0,0,.87-.93,2.25,2.25,0,0,0,.33-1.22A3.61,3.61,0,0,0,41.1,34a11.36,11.36,0,0,0-1.92-1.95c-.77-.62-1.6-1.24-2.5-1.88a21.65,21.65,0,0,1-2.48-2,11.1,11.1,0,0,1-1.92-2.35,5.34,5.34,0,0,1-.8-2.9A8.34,8.34,0,0,1,33,18.11a15.14,15.14,0,0,1,3.87-3.87A20.39,20.39,0,0,1,42,11.67a15.75,15.75,0,0,1,5.2-1m0-2a18,18,0,0,0-5.85,1.06,22.65,22.65,0,0,0-5.57,2.83A17.36,17.36,0,0,0,31.38,17a10.4,10.4,0,0,0-1.9,6,7.39,7.39,0,0,0,1.1,3.95,13.57,13.57,0,0,0,2.26,2.77,24.49,24.49,0,0,0,2.69,2.17c.85.6,1.66,1.21,2.4,1.8a9.51,9.51,0,0,1,1.58,1.6,1.62,1.62,0,0,1,.37,1,.29.29,0,0,1,0,.17,1.31,1.31,0,0,1-.35.36,1.83,1.83,0,0,1-.61.3,2.1,2.1,0,0,1-.66.12,2.72,2.72,0,0,1-.88-.2,9.53,9.53,0,0,1-1.45-.69,5.85,5.85,0,0,1-1.18-.88,3.39,3.39,0,0,1-.68-.83l-1.81-3.37L30.5,34.66l-3.7,7.25-.58,1.14.79,1a14.5,14.5,0,0,0,4.47,4,10.39,10.39,0,0,0,4.95,1.31,17.76,17.76,0,0,0,6-1,15,15,0,0,0,5-2.95,14.4,14.4,0,0,0,3.37-4.56A13.74,13.74,0,0,0,52,34.86a14.1,14.1,0,0,0-.81-5.1,12.11,12.11,0,0,0-2-3.46A11.66,11.66,0,0,0,46.55,24l-.45-.28.58-.17,7.25-2.1,1.27-.37.16-1.31c.06-.49.13-1,.21-1.39a9.57,9.57,0,0,0,.16-1.75A8.38,8.38,0,0,0,55,13.05a7.49,7.49,0,0,0-1.93-2.5,7.37,7.37,0,0,0-2.83-1.44,11.85,11.85,0,0,0-3.07-.4ZM43.92,22.25a6.35,6.35,0,0,1-.74-.72,1.07,1.07,0,0,1-.2-.72.64.64,0,0,1,.1-.35,2.55,2.55,0,0,1,.55-.63,4.72,4.72,0,0,1,.7-.49,5.18,5.18,0,0,1,.05.72,3,3,0,0,1,0,.43l-.15.69-.27,1.07Z" transform="translate(-4.33 -5.81)"/><path class="cls-1" d="M55.48,10.78,73.53,9.24l-.45,1.43c-.22.7-.42,1.43-.58,2.16s-.32,1.31-.47,2-.27,1.27-.37,1.79l-.14.74-.74.07c-.35,0-.85.06-1.5.08l-2,.05c-.71,0-1.42,0-2.15,0H64.1l-1.34,6.88c.56,0,1.11-.06,1.63-.07.74,0,1.51-.06,2.29-.06s1.27,0,1.61,0l1.26-.12-.18,1.26c-.14.93-.26,1.84-.38,2.73s-.26,1.85-.43,2.8l-.13.75-.75.07c-.35,0-.92.06-1.71.08l-2.25.07L61.66,32l-1.29,7,7.17-1.13-.68,7.75L48.54,48.47Z" transform="translate(-4.33 -5.81)"/><path class="cls-2" d="M72.13,10.36a21.94,21.94,0,0,0-.6,2.25q-.25,1-.48,2c-.15.68-.27,1.29-.37,1.83-.34,0-.81,0-1.43.07l-2,.05c-.7,0-1.41,0-2.13,0H63.28l-1.75,9,2.9-.15c.73,0,1.48-.05,2.25-.05s1.33,0,1.7,0c-.14.94-.26,1.85-.38,2.75s-.26,1.82-.42,2.76c-.34,0-.88.05-1.63.07s-1.51,0-2.27.08l-2.85.1-1.7,9.2,7.3-1.16-.5,5.71-16.15,2.5,6.55-35.56,15.8-1.35m2.81-2.24-3,.25L56.16,9.72l-1.52.13-.28,1.5L47.81,46.9l-.51,2.77,2.78-.43,16.15-2.5,1.55-.24.14-1.56.5-5.7.22-2.55-2.52.4-4.51.71L62.5,33l1.25-.05L66,32.84c.8,0,1.38-.05,1.78-.08l1.5-.15.27-1.49c.17-1,.32-1.92.44-2.85s.23-1.8.37-2.72L70.72,23l-2.53.23c-.2,0-.64,0-1.51,0s-1.57,0-2.34.06H64l.94-4.82h.23c.74,0,1.46,0,2.18,0l2-.05c.66,0,1.17,0,1.57-.08l1.49-.15.27-1.48c.1-.51.22-1.1.37-1.76s.3-1.31.45-1.9V13c.15-.7.34-1.4.55-2.07l.91-2.85Z" transform="translate(-4.33 -5.81)"/><path class="cls-1" d="M65.65,47.07q1.35-6.65,2.6-13c.29-1.78.63-3.66,1-5.62s.71-3.86,1-5.77.61-3.77.89-5.55.51-3.39.67-4.83l.08-.64.62-.2a36.89,36.89,0,0,1,6.32-1.36,52,52,0,0,1,6.68-.43,10.69,10.69,0,0,1,3.55.5,5.65,5.65,0,0,1,2.42,1.56,5.73,5.73,0,0,1,1.24,2.32,10.41,10.41,0,0,1,.34,2.71A12.57,12.57,0,0,1,92.32,21a17.94,17.94,0,0,1-2,3.87,20.14,20.14,0,0,1-2.85,3.32,15.5,15.5,0,0,1-2.67,2c.5,1.11,1,2.29,1.56,3.55q1,2.39,1.93,4.54c.67,1.68,1.35,3.34,2,5l.41,1L81,47.7l-.31-1c-.69-2.23-1.29-4.2-1.8-6-.23-.75-.47-1.55-.71-2.38s-.45-1.59-.65-2.33a1.21,1.21,0,0,0,0-.18c0,.22-.08.43-.13.66-.28,1.43-.54,2.8-.77,4.13-.3,1.58-.6,3.16-.9,4.76l-.12.62L65.33,48.64Zm14-22.93.57-.27a15,15,0,0,0,2.46-1.57,13.61,13.61,0,0,0,2-1.89c.59-.69.66-1.07.66-1.2a.25.25,0,0,0,0-.14,1.39,1.39,0,0,0-.57-.27,6.5,6.5,0,0,0-1.17-.19c-.48,0-1-.05-1.48-.05q-.54,0-1.08,0H80.8Z" transform="translate(-4.33 -5.81)"/><path class="cls-2" d="M85.53,10.67a9.81,9.81,0,0,1,3.22.44,4.52,4.52,0,0,1,3,3.2,9.34,9.34,0,0,1,.3,2.45,11.55,11.55,0,0,1-.7,3.93,16.83,16.83,0,0,1-1.88,3.65,18.43,18.43,0,0,1-2.7,3.15,14.69,14.69,0,0,1-3.27,2.32q.9,2,1.92,4.38t1.93,4.53c.66,1.66,1.35,3.33,2.05,5l-7.75,2.7q-1-3.21-1.8-6c-.24-.77-.47-1.56-.7-2.38s-.45-1.59-.65-2.32-.37-1.4-.5-2a9.61,9.61,0,0,1-.25-1.43l-.65.21c-.2,1.06-.45,2.31-.73,3.75s-.54,2.81-.77,4.15c-.3,1.56-.6,3.14-.9,4.75l-8.1,2.1q1.35-6.66,2.6-13,.45-2.7,1-5.63t1-5.8q.48-2.88.9-5.55c.28-1.78.51-3.41.68-4.87A34.24,34.24,0,0,1,79,11.09a51.8,51.8,0,0,1,6.55-.42M78.38,25.56a6.8,6.8,0,0,0,2.32-.8,16,16,0,0,0,2.63-1.67,15,15,0,0,0,2.15-2,3,3,0,0,0,.9-1.85,1.15,1.15,0,0,0-.35-.87,2.38,2.38,0,0,0-1-.5,6.86,6.86,0,0,0-1.37-.23c-.5,0-1-.05-1.55-.05l-1.13,0c-.38,0-.72,0-1,0l-1.6,8M85.53,8.67a52.36,52.36,0,0,0-6.81.44,37.31,37.31,0,0,0-6.5,1.4L71,10.9l-.15,1.29c-.16,1.43-.39,3-.66,4.79l-.9,5.53c-.32,1.92-.66,3.85-1,5.76s-.7,3.8-1,5.64c-.84,4.27-1.71,8.63-2.59,13L64,50l3.1-.8,8.1-2.1,1.23-.32.23-1.25q.45-2.39.9-4.74l.12-.65c.08.29.17.58.26.86.5,1.79,1.1,3.77,1.8,6l.61,2,2-.68,7.75-2.7,2-.7-.82-2c-.71-1.69-1.39-3.36-2-5S88,35,87.29,33.4c-.43-1-.84-1.92-1.21-2.78A18,18,0,0,0,88.17,29a20.67,20.67,0,0,0,3-3.48,18.88,18.88,0,0,0,2.11-4.09,13.68,13.68,0,0,0,.82-4.62,11.12,11.12,0,0,0-.38-3,6.42,6.42,0,0,0-4.28-4.56,11.67,11.67,0,0,0-3.89-.56Zm-3.91,10.9h.51c.48,0,1,0,1.42.05a3.86,3.86,0,0,1,.49.06l-.08.09a13.13,13.13,0,0,1-1.86,1.75c-.33.26-.67.5-1,.72l.53-2.66Z" transform="translate(-4.33 -5.81)"/><path class="cls-1" d="M101.38,48.47a12.75,12.75,0,0,1-1.51-.09l-1.44-.17-1-.15.2-1q1.35-6.9,2.65-13.45c.33-1.82.69-3.73,1.05-5.71s.72-3.94,1-5.87.66-3.78,1-5.55.57-3.36.77-4.76l.09-.72.71-.13q2.16-.4,4.38-.75a29.8,29.8,0,0,1,4.66-.37,12.09,12.09,0,0,1,5,.94,9.1,9.1,0,0,1,3.43,2.65,10.85,10.85,0,0,1,1.9,3.85,17,17,0,0,1,.59,4.52,23.35,23.35,0,0,1-.79,5.77,34.11,34.11,0,0,1-2.16,6,32.56,32.56,0,0,1-3.43,5.67,26.74,26.74,0,0,1-4.65,4.79,23.51,23.51,0,0,1-5.73,3.31A17.66,17.66,0,0,1,101.38,48.47Zm11.47-29.66c-.33,1.68-.66,3.29-1,4.82q-.6,2.7-1.2,5.45t-1.19,5.73c-.24,1.16-.46,2.39-.68,3.67l.1-.12a21,21,0,0,0,2-3,37.2,37.2,0,0,0,1.78-3.7c.53-1.29,1-2.57,1.39-3.82a30.93,30.93,0,0,0,.9-3.44,14.5,14.5,0,0,0,.31-2.66,3,3,0,0,0-.75-2.2A2.81,2.81,0,0,0,112.85,18.81Z" transform="translate(-4.33 -5.81)"/><path class="cls-2" d="M113.93,10.71a11.13,11.13,0,0,1,4.57.85,8,8,0,0,1,3,2.36,9.9,9.9,0,0,1,1.73,3.5,16.22,16.22,0,0,1,.55,4.25,22.26,22.26,0,0,1-.75,5.52A32.9,32.9,0,0,1,121,33a30.89,30.89,0,0,1-3.33,5.5,25.33,25.33,0,0,1-4.47,4.6,22.22,22.22,0,0,1-5.48,3.18,16.92,16.92,0,0,1-6.32,1.2,13,13,0,0,1-1.4-.08l-1.4-.17q1.35-6.91,2.65-13.45.49-2.76,1-5.73t1-5.87q.49-2.91,1-5.56t.78-4.8q2.15-.39,4.35-.75a28.88,28.88,0,0,1,4.5-.35m-6.6,30.46A10.89,10.89,0,0,0,109.65,39a21.44,21.44,0,0,0,2.13-3.18A37.93,37.93,0,0,0,113.6,32c.55-1.34,1-2.64,1.43-3.91a32.79,32.79,0,0,0,.92-3.55,14.84,14.84,0,0,0,.33-2.85,4,4,0,0,0-1-2.9,4.33,4.33,0,0,0-3.22-1c-.37,2-.75,3.85-1.15,5.66s-.8,3.61-1.2,5.44-.8,3.75-1.2,5.75-.79,4.19-1.15,6.56m6.6-32.46a30.73,30.73,0,0,0-4.82.38c-1.48.24-3,.49-4.4.76l-1.42.26-.19,1.43c-.2,1.39-.46,3-.77,4.72s-.64,3.63-1,5.57-.68,3.91-1,5.85-.72,3.89-1,5.73c-.86,4.33-1.75,8.82-2.65,13.42l-.4,2.07,2.08.3,1.47.18a14.66,14.66,0,0,0,1.62.09,18.84,18.84,0,0,0,7.07-1.35,24.35,24.35,0,0,0,6-3.46,27.11,27.11,0,0,0,4.83-5,33.89,33.89,0,0,0,3.54-5.85A35.76,35.76,0,0,0,125,27.69a24.41,24.41,0,0,0,.82-6,17.69,17.69,0,0,0-.63-4.78,11.85,11.85,0,0,0-2.07-4.21,10,10,0,0,0-3.8-2.94,13.14,13.14,0,0,0-5.4-1Zm-3.18,24.76c.29-1.42.58-2.82.88-4.18q.6-2.74,1.2-5.44c.27-1.21.53-2.48.79-3.79a1.15,1.15,0,0,1,.2.15,2,2,0,0,1,.46,1.5,13.32,13.32,0,0,1-.29,2.47,31.17,31.17,0,0,1-.87,3.33c-.38,1.22-.84,2.47-1.37,3.74-.31.76-.65,1.5-1,2.22Z" transform="translate(-4.33 -5.81)"/><path class="cls-1" d="M126.53,10.78l18.05-1.54-.45,1.43a22.13,22.13,0,0,0-.58,2.16c-.17.66-.33,1.31-.47,2s-.27,1.27-.37,1.79l-.14.74-.75.07c-.35,0-.85.06-1.49.08l-2,.05c-.71,0-1.43,0-2.15,0h-1l-1.34,6.88c.56,0,1.11-.06,1.63-.07q1.11-.06,2.28-.06c.74,0,1.28,0,1.61,0l1.27-.12-.18,1.26c-.14.93-.26,1.84-.38,2.73s-.26,1.85-.43,2.8l-.13.75-.76.07c-.35,0-.91.06-1.7.08l-2.25.07-2.06.08-1.29,7,7.16-1.13-.68,7.75-18.31,2.84Z" transform="translate(-4.33 -5.81)"/><path class="cls-2" d="M143.18,10.36a21.94,21.94,0,0,0-.6,2.25q-.26,1-.48,2c-.15.68-.27,1.29-.37,1.83-.34,0-.81,0-1.43.07l-2,.05c-.7,0-1.41,0-2.13,0h-1.87l-1.75,9,2.9-.15c.73,0,1.48-.05,2.25-.05s1.33,0,1.7,0c-.14.94-.26,1.85-.38,2.75s-.26,1.82-.42,2.76c-.34,0-.88.05-1.63.07s-1.51,0-2.27.08l-2.85.1-1.7,9.2,7.3-1.16-.5,5.71-16.15,2.5,6.55-35.56,15.8-1.35M146,8.12l-3,.25-15.8,1.35-1.52.13-.28,1.5L118.86,46.9l-.51,2.77,2.78-.43,16.15-2.5,1.55-.24.14-1.56.5-5.7.22-2.55-2.53.4-4.5.71.89-4.84,1.25-.05,2.24-.07c.81,0,1.39-.05,1.78-.08l1.51-.15.26-1.49c.18-1,.32-1.92.44-2.85s.24-1.8.38-2.72l.35-2.51-2.52.23c-.21,0-.64,0-1.51,0s-1.57,0-2.34.06H135l.94-4.82h.23c.73,0,1.46,0,2.17,0l2-.05c.66,0,1.17,0,1.56-.08l1.49-.15.28-1.47q.15-.78.36-1.77c.16-.69.31-1.31.46-1.89V13c.15-.7.34-1.4.55-2.07L146,8.12Z" transform="translate(-4.33 -5.81)"/><path class="cls-1" d="M137.08,47.18c.2-1.5.44-3.17.71-5s.57-3.75.93-5.73.7-3.95,1.05-5.95.71-4,1.07-5.77c.83-4.32,1.72-8.81,2.66-13.36l.14-.69,10.89-1.43-.33,1.4q-1.35,5.81-2.6,11.3c-.37,1.57-.73,3.18-1.1,4.86l-1.05,4.92c-.32,1.57-.62,3.12-.89,4.62-.18,1-.33,1.91-.46,2.75l1.48-.05c1,0,1.81,0,2.55,0h1l0,.94c0,.62.08,1.22.15,1.82s.14,1.14.22,1.62.15,1,.2,1.36.08.55.1.66l.31,1.25h-1.28q-.44,0-.84,0c-.22,0-.46,0-.71,0-1,0-2.08,0-3.21.1s-2.28.17-3.42.3-2.27.3-3.35.51a24.39,24.39,0,0,0-2.9.74l-1.52.51Z" transform="translate(-4.33 -5.81)"/><path class="cls-2" d="M153.23,10.42q-1.36,5.79-2.6,11.29c-.37,1.57-.74,3.2-1.1,4.88s-.72,3.33-1.05,4.93-.64,3.15-.91,4.65-.48,2.83-.64,4c.83-.07,1.72-.11,2.67-.13s1.79,0,2.53,0c0,.63.08,1.25.15,1.87s.14,1.17.22,1.67.15.95.2,1.33.09.64.12.78c-.26,0-.52,0-.77,0s-.51,0-.77,0c-1,0-2.13,0-3.28.11s-2.31.16-3.47.3-2.31.3-3.43.52a27.22,27.22,0,0,0-3,.77c.21-1.5.44-3.16.71-5s.57-3.73.92-5.7.7-3.94,1.05-5.94.71-3.92,1.07-5.75q1.26-6.55,2.66-13.36l8.75-1.14m2.6-2.36L153,8.43l-8.75,1.15-1.41.19-.28,1.39c-.94,4.55-1.83,9.05-2.66,13.38-.36,1.8-.72,3.75-1.08,5.78s-.7,4-1.05,5.94-.67,3.94-.93,5.77-.51,3.51-.71,5l-.42,3.17,3-1a22.23,22.23,0,0,1,2.77-.71c1.06-.2,2.16-.37,3.27-.5s2.25-.22,3.37-.29,2.18-.1,3.16-.1c.22,0,.43,0,.64,0s.59,0,.9,0h2.57l-.62-2.49c0-.1-.05-.29-.09-.55s-.12-.86-.21-1.39-.14-1-.21-1.56-.11-1.17-.14-1.77L154,38h-1.9c-.75,0-1.6,0-2.56,0h-.29c.08-.49.17-1,.26-1.53.27-1.49.57-3,.89-4.6s.68-3.23,1-4.9.73-3.28,1.09-4.85q1.26-5.52,2.6-11.3l.66-2.81Z" transform="translate(-4.33 -5.81)"/><path class="cls-1" d="M158.68,10.78l18-1.54-.45,1.43a22.13,22.13,0,0,0-.58,2.16c-.17.66-.33,1.31-.48,2s-.26,1.27-.36,1.79l-.14.74-.75.07c-.35,0-.85.06-1.5.08l-2,.05c-.71,0-1.43,0-2.15,0h-1L166,24.44c.57,0,1.11-.06,1.64-.07q1.11-.06,2.28-.06c.74,0,1.28,0,1.61,0l1.26-.12-.18,1.26c-.13.93-.25,1.84-.37,2.73s-.26,1.85-.43,2.8l-.13.75-.76.07c-.35,0-.91.06-1.7.08l-2.25.07-2.06.08-1.3,7,7.17-1.13-.68,7.75-18.31,2.84Z" transform="translate(-4.33 -5.81)"/><path class="cls-2" d="M175.32,10.36q-.34,1.11-.6,2.25c-.16.64-.32,1.3-.47,2s-.28,1.29-.38,1.83c-.33,0-.8,0-1.42.07l-2,.05c-.7,0-1.4,0-2.12,0h-1.88l-1.75,9,2.9-.15c.74,0,1.49-.05,2.25-.05s1.34,0,1.7,0c-.13.94-.25,1.85-.37,2.75s-.26,1.82-.43,2.76c-.33,0-.87.05-1.62.07s-1.51,0-2.28.08L164,31l-1.7,9.2,7.3-1.16-.5,5.71L153,47.27l6.55-35.56,15.8-1.35m2.82-2.24-3,.25-15.8,1.35-1.52.13-.27,1.5L151,46.9l-.51,2.77,2.78-.43,16.15-2.5L171,46.5l.14-1.56.5-5.7.22-2.55-2.53.4-4.51.71.9-4.84,1.25-.05,2.24-.07c.81,0,1.39-.05,1.78-.08l1.51-.15.26-1.49c.17-1,.32-1.92.44-2.85s.24-1.8.37-2.72l.36-2.51-2.52.23c-.21,0-.64,0-1.52,0s-1.56,0-2.34.06h-.35l.94-4.82h.23c.73,0,1.46,0,2.17,0l2-.05c.67,0,1.18,0,1.57-.08l1.49-.15.28-1.47Q176,16,176.2,15c.15-.69.3-1.31.46-1.89V13c.15-.7.34-1.4.55-2.07l.91-2.85Z" transform="translate(-4.33 -5.81)"/><path class="cls-1" d="M173.14,47.06c.76-3.63,1.5-7.28,2.2-10.84.3-1.5.6-3.06.9-4.69s.59-3.23.87-4.82.53-3.1.75-4.56c.16-1.08.3-2.09.43-3l-.61,0h-.88a8,8,0,0,1-2.32-.35l-.75-.23.05-.79c0-.51,0-1.11,0-1.79s0-1.43.05-2.14.14-3.48.14-3.48l1,.08c.85.06,1.71.11,2.56.15s1.71,0,2.56,0c1.68,0,3.32,0,4.88-.12s3-.18,4.36-.3,2.67-.25,3.94-.42l1.38-.18-.83,4.07c-.16.78-.32,1.55-.47,2.34s-.3,1.51-.43,2.09l-.14.58-.57.16a15.33,15.33,0,0,1-2.38.45c-.5.06-1,.13-1.49.21-.2,1-.4,2-.61,3.09-.27,1.38-.53,2.8-.78,4.28s-.49,3-.72,4.5-.47,3-.7,4.42c-.53,3.27-1,6.71-1.5,10.22l-.09.74-11.17,1.74Z" transform="translate(-4.33 -5.81)"/><path class="cls-2" d="M193.47,10.76l-.55,2.7c-.16.77-.32,1.55-.47,2.35s-.29,1.49-.43,2a14,14,0,0,1-2.22.43c-.75.08-1.49.19-2.23.32q-.34,1.71-.75,3.78c-.26,1.38-.52,2.82-.77,4.3s-.49,3-.73,4.53-.46,3-.7,4.39c-.53,3.31-1,6.72-1.5,10.25l-9,1.41q1.15-5.51,2.2-10.85c.3-1.5.6-3.07.9-4.7s.6-3.25.88-4.83.53-3.12.75-4.6.41-2.84.57-4.08a14.26,14.26,0,0,0-1.74-.11h-.88a6.76,6.76,0,0,1-2-.31c0-.53,0-1.14,0-1.85s0-1.4.05-2.1.07-1.58.1-2.44c.87.06,1.74.11,2.6.14s1.74,0,2.6,0c1.7,0,3.35,0,4.93-.12s3.05-.18,4.4-.3,2.67-.26,4-.43M196,8.42l-2.77.36c-1.25.16-2.56.3-3.89.42s-2.79.21-4.34.29-3.16.12-4.82.12c-.85,0-1.69,0-2.52,0s-1.68-.08-2.52-.15l-2.08-.16L173,11.34c0,.86-.06,1.68-.09,2.44s-.06,1.46-.06,2.18,0,1.23,0,1.73l-.1,1.58,1.51.46a9,9,0,0,0,2.61.39h.34c-.08.61-.18,1.24-.27,1.89-.21,1.46-.46,3-.74,4.54s-.57,3.18-.87,4.81-.6,3.19-.9,4.67c-.7,3.56-1.43,7.2-2.19,10.84l-.6,2.83,2.86-.45,9-1.4,1.48-.23.2-1.48c.46-3.5,1-6.93,1.49-10.2.23-1.4.47-2.87.7-4.41s.47-3,.72-4.5.51-2.92.77-4.25c.16-.85.32-1.65.47-2.4l.76-.09a17.11,17.11,0,0,0,2.53-.49l1.15-.31.27-1.16c.14-.59.29-1.31.44-2.14s.3-1.54.47-2.29l.55-2.73L196,8.42Z" transform="translate(-4.33 -5.81)"/><path class="cls-1" d="M193.83,10.78l18-1.54-.45,1.43a22.13,22.13,0,0,0-.58,2.16c-.17.66-.33,1.31-.48,2s-.27,1.27-.36,1.79l-.14.74-.75.07c-.35,0-.85.06-1.5.08l-2,.05c-.71,0-1.43,0-2.15,0h-1.05l-1.35,6.88c.57,0,1.11-.06,1.64-.07q1.11-.06,2.28-.06c.74,0,1.28,0,1.61,0l1.26-.12-.18,1.26c-.13.93-.25,1.84-.37,2.73s-.26,1.85-.43,2.8l-.14.75-.75.07c-.35,0-.91.06-1.7.08l-2.25.07L200,32l-1.3,7,7.17-1.13-.68,7.75-18.31,2.84Z" transform="translate(-4.33 -5.81)"/><path class="cls-2" d="M210.47,10.36q-.34,1.11-.6,2.25c-.16.64-.32,1.3-.47,2s-.28,1.29-.38,1.83c-.33,0-.81,0-1.42.07l-2,.05c-.7,0-1.41,0-2.12,0h-1.88l-1.75,9,2.9-.15c.74,0,1.49-.05,2.25-.05s1.34,0,1.7,0c-.13.94-.26,1.85-.37,2.75s-.26,1.82-.43,2.76c-.33,0-.87.05-1.62.07s-1.51,0-2.28.08l-2.85.1-1.7,9.2,7.3-1.16-.5,5.71-16.15,2.5,6.55-35.56,15.8-1.35m2.82-2.24-3,.25L194.5,9.72,193,9.85l-.27,1.5L186.16,46.9l-.51,2.77,2.78-.43,16.15-2.5,1.55-.24.14-1.56.5-5.7.22-2.55-2.53.4L200,37.8l.9-4.84,1.25-.05,2.24-.07c.81,0,1.39-.05,1.78-.08l1.51-.15.26-1.49c.17-1,.32-1.92.44-2.85s.24-1.8.37-2.72l.36-2.51-2.52.23c-.21,0-.64,0-1.52,0s-1.57,0-2.34.06h-.35l.94-4.82h.23c.73,0,1.46,0,2.17,0l2-.05c.67,0,1.18,0,1.57-.08l1.49-.15.28-1.47q.15-.78.36-1.77c.15-.69.3-1.31.46-1.89V13a20.31,20.31,0,0,1,.55-2.07l.91-2.85Z" transform="translate(-4.33 -5.81)"/><path class="cls-3" d="M13,46.87a8.84,8.84,0,0,1-2.65-.43,7.57,7.57,0,0,1-2.47-1.29,7,7,0,0,1-1.84-2.21,6.62,6.62,0,0,1-.74-3.17v-.4a2.76,2.76,0,0,1,.06-.57c.13-1.35.35-3,.65-4.94s.62-3.95,1-6.05.7-4.21,1.11-6.35.75-4,1.07-5.77.59-3.19.83-4.35.39-1.89.46-2.17l.17-.68.7-.07,2.5-.25c1-.1,1.88-.18,2.72-.25l4.39-.44-.28,1.35q-1.31,6-2.3,10.94c-.3,1.4-.59,2.8-.88,4.19s-.55,2.7-.8,3.87l-1.1,5.1c-.11.53-.25,1.19-.39,2A11.31,11.31,0,0,0,15,37a1.18,1.18,0,0,0,.19.72c.1.13.16.13.21.13a.72.72,0,0,0,.62-.31,5.2,5.2,0,0,0,.77-1.36,9.06,9.06,0,0,0,.5-1.74c.12-.66.23-1.2.34-1.61l.67-3.17c.24-1.17.49-2.4.74-3.68s.5-2.59.75-3.92.49-2.63.73-3.9c.56-2.91,1.11-6,1.64-9.08l.14-.78L32,7.63,31.71,8.9l-.9,4.75c-.26,1.43-.56,3.06-.87,4.89s-.68,3.78-1.08,5.75-.79,3.93-1.18,5.85-.76,3.69-1.13,5.3a17.14,17.14,0,0,1-2.1,5.16,13.4,13.4,0,0,1-3.24,3.56,12.75,12.75,0,0,1-4,2.06A14.13,14.13,0,0,1,13,46.87Z" transform="translate(-4.33 -5.81)"/><path class="cls-4" d="M19.68,8.62q-1.3,6-2.3,11c-.3,1.4-.59,2.8-.88,4.2s-.55,2.68-.8,3.85-.46,2.17-.65,3-.33,1.54-.45,2.08-.25,1.2-.4,2A12.43,12.43,0,0,0,14,37a2.09,2.09,0,0,0,.4,1.32,1.21,1.21,0,0,0,1,.53,1.73,1.73,0,0,0,1.4-.68,6.29,6.29,0,0,0,.92-1.62,9.8,9.8,0,0,0,.55-1.93c.12-.65.23-1.16.33-1.52.2-1,.42-2.05.67-3.23s.5-2.42.75-3.7.5-2.59.75-3.92.49-2.64.73-3.9c.57-2.94,1.11-6,1.65-9.1l7.6-.5c-.34,1.73-.64,3.31-.9,4.75s-.56,3.06-.88,4.9-.67,3.74-1.07,5.72S27.09,28,26.7,29.94s-.75,3.68-1.12,5.28a16.29,16.29,0,0,1-2,4.85,12.57,12.57,0,0,1-3,3.3,12,12,0,0,1-3.67,1.9,13.2,13.2,0,0,1-3.9.6,7.85,7.85,0,0,1-2.35-.38,6.58,6.58,0,0,1-2.15-1.12A6.13,6.13,0,0,1,7,42.47a5.66,5.66,0,0,1-.62-2.7v-.4a1.33,1.33,0,0,1,0-.4C6.51,37.6,6.73,36,7,34s.61-4,1-6.05.7-4.21,1.1-6.33.76-4,1.07-5.77.59-3.18.83-4.33.38-1.86.45-2.12l2.5-.25c1-.1,1.87-.19,2.7-.25l3.05-.3m2.53-2.27-2.73.28-3,.3c-.82.06-1.73.14-2.72.25l-2.48.24-1.41.14L9.49,8.93c0,.12-.12.47-.47,2.21-.23,1.15-.51,2.62-.83,4.37s-.68,3.65-1.08,5.76S6.33,25.57,6,27.65s-.65,4.12-1,6.06-.51,3.58-.65,4.94a3.51,3.51,0,0,0-.07.72v.4a7.52,7.52,0,0,0,.87,3.65,8,8,0,0,0,2.09,2.52,8.75,8.75,0,0,0,2.79,1.46,9.87,9.87,0,0,0,2.95.47,15.55,15.55,0,0,0,4.49-.69A13.93,13.93,0,0,0,21.81,45a14.4,14.4,0,0,0,3.48-3.82,18.29,18.29,0,0,0,2.23-5.45c.38-1.64.76-3.44,1.14-5.36s.78-3.86,1.18-5.84.76-3.93,1.08-5.78.61-3.45.87-4.88l.9-4.74.49-2.54-2.58.17-7.6.5-1,.06.2-.93Z" transform="translate(-4.33 -5.81)"/><path class="cls-3" d="M34.28,46.07a9.47,9.47,0,0,1-4.48-1.2,13.67,13.67,0,0,1-4.16-3.69l-.39-.5,4.86-9.52.9,1.68a4.55,4.55,0,0,0,.86,1.08,7.09,7.09,0,0,0,1.38,1,10.46,10.46,0,0,0,1.6.75,3.52,3.52,0,0,0,1.23.27,3.32,3.32,0,0,0,1-.16,3.09,3.09,0,0,0,.91-.45,2.21,2.21,0,0,0,.61-.65,1.24,1.24,0,0,0,.18-.69,2.67,2.67,0,0,0-.57-1.63,10.49,10.49,0,0,0-1.76-1.77c-.75-.6-1.57-1.22-2.45-1.84a23.43,23.43,0,0,1-2.58-2.08,12.2,12.2,0,0,1-2.09-2.56,6.41,6.41,0,0,1-1-3.42,9.36,9.36,0,0,1,1.73-5.42,16.33,16.33,0,0,1,4.12-4.13,21.66,21.66,0,0,1,5.32-2.7,16.92,16.92,0,0,1,5.53-1,10.71,10.71,0,0,1,2.81.36,6.45,6.45,0,0,1,2.45,1.24A6.53,6.53,0,0,1,52,11.23a7.47,7.47,0,0,1,.62,3.19A9.44,9.44,0,0,1,52.44,16c-.08.45-.15.94-.22,1.45l-.08.65-9.55,2.77L43,19.17c.06-.24.11-.49.16-.74a3.15,3.15,0,0,0,.06-.61,2.62,2.62,0,0,0-.32-1.57.67.67,0,0,0-.58-.28,1.17,1.17,0,0,0-.51.18,6,6,0,0,0-1,.66,3.57,3.57,0,0,0-.76.88,1.61,1.61,0,0,0-.25.88,2,2,0,0,0,.44,1.35,7.74,7.74,0,0,0,1.48,1.33c.64.45,1.36.92,2.13,1.39a10.53,10.53,0,0,1,2.4,2.07,10.81,10.81,0,0,1,1.85,3.17,13,13,0,0,1,.75,4.74,12.91,12.91,0,0,1-1.17,5.5,13.47,13.47,0,0,1-3.14,4.24A14.08,14.08,0,0,1,40,45.11,16.75,16.75,0,0,1,34.28,46.07Z" transform="translate(-4.33 -5.81)"/><path class="cls-4" d="M45,8.47a9.58,9.58,0,0,1,2.55.32,5.48,5.48,0,0,1,2.07,1.05,5.14,5.14,0,0,1,1.4,1.83,6.36,6.36,0,0,1,.53,2.75,7.45,7.45,0,0,1-.13,1.4c-.08.46-.16,1-.22,1.5L44,19.42c.06-.27.12-.54.17-.8a4.43,4.43,0,0,0,.08-.8,3.58,3.58,0,0,0-.53-2.18A1.65,1.65,0,0,0,42.33,15a2.24,2.24,0,0,0-1,.3A6.79,6.79,0,0,0,40.2,16a4.4,4.4,0,0,0-1,1.13,2.59,2.59,0,0,0-.4,1.4,3,3,0,0,0,.67,2,8.86,8.86,0,0,0,1.68,1.5c.66.46,1.39.94,2.17,1.42a9.32,9.32,0,0,1,2.18,1.88,9.78,9.78,0,0,1,1.67,2.87,12.13,12.13,0,0,1,.68,4.38,11.69,11.69,0,0,1-1.08,5.07,12.18,12.18,0,0,1-2.9,3.93,12.85,12.85,0,0,1-4.3,2.55,15.44,15.44,0,0,1-5.32.9,8.32,8.32,0,0,1-4-1.08,12.68,12.68,0,0,1-3.85-3.42l3.7-7.25a5.41,5.41,0,0,0,1.05,1.32,8.06,8.06,0,0,0,1.57,1.18,13.07,13.07,0,0,0,1.75.82,4.56,4.56,0,0,0,1.58.33,4.39,4.39,0,0,0,1.25-.2,4.5,4.5,0,0,0,1.2-.6,3.32,3.32,0,0,0,.87-.93A2.25,2.25,0,0,0,39.73,34,3.61,3.61,0,0,0,39,31.79,11.36,11.36,0,0,0,37,29.84c-.77-.62-1.6-1.24-2.5-1.87a24,24,0,0,1-2.48-2,11.35,11.35,0,0,1-1.92-2.35,5.39,5.39,0,0,1-.8-2.9,8.32,8.32,0,0,1,1.55-4.85A15.18,15.18,0,0,1,34.75,12a20.39,20.39,0,0,1,5.08-2.57A15.73,15.73,0,0,1,45,8.47m0-2a17.78,17.78,0,0,0-5.85,1.06,22.62,22.62,0,0,0-5.57,2.82,17.36,17.36,0,0,0-4.38,4.38,10.41,10.41,0,0,0-1.9,6,7.38,7.38,0,0,0,1.1,3.94,13.05,13.05,0,0,0,2.26,2.77,24.49,24.49,0,0,0,2.69,2.17c.85.6,1.66,1.21,2.4,1.8A9.51,9.51,0,0,1,37.36,33a1.64,1.64,0,0,1,.37,1,.29.29,0,0,1,0,.17,1.19,1.19,0,0,1-.35.36,1.83,1.83,0,0,1-.61.3,2.1,2.1,0,0,1-.66.12,2.72,2.72,0,0,1-.88-.2,9.53,9.53,0,0,1-1.45-.69,5.85,5.85,0,0,1-1.18-.88,3.39,3.39,0,0,1-.68-.83L30.08,29l-1.73,3.41-3.7,7.25-.58,1.14.79,1a14.5,14.5,0,0,0,4.47,4,10.4,10.4,0,0,0,5,1.32,17.76,17.76,0,0,0,6-1,15,15,0,0,0,5-2.95,14.36,14.36,0,0,0,3.37-4.55,13.8,13.8,0,0,0,1.27-5.93,14.12,14.12,0,0,0-.81-5.11,12.11,12.11,0,0,0-2-3.46,11.66,11.66,0,0,0-2.64-2.26L44,21.51l.58-.17,7.25-2.1,1.27-.37.16-1.31c.06-.49.13-1,.21-1.39a9.57,9.57,0,0,0,.16-1.75,8.3,8.3,0,0,0-.72-3.61A7.43,7.43,0,0,0,50.93,8.3,7.51,7.51,0,0,0,48.1,6.86,11.85,11.85,0,0,0,45,6.47ZM41.77,20a6.35,6.35,0,0,1-.74-.72,1,1,0,0,1-.2-.71.68.68,0,0,1,.1-.36,2.55,2.55,0,0,1,.55-.63,5.61,5.61,0,0,1,.7-.49,5.36,5.36,0,0,1,0,.73,3,3,0,0,1,0,.42c0,.24-.1.46-.15.69L41.77,20Z" transform="translate(-4.33 -5.81)"/><path class="cls-3" d="M53.33,8.53,71.38,7l-.45,1.43c-.22.7-.42,1.43-.58,2.16s-.32,1.31-.47,2-.27,1.27-.37,1.79l-.14.74-.74.07c-.35,0-.85.06-1.5.08l-2,0c-.71,0-1.42,0-2.15,0H62l-1.34,6.87,1.63-.07c.74,0,1.51-.05,2.29-.05s1.27,0,1.61-.05l1.26-.12-.18,1.26c-.14.93-.26,1.84-.38,2.73s-.26,1.85-.43,2.8l-.13.75-.75.07c-.35,0-.92.06-1.7.08s-1.5,0-2.26.08l-2,.07-1.3,7,7.17-1.13-.68,7.75L46.39,46.22Z" transform="translate(-4.33 -5.81)"/><path class="cls-4" d="M70,8.12a20.65,20.65,0,0,0-.6,2.25c-.17.63-.33,1.29-.48,2s-.27,1.29-.37,1.83c-.34,0-.81.05-1.43.07l-2,0q-1,0-2.13,0H61.13l-1.75,9c1-.07,2-.12,2.9-.15.73,0,1.48-.05,2.25-.05s1.33,0,1.7-.05c-.14.93-.26,1.85-.38,2.75s-.26,1.81-.42,2.75c-.34,0-.88.05-1.63.07s-1.51,0-2.27.08l-2.85.1L57,38l7.3-1.15-.5,5.7L47.63,45,54.18,9.47,70,8.12m2.81-2.25-3,.25L54,7.47l-1.52.13-.28,1.5L45.66,44.65l-.51,2.77L47.93,47l16.15-2.5,1.55-.24.14-1.56.5-5.7.22-2.55-2.52.4-4.51.71.89-4.84,1.25-.05,2.25-.07c.8,0,1.38,0,1.78-.08l1.5-.15.27-1.49c.17-1,.32-1.92.44-2.85s.24-1.8.37-2.72l.36-2.51L66,21c-.2,0-.64.05-1.51.05s-1.57,0-2.34.05h-.36l.94-4.81H63c.74,0,1.46,0,2.18,0l2-.05c.66,0,1.17,0,1.57-.08L70.22,16l.27-1.48c.1-.51.22-1.1.37-1.76s.3-1.31.45-1.89v-.09c.15-.7.34-1.4.55-2.07l.91-2.85Z" transform="translate(-4.33 -5.81)"/><path class="cls-3" d="M63.5,44.82q1.35-6.65,2.6-13c.29-1.77.63-3.66,1-5.61s.71-3.87,1-5.78.61-3.76.89-5.55.51-3.39.67-4.83l.08-.64.62-.2A36.89,36.89,0,0,1,76.7,7.85a52,52,0,0,1,6.68-.43,10.69,10.69,0,0,1,3.55.5,5.65,5.65,0,0,1,2.42,1.56,5.8,5.8,0,0,1,1.24,2.32,10.49,10.49,0,0,1,.34,2.72,12.55,12.55,0,0,1-.76,4.26,17.94,17.94,0,0,1-2,3.87A19.74,19.74,0,0,1,85.33,26a15.5,15.5,0,0,1-2.67,2c.5,1.11,1,2.29,1.56,3.55q1,2.39,1.93,4.54c.67,1.68,1.35,3.34,2,5l.41,1-9.73,3.39-.31-1c-.69-2.23-1.29-4.2-1.8-6-.23-.75-.47-1.55-.71-2.38s-.45-1.59-.65-2.33a1.21,1.21,0,0,0,0-.18c0,.22-.08.44-.13.66-.28,1.43-.54,2.8-.77,4.13-.3,1.58-.6,3.16-.9,4.76l-.12.63L63.18,46.39Zm14-22.93.57-.27a15,15,0,0,0,2.46-1.57,14.11,14.11,0,0,0,2-1.88c.59-.7.66-1.08.66-1.2a.27.27,0,0,0,0-.15,1.54,1.54,0,0,0-.57-.27,6.5,6.5,0,0,0-1.17-.19c-.48,0-1,0-1.48,0s-.72,0-1.08,0h-.25Z" transform="translate(-4.33 -5.81)"/><path class="cls-4" d="M83.38,8.42a9.79,9.79,0,0,1,3.22.45,4.63,4.63,0,0,1,2,1.27,4.68,4.68,0,0,1,1,1.93,9.29,9.29,0,0,1,.3,2.45,11.54,11.54,0,0,1-.7,3.92,16.83,16.83,0,0,1-1.88,3.65,18.43,18.43,0,0,1-2.7,3.15,14.74,14.74,0,0,1-3.27,2.33q.9,2,1.92,4.37t1.93,4.53c.66,1.66,1.35,3.33,2,5l-7.75,2.7q-1-3.21-1.8-6c-.24-.77-.47-1.56-.7-2.38s-.45-1.59-.65-2.32-.37-1.4-.5-2a9.74,9.74,0,0,1-.25-1.42l-.65.2c-.2,1.06-.45,2.31-.73,3.75s-.54,2.81-.77,4.15c-.3,1.56-.6,3.15-.9,4.75L64.48,45q1.35-6.66,2.6-13,.45-2.7,1-5.63t1-5.8q.48-2.88.9-5.55c.28-1.78.51-3.41.68-4.87a35.13,35.13,0,0,1,6.15-1.33,51.8,51.8,0,0,1,6.55-.42m-7.15,14.9a7.27,7.27,0,0,0,2.32-.8,16.7,16.7,0,0,0,2.63-1.68,15,15,0,0,0,2.15-2,3.05,3.05,0,0,0,.9-1.85,1.16,1.16,0,0,0-.35-.88,2.38,2.38,0,0,0-1-.5,6.23,6.23,0,0,0-1.37-.22c-.5,0-1,0-1.55,0-.37,0-.74,0-1.13,0l-1,0-1.6,8m7.15-16.9a52.36,52.36,0,0,0-6.81.44,37.31,37.31,0,0,0-6.5,1.4l-1.23.39-.15,1.29c-.16,1.43-.39,3-.66,4.79l-.9,5.53c-.32,1.92-.66,3.85-1,5.76s-.7,3.81-1,5.64c-.84,4.27-1.71,8.63-2.59,13l-.64,3.14L65,47l8.1-2.1,1.23-.32.23-1.24c.3-1.6.6-3.18.9-4.75l.12-.65c.08.29.17.58.26.86.5,1.79,1.1,3.77,1.8,6l.61,2,2-.67,7.75-2.71,2-.7-.82-2c-.71-1.69-1.39-3.36-2-5s-1.26-3-1.94-4.57c-.43-1-.84-1.92-1.21-2.78A18,18,0,0,0,86,26.7a20.67,20.67,0,0,0,3-3.48,18.88,18.88,0,0,0,2.11-4.09,13.67,13.67,0,0,0,.82-4.61,11.15,11.15,0,0,0-.38-3A6.42,6.42,0,0,0,87.27,7a11.67,11.67,0,0,0-3.89-.56Zm-3.91,10.9H80c.48,0,1,0,1.42,0a3.86,3.86,0,0,1,.49.06l-.08.09A12.58,12.58,0,0,1,80,19.26c-.33.26-.67.5-1,.72l.53-2.66Z" transform="translate(-4.33 -5.81)"/><path class="cls-3" d="M99.23,46.22c-.5,0-1,0-1.51-.08L96.29,46l-1.05-.15.2-1q1.35-6.9,2.65-13.45c.33-1.82.69-3.73,1-5.71s.72-3.93,1-5.86.66-3.79,1-5.56.57-3.36.77-4.76l.1-.72.7-.13q2.16-.4,4.38-.75a29.8,29.8,0,0,1,4.66-.36,11.93,11.93,0,0,1,5,.94,9,9,0,0,1,3.43,2.64,10.85,10.85,0,0,1,1.9,3.85,17,17,0,0,1,.59,4.52,23.35,23.35,0,0,1-.79,5.77,34.11,34.11,0,0,1-2.16,6,32.56,32.56,0,0,1-3.43,5.67,26.1,26.1,0,0,1-4.65,4.79,23.63,23.63,0,0,1-5.72,3.31A17.75,17.75,0,0,1,99.23,46.22ZM110.7,16.56c-.32,1.68-.66,3.3-1,4.82q-.6,2.7-1.2,5.45c-.4,1.83-.79,3.74-1.19,5.73-.24,1.16-.46,2.39-.68,3.67l.1-.12a21,21,0,0,0,2-3,35.92,35.92,0,0,0,1.78-3.69c.53-1.3,1-2.58,1.39-3.83a30.37,30.37,0,0,0,.9-3.44,14.5,14.5,0,0,0,.31-2.65,3.07,3.07,0,0,0-.74-2.21A2.87,2.87,0,0,0,110.7,16.56Z" transform="translate(-4.33 -5.81)"/><path class="cls-4" d="M111.78,8.47a11,11,0,0,1,4.57.85,7.89,7.89,0,0,1,3.05,2.35,9.9,9.9,0,0,1,1.73,3.5,16.22,16.22,0,0,1,.55,4.25,22.26,22.26,0,0,1-.75,5.52,32.9,32.9,0,0,1-2.1,5.8,30.89,30.89,0,0,1-3.33,5.5,25.33,25.33,0,0,1-4.47,4.6A22.22,22.22,0,0,1,105.55,44a16.72,16.72,0,0,1-6.32,1.2,13,13,0,0,1-1.4-.08L96.43,45q1.35-6.9,2.65-13.45.49-2.76,1-5.73t1.05-5.87q.5-2.91,1-5.55t.78-4.8q2.14-.4,4.35-.75a27.71,27.71,0,0,1,4.5-.35m-6.6,30.45a10.89,10.89,0,0,0,2.32-2.18,21.86,21.86,0,0,0,2.13-3.17,38.11,38.11,0,0,0,1.82-3.8c.55-1.34,1-2.64,1.43-3.9a34,34,0,0,0,.92-3.55,14.84,14.84,0,0,0,.33-2.85,4,4,0,0,0-1-2.9,4.33,4.33,0,0,0-3.22-1.05c-.37,2-.75,3.85-1.15,5.65s-.8,3.61-1.2,5.45-.8,3.75-1.2,5.75-.79,4.18-1.15,6.55m6.6-32.45a30.73,30.73,0,0,0-4.82.37c-1.48.24-3,.49-4.4.76l-1.42.26L101,9.29c-.2,1.39-.46,3-.77,4.72s-.64,3.63-1,5.57-.68,3.91-1,5.85-.72,3.89-1,5.73q-1.29,6.51-2.65,13.42l-.4,2.07,2.08.3,1.47.18a14.66,14.66,0,0,0,1.62.09,18.84,18.84,0,0,0,7.07-1.35,24.35,24.35,0,0,0,6-3.46,26.8,26.8,0,0,0,4.83-5,33.89,33.89,0,0,0,3.54-5.85,35.76,35.76,0,0,0,2.22-6.15,24.41,24.41,0,0,0,.82-6,17.74,17.74,0,0,0-.63-4.78A11.85,11.85,0,0,0,121,10.43a10,10,0,0,0-3.8-2.94,13.14,13.14,0,0,0-5.4-1ZM108.6,31.22c.29-1.42.58-2.82.88-4.18q.6-2.74,1.2-5.44c.27-1.21.53-2.48.79-3.79a1.15,1.15,0,0,1,.2.15,2,2,0,0,1,.46,1.51,13.32,13.32,0,0,1-.29,2.46,31.17,31.17,0,0,1-.87,3.33c-.38,1.22-.84,2.48-1.37,3.74-.31.76-.65,1.5-1,2.22Z" transform="translate(-4.33 -5.81)"/><path class="cls-3" d="M124.38,8.53,142.43,7,142,8.42c-.22.7-.42,1.43-.58,2.16s-.33,1.31-.47,2-.27,1.27-.37,1.79l-.14.74-.74.07c-.36,0-.86.06-1.5.08l-2,0c-.71,0-1.43,0-2.15,0H133l-1.34,6.87,1.63-.07c.74,0,1.5-.05,2.29-.05s1.27,0,1.6-.05l1.27-.12-.18,1.26c-.14.93-.26,1.84-.38,2.73s-.26,1.85-.43,2.8l-.13.75-.76.07c-.35,0-.91.06-1.7.08s-1.49,0-2.25.08l-2.06.07-1.29,7,7.16-1.13-.68,7.75-18.31,2.84Z" transform="translate(-4.33 -5.81)"/><path class="cls-4" d="M141,8.12a20.65,20.65,0,0,0-.6,2.25c-.17.63-.33,1.29-.48,2s-.27,1.29-.37,1.83c-.34,0-.81.05-1.43.07l-2,0q-1.05,0-2.13,0h-1.87l-1.75,9c1-.07,2-.12,2.9-.15.73,0,1.48-.05,2.25-.05s1.33,0,1.7-.05c-.14.93-.26,1.85-.38,2.75s-.26,1.81-.42,2.75c-.34,0-.88.05-1.63.07s-1.51,0-2.27.08l-2.85.1L128,38l7.3-1.15-.5,5.7L118.68,45l6.55-35.55L141,8.12m2.81-2.25-3,.25-15.8,1.35-1.52.13-.28,1.5-6.55,35.55-.51,2.77L119,47l16.15-2.5,1.55-.24.14-1.56.5-5.7.22-2.55-2.53.4-4.5.71.89-4.84,1.25-.05,2.25-.07c.8,0,1.38,0,1.77-.08l1.51-.15.26-1.49c.18-1,.32-1.92.44-2.85s.24-1.8.38-2.72l.35-2.51-2.52.23c-.21,0-.64.05-1.51.05s-1.57,0-2.34.05h-.36l.94-4.81h.23c.73,0,1.46,0,2.17,0l2-.05c.66,0,1.17,0,1.56-.08l1.49-.15.28-1.47q.15-.78.36-1.77c.16-.69.31-1.31.46-1.89v-.09c.15-.7.34-1.39.55-2.07l.91-2.85Z" transform="translate(-4.33 -5.81)"/><path class="cls-3" d="M134.93,44.93c.2-1.5.44-3.17.71-5s.57-3.75.93-5.73.7-3.95,1.05-5.95.71-4,1.07-5.77c.83-4.32,1.72-8.81,2.66-13.36l.14-.69L152.38,7l-.33,1.4q-1.35,5.81-2.6,11.3c-.37,1.57-.73,3.19-1.1,4.86s-.71,3.32-1,4.92-.63,3.12-.9,4.62c-.18,1-.33,1.91-.46,2.75l1.48-.05c1,0,1.81,0,2.55,0h1l0,.95c0,.61.08,1.22.15,1.81s.14,1.14.22,1.62.15,1,.2,1.36.08.55.1.66l.32,1.25h-1.28c-.3,0-.58,0-.85,0s-.46,0-.7,0c-1,0-2.09,0-3.22.09s-2.28.17-3.42.3-2.27.3-3.35.51a23,23,0,0,0-2.9.75l-1.52.5Z" transform="translate(-4.33 -5.81)"/><path class="cls-4" d="M151.08,8.17q-1.37,5.79-2.6,11.3c-.37,1.56-.74,3.19-1.1,4.87s-.72,3.33-1,4.93-.64,3.15-.91,4.65-.48,2.83-.64,4c.83-.07,1.72-.11,2.67-.13s1.79,0,2.53,0c0,.63.08,1.25.15,1.87s.14,1.18.22,1.68.15.94.2,1.32.09.64.12.78c-.26,0-.52,0-.77,0s-.51,0-.77,0c-1,0-2.13,0-3.28.1s-2.31.16-3.47.3-2.31.3-3.43.52a25.11,25.11,0,0,0-3,.78c.21-1.5.44-3.17.71-5s.57-3.74.92-5.7.7-3.95,1-5.95.71-3.92,1.07-5.75q1.26-6.55,2.66-13.35l8.75-1.15m2.6-2.36-2.87.37-8.75,1.15-1.41.19-.28,1.39c-.94,4.55-1.83,9.05-2.66,13.38-.36,1.8-.72,3.75-1.08,5.78s-.7,4-1,5.94-.67,3.94-.93,5.77-.51,3.51-.71,5L133.52,48l3-1a22.23,22.23,0,0,1,2.77-.71c1.06-.2,2.16-.37,3.27-.5s2.25-.22,3.37-.29,2.18-.09,3.16-.09c.22,0,.43,0,.64,0s.59,0,.9,0h2.57l-.62-2.49c0-.1-.05-.28-.09-.55s-.12-.86-.21-1.39-.14-1-.21-1.56-.11-1.17-.14-1.77l-.09-1.89H150c-.75,0-1.6,0-2.56,0h-.29c.08-.49.17-1,.26-1.53.27-1.49.57-3,.89-4.6s.68-3.23,1.05-4.9.73-3.28,1.09-4.85q1.26-5.51,2.6-11.3l.66-2.81Z" transform="translate(-4.33 -5.81)"/><path class="cls-3" d="M156.53,8.53,174.58,7l-.45,1.43a22.13,22.13,0,0,0-.58,2.16c-.17.66-.33,1.31-.47,2s-.27,1.27-.37,1.79l-.14.74-.75.07c-.35,0-.85.06-1.49.08l-2,0c-.71,0-1.43,0-2.15,0h-1l-1.35,6.87,1.64-.07c.74,0,1.5-.05,2.28-.05s1.28,0,1.61-.05l1.26-.12-.18,1.26c-.13.93-.25,1.84-.37,2.73s-.26,1.85-.43,2.8l-.13.75-.76.07c-.35,0-.91.06-1.7.08s-1.49,0-2.25.08l-2.06.07-1.3,7,7.17-1.13-.68,7.75-18.31,2.84Z" transform="translate(-4.33 -5.81)"/><path class="cls-4" d="M173.17,8.12q-.34,1.1-.6,2.25c-.16.63-.32,1.29-.47,2s-.28,1.29-.38,1.83c-.33,0-.8.05-1.42.07l-2,0c-.7,0-1.4,0-2.12,0h-1.88l-1.75,9c1-.07,2-.12,2.9-.15.74,0,1.49-.05,2.25-.05s1.34,0,1.7-.05c-.13.93-.25,1.85-.37,2.75s-.26,1.81-.43,2.75c-.33,0-.87.05-1.62.07s-1.51,0-2.28.08l-2.85.1-1.7,9.2,7.3-1.15-.5,5.7L150.82,45l6.55-35.55,15.8-1.35M176,5.87l-3,.25L157.2,7.47l-1.52.13-.27,1.5-6.55,35.55-.51,2.77,2.78-.43,16.15-2.5,1.55-.24.14-1.56.5-5.7.22-2.55-2.53.4-4.51.71.9-4.84,1.25-.05,2.24-.07c.81,0,1.39,0,1.78-.08l1.51-.15.26-1.49c.17-1,.32-1.92.44-2.85s.24-1.8.37-2.72l.36-2.51-2.52.23c-.21,0-.64.05-1.52.05s-1.56,0-2.34.05H165l.94-4.81h.23c.73,0,1.46,0,2.17,0l2-.05c.67,0,1.18,0,1.57-.08l1.49-.15.28-1.47q.15-.78.36-1.77c.15-.69.3-1.31.46-1.89v-.09c.15-.7.34-1.39.55-2.07L176,5.87Z" transform="translate(-4.33 -5.81)"/><path class="cls-3" d="M171,44.81c.76-3.63,1.49-7.28,2.19-10.84.3-1.49.6-3.06.9-4.68s.59-3.24.87-4.83.53-3.09.75-4.56c.16-1.08.3-2.09.43-3l-.61,0h-.88a8,8,0,0,1-2.32-.35l-.75-.23,0-.78c0-.52,0-1.12,0-1.79s0-1.44.05-2.15.14-3.48.14-3.48l1,.08c.85.06,1.71.11,2.56.15s1.71,0,2.56,0c1.68,0,3.32,0,4.88-.13s3-.18,4.36-.3,2.67-.25,3.94-.42l1.38-.17-.83,4.07c-.16.77-.32,1.54-.47,2.33s-.3,1.52-.43,2.09l-.14.58-.57.16a16.65,16.65,0,0,1-2.38.46c-.5.05-1,.12-1.49.2-.2,1-.4,2-.61,3.09-.27,1.38-.53,2.8-.77,4.28s-.5,3-.73,4.51-.47,3-.7,4.41c-.53,3.27-1,6.71-1.49,10.22l-.1.74L170.7,46.23Z" transform="translate(-4.33 -5.81)"/><path class="cls-4" d="M191.32,8.52l-.55,2.7c-.16.76-.32,1.55-.47,2.35s-.29,1.48-.43,2a14,14,0,0,1-2.22.42c-.75.08-1.49.19-2.23.33-.23,1.13-.48,2.39-.75,3.77s-.52,2.82-.77,4.3-.49,3-.73,4.53-.46,3-.7,4.4c-.53,3.3-1,6.71-1.5,10.25L172,45q1.16-5.51,2.2-10.85c.3-1.5.6-3.07.9-4.7s.6-3.25.88-4.83.53-3.12.75-4.6.41-2.84.57-4.07a12.5,12.5,0,0,0-1.74-.12l-.58,0h-.3a7.08,7.08,0,0,1-2-.3c0-.54,0-1.15,0-1.85s0-1.4.05-2.1.07-1.59.1-2.45l2.6.15c.87,0,1.74,0,2.6,0,1.7,0,3.35,0,4.93-.13s3.05-.18,4.4-.3,2.67-.26,4-.42m2.52-2.35-2.77.36c-1.25.16-2.56.3-3.89.42s-2.79.21-4.34.29-3.16.13-4.82.13c-.85,0-1.69,0-2.52,0s-1.68-.08-2.52-.15L170.9,7l-.08,2.08c0,.86-.06,1.68-.09,2.44s-.06,1.46-.06,2.19,0,1.22,0,1.73l-.1,1.57,1.51.46a9,9,0,0,0,2.61.39H175c-.08.6-.18,1.23-.27,1.88-.21,1.46-.46,3-.74,4.54s-.57,3.18-.87,4.81-.6,3.19-.9,4.67c-.7,3.56-1.43,7.21-2.19,10.84l-.6,2.83,2.86-.45,9-1.4,1.48-.23.2-1.48c.46-3.5,1-6.93,1.49-10.2.23-1.39.47-2.87.7-4.41s.47-3,.72-4.5.51-2.92.77-4.25c.16-.85.32-1.65.47-2.4l.76-.09a16.84,16.84,0,0,0,2.53-.48l1.15-.32.27-1.16c.14-.59.29-1.31.44-2.13s.3-1.55.47-2.3l.55-2.73.56-2.74Z" transform="translate(-4.33 -5.81)"/><path class="cls-3" d="M191.68,8.53l18-1.54-.45,1.43a22.13,22.13,0,0,0-.58,2.16c-.17.66-.33,1.31-.48,2s-.26,1.27-.36,1.79l-.14.74-.75.07c-.35,0-.85.06-1.5.08l-2,0c-.71,0-1.43,0-2.15,0h-1L199,22.19l1.64-.07c.74,0,1.5-.05,2.28-.05s1.28,0,1.61-.05l1.26-.12-.18,1.26c-.13.93-.25,1.84-.37,2.73s-.26,1.85-.43,2.8l-.13.75-.76.07c-.35,0-.91.06-1.7.08s-1.49,0-2.25.08l-2.06.07-1.3,7,7.17-1.13-.68,7.75-18.31,2.84Z" transform="translate(-4.33 -5.81)"/><path class="cls-4" d="M208.32,8.12q-.34,1.1-.6,2.25c-.16.63-.32,1.29-.47,2s-.28,1.29-.38,1.83c-.33,0-.81.05-1.42.07l-2,0c-.7,0-1.41,0-2.12,0h-1.88l-1.75,9c1-.07,2-.12,2.9-.15.74,0,1.49-.05,2.25-.05s1.34,0,1.7-.05c-.13.93-.26,1.85-.37,2.75s-.26,1.81-.43,2.75c-.33,0-.87.05-1.62.07s-1.51,0-2.28.08l-2.85.1-1.7,9.2,7.3-1.15-.5,5.7L186,45l6.55-35.55,15.8-1.35m2.82-2.25-3,.25-15.8,1.35-1.52.13-.27,1.5L184,44.65l-.51,2.77,2.78-.43,16.15-2.5,1.55-.24.14-1.56.5-5.7.22-2.55-2.53.4-4.51.71.9-4.84,1.25-.05,2.24-.07c.81,0,1.39,0,1.78-.08l1.51-.15.26-1.49c.17-1,.32-1.92.44-2.85s.24-1.8.37-2.72l.36-2.51-2.52.23c-.21,0-.64.05-1.52.05s-1.57,0-2.34.05h-.35l.94-4.81h.23c.73,0,1.46,0,2.17,0l2-.05c.67,0,1.18,0,1.57-.08l1.49-.15.28-1.47q.15-.78.36-1.77c.15-.69.3-1.31.46-1.89v-.09c.15-.7.34-1.39.55-2.07l.91-2.85Z" transform="translate(-4.33 -5.81)"/></svg>