<svg id="Layer_1" data-name="Layer 1" xmlns="http://www.w3.org/2000/svg" viewBox="0 0 198.14 45.13"><defs><style>.cls-1{fill:#ee7475;}.cls-2{fill:#fff;}.cls-3{fill:#1d1d1b;}</style></defs><path class="cls-1" d="M7.13,46.61c.39-1.4.78-3,1.16-4.76s.76-3.65,1.14-5.61.75-3.94,1.1-6,.69-4,1-5.83c.69-4.36,1.4-9,2.1-13.73l.12-.81L32.67,9l-1.94,8.21h-7.8l-1.2,6.87,1.76,0h2.35c.77,0,1.37,0,1.77-.05l1.2-.09-.13,1.2c-.1.95-.23,1.89-.38,2.81s-.29,1.78-.42,2.68l-.13.85h-.86l-1.87,0-2.5-.08-2-.07L18.27,45.84l-.71.13c-1.12.19-2.22.41-3.31.64s-2,.37-3.05.6-2,.44-2.88.64l-1.65.4Z" transform="translate(-3.44 -4.71)"/><path class="cls-1" d="M31.39,10l-1.45,6.15H22.09l-1.55,8.9c1,0,2,0,2.95,0h2.35c.8,0,1.42,0,1.85-.05-.1.93-.23,1.85-.38,2.75s-.29,1.8-.42,2.7l-1.85,0-2.48-.08-2.87-.1L17.39,45c-1.13.2-2.25.42-3.35.65-.93.17-1.95.37-3,.6s-2.07.45-2.9.65c.4-1.43.79-3,1.17-4.82s.77-3.66,1.15-5.63.75-4,1.1-6,.7-4,1-5.83q1.05-6.64,2.1-13.75L31.39,10M34,7.9,31.29,8l-16.75.85L12.9,9l-.24,1.62c-.7,4.74-1.41,9.36-2.1,13.73-.32,1.83-.67,3.77-1,5.79s-.71,4-1.09,5.94-.76,3.8-1.14,5.59S6.55,45,6.16,46.34l-.91,3.28,3.31-.79c.78-.19,1.71-.4,2.85-.64s2.09-.43,3-.59h.06c1.11-.23,2.21-.45,3.29-.64l1.41-.25.22-1.41,2-13,1.1,0,2.51.08,1.89,0h1.73l.25-1.71c.13-.88.27-1.77.42-2.66s.28-1.9.39-2.87l.25-2.39-2.4.19c-.37,0-.94,0-1.69,0H22.93l.84-4.85h7.75l.37-1.54,1.45-6.15L34,7.9Z" transform="translate(-3.44 -4.71)"/><path class="cls-1" d="M34,48a8,8,0,0,1-3.42-.72,7.59,7.59,0,0,1-2.71-2.12,10,10,0,0,1-1.75-3.5,17.3,17.3,0,0,1-.62-4.91,28,28,0,0,1,.72-6.12,43.9,43.9,0,0,1,1.95-6.3,34.92,34.92,0,0,1,3-6,29.68,29.68,0,0,1,4-5,19.11,19.11,0,0,1,4.75-3.56,11.74,11.74,0,0,1,5.46-1.36,7.84,7.84,0,0,1,4.25,1.08,7.53,7.53,0,0,1,2.65,2.76,11.83,11.83,0,0,1,1.28,3.63,20.39,20.39,0,0,1,.37,3.88,34.48,34.48,0,0,1-.9,8,34.94,34.94,0,0,1-2.4,6.85,28.42,28.42,0,0,1-3.5,5.6A27.68,27.68,0,0,1,43,44.39a18.3,18.3,0,0,1-4.49,2.69A12,12,0,0,1,34,48Zm9.65-27.1a4.7,4.7,0,0,0-2.44.66A8.19,8.19,0,0,0,39,23.49a14.15,14.15,0,0,0-1.75,2.8A29.64,29.64,0,0,0,36,29.57a19,19,0,0,0-.78,3.21,18.22,18.22,0,0,0-.24,2.7,2.56,2.56,0,0,0,.15.83,2.26,2.26,0,0,0,1,1.3,1.07,1.07,0,0,0,.6.17A4.84,4.84,0,0,0,40,36.48,12,12,0,0,0,42.7,33a20.8,20.8,0,0,0,1.69-4.59A18.55,18.55,0,0,0,45,24a10.33,10.33,0,0,0-.07-1.19,4.33,4.33,0,0,0-.24-1.06,1.73,1.73,0,0,0-.43-.63A.84.84,0,0,0,43.64,20.93Z" transform="translate(-3.44 -4.71)"/><path class="cls-1" d="M45.39,9.43a6.84,6.84,0,0,1,3.72.93,6.45,6.45,0,0,1,2.3,2.4,10.81,10.81,0,0,1,1.18,3.32,20.15,20.15,0,0,1,.35,3.7,32.57,32.57,0,0,1-.88,7.73,33.36,33.36,0,0,1-2.32,6.65,27.46,27.46,0,0,1-3.38,5.4,26.57,26.57,0,0,1-4,4,17.81,17.81,0,0,1-4.25,2.55A10.92,10.92,0,0,1,34,47a7.15,7.15,0,0,1-3-.62,6.64,6.64,0,0,1-2.35-1.85,9.12,9.12,0,0,1-1.58-3.15,16.5,16.5,0,0,1-.57-4.63,26.61,26.61,0,0,1,.7-5.9,42.28,42.28,0,0,1,1.9-6.15A33.65,33.65,0,0,1,32,18.93a29.2,29.2,0,0,1,3.85-4.87,17.94,17.94,0,0,1,4.5-3.38,10.74,10.74,0,0,1,5-1.25m-8.7,29.35a5.84,5.84,0,0,0,4-1.55,12.74,12.74,0,0,0,2.9-3.8,21.51,21.51,0,0,0,1.77-4.8A19.53,19.53,0,0,0,46,24a12.39,12.39,0,0,0-.08-1.3,5.37,5.37,0,0,0-.3-1.3,2.49,2.49,0,0,0-.7-1,1.79,1.79,0,0,0-1.27-.43,5.7,5.7,0,0,0-3,.8,9,9,0,0,0-2.43,2.13,14.94,14.94,0,0,0-1.87,3A31,31,0,0,0,35,29.26a20.89,20.89,0,0,0-.82,3.37,19,19,0,0,0-.25,2.85,3.71,3.71,0,0,0,.2,1.15,3.49,3.49,0,0,0,.55,1,3.28,3.28,0,0,0,.87.78,2.17,2.17,0,0,0,1.13.32m8.7-31.35a12.7,12.7,0,0,0-5.92,1.48,19.92,19.92,0,0,0-5,3.74,30.92,30.92,0,0,0-4.12,5.21A35.43,35.43,0,0,0,27.23,24a43,43,0,0,0-2,6.44,28.71,28.71,0,0,0-.75,6.34,18.21,18.21,0,0,0,.66,5.2,10.92,10.92,0,0,0,1.94,3.84,8.45,8.45,0,0,0,3.06,2.4A9,9,0,0,0,34,49a12.88,12.88,0,0,0,4.85-1,19.39,19.39,0,0,0,4.75-2.84,29.2,29.2,0,0,0,4.33-4.35A29.67,29.67,0,0,0,51.54,35,36.23,36.23,0,0,0,54,28a34.92,34.92,0,0,0,.93-8.2,21.58,21.58,0,0,0-.39-4.07,13,13,0,0,0-1.39-3.93,8.72,8.72,0,0,0-3-3.12,9,9,0,0,0-4.79-1.23Zm-8.7,29.35-.07,0a1.19,1.19,0,0,1-.35-.31A1.36,1.36,0,0,1,36,36a1.58,1.58,0,0,1-.1-.52,17.72,17.72,0,0,1,.23-2.55,17.9,17.9,0,0,1,.74-3,29.59,29.59,0,0,1,1.28-3.17,12.9,12.9,0,0,1,1.63-2.6,7,7,0,0,1,1.89-1.67,3.68,3.68,0,0,1,1.93-.52h0a.71.71,0,0,1,.08.15,3.8,3.8,0,0,1,.19.82A10.64,10.64,0,0,1,44,24a17.72,17.72,0,0,1-.57,4.18,20.26,20.26,0,0,1-1.61,4.36,10.73,10.73,0,0,1-2.45,3.21,3.8,3.8,0,0,1-2.67,1.05Z" transform="translate(-3.44 -4.71)"/><path class="cls-1" d="M49.2,46.8c.2-1.5.43-3.17.7-5s.58-3.76.93-5.73.7-4,1.05-6,.71-4,1.08-5.78c.82-4.3,1.71-8.8,2.65-13.35l.14-.7L66.64,8.85l-.33,1.41Q65,16,63.71,21.55c-.36,1.57-.73,3.19-1.09,4.87s-.72,3.32-1,4.92-.63,3.14-.9,4.62c-.17,1-.33,1.9-.46,2.75.48,0,1,0,1.49-.05l2.54,0h1l0,.95c0,.61.08,1.22.14,1.82s.14,1.13.22,1.62.15,1,.21,1.36.07.54.1.66l.31,1.24H64.94c-.29,0-.57,0-.85,0l-.7,0c-1,0-2.08,0-3.22.1s-2.28.17-3.42.29-2.26.31-3.35.52a24.9,24.9,0,0,0-2.9.74L49,48.39Z" transform="translate(-3.44 -4.71)"/><path class="cls-1" d="M65.34,10q-1.35,5.81-2.6,11.3c-.37,1.57-.73,3.19-1.1,4.88s-.72,3.32-1,4.92-.64,3.15-.9,4.65-.49,2.83-.65,4c.83-.06,1.72-.11,2.67-.12l2.53,0c0,.64.08,1.26.15,1.88s.14,1.17.22,1.67.15.94.2,1.33.1.64.13.77l-.78,0c-.25,0-.5,0-.77,0-1,0-2.13,0-3.28.1s-2.31.17-3.47.3-2.31.31-3.43.53a23.26,23.26,0,0,0-3,.77c.2-1.5.43-3.16.7-5s.57-3.73.92-5.7.7-3.95,1-5.95.71-3.92,1.08-5.75c.83-4.37,1.72-8.81,2.65-13.35L65.34,10m2.6-2.36-2.86.38L56.33,9.2l-1.41.18-.29,1.4c-.94,4.56-1.83,9.06-2.66,13.38-.36,1.8-.72,3.75-1.08,5.78s-.7,4-1,5.94-.66,3.93-.93,5.76-.5,3.52-.7,5l-.43,3.17,3-1a22.69,22.69,0,0,1,2.77-.71c1.06-.2,2.16-.37,3.28-.5s2.25-.23,3.36-.29,2.18-.1,3.16-.1l.64,0c.29,0,.59,0,.91,0h2.57l-.63-2.49a5.45,5.45,0,0,1-.08-.54l-.21-1.4c-.08-.46-.15-1-.21-1.56s-.11-1.17-.14-1.76l-.1-1.9h-1.9l-2.56,0h-.29c.09-.49.17-1,.27-1.53.26-1.46.56-3,.89-4.59s.68-3.23,1-4.91.74-3.32,1.1-4.84c.83-3.68,1.7-7.44,2.6-11.31l.65-2.81Z" transform="translate(-3.44 -4.71)"/><path class="cls-1" d="M64.3,46.8c.2-1.5.43-3.17.7-5s.58-3.76.93-5.73.7-4,1-6,.71-4,1.08-5.78c.82-4.3,1.71-8.8,2.65-13.35l.14-.7L81.74,8.85l-.33,1.41Q80.06,16,78.81,21.55c-.36,1.57-.73,3.19-1.1,4.87s-.71,3.32-1,4.92S76,34.46,75.77,36c-.17,1-.33,1.91-.46,2.75.48,0,1,0,1.49-.05l2.54,0h1l0,.95c0,.61.08,1.22.14,1.82s.14,1.13.22,1.62.15,1,.2,1.36.08.55.11.66l.31,1.24H80c-.29,0-.57,0-.85,0l-.7,0c-1,0-2.08,0-3.22.1s-2.28.17-3.42.29-2.26.31-3.35.52a24.9,24.9,0,0,0-2.9.74l-1.51.51Z" transform="translate(-3.44 -4.71)"/><path class="cls-1" d="M80.44,10q-1.35,5.81-2.6,11.3c-.37,1.57-.74,3.19-1.1,4.88s-.72,3.32-1,4.92-.64,3.15-.9,4.65-.49,2.83-.65,4c.83-.06,1.72-.11,2.67-.12l2.53,0c0,.64.08,1.26.15,1.88s.14,1.17.22,1.67.15.94.2,1.33a6,6,0,0,0,.13.77l-.78,0c-.25,0-.51,0-.77,0-1,0-2.13,0-3.28.1s-2.31.17-3.47.3-2.31.31-3.43.53a23.26,23.26,0,0,0-3,.77c.2-1.5.43-3.16.7-5s.57-3.73.92-5.7.7-3.95,1-5.95.71-3.92,1.08-5.75c.83-4.37,1.71-8.81,2.65-13.35L80.44,10M83,7.67l-2.86.38L71.43,9.2,70,9.38l-.29,1.4c-.94,4.56-1.83,9.06-2.66,13.38-.36,1.8-.72,3.75-1.08,5.78s-.7,4-1,5.94-.66,3.93-.93,5.76-.5,3.52-.7,5l-.43,3.17,3-1a22.69,22.69,0,0,1,2.77-.71c1.06-.2,2.16-.37,3.28-.5s2.25-.23,3.36-.29,2.18-.1,3.16-.1l.64,0c.29,0,.59,0,.91,0H82.6L82,44.8c0-.1,0-.29-.08-.56l-.21-1.38c-.08-.47-.15-1-.21-1.57s-.11-1.17-.14-1.76l-.1-1.9h-1.9l-2.56,0h-.29q.12-.73.27-1.53c.26-1.49.56-3,.89-4.59s.68-3.23,1-4.91.73-3.27,1.1-4.84q1.24-5.52,2.6-11.3L83,7.67Z" transform="translate(-3.44 -4.71)"/><path class="cls-1" d="M88.84,48a8,8,0,0,1-3.42-.72,7.59,7.59,0,0,1-2.71-2.12A10,10,0,0,1,81,41.69a17.33,17.33,0,0,1-.61-4.91,28,28,0,0,1,.72-6.12,43.13,43.13,0,0,1,2-6.3,35.61,35.61,0,0,1,3-6,30.23,30.23,0,0,1,4-5,19.11,19.11,0,0,1,4.75-3.56,11.74,11.74,0,0,1,5.46-1.36,7.84,7.84,0,0,1,4.25,1.08,7.51,7.51,0,0,1,2.64,2.76,11.88,11.88,0,0,1,1.29,3.62,21.52,21.52,0,0,1,.37,3.89,33.93,33.93,0,0,1-.91,8,34.29,34.29,0,0,1-2.39,6.85,28.42,28.42,0,0,1-3.5,5.6,27.68,27.68,0,0,1-4.18,4.2,18.17,18.17,0,0,1-4.5,2.69A11.86,11.86,0,0,1,88.84,48Zm9.65-27.1a4.7,4.7,0,0,0-2.44.66,8,8,0,0,0-2.16,1.9,13.7,13.7,0,0,0-1.75,2.8,29.64,29.64,0,0,0-1.33,3.28A19,19,0,0,0,90,32.78a18.22,18.22,0,0,0-.24,2.7,2.56,2.56,0,0,0,.15.83,2.28,2.28,0,0,0,.39.76,2.48,2.48,0,0,0,.61.54,1.07,1.07,0,0,0,.6.17,4.79,4.79,0,0,0,3.33-1.3A11.8,11.8,0,0,0,97.55,33a21.86,21.86,0,0,0,1.69-4.59,18.49,18.49,0,0,0,.6-4.41c0-.37,0-.77-.07-1.19a4.33,4.33,0,0,0-.24-1.06,1.64,1.64,0,0,0-.44-.63A.9.9,0,0,0,98.49,20.93Z" transform="translate(-3.44 -4.71)"/><path class="cls-1" d="M100.24,9.43a6.84,6.84,0,0,1,3.72.93,6.45,6.45,0,0,1,2.3,2.4,11.07,11.07,0,0,1,1.18,3.32,20.15,20.15,0,0,1,.35,3.7,32.57,32.57,0,0,1-.88,7.73,34,34,0,0,1-2.32,6.65,27.46,27.46,0,0,1-3.38,5.4,26.57,26.57,0,0,1-4,4,17.81,17.81,0,0,1-4.25,2.55,11,11,0,0,1-4.1.87,7.15,7.15,0,0,1-3-.62,6.64,6.64,0,0,1-2.35-1.85,9.12,9.12,0,0,1-1.58-3.15,16.5,16.5,0,0,1-.57-4.63,26.61,26.61,0,0,1,.7-5.9,41.08,41.08,0,0,1,1.9-6.15,33.65,33.65,0,0,1,3-5.8,28.7,28.7,0,0,1,3.85-4.87,17.94,17.94,0,0,1,4.5-3.38,10.71,10.71,0,0,1,5-1.25m-8.7,29.35a5.84,5.84,0,0,0,4-1.55,12.9,12.9,0,0,0,2.9-3.8,22,22,0,0,0,1.77-4.8,19.53,19.53,0,0,0,.63-4.65,12.39,12.39,0,0,0-.08-1.3,5.37,5.37,0,0,0-.3-1.3,2.49,2.49,0,0,0-.7-1,1.79,1.79,0,0,0-1.27-.43,5.7,5.7,0,0,0-2.95.8,9,9,0,0,0-2.43,2.13,14.5,14.5,0,0,0-1.87,3,29.17,29.17,0,0,0-1.38,3.4A19.88,19.88,0,0,0,89,32.63a19,19,0,0,0-.25,2.85,3.44,3.44,0,0,0,.2,1.15,3.31,3.31,0,0,0,1.42,1.83,2.17,2.17,0,0,0,1.13.32m8.7-31.35a12.74,12.74,0,0,0-5.93,1.48,20.1,20.1,0,0,0-5,3.74,31.39,31.39,0,0,0-4.11,5.21A35.43,35.43,0,0,0,82.08,24a42.28,42.28,0,0,0-2,6.44,28.78,28.78,0,0,0-.75,6.34A18.21,18.21,0,0,0,80,42a10.92,10.92,0,0,0,1.94,3.84A8.45,8.45,0,0,0,85,48.22a9,9,0,0,0,3.84.81,12.88,12.88,0,0,0,4.85-1,19.58,19.58,0,0,0,4.75-2.84,29.2,29.2,0,0,0,4.33-4.35,29.67,29.67,0,0,0,3.62-5.8,36.23,36.23,0,0,0,2.47-7,35.45,35.45,0,0,0,.93-8.2,21.58,21.58,0,0,0-.39-4.07A12.9,12.9,0,0,0,108,11.78a8.81,8.81,0,0,0-3-3.12,9,9,0,0,0-4.79-1.23Zm-8.7,29.35-.07,0a1.34,1.34,0,0,1-.35-.3,1.53,1.53,0,0,1-.23-.46,1.58,1.58,0,0,1-.1-.52A17.53,17.53,0,0,1,91,32.93a18.2,18.2,0,0,1,.75-3A29.59,29.59,0,0,1,93,26.72a12.48,12.48,0,0,1,1.63-2.6,7,7,0,0,1,1.89-1.67,3.68,3.68,0,0,1,1.93-.52h0a.71.71,0,0,1,.08.15,3.32,3.32,0,0,1,.18.81A8.74,8.74,0,0,1,98.84,24a17.51,17.51,0,0,1-.57,4.17,20.15,20.15,0,0,1-1.61,4.37,10.89,10.89,0,0,1-2.45,3.21,3.83,3.83,0,0,1-2.67,1.05Z" transform="translate(-3.44 -4.71)"/><path class="cls-1" d="M109.38,10.57l.86,0a31.16,31.16,0,0,0,4.29-.46c1.42-.25,2.84-.43,4.23-.54l1.08-.07v1.07a10,10,0,0,1-.16,1.18c-.1.65-.24,1.5-.41,2.55s-.34,2.23-.55,3.55q-.25,1.71-.72,4.53c.25-.86.46-1.61.65-2.26.35-1.21.68-2.39,1-3.52s.62-2.19.9-3.16.5-1.75.67-2.41l.19-.76h1.23a16.47,16.47,0,0,0,1.71-.09c.61-.07,1.17-.14,1.71-.22s1.08-.19,1.66-.32l1.54-.34-.35,1.54a17.15,17.15,0,0,0-.2,1.72q-.14,1.41-.33,3.39c-.13,1.31-.26,2.75-.4,4.33-.11,1.3-.22,2.57-.32,3.82l3.05-13.82.68-.1c1.14-.17,2.27-.32,3.38-.45l3-.4c1-.13,1.9-.28,2.67-.44l1.75-.36-.6,1.68c-.49,1.37-1,2.92-1.48,4.62s-1,3.51-1.55,5.41-1,3.82-1.52,5.72-1,3.81-1.43,5.61c-1,4.22-2.09,8.64-3.09,13.12l-.14.66-13.28,2.23,1.3-11.42-2.71,9.94-12.33,2.19Z" transform="translate(-3.44 -4.71)"/><path class="cls-1" d="M140.64,9.83q-.75,2.1-1.5,4.68t-1.55,5.42q-.81,2.85-1.53,5.75c-.48,1.93-1,3.8-1.42,5.6q-1.6,6.4-3.1,13.15l-11.3,1.9,2.2-19.3h-.6l-5,18.15L106.49,47l3.8-35.5a31.68,31.68,0,0,0,4.42-.47,39.55,39.55,0,0,1,4.13-.53s0,.38-.15,1-.24,1.5-.4,2.55-.35,2.23-.55,3.55-.5,3.12-.88,5.42-.89,5.48-1.52,9.55h.75c.86-3.07,1.58-5.57,2.15-7.52l1.37-4.75c.35-1.22.68-2.39,1-3.53l.9-3.15c.28-1,.51-1.78.68-2.45h.45a16,16,0,0,0,1.82-.1c.62-.07,1.2-.14,1.75-.22s1.13-.19,1.73-.33a16,16,0,0,0-.23,1.85c-.08.93-.19,2.06-.32,3.38s-.27,2.76-.4,4.35-.27,3.13-.4,4.65-.26,3-.38,4.32-.22,2.53-.32,3.5h.9l4.75-21.5c1.13-.16,2.25-.32,3.35-.45l3-.4c1-.13,2-.28,2.75-.45m3.08-2.69-3.49.73c-.75.16-1.62.3-2.6.43l-3,.4c-1.06.13-2.2.28-3.36.45l-1,.14.3-1.35-3.08.69q-.82.18-1.59.3c-.51.08-1.07.15-1.66.21a14.61,14.61,0,0,1-1.61.09h-1.8V8.38l-2.15.16a40.68,40.68,0,0,0-4.33.55,31,31,0,0,1-4.16.44l-1.72.08-.18,1.71-3.8,35.5-.29,2.65,2.63-.47,10.4-1.85.91-.16-.2,1.75,2.62-.44,11.3-1.9,1.33-.22.29-1.31c1-4.47,2-8.88,3.09-13.1.46-1.79.94-3.66,1.42-5.6s1-3.82,1.51-5.7,1.05-3.69,1.55-5.4,1-3.21,1.46-4.57l1.2-3.36Z" transform="translate(-3.44 -4.71)"/><path class="cls-1" d="M140.59,10.4l18-1.54-.45,1.42c-.22.71-.42,1.43-.58,2.16s-.32,1.31-.47,2-.27,1.27-.37,1.8l-.14.73-.74.08c-.35,0-.85.06-1.5.08l-2,.05-2.15,0h-1l-1.34,6.88L149.5,24c.74,0,1.5-.05,2.29-.05s1.27,0,1.6,0l1.27-.12L154.48,25c-.14.93-.26,1.84-.38,2.74s-.26,1.85-.43,2.8l-.13.74-.75.08c-.36,0-.92.06-1.71.08s-1.49,0-2.25.07l-2.06.07-1.29,7,7.16-1.13L152,45.25l-18.31,2.84Z" transform="translate(-3.44 -4.71)"/><path class="cls-1" d="M157.24,10a21.94,21.94,0,0,0-.6,2.25q-.25.94-.48,2c-.15.68-.27,1.29-.37,1.82-.34,0-.81.06-1.43.08l-2,.05-2.13,0h-1.87l-1.75,9c1-.07,2-.12,2.9-.15.73,0,1.48-.05,2.25-.05s1.33,0,1.7-.05c-.14.93-.26,1.85-.38,2.75s-.26,1.82-.42,2.75c-.34,0-.88.06-1.63.08s-1.51,0-2.27.07l-2.85.1-1.7,9.2,7.3-1.15-.5,5.7-16.15,2.5,6.55-35.55L157.24,10m2.81-2.25-3,.26-15.8,1.35-1.52.13-.28,1.5-6.55,35.55-.51,2.77,2.78-.43,16.15-2.5,1.55-.24.14-1.56.5-5.7.22-2.55-2.52.4-4.51.71.89-4.84,1.25,0c.77,0,1.51-.06,2.25-.07s1.39-.05,1.78-.09l1.5-.15.27-1.49c.17-1,.31-1.91.43-2.84s.24-1.8.38-2.73l.36-2.5-2.53.23c-.2,0-.64,0-1.51,0s-1.57,0-2.34.05l-.36,0,.94-4.82h.23l2.18,0,2-.05c.66,0,1.17-.05,1.56-.09l1.49-.15.28-1.47c.1-.51.22-1.1.37-1.77s.3-1.31.45-1.89v-.09c.15-.69.34-1.39.55-2.06l.91-2.86Z" transform="translate(-3.44 -4.71)"/><path class="cls-1" d="M150.76,46.68q1.35-6.65,2.59-13c.3-1.78.63-3.66,1-5.62s.71-3.87,1-5.78.61-3.76.89-5.54.51-3.37.67-4.83l.08-.65.62-.19A36,36,0,0,1,164,9.71a53.87,53.87,0,0,1,6.68-.43,10.67,10.67,0,0,1,3.55.51,5.49,5.49,0,0,1,3.66,3.88,10.41,10.41,0,0,1,.34,2.71,12.61,12.61,0,0,1-.76,4.27,18.17,18.17,0,0,1-2,3.87,20.07,20.07,0,0,1-2.85,3.32,15.5,15.5,0,0,1-2.67,2c.5,1.1,1,2.29,1.56,3.55.68,1.59,1.33,3.1,1.93,4.53.67,1.68,1.35,3.34,2.05,5l.41,1-9.73,3.39-.31-1c-.67-2.15-1.28-4.18-1.81-6-.22-.76-.46-1.56-.7-2.38s-.45-1.6-.65-2.33c0-.07,0-.13,0-.19,0,.22-.08.44-.13.67-.28,1.42-.54,2.8-.77,4.12q-.45,2.37-.9,4.77l-.12.62-10.26,2.66Zm14-22.92.57-.27a15,15,0,0,0,2.46-1.57,14.72,14.72,0,0,0,2-1.89c.59-.69.66-1.07.66-1.2s0-.13,0-.14a1.26,1.26,0,0,0-.56-.27,5.72,5.72,0,0,0-1.17-.19c-.48,0-1-.05-1.48-.05l-1.09,0h-.24Z" transform="translate(-3.44 -4.71)"/><path class="cls-1" d="M170.64,10.28a9.79,9.79,0,0,1,3.22.45,4.65,4.65,0,0,1,2,1.28,4.83,4.83,0,0,1,1,1.92,9.29,9.29,0,0,1,.3,2.45,11.59,11.59,0,0,1-.7,3.93A16.83,16.83,0,0,1,174.61,24a18.43,18.43,0,0,1-2.7,3.15,14.69,14.69,0,0,1-3.27,2.32q.9,2,1.92,4.38c.68,1.58,1.33,3.09,1.93,4.52.66,1.67,1.35,3.33,2,5L166.79,46q-1-3.2-1.8-6c-.24-.76-.47-1.56-.7-2.37s-.45-1.59-.65-2.33-.37-1.39-.5-2a9.83,9.83,0,0,1-.25-1.43l-.65.2c-.2,1.07-.45,2.32-.73,3.75S161,38.7,160.74,40c-.3,1.57-.6,3.15-.9,4.75l-8.1,2.1q1.35-6.65,2.6-13,.45-2.7,1-5.62c.36-2,.7-3.89,1-5.8s.62-3.77.9-5.55.51-3.41.68-4.88a35.14,35.14,0,0,1,6.15-1.32,50,50,0,0,1,6.55-.43m-7.15,14.9a7,7,0,0,0,2.32-.8,16.64,16.64,0,0,0,2.63-1.67,15,15,0,0,0,2.15-2,3.05,3.05,0,0,0,.9-1.85,1.14,1.14,0,0,0-.35-.87,2.27,2.27,0,0,0-1-.5,6.32,6.32,0,0,0-1.37-.23c-.5,0-1-.05-1.55-.05l-1.13,0-1,0-1.6,8m7.15-16.9a54.17,54.17,0,0,0-6.81.44,38.25,38.25,0,0,0-6.5,1.4l-1.23.4L156,11.8c-.17,1.45-.39,3.06-.66,4.79l-.9,5.54c-.31,1.89-.66,3.83-1,5.76s-.7,3.82-1,5.63c-.81,4.12-1.68,8.48-2.59,13l-.64,3.14,3.1-.8,8.1-2.1,1.23-.32.23-1.25q.45-2.4.9-4.74l.12-.65c.08.29.17.57.25.85.52,1.82,1.13,3.86,1.81,6l.61,2,1.95-.68,7.75-2.7,2-.7-.82-2c-.7-1.68-1.39-3.35-2-5s-1.26-3-1.94-4.58l-1.21-2.77a18,18,0,0,0,2.09-1.67,21.15,21.15,0,0,0,3-3.49A18.66,18.66,0,0,0,178.37,21a13.58,13.58,0,0,0,.82-4.61,11.69,11.69,0,0,0-.37-3,6.85,6.85,0,0,0-1.45-2.71,6.68,6.68,0,0,0-2.84-1.84,11.66,11.66,0,0,0-3.89-.57Zm-3.91,10.91h.51c.48,0,.95,0,1.42.05l.49.05-.08.1a13.73,13.73,0,0,1-1.86,1.75c-.33.26-.67.5-1,.72l.53-2.66Z" transform="translate(-3.44 -4.71)"/><path class="cls-1" d="M182.29,47.93a9.42,9.42,0,0,1-4.48-1.19,13.67,13.67,0,0,1-4.16-3.69l-.4-.5L178.11,33l.91,1.69a4.55,4.55,0,0,0,.86,1.08,6.76,6.76,0,0,0,1.38,1,10.11,10.11,0,0,0,1.6.76,3.72,3.72,0,0,0,1.23.26,3.34,3.34,0,0,0,.95-.15,3.12,3.12,0,0,0,.91-.46,2.3,2.3,0,0,0,.61-.64,1.28,1.28,0,0,0,.18-.7,2.6,2.6,0,0,0-.58-1.62,10.06,10.06,0,0,0-1.75-1.77c-.75-.61-1.58-1.23-2.45-1.84a24.72,24.72,0,0,1-2.58-2.09,12.25,12.25,0,0,1-2.1-2.56,6.4,6.4,0,0,1-.94-3.42,9.47,9.47,0,0,1,1.72-5.42A16.34,16.34,0,0,1,182.19,13a21.32,21.32,0,0,1,5.32-2.7,16.94,16.94,0,0,1,5.53-1,10.71,10.71,0,0,1,2.81.36A6.22,6.22,0,0,1,200,13.1a7.3,7.3,0,0,1,.63,3.18,8.53,8.53,0,0,1-.15,1.58q-.12.67-.21,1.44l-.08.66-9.56,2.77L191,21c.07-.25.12-.49.17-.74a3.34,3.34,0,0,0,.06-.62,2.55,2.55,0,0,0-.32-1.56.66.66,0,0,0-.58-.29,1.38,1.38,0,0,0-.52.19,5.38,5.38,0,0,0-1,.66,3.4,3.4,0,0,0-.76.88,1.6,1.6,0,0,0-.25.87,2.05,2.05,0,0,0,.43,1.36,8.1,8.1,0,0,0,1.49,1.32c.64.45,1.35.92,2.12,1.39a10.33,10.33,0,0,1,4.26,5.24,13.23,13.23,0,0,1,.75,4.74,12.84,12.84,0,0,1-1.17,5.5,13.51,13.51,0,0,1-3.14,4.24A14,14,0,0,1,188,47,16.45,16.45,0,0,1,182.29,47.93Z" transform="translate(-3.44 -4.71)"/><path class="cls-1" d="M193,10.33a9.58,9.58,0,0,1,2.55.33,5.21,5.21,0,0,1,2.07,1.05,5.31,5.31,0,0,1,1.4,1.82,6.36,6.36,0,0,1,.53,2.75,8.19,8.19,0,0,1-.13,1.4c-.08.47-.16,1-.22,1.5L192,21.28c.06-.27.12-.53.17-.8a4.26,4.26,0,0,0,.08-.8,3.55,3.55,0,0,0-.53-2.17,1.66,1.66,0,0,0-1.37-.68,2.2,2.2,0,0,0-1,.3,6.49,6.49,0,0,0-1.15.78,4.35,4.35,0,0,0-1,1.12,2.61,2.61,0,0,0-.4,1.4,3,3,0,0,0,.67,2,8.23,8.23,0,0,0,1.68,1.5c.66.47,1.39.94,2.17,1.43a9.72,9.72,0,0,1,2.18,1.87,10,10,0,0,1,1.67,2.88,12.11,12.11,0,0,1,.68,4.37,11.71,11.71,0,0,1-1.08,5.08,12.39,12.39,0,0,1-2.9,3.92,13,13,0,0,1-4.3,2.55,15.44,15.44,0,0,1-5.32.9,8.42,8.42,0,0,1-4-1.07,12.59,12.59,0,0,1-3.85-3.43l3.7-7.25a5.44,5.44,0,0,0,1.05,1.33,7.64,7.64,0,0,0,1.57,1.17,11.55,11.55,0,0,0,1.75.83,4.72,4.72,0,0,0,1.58.32,4.07,4.07,0,0,0,1.25-.2,4,4,0,0,0,1.2-.6,3.3,3.3,0,0,0,.87-.92,2.26,2.26,0,0,0,.33-1.23,3.58,3.58,0,0,0-.78-2.22A11,11,0,0,0,185,31.71c-.77-.62-1.6-1.24-2.5-1.88a22.78,22.78,0,0,1-2.48-2,11.1,11.1,0,0,1-1.92-2.35,5.36,5.36,0,0,1-.8-2.9,8.34,8.34,0,0,1,1.55-4.85,15.14,15.14,0,0,1,3.87-3.87,20.09,20.09,0,0,1,5.08-2.58,16,16,0,0,1,5.2-.95m0-2a18.14,18.14,0,0,0-5.86,1.06,22.24,22.24,0,0,0-5.56,2.83,17,17,0,0,0-4.38,4.38,10.38,10.38,0,0,0-1.9,6,7.39,7.39,0,0,0,1.09,4,13,13,0,0,0,2.27,2.76,25.64,25.64,0,0,0,2.68,2.18c.86.6,1.67,1.21,2.4,1.8a8.77,8.77,0,0,1,1.58,1.59,1.62,1.62,0,0,1,.38,1,.42.42,0,0,1,0,.17,1.5,1.5,0,0,1-.35.37,2.31,2.31,0,0,1-.61.3,2,2,0,0,1-1.54-.09,10,10,0,0,1-1.45-.68,6,6,0,0,1-1.18-.88,3.39,3.39,0,0,1-.68-.83l-1.81-3.37-1.74,3.4-3.7,7.25-.58,1.14.79,1a14.91,14.91,0,0,0,4.48,3.95,10.39,10.39,0,0,0,4.95,1.31,17.42,17.42,0,0,0,6-1,15,15,0,0,0,5-2.95,14.36,14.36,0,0,0,3.37-4.55,13.8,13.8,0,0,0,1.27-5.93,14.08,14.08,0,0,0-.82-5.1,11.66,11.66,0,0,0-2-3.46,11.42,11.42,0,0,0-2.63-2.27l-.45-.28.58-.17,7.25-2.1,1.27-.36.16-1.31c.06-.49.13-1,.21-1.4a10.36,10.36,0,0,0,.16-1.75,8.48,8.48,0,0,0-.72-3.61,7.21,7.21,0,0,0-4.76-3.94,11.43,11.43,0,0,0-3.07-.4Zm-3.26,13.54a6.4,6.4,0,0,1-.74-.73,1,1,0,0,1-.2-.71.57.57,0,0,1,.1-.35,2.38,2.38,0,0,1,.55-.63,4.66,4.66,0,0,1,.69-.49,3.68,3.68,0,0,1,.06.72,2.1,2.1,0,0,1-.05.43q-.06.34-.15.69l-.26,1.07Z" transform="translate(-3.44 -4.71)"/><path class="cls-2" d="M5.32,44.18c.39-1.4.78-3,1.16-4.77s.76-3.64,1.15-5.6.74-4,1.09-6,.7-4,1-5.83c.69-4.35,1.39-9,2.09-13.72L12,7.49l18.9-1-1.93,8.22H21.12l-1.19,6.87c.6,0,1.19,0,1.75,0H24c.78,0,1.37,0,1.78-.05l1.2-.09-.13,1.19c-.1,1-.23,1.9-.39,2.81s-.29,1.79-.42,2.68L26,29h-.87l-1.87,0c-.8,0-1.63,0-2.49-.07l-2-.07L16.46,43.41l-.7.12c-1.13.2-2.23.42-3.32.65s-2,.37-3,.6-2.05.44-2.87.64l-1.66.4Z" transform="translate(-3.44 -4.71)"/><path class="cls-3" d="M29.58,7.6l-1.45,6.15H20.28l-1.55,8.9c1,0,2,0,2.95,0H24c.8,0,1.42,0,1.85-.05-.1.93-.22,1.85-.37,2.75s-.29,1.8-.43,2.7l-1.85,0c-.8,0-1.62,0-2.47-.07l-2.88-.1-2.3,14.75c-1.13.2-2.25.42-3.35.65-.93.17-2,.37-3.05.6s-2.06.45-2.9.65q.6-2.14,1.18-4.83C7.84,37.84,8.23,36,8.61,34s.75-4,1.1-6,.69-4,1-5.82q1-6.66,2.1-13.75L29.58,7.6m2.56-2.13-2.66.13-16.75.85-1.64.08-.24,1.62c-.7,4.74-1.4,9.36-2.09,13.74-.33,1.83-.67,3.77-1,5.79s-.71,4-1.09,5.94-.76,3.8-1.15,5.58-.76,3.33-1.14,4.71l-.92,3.28,3.31-.8c.78-.19,1.72-.39,2.85-.64s2.09-.42,3-.58h.06c1.1-.23,2.21-.44,3.28-.63l1.41-.25.22-1.41,2-13,1.09,0c.86,0,1.7.06,2.51.07l1.89,0h1.73l.25-1.71c.13-.89.27-1.78.42-2.66s.29-1.9.39-2.87l.26-2.39-2.4.18c-.38,0-.95.05-1.7.05H21.12L22,15.75h7.75l.36-1.54,1.45-6.15.61-2.59Z" transform="translate(-3.44 -4.71)"/><path class="cls-2" d="M32.18,45.6a8,8,0,0,1-3.42-.72,7.56,7.56,0,0,1-2.7-2.13,10,10,0,0,1-1.76-3.49,17.3,17.3,0,0,1-.62-4.91,27.94,27.94,0,0,1,.73-6.12,43.46,43.46,0,0,1,1.94-6.3,34.91,34.91,0,0,1,3-6,30.71,30.71,0,0,1,4-5,19.48,19.48,0,0,1,4.75-3.56A11.8,11.8,0,0,1,43.58,6a7.86,7.86,0,0,1,4.26,1.08,7.64,7.64,0,0,1,2.64,2.75,12.31,12.31,0,0,1,1.29,3.63,21.33,21.33,0,0,1,.36,3.89,34,34,0,0,1-.9,8,34.75,34.75,0,0,1-2.4,6.85,27.88,27.88,0,0,1-3.5,5.59A27.18,27.18,0,0,1,41.16,42a18.22,18.22,0,0,1-4.5,2.7A11.91,11.91,0,0,1,32.18,45.6Zm9.65-27.1a4.61,4.61,0,0,0-2.44.66,8.33,8.33,0,0,0-2.16,1.89,14,14,0,0,0-1.74,2.8,27,27,0,0,0-1.33,3.29,19,19,0,0,0-.79,3.21,18.22,18.22,0,0,0-.24,2.7,2.56,2.56,0,0,0,.15.83,2.66,2.66,0,0,0,.39.75,2.28,2.28,0,0,0,.61.54,1.13,1.13,0,0,0,.6.18,4.88,4.88,0,0,0,3.34-1.3,11.7,11.7,0,0,0,2.67-3.51A21.06,21.06,0,0,0,42.59,26a19,19,0,0,0,.59-4.41,10.49,10.49,0,0,0-.07-1.2,4.25,4.25,0,0,0-.24-1.05,1.45,1.45,0,0,0-.43-.63A.82.82,0,0,0,41.83,18.5Z" transform="translate(-3.44 -4.71)"/><path class="cls-3" d="M43.58,7a7,7,0,0,1,3.73.92,6.69,6.69,0,0,1,2.3,2.4,10.86,10.86,0,0,1,1.17,3.33,19.31,19.31,0,0,1,.35,3.7,33,33,0,0,1-.87,7.72,33.56,33.56,0,0,1-2.33,6.65,26.85,26.85,0,0,1-3.37,5.4,26.17,26.17,0,0,1-4,4.05,17,17,0,0,1-4.25,2.55,10.75,10.75,0,0,1-4.1.88,7,7,0,0,1-3-.63,6.51,6.51,0,0,1-2.35-1.85A8.94,8.94,0,0,1,25.26,39a16,16,0,0,1-.58-4.62,27.21,27.21,0,0,1,.7-5.9,42.28,42.28,0,0,1,1.9-6.15,34,34,0,0,1,2.95-5.8,29.29,29.29,0,0,1,3.85-4.88,18.13,18.13,0,0,1,4.5-3.37,10.62,10.62,0,0,1,5-1.25m-8.7,29.35a5.87,5.87,0,0,0,4-1.55,12.57,12.57,0,0,0,2.9-3.8,22,22,0,0,0,1.78-4.8,20,20,0,0,0,.62-4.65,12.23,12.23,0,0,0-.07-1.3,5.26,5.26,0,0,0-.3-1.3,2.7,2.7,0,0,0-.7-1,1.86,1.86,0,0,0-1.28-.42,5.64,5.64,0,0,0-2.95.8,9,9,0,0,0-2.42,2.12,15.56,15.56,0,0,0-1.88,3,29.82,29.82,0,0,0-1.37,3.4,20,20,0,0,0-.83,3.38,20.37,20.37,0,0,0-.25,2.85,3.81,3.81,0,0,0,.75,2.2,3.28,3.28,0,0,0,.88.77,2.06,2.06,0,0,0,1.12.33M43.58,5a12.69,12.69,0,0,0-5.92,1.47,20.21,20.21,0,0,0-5,3.75,31.19,31.19,0,0,0-4.11,5.2,36.57,36.57,0,0,0-3.13,6.14,45.57,45.57,0,0,0-2,6.45,28.71,28.71,0,0,0-.75,6.34,18.26,18.26,0,0,0,.66,5.2,11.09,11.09,0,0,0,1.94,3.84,8.73,8.73,0,0,0,3.06,2.4,9.05,9.05,0,0,0,3.84.81,13.08,13.08,0,0,0,4.86-1,19.66,19.66,0,0,0,4.74-2.84,29.3,29.3,0,0,0,8-10.15,35.89,35.89,0,0,0,2.46-7.05,34.83,34.83,0,0,0,.93-8.19,22.42,22.42,0,0,0-.38-4.07,12.65,12.65,0,0,0-1.4-3.93,8.49,8.49,0,0,0-3-3.12A8.84,8.84,0,0,0,43.58,5Zm-8.7,29.35s0,0-.07,0a1.31,1.31,0,0,1-.35-.3,1.58,1.58,0,0,1-.23-.45,1.88,1.88,0,0,1-.1-.52,18.75,18.75,0,0,1,1-5.59,26.08,26.08,0,0,1,1.28-3.18A13.46,13.46,0,0,1,38,21.68,7.17,7.17,0,0,1,39.9,20a3.7,3.7,0,0,1,1.93-.52h0a.36.36,0,0,1,.08.15,2.83,2.83,0,0,1,.19.81,10.83,10.83,0,0,1,.06,1.09,18.12,18.12,0,0,1-.56,4.17A20.56,20.56,0,0,1,40,30.09a10.86,10.86,0,0,1-2.44,3.21,3.84,3.84,0,0,1-2.68,1.05Z" transform="translate(-3.44 -4.71)"/><path class="cls-2" d="M47.39,44.37c.2-1.51.44-3.18.7-5s.58-3.75.93-5.73.7-3.95,1-5.94.72-4,1.08-5.78c.82-4.3,1.72-8.8,2.65-13.35l.15-.7L64.83,6.42l-.32,1.4q-1.35,5.81-2.6,11.3c-.37,1.57-.73,3.19-1.1,4.87s-.72,3.32-1.05,4.91-.63,3.15-.89,4.62c-.18,1-.33,1.91-.46,2.75l1.48-.05,2.54,0h1l0,.95c0,.61.08,1.22.15,1.81s.13,1.14.21,1.62.16,1,.21,1.36a6.05,6.05,0,0,0,.1.66l.32,1.25H63.13q-.43,0-.84,0l-.71,0c-1,0-2.08,0-3.21.1s-2.29.16-3.42.29-2.27.3-3.35.51a22.54,22.54,0,0,0-2.9.75l-1.52.5Z" transform="translate(-3.44 -4.71)"/><path class="cls-3" d="M63.53,7.6q-1.35,5.81-2.6,11.3c-.36,1.57-.73,3.19-1.1,4.87l-1,4.93q-.49,2.4-.9,4.65c-.26,1.5-.48,2.83-.65,4,.84-.07,1.73-.11,2.68-.13l2.52,0c0,.63.09,1.26.15,1.87s.14,1.18.23,1.68.15.94.2,1.32.09.65.12.78c-.26,0-.52,0-.77,0l-.78,0c-1,0-2.12,0-3.27.1s-2.31.17-3.48.3-2.31.31-3.42.52a24.63,24.63,0,0,0-3,.78c.2-1.5.44-3.17.7-5s.58-3.73.93-5.7.7-3.95,1.05-5.95.71-3.92,1.07-5.75q1.26-6.56,2.65-13.35L63.53,7.6m2.61-2.36-2.87.37L54.52,6.76,53.11,7l-.29,1.39C51.89,12.9,51,17.4,50.17,21.72c-.36,1.81-.73,3.76-1.08,5.78s-.7,4-1.05,6-.67,3.92-.94,5.76-.5,3.52-.7,5L46,47.41l3-1a21.17,21.17,0,0,1,2.78-.71c1.06-.21,2.16-.38,3.27-.51s2.25-.22,3.36-.29,2.18-.09,3.16-.09c.22,0,.44,0,.65,0s.59,0,.9,0H65.7l-.63-2.49L65,41.82c0-.41-.12-.87-.21-1.4s-.15-1-.21-1.56-.11-1.18-.14-1.77l-.1-1.89h-1.9l-2.56,0h-.28c.08-.49.17-1,.26-1.53.26-1.47.56-3,.89-4.59s.68-3.23,1-4.91.73-3.33,1.09-4.85q1.26-5.51,2.6-11.3l.66-2.81Z" transform="translate(-3.44 -4.71)"/><path class="cls-2" d="M62.49,44.37c.2-1.51.43-3.18.7-5s.58-3.75.93-5.73.7-3.95,1-5.94.72-4,1.08-5.78c.82-4.3,1.72-8.8,2.65-13.35l.15-.7L79.93,6.42l-.32,1.4q-1.35,5.81-2.6,11.3c-.37,1.57-.74,3.19-1.1,4.87s-.72,3.32-1,4.91S74.23,32,74,33.52c-.18,1-.33,1.91-.47,2.75L75,36.22l2.54,0h1l0,.95c0,.61.08,1.22.15,1.81s.13,1.14.21,1.62.16,1,.21,1.36.07.55.1.67l.31,1.24H78.23q-.44,0-.84,0l-.71,0c-1,0-2.08,0-3.21.1s-2.29.16-3.42.29-2.27.3-3.35.51a22.54,22.54,0,0,0-2.9.75l-1.52.5Z" transform="translate(-3.44 -4.71)"/><path class="cls-3" d="M78.63,7.6Q77.28,13.41,76,18.9c-.36,1.57-.73,3.19-1.1,4.87s-.72,3.33-1.05,4.93-.63,3.15-.9,4.65-.48,2.83-.65,4c.84-.07,1.73-.11,2.68-.13l2.52,0c0,.63.08,1.26.15,1.87s.14,1.18.23,1.68.15.94.2,1.32.09.65.12.78c-.27,0-.52,0-.77,0l-.78,0c-1,0-2.12,0-3.27.1s-2.31.17-3.48.3-2.31.31-3.42.52a24.63,24.63,0,0,0-3,.78c.2-1.5.43-3.17.7-5s.58-3.73.93-5.7.7-3.95,1-5.95.7-3.92,1.07-5.75q1.24-6.56,2.65-13.35L78.63,7.6m2.6-2.36-2.86.37L69.62,6.76,68.21,7l-.29,1.39C67,12.9,66.09,17.4,65.27,21.72c-.36,1.81-.73,3.76-1.08,5.78s-.7,4-1,6-.67,3.92-.94,5.76-.5,3.52-.7,5l-.42,3.18,3-1a21.17,21.17,0,0,1,2.78-.71c1-.21,2.16-.38,3.27-.51s2.25-.22,3.36-.29,2.18-.09,3.16-.09c.22,0,.44,0,.64,0s.6,0,.91,0h2.56l-.62-2.49c0-.09,0-.28-.08-.55S80,41,79.88,40.42s-.15-1-.21-1.56-.11-1.17-.14-1.76l-.1-1.9h-1.9l-2.56,0h-.28c.08-.49.17-1,.26-1.53.26-1.49.56-3,.89-4.59s.68-3.23,1-4.91.72-3.28,1.09-4.85q1.24-5.51,2.6-11.3l.65-2.81Z" transform="translate(-3.44 -4.71)"/><path class="cls-2" d="M87,45.6a8,8,0,0,1-3.42-.72,7.5,7.5,0,0,1-2.7-2.13,10,10,0,0,1-1.76-3.49,17.3,17.3,0,0,1-.62-4.91,28,28,0,0,1,.73-6.12,43.08,43.08,0,0,1,1.94-6.3,34.92,34.92,0,0,1,3-6,30.71,30.71,0,0,1,4-5A19.29,19.29,0,0,1,93,7.36,11.77,11.77,0,0,1,98.43,6a7.88,7.88,0,0,1,4.26,1.08,7.64,7.64,0,0,1,2.64,2.75,11.83,11.83,0,0,1,1.28,3.63,20.5,20.5,0,0,1,.37,3.89,34,34,0,0,1-.9,8,35.17,35.17,0,0,1-2.4,6.85,27.88,27.88,0,0,1-3.5,5.59A27.18,27.18,0,0,1,96,42a18.4,18.4,0,0,1-4.5,2.7A12,12,0,0,1,87,45.6Zm9.65-27.1a4.61,4.61,0,0,0-2.44.66,8.33,8.33,0,0,0-2.16,1.89,14.44,14.44,0,0,0-1.75,2.8A27.88,27.88,0,0,0,89,27.14a19,19,0,0,0-.79,3.21,18.22,18.22,0,0,0-.24,2.7,2.56,2.56,0,0,0,.15.83,2.66,2.66,0,0,0,.39.75,2.13,2.13,0,0,0,.61.54,1.13,1.13,0,0,0,.6.18,4.88,4.88,0,0,0,3.34-1.3,11.86,11.86,0,0,0,2.67-3.51A20.53,20.53,0,0,0,97.43,26a18.55,18.55,0,0,0,.6-4.41A10.08,10.08,0,0,0,98,20.36a4.22,4.22,0,0,0-.24-1.06,1.45,1.45,0,0,0-.43-.63A.93.93,0,0,0,96.68,18.5Z" transform="translate(-3.44 -4.71)"/><path class="cls-3" d="M98.43,7a7,7,0,0,1,3.73.92,6.69,6.69,0,0,1,2.3,2.4,10.86,10.86,0,0,1,1.17,3.33,20.15,20.15,0,0,1,.35,3.7,33,33,0,0,1-.87,7.72,33.56,33.56,0,0,1-2.33,6.65,27.31,27.31,0,0,1-3.37,5.4,26.17,26.17,0,0,1-4,4.05,17.18,17.18,0,0,1-4.25,2.55,10.75,10.75,0,0,1-4.1.88A7,7,0,0,1,84,44a6.51,6.51,0,0,1-2.35-1.85A8.77,8.77,0,0,1,80.11,39a16,16,0,0,1-.58-4.62,26.61,26.61,0,0,1,.7-5.9,42.28,42.28,0,0,1,1.9-6.15,33.29,33.29,0,0,1,3-5.8,29.29,29.29,0,0,1,3.85-4.88,18.13,18.13,0,0,1,4.5-3.37,10.62,10.62,0,0,1,5-1.25m-8.7,29.35a5.88,5.88,0,0,0,4-1.55,12.74,12.74,0,0,0,2.9-3.8,22,22,0,0,0,1.78-4.8A20,20,0,0,0,99,21.55a12.23,12.23,0,0,0-.07-1.3,5.26,5.26,0,0,0-.3-1.3,2.7,2.7,0,0,0-.7-1,1.88,1.88,0,0,0-1.28-.42,5.61,5.61,0,0,0-3,.8,9,9,0,0,0-2.42,2.12,15.09,15.09,0,0,0-1.88,3,29.82,29.82,0,0,0-1.37,3.4,20,20,0,0,0-.83,3.38A19,19,0,0,0,87,33.05a3.76,3.76,0,0,0,.2,1.15,3.49,3.49,0,0,0,.55,1,3.13,3.13,0,0,0,.88.77,2.06,2.06,0,0,0,1.12.33M98.43,5a12.69,12.69,0,0,0-5.92,1.47,20.21,20.21,0,0,0-5,3.75,31.76,31.76,0,0,0-4.12,5.2,36.24,36.24,0,0,0-3.12,6.15,44.66,44.66,0,0,0-2,6.44,28.71,28.71,0,0,0-.75,6.34,18.26,18.26,0,0,0,.66,5.2,11.09,11.09,0,0,0,1.94,3.84,8.64,8.64,0,0,0,3.06,2.4A9,9,0,0,0,87,46.6a13.12,13.12,0,0,0,4.86-1,19.85,19.85,0,0,0,4.74-2.84,29.12,29.12,0,0,0,8-10.15A35.16,35.16,0,0,0,108,17.35a22.42,22.42,0,0,0-.38-4.07,13.09,13.09,0,0,0-1.4-3.93,8.49,8.49,0,0,0-3-3.12A8.84,8.84,0,0,0,98.43,5Zm-8.7,29.35s0,0-.07,0a1.31,1.31,0,0,1-.35-.3,1.84,1.84,0,0,1-.33-1,17.6,17.6,0,0,1,.23-2.55,18.91,18.91,0,0,1,.74-3,27,27,0,0,1,1.29-3.17,12.79,12.79,0,0,1,1.62-2.61A7.17,7.17,0,0,1,94.75,20a3.68,3.68,0,0,1,1.93-.52h0a.36.36,0,0,1,.08.15,3.21,3.21,0,0,1,.19.81A10.83,10.83,0,0,1,97,21.55a17.58,17.58,0,0,1-.57,4.17,20,20,0,0,1-1.61,4.37,10.86,10.86,0,0,1-2.44,3.21,3.84,3.84,0,0,1-2.68,1.05Z" transform="translate(-3.44 -4.71)"/><path class="cls-2" d="M107.58,8.14l.86,0a31.5,31.5,0,0,0,4.29-.46A38.84,38.84,0,0,1,117,7.1L118,7V8.1a9.77,9.77,0,0,1-.16,1.17c-.1.66-.23,1.51-.4,2.56s-.35,2.23-.55,3.54c-.17,1.15-.42,2.66-.73,4.53.25-.85.47-1.6.65-2.25.35-1.22.69-2.39,1-3.52s.62-2.19.91-3.16.5-1.76.66-2.41l.19-.76h1.23a14.17,14.17,0,0,0,1.72-.1c.6-.06,1.17-.13,1.71-.22s1.08-.18,1.65-.31l1.54-.34-.34,1.54a12.6,12.6,0,0,0-.21,1.72c-.08.93-.19,2.06-.32,3.38s-.27,2.76-.4,4.34c-.11,1.29-.22,2.57-.33,3.82L128.9,7.81l.69-.1c1.14-.17,2.26-.32,3.37-.45.95-.14,2-.27,3-.4s1.9-.28,2.68-.44l1.74-.37-.6,1.68c-.49,1.38-1,2.93-1.48,4.62s-1,3.52-1.55,5.42-1,3.81-1.51,5.72-1,3.81-1.43,5.61c-1.06,4.22-2.1,8.63-3.09,13.11l-.15.66L117.29,45.1l1.3-11.41-2.71,9.93-12.34,2.2Z" transform="translate(-3.44 -4.71)"/><path class="cls-3" d="M138.83,7.4q-.75,2.1-1.5,4.67t-1.55,5.43c-.53,1.9-1,3.81-1.52,5.75s-1,3.8-1.43,5.6q-1.61,6.4-3.1,13.15l-11.3,1.9,2.2-19.3H120l-5,18.15-10.4,1.85,3.8-35.5a33.38,33.38,0,0,0,4.43-.48A39,39,0,0,1,117,8.1s0,.37-.15,1-.23,1.5-.4,2.55-.35,2.24-.55,3.55-.49,3.13-.87,5.43-.9,5.48-1.53,9.55h.75c.87-3.07,1.58-5.58,2.15-7.53s1-3.53,1.38-4.75.68-2.39,1-3.52.61-2.18.9-3.15.5-1.78.67-2.45h.45c.6,0,1.21,0,1.83-.1s1.2-.14,1.75-.23,1.12-.19,1.72-.32a16.48,16.48,0,0,0-.22,1.85c-.09.93-.2,2.06-.33,3.37s-.27,2.77-.4,4.35-.27,3.14-.4,4.65-.26,3-.37,4.33-.23,2.53-.33,3.5h.9l4.75-21.5c1.13-.17,2.25-.32,3.35-.45l3-.4c1-.13,1.95-.29,2.75-.45m3.08-2.69-3.49.73c-.75.16-1.62.3-2.59.42l-3,.41c-1.06.12-2.21.28-3.37.45l-1,.14.3-1.35-3.07.69q-.84.18-1.59.3c-.52.07-1.08.15-1.67.21a14.61,14.61,0,0,1-1.61.09H119V6l-2.14.15a43.63,43.63,0,0,0-4.34.55,29.46,29.46,0,0,1-4.15.45l-1.72.07-.19,1.72-3.8,35.5L102.41,47l2.62-.46,10.4-1.85.91-.17-.2,1.76,2.62-.44,11.3-1.9,1.33-.22.29-1.32c1-4.47,2-8.87,3.09-13.1q.69-2.68,1.43-5.6c.47-1.9,1-3.81,1.51-5.69s1-3.7,1.54-5.41,1-3.2,1.46-4.56l1.2-3.36Z" transform="translate(-3.44 -4.71)"/><path class="cls-2" d="M138.78,8l18.06-1.55-.46,1.43c-.22.7-.41,1.43-.57,2.16s-.33,1.31-.48,2-.27,1.27-.37,1.79l-.14.74-.74.07c-.35,0-.85.07-1.5.08l-2,.05c-.7,0-1.42,0-2.14,0H147.4l-1.34,6.87,1.63-.07c.74,0,1.51-.05,2.29-.05s1.28,0,1.61-.05l1.26-.11-.18,1.25c-.13.93-.26,1.84-.37,2.74s-.27,1.84-.44,2.79l-.13.75-.75.07c-.36,0-.92.07-1.7.08s-1.5,0-2.26.08l-2.05.07-1.3,7,7.17-1.13-.68,7.76-18.32,2.83Z" transform="translate(-3.44 -4.71)"/><path class="cls-3" d="M155.43,7.55q-.35,1.09-.6,2.25c-.17.63-.32,1.29-.47,2s-.28,1.29-.38,1.83c-.33,0-.81.06-1.42.07l-2,.05c-.7,0-1.41,0-2.12,0h-1.88l-1.75,9c1-.07,2-.12,2.9-.15.73,0,1.48-.05,2.25-.05s1.33,0,1.7-.05c-.13.93-.26,1.85-.37,2.75s-.26,1.81-.43,2.75c-.33,0-.87.06-1.62.07s-1.51,0-2.28.08l-2.85.1-1.7,9.2,7.3-1.15-.5,5.7-16.15,2.5L139.63,8.9l15.8-1.35m2.81-2.25-3,.25L139.46,6.9,137.94,7l-.28,1.51-6.55,35.55-.51,2.77,2.79-.44,16.15-2.5,1.55-.24.13-1.56.5-5.7.23-2.55-2.53.4-4.51.71.9-4.84,1.25,0c.76,0,1.5-.06,2.24-.08s1.39,0,1.78-.08l1.51-.15.26-1.49c.17-1,.32-1.92.44-2.84s.24-1.8.37-2.73l.36-2.51-2.52.24c-.21,0-.64,0-1.52,0s-1.57,0-2.34.05h-.35l.94-4.81h.23c.73,0,1.45,0,2.17,0l2-.05c.66,0,1.18,0,1.57-.08l1.49-.15L156,14q.13-.78.36-1.77c.15-.69.3-1.31.45-1.89l0,0v0a21,21,0,0,1,.55-2.07l.9-2.85Z" transform="translate(-3.44 -4.71)"/><path class="cls-2" d="M149,44.25q1.35-6.64,2.6-13c.29-1.78.63-3.66,1-5.62s.7-3.87,1-5.78l.9-5.54c.27-1.75.5-3.38.67-4.84l.07-.64.62-.2a36.89,36.89,0,0,1,6.32-1.36,52.12,52.12,0,0,1,6.68-.43,10.75,10.75,0,0,1,3.56.5,5.8,5.8,0,0,1,2.42,1.56A5.75,5.75,0,0,1,176,11.24a10,10,0,0,1,.34,2.71,12.51,12.51,0,0,1-.76,4.26,17.37,17.37,0,0,1-2,3.88,19.94,19.94,0,0,1-2.84,3.31,16,16,0,0,1-2.67,2c.49,1.1,1,2.28,1.55,3.55.69,1.58,1.33,3.1,1.93,4.53.67,1.68,1.35,3.34,2.05,5l.41,1-9.73,3.39-.3-1c-.68-2.16-1.29-4.18-1.81-6-.23-.75-.47-1.55-.7-2.37s-.45-1.6-.66-2.34c0-.06,0-.12,0-.18,0,.22-.09.44-.13.66-.29,1.43-.54,2.8-.77,4.13-.31,1.58-.61,3.16-.91,4.76l-.11.63-10.27,2.66Zm14-22.92.56-.27A15.42,15.42,0,0,0,166,19.48a14,14,0,0,0,2-1.88c.6-.7.66-1.07.66-1.2s0-.14,0-.15a1.43,1.43,0,0,0-.57-.26,5,5,0,0,0-1.17-.19c-.47,0-1-.05-1.48-.05l-1.08,0h-.25Z" transform="translate(-3.44 -4.71)"/><path class="cls-3" d="M168.83,7.85a9.85,9.85,0,0,1,3.23.45,4.69,4.69,0,0,1,2,1.27,4.79,4.79,0,0,1,1,1.93,9.29,9.29,0,0,1,.3,2.45,11.3,11.3,0,0,1-.7,3.92,16.57,16.57,0,0,1-1.87,3.65,19.36,19.36,0,0,1-2.7,3.15A14.56,14.56,0,0,1,166.83,27q.9,2,1.93,4.37t1.92,4.53c.67,1.67,1.35,3.33,2,5L165,43.6q-1-3.19-1.8-6c-.23-.77-.47-1.56-.7-2.38s-.45-1.59-.65-2.32-.37-1.39-.5-2a11,11,0,0,1-.25-1.42l-.65.2q-.3,1.61-.72,3.75c-.29,1.43-.55,2.82-.78,4.15-.3,1.56-.6,3.15-.9,4.75l-8.1,2.1q1.35-6.64,2.6-13,.45-2.7,1-5.63t1-5.8l.9-5.55c.28-1.78.5-3.41.67-4.87a36.06,36.06,0,0,1,6.15-1.33,51.8,51.8,0,0,1,6.55-.42m-7.15,14.9A7.31,7.31,0,0,0,164,22a16.62,16.62,0,0,0,2.62-1.68,15,15,0,0,0,2.15-2,3.05,3.05,0,0,0,.9-1.85,1.16,1.16,0,0,0-.35-.88,2.46,2.46,0,0,0-1-.5A7.11,7.11,0,0,0,167,14.8c-.5,0-1-.05-1.55-.05l-1.12,0-1,0-1.6,8m7.15-16.9a53.9,53.9,0,0,0-6.8.44,38,38,0,0,0-6.5,1.4l-1.24.39-.15,1.29c-.16,1.45-.39,3.06-.66,4.79s-.58,3.62-.9,5.54-.65,3.83-1,5.75-.7,3.83-1,5.64c-.81,4.12-1.68,8.48-2.59,13l-.64,3.14,3.1-.81,8.1-2.1,1.23-.31.24-1.25c.3-1.6.6-3.18.89-4.75l.12-.64c.09.28.17.57.26.85.52,1.82,1.13,3.85,1.8,6l.62,2,1.95-.68,7.75-2.7,2-.7-.83-2c-.7-1.67-1.39-3.34-2-5-.62-1.47-1.26-3-1.95-4.58-.42-1-.82-1.9-1.21-2.77a17.47,17.47,0,0,0,2.09-1.68,20.73,20.73,0,0,0,3-3.48,18.62,18.62,0,0,0,2.1-4.09,13.58,13.58,0,0,0,.82-4.61,11.21,11.21,0,0,0-.37-3,6.88,6.88,0,0,0-1.45-2.72,6.8,6.8,0,0,0-2.84-1.84,11.67,11.67,0,0,0-3.89-.56Zm-3.9,10.9h.5c.48,0,1,0,1.42,0a3.65,3.65,0,0,1,.49.06l-.08.1a13.16,13.16,0,0,1-1.86,1.75c-.33.25-.66.49-1,.72l.54-2.67Z" transform="translate(-3.44 -4.71)"/><path class="cls-2" d="M180.48,45.5A9.29,9.29,0,0,1,176,44.3a13.79,13.79,0,0,1-4.17-3.68l-.39-.51,4.86-9.52.9,1.68a4.36,4.36,0,0,0,.86,1.08,7.09,7.09,0,0,0,1.38,1,11.59,11.59,0,0,0,1.6.76,3.72,3.72,0,0,0,1.23.26,3,3,0,0,0,.95-.16,3.09,3.09,0,0,0,.91-.45,2.3,2.3,0,0,0,.61-.64,1.28,1.28,0,0,0,.18-.7,2.65,2.65,0,0,0-.57-1.62,10.53,10.53,0,0,0-1.76-1.78c-.75-.6-1.57-1.22-2.45-1.83a24.72,24.72,0,0,1-2.58-2.09,12.2,12.2,0,0,1-2.09-2.56,6.41,6.41,0,0,1-.95-3.42,9.38,9.38,0,0,1,1.73-5.42,16.33,16.33,0,0,1,4.12-4.13,21.66,21.66,0,0,1,5.32-2.7,17.19,17.19,0,0,1,5.53-1,10.71,10.71,0,0,1,2.81.36,6.38,6.38,0,0,1,2.45,1.24,6.47,6.47,0,0,1,1.67,2.17,7.39,7.39,0,0,1,.62,3.18,9.26,9.26,0,0,1-.14,1.57c-.08.45-.15.94-.22,1.45l-.08.66-9.55,2.76.42-1.68c.06-.25.11-.5.16-.75a3.15,3.15,0,0,0,.06-.61,2.55,2.55,0,0,0-.32-1.56.65.65,0,0,0-.58-.29,1.17,1.17,0,0,0-.51.18,6,6,0,0,0-1,.66,3.77,3.77,0,0,0-.76.88A1.63,1.63,0,0,0,186,18a2,2,0,0,0,.44,1.35A7.74,7.74,0,0,0,188,20.68c.64.45,1.36.92,2.13,1.39a10.47,10.47,0,0,1,4.26,5.24,13.25,13.25,0,0,1,.74,4.74,12.76,12.76,0,0,1-1.17,5.5,13.48,13.48,0,0,1-3.13,4.24,14.05,14.05,0,0,1-4.63,2.75A16.75,16.75,0,0,1,180.48,45.5Z" transform="translate(-3.44 -4.71)"/><path class="cls-3" d="M191.23,7.9a10,10,0,0,1,2.55.32,5.48,5.48,0,0,1,2.07,1,5.32,5.32,0,0,1,1.4,1.83,6.36,6.36,0,0,1,.53,2.75,7.45,7.45,0,0,1-.13,1.4c-.08.47-.15,1-.22,1.5l-7.25,2.1c.07-.27.12-.54.17-.8a4.43,4.43,0,0,0,.08-.8,3.58,3.58,0,0,0-.53-2.18,1.64,1.64,0,0,0-1.37-.67,2.24,2.24,0,0,0-1,.3,7.44,7.44,0,0,0-1.15.77,4.6,4.6,0,0,0-1,1.13A2.59,2.59,0,0,0,185,18a2.94,2.94,0,0,0,.68,2,8.49,8.49,0,0,0,1.67,1.5c.67.47,1.39.94,2.17,1.42a9.56,9.56,0,0,1,2.18,1.88,9.36,9.36,0,0,1,1.67,2.87,12.13,12.13,0,0,1,.68,4.38A11.66,11.66,0,0,1,193,37.12a12.18,12.18,0,0,1-2.9,3.93,12.75,12.75,0,0,1-4.3,2.55,15.44,15.44,0,0,1-5.32.9,8.35,8.35,0,0,1-4-1.08A12.53,12.53,0,0,1,172.63,40l3.7-7.25a5.41,5.41,0,0,0,1,1.32A8.13,8.13,0,0,0,179,35.25a11,11,0,0,0,1.75.82,4.47,4.47,0,0,0,1.57.33,4.34,4.34,0,0,0,1.25-.2,4,4,0,0,0,1.2-.6,3.18,3.18,0,0,0,.87-.93,2.25,2.25,0,0,0,.33-1.22,3.63,3.63,0,0,0-.78-2.23,11,11,0,0,0-1.92-1.95c-.77-.61-1.6-1.24-2.5-1.87a24,24,0,0,1-2.48-2,11.35,11.35,0,0,1-1.92-2.35,5.45,5.45,0,0,1-.8-2.9,8.39,8.39,0,0,1,1.55-4.85A15.22,15.22,0,0,1,181,11.42,20.32,20.32,0,0,1,186,8.85a16,16,0,0,1,5.2-.95m0-2A17.78,17.78,0,0,0,185.38,7a22.79,22.79,0,0,0-5.57,2.82,17.53,17.53,0,0,0-4.38,4.38,10.43,10.43,0,0,0-1.9,6,7.39,7.39,0,0,0,1.1,4,13.25,13.25,0,0,0,2.26,2.76A24.49,24.49,0,0,0,179.58,29q1.29.91,2.4,1.8a9.51,9.51,0,0,1,1.58,1.6,1.64,1.64,0,0,1,.37,1,.29.29,0,0,1,0,.17,1.19,1.19,0,0,1-.35.36,2.07,2.07,0,0,1-.61.31,2.39,2.39,0,0,1-.66.11,2.77,2.77,0,0,1-.88-.2,9.53,9.53,0,0,1-1.45-.69,5.5,5.5,0,0,1-1.18-.88,3.39,3.39,0,0,1-.68-.83l-1.8-3.37-1.74,3.41-3.7,7.25-.58,1.14.79,1a14.5,14.5,0,0,0,4.47,4,10.32,10.32,0,0,0,4.95,1.32,17.72,17.72,0,0,0,6-1,15.06,15.06,0,0,0,5-2.95A14.48,14.48,0,0,0,194.81,38a13.8,13.8,0,0,0,1.27-5.93,14.15,14.15,0,0,0-.81-5.11,11.82,11.82,0,0,0-2-3.45,11.63,11.63,0,0,0-2.63-2.27l-.46-.28.59-.17,7.25-2.1,1.26-.37.16-1.3c.07-.49.14-1,.21-1.4a9.42,9.42,0,0,0,.16-1.75,8.3,8.3,0,0,0-.72-3.61,7.31,7.31,0,0,0-1.93-2.51,7.44,7.44,0,0,0-2.83-1.44,11.79,11.79,0,0,0-3.07-.39ZM188,19.44a5.59,5.59,0,0,1-.73-.73A1,1,0,0,1,187,18a.64.64,0,0,1,.1-.35,2.62,2.62,0,0,1,.55-.64,4.61,4.61,0,0,1,.7-.48,5,5,0,0,1,.05.72,2.15,2.15,0,0,1,0,.43c0,.23-.09.46-.15.68L188,19.44Z" transform="translate(-3.44 -4.71)"/></svg>