<svg id="Layer_1" data-name="Layer 1" xmlns="http://www.w3.org/2000/svg" viewBox="0 0 194.47 45.69"><defs><style>.cls-1{fill:#f9b233;}.cls-2{fill:#fff;}.cls-3{fill:#1d1d1b;}</style></defs><path class="cls-1" d="M9,46.65c.4-1.4.79-3,1.17-4.77s.76-3.65,1.14-5.61.75-3.94,1.1-6,.69-4,1-5.83c.69-4.36,1.4-9,2.1-13.72l.12-.81,18.9-1-1.94,8.22h-7.8l-1.2,6.86h4.11c.77,0,1.37,0,1.77-.05l1.2-.1-.13,1.2c-.1.95-.23,1.89-.38,2.81s-.29,1.79-.42,2.68l-.13.86h-.86l-1.87,0c-.81,0-1.64,0-2.5-.08l-2-.07L20.16,45.88l-.71.12c-1.12.2-2.23.41-3.32.64s-2,.37-3,.6-2.05.45-2.88.65l-1.65.39Z" transform="translate(-5.01 -4.82)"/><path class="cls-1" d="M33.28,10.07l-1.45,6.15H24l-1.55,8.9c1,0,2-.05,2.95-.05h2.35c.8,0,1.41,0,1.85-.06-.1.94-.23,1.86-.38,2.75s-.29,1.81-.42,2.71l-1.85,0-2.48-.07-2.87-.11L19.28,45c-1.14.2-2.25.41-3.35.64-.94.17-1.95.37-3,.61s-2.07.45-2.9.64c.4-1.43.79-3,1.17-4.82s.77-3.66,1.15-5.62.75-4,1.1-6,.69-4,1-5.83q1.05-6.64,2.1-13.75l16.75-.84m2.56-2.14-2.66.14-16.75.85L14.79,9l-.24,1.62c-.7,4.74-1.41,9.36-2.1,13.73-.33,1.83-.67,3.78-1,5.8s-.71,4-1.09,5.93-.76,3.8-1.14,5.59S8.44,45,8.05,46.38l-.91,3.27,3.3-.79c.82-.2,1.78-.41,2.85-.64s2.06-.42,3-.59h.06c1.09-.23,2.19-.44,3.29-.64l1.4-.24.22-1.42,2-13,1.1,0c.86,0,1.69.06,2.51.08l1.89,0H30.5l.26-1.71q.19-1.34.42-2.67c.15-.93.28-1.89.39-2.86l.25-2.4-2.4.19c-.38,0-1,.05-1.69.05H24.81l.85-4.85h7.75l.36-1.55,1.45-6.15.62-2.59Z" transform="translate(-5.01 -4.82)"/><path class="cls-1" d="M35.88,48.07a8.15,8.15,0,0,1-3.42-.72,7.51,7.51,0,0,1-2.71-2.13A10.12,10.12,0,0,1,28,41.73a17.38,17.38,0,0,1-.61-4.91,28,28,0,0,1,.72-6.13,43.39,43.39,0,0,1,1.95-6.29,34.87,34.87,0,0,1,3-6,29.83,29.83,0,0,1,4-5,18.87,18.87,0,0,1,4.75-3.56,11.62,11.62,0,0,1,5.46-1.36,7.93,7.93,0,0,1,4.25,1.07,7.66,7.66,0,0,1,2.64,2.76,12,12,0,0,1,1.29,3.63,21.35,21.35,0,0,1,.37,3.89,33.91,33.91,0,0,1-.91,8,34.29,34.29,0,0,1-2.39,6.85,28.42,28.42,0,0,1-3.5,5.6,27.23,27.23,0,0,1-4.18,4.2,18.53,18.53,0,0,1-4.5,2.7A11.86,11.86,0,0,1,35.88,48.07ZM45.53,21a4.61,4.61,0,0,0-2.44.66,8,8,0,0,0-2.16,1.89,14,14,0,0,0-1.75,2.8,28,28,0,0,0-1.33,3.29,19.07,19.07,0,0,0-.78,3.2,18.45,18.45,0,0,0-.24,2.71,2.66,2.66,0,0,0,.15.83,2.23,2.23,0,0,0,.39.75,2.13,2.13,0,0,0,.61.54,1.08,1.08,0,0,0,.6.18,4.84,4.84,0,0,0,3.33-1.3A12,12,0,0,0,44.59,33a21.77,21.77,0,0,0,1.69-4.58,18.63,18.63,0,0,0,.6-4.42c0-.36,0-.76-.07-1.19a4.14,4.14,0,0,0-.24-1.05,1.67,1.67,0,0,0-.44-.64A.83.83,0,0,0,45.53,21Z" transform="translate(-5.01 -4.82)"/><path class="cls-1" d="M47.28,9.47a6.84,6.84,0,0,1,3.72.92,6.69,6.69,0,0,1,2.3,2.4,11,11,0,0,1,1.18,3.33,20.07,20.07,0,0,1,.35,3.7A32.49,32.49,0,0,1,54,27.54a33.77,33.77,0,0,1-2.32,6.65,26.88,26.88,0,0,1-3.38,5.4,26.57,26.57,0,0,1-4,4A17.18,17.18,0,0,1,40,46.19a11,11,0,0,1-4.1.88,7,7,0,0,1-3-.63,6.53,6.53,0,0,1-2.35-1.85A9,9,0,0,1,29,41.44a16.38,16.38,0,0,1-.57-4.62,26.69,26.69,0,0,1,.7-5.91A41.81,41.81,0,0,1,31,24.76,33.55,33.55,0,0,1,33.93,19a28.78,28.78,0,0,1,3.85-4.88,17.89,17.89,0,0,1,4.5-3.37,10.59,10.59,0,0,1,5-1.25m-8.7,29.35a5.88,5.88,0,0,0,4-1.55,13,13,0,0,0,2.9-3.8,22.43,22.43,0,0,0,1.77-4.81A19.47,19.47,0,0,0,47.88,24a12.21,12.21,0,0,0-.08-1.29,5.45,5.45,0,0,0-.3-1.31,2.49,2.49,0,0,0-.7-1A1.85,1.85,0,0,0,45.53,20a5.7,5.7,0,0,0-3,.79,9.36,9.36,0,0,0-2.43,2.13,14.94,14.94,0,0,0-1.87,3,29.89,29.89,0,0,0-1.38,3.4,20.12,20.12,0,0,0-.82,3.37,19.19,19.19,0,0,0-.25,2.86,3.39,3.39,0,0,0,.2,1.14,3.33,3.33,0,0,0,.55,1.06,3.25,3.25,0,0,0,.87.77,2.09,2.09,0,0,0,1.13.33m8.7-31.35a12.73,12.73,0,0,0-5.93,1.47,20.6,20.6,0,0,0-5,3.74,31.8,31.8,0,0,0-4.11,5.21A35.79,35.79,0,0,0,29.12,24a43,43,0,0,0-2,6.44,28.8,28.8,0,0,0-.75,6.35A18.19,18.19,0,0,0,27,42,10.89,10.89,0,0,0,29,45.86,8.55,8.55,0,0,0,32,48.26a9.17,9.17,0,0,0,3.84.81,12.86,12.86,0,0,0,4.85-1,19.16,19.16,0,0,0,4.74-2.84,28.33,28.33,0,0,0,4.34-4.35,29.67,29.67,0,0,0,3.62-5.8,36.23,36.23,0,0,0,2.47-7,35.43,35.43,0,0,0,.93-8.19,21.76,21.76,0,0,0-.39-4.08,13,13,0,0,0-1.39-3.93,8.7,8.7,0,0,0-3-3.11,8.89,8.89,0,0,0-4.79-1.23Zm-8.7,29.35s0,0-.07,0a1.17,1.17,0,0,1-.35-.3,1.36,1.36,0,0,1-.23-.45,1.58,1.58,0,0,1-.1-.52A17.66,17.66,0,0,1,38.05,33a18.2,18.2,0,0,1,.75-3,28.4,28.4,0,0,1,1.28-3.17,12.74,12.74,0,0,1,1.63-2.6,7.17,7.17,0,0,1,1.89-1.66A3.68,3.68,0,0,1,45.53,22h0a.53.53,0,0,1,.08.15,3.21,3.21,0,0,1,.18.81A8.59,8.59,0,0,1,45.88,24a17.65,17.65,0,0,1-.57,4.18,20.54,20.54,0,0,1-1.61,4.37,10.89,10.89,0,0,1-2.45,3.21,3.87,3.87,0,0,1-2.67,1Z" transform="translate(-5.01 -4.82)"/><path class="cls-1" d="M51.09,46.83c.2-1.5.43-3.17.7-5s.58-3.76.93-5.73.7-4,1.05-6,.71-4,1.08-5.77c.82-4.31,1.71-8.8,2.65-13.36l.14-.69L68.53,8.89l-.33,1.4q-1.35,5.81-2.6,11.3c-.37,1.57-.73,3.19-1.1,4.86s-.71,3.32-1,4.92-.64,3.15-.9,4.62c-.17,1-.33,1.91-.46,2.75l1.48-.05,2.55,0h1l0,1c0,.62.08,1.22.14,1.82s.14,1.14.22,1.62.15,1,.2,1.36.08.55.11.66l.31,1.25H66.83c-.29,0-.58,0-.85,0s-.46,0-.7,0c-1,0-2.09,0-3.22.09s-2.28.17-3.42.3-2.27.3-3.35.51a24.39,24.39,0,0,0-2.9.74l-1.52.51Z" transform="translate(-5.01 -4.82)"/><path class="cls-1" d="M67.23,10.07q-1.35,5.79-2.6,11.3c-.37,1.56-.74,3.19-1.1,4.87s-.72,3.33-1.05,4.92-.64,3.16-.9,4.66-.49,2.83-.65,4c.83-.07,1.72-.11,2.67-.13l2.53,0c0,.64.08,1.26.15,1.88s.14,1.18.22,1.68.15.94.2,1.32a6.69,6.69,0,0,0,.13.78q-.4,0-.78,0c-.25,0-.51,0-.77,0-1,0-2.13,0-3.28.1s-2.31.16-3.47.29-2.31.31-3.43.53a22.79,22.79,0,0,0-3,.78c.2-1.5.43-3.17.7-5s.57-3.74.92-5.7.7-4,1-6,.71-3.92,1.08-5.75Q57.08,18,58.48,11.22l8.75-1.15m2.6-2.36L67,8.08,58.22,9.23l-1.41.19-.29,1.39c-.94,4.56-1.83,9.06-2.66,13.38C53.5,26,53.14,28,52.78,30s-.7,4-1.05,5.94-.66,3.93-.93,5.77-.5,3.51-.71,5l-.42,3.18,3-1a22.23,22.23,0,0,1,2.77-.71c1.06-.2,2.16-.37,3.27-.5s2.25-.22,3.37-.29,2.17-.09,3.16-.09c.22,0,.44,0,.65,0s.58,0,.9,0H69.4l-.63-2.5a5.45,5.45,0,0,1-.08-.54c-.06-.4-.13-.87-.22-1.39s-.14-1-.2-1.56-.12-1.18-.15-1.77L68,37.66h-1.9l-2.56,0h-.29q.12-.73.27-1.53c.26-1.47.55-3,.88-4.6s.69-3.23,1-4.9.74-3.33,1.09-4.85q1.26-5.52,2.6-11.3l.66-2.81Z" transform="translate(-5.01 -4.82)"/><path class="cls-1" d="M66.19,46.83c.2-1.5.43-3.17.7-5s.58-3.76.93-5.73.7-4,1.05-6,.71-4,1.08-5.77c.81-4.25,1.7-8.75,2.65-13.36l.14-.69L83.63,8.89l-.33,1.4Q82,16.1,80.7,21.59c-.37,1.57-.73,3.19-1.1,4.86s-.71,3.32-1,4.92-.64,3.16-.9,4.62c-.17,1-.33,1.9-.46,2.75l1.48-.05,2.55,0h1l0,1c0,.61.08,1.22.14,1.81s.14,1.14.22,1.62.15,1,.2,1.36.08.55.11.66l.31,1.25H81.93c-.3,0-.58,0-.85,0s-.46,0-.7,0c-1,0-2.1,0-3.22.09s-2.28.17-3.42.3-2.27.3-3.35.51a24.39,24.39,0,0,0-2.9.74L66,48.42Z" transform="translate(-5.01 -4.82)"/><path class="cls-1" d="M82.33,10.07q-1.35,5.79-2.6,11.3c-.37,1.56-.74,3.19-1.1,4.87s-.72,3.33-1,4.92-.64,3.16-.9,4.66-.49,2.83-.65,4c.83-.07,1.72-.11,2.67-.13l2.53,0c0,.64.08,1.26.15,1.88s.14,1.18.22,1.68.15.94.2,1.32a6.69,6.69,0,0,0,.13.78q-.41,0-.78,0c-.25,0-.51,0-.77,0-1,0-2.13,0-3.28.1s-2.31.16-3.47.29-2.31.31-3.43.53a22.79,22.79,0,0,0-3,.78c.2-1.5.43-3.17.7-5s.57-3.74.92-5.7.7-4,1-6,.71-3.92,1.08-5.75Q72.18,18,73.58,11.22l8.75-1.15m2.6-2.36-2.86.37L73.32,9.23l-1.42.19-.28,1.39c-1,4.61-1.85,9.11-2.66,13.38C68.6,26,68.24,28,67.88,30s-.7,4-1,5.94-.67,3.93-.93,5.77-.51,3.51-.71,5l-.42,3.18,3-1a22.23,22.23,0,0,1,2.77-.71c1.06-.2,2.16-.37,3.27-.5s2.26-.22,3.37-.29,2.16-.09,3.16-.09c.22,0,.44,0,.65,0s.58,0,.9,0h2.56l-.62-2.49c0-.1-.05-.29-.09-.55s-.12-.87-.2-1.39-.16-1-.22-1.56-.11-1.19-.14-1.76l-.09-1.91h-1.9l-2.56,0h-.29q.12-.73.27-1.53c.25-1.46.55-3,.88-4.6s.68-3.23,1-4.9.73-3.3,1.09-4.85q1.26-5.52,2.6-11.3l.66-2.81Z" transform="translate(-5.01 -4.82)"/><path class="cls-1" d="M90.73,48.07a8.19,8.19,0,0,1-3.43-.72,7.67,7.67,0,0,1-2.7-2.13,10,10,0,0,1-1.76-3.49,17.38,17.38,0,0,1-.61-4.91A28,28,0,0,1,83,30.69a44.21,44.21,0,0,1,1.94-6.29,35.65,35.65,0,0,1,3-6,30.3,30.3,0,0,1,4-5,19.23,19.23,0,0,1,4.75-3.56,11.69,11.69,0,0,1,5.47-1.36,7.93,7.93,0,0,1,4.25,1.07A7.75,7.75,0,0,1,109,12.3a12.11,12.11,0,0,1,1.29,3.63,21.35,21.35,0,0,1,.37,3.89,33.91,33.91,0,0,1-.91,8,34.93,34.93,0,0,1-2.39,6.85,28.89,28.89,0,0,1-3.5,5.6,27.68,27.68,0,0,1-4.18,4.2,18.53,18.53,0,0,1-4.5,2.7A11.86,11.86,0,0,1,90.73,48.07ZM100.38,21a4.65,4.65,0,0,0-2.45.66,8,8,0,0,0-2.15,1.89A13.54,13.54,0,0,0,94,26.32a27.28,27.28,0,0,0-1.33,3.29,19.13,19.13,0,0,0-.79,3.2,19.75,19.75,0,0,0-.23,2.71,2.94,2.94,0,0,0,.14.83,2.44,2.44,0,0,0,.4.75,2,2,0,0,0,.61.54,1.08,1.08,0,0,0,.6.18,4.86,4.86,0,0,0,3.33-1.3A12,12,0,0,0,99.44,33a22,22,0,0,0,1.69-4.58,18.63,18.63,0,0,0,.6-4.42c0-.36,0-.76-.07-1.19a4.14,4.14,0,0,0-.25-1.05,1.54,1.54,0,0,0-.43-.64A.9.9,0,0,0,100.38,21Z" transform="translate(-5.01 -4.82)"/><path class="cls-1" d="M102.13,9.47a6.84,6.84,0,0,1,3.72.92,6.69,6.69,0,0,1,2.3,2.4,11,11,0,0,1,1.18,3.33,20.07,20.07,0,0,1,.35,3.7,33,33,0,0,1-.88,7.72,33.77,33.77,0,0,1-2.32,6.65,27.34,27.34,0,0,1-3.38,5.4,26.57,26.57,0,0,1-4,4,17.18,17.18,0,0,1-4.25,2.55,11,11,0,0,1-4.1.88,7,7,0,0,1-3-.63,6.53,6.53,0,0,1-2.35-1.85,9,9,0,0,1-1.58-3.15,16.38,16.38,0,0,1-.57-4.62,26.69,26.69,0,0,1,.7-5.91,40.64,40.64,0,0,1,1.9-6.15A34.23,34.23,0,0,1,88.77,19a29.33,29.33,0,0,1,3.86-4.88,17.72,17.72,0,0,1,4.5-3.37,10.59,10.59,0,0,1,5-1.25m-8.7,29.35a5.88,5.88,0,0,0,4-1.55,13,13,0,0,0,2.9-3.8,22.43,22.43,0,0,0,1.77-4.81,19.47,19.47,0,0,0,.63-4.65,12.21,12.21,0,0,0-.08-1.29,5.45,5.45,0,0,0-.3-1.31,2.49,2.49,0,0,0-.7-1,1.85,1.85,0,0,0-1.27-.42,5.7,5.7,0,0,0-2.95.79A9.36,9.36,0,0,0,95,22.89a14.5,14.5,0,0,0-1.87,3,28.16,28.16,0,0,0-1.38,3.4,20.12,20.12,0,0,0-.82,3.37,19.19,19.19,0,0,0-.25,2.86,3.39,3.39,0,0,0,.2,1.14,3.33,3.33,0,0,0,.55,1.06,3.25,3.25,0,0,0,.87.77,2.07,2.07,0,0,0,1.13.33m8.7-31.35A12.73,12.73,0,0,0,96.2,8.94a20.41,20.41,0,0,0-5,3.74,31.8,31.8,0,0,0-4.11,5.21A36.57,36.57,0,0,0,84,24a45,45,0,0,0-2,6.44,29.45,29.45,0,0,0-.74,6.35A18.57,18.57,0,0,0,81.88,42a11,11,0,0,0,2,3.85,8.67,8.67,0,0,0,3.06,2.4,9.17,9.17,0,0,0,3.84.81,12.9,12.9,0,0,0,4.85-1,19.34,19.34,0,0,0,4.74-2.84,27.84,27.84,0,0,0,4.33-4.35,29.23,29.23,0,0,0,3.63-5.8,35.57,35.57,0,0,0,2.46-7,34.89,34.89,0,0,0,.94-8.19,21.76,21.76,0,0,0-.39-4.08,13,13,0,0,0-1.39-3.93,8.65,8.65,0,0,0-3-3.11,8.83,8.83,0,0,0-4.78-1.23Zm-8.7,29.35a.07.07,0,0,1-.07,0,1.17,1.17,0,0,1-.35-.3,1.37,1.37,0,0,1-.24-.45,1.83,1.83,0,0,1-.09-.52A17.66,17.66,0,0,1,92.9,33a18.2,18.2,0,0,1,.75-3,25.94,25.94,0,0,1,1.28-3.17,13.16,13.16,0,0,1,1.62-2.6,7.21,7.21,0,0,1,1.9-1.66,3.68,3.68,0,0,1,1.93-.52h0a.64.64,0,0,1,.08.14,3.4,3.4,0,0,1,.18.82,10.82,10.82,0,0,1,.07,1.08,18.19,18.19,0,0,1-.57,4.18,20,20,0,0,1-1.62,4.37,10.83,10.83,0,0,1-2.44,3.21,3.87,3.87,0,0,1-2.67,1Z" transform="translate(-5.01 -4.82)"/><path class="cls-1" d="M111.27,10.6l.86,0a32.79,32.79,0,0,0,4.29-.46,39.15,39.15,0,0,1,4.23-.54l1.08-.08v1.08a9.55,9.55,0,0,1-.17,1.17c-.1.65-.23,1.5-.4,2.56s-.35,2.23-.55,3.54q-.26,1.71-.72,4.53c.25-.85.46-1.61.65-2.26.35-1.21.68-2.38,1-3.51s.62-2.2.9-3.17.5-1.75.67-2.41l.19-.76h1.23a16.47,16.47,0,0,0,1.71-.09c.61-.06,1.17-.14,1.71-.22s1.08-.18,1.66-.31l1.54-.34-.35,1.53a17.15,17.15,0,0,0-.2,1.72q-.14,1.41-.33,3.39c-.13,1.31-.27,2.76-.4,4.33-.11,1.3-.22,2.57-.32,3.82l3-13.81.68-.1c1.14-.17,2.27-.32,3.38-.46l3-.4c1-.13,1.9-.27,2.67-.43l1.75-.37-.6,1.68c-.49,1.37-1,2.93-1.48,4.62s-1,3.52-1.55,5.41-1,3.82-1.52,5.73-1,3.8-1.43,5.61c-1.05,4.22-2.09,8.64-3.09,13.11l-.14.66L121,47.57l1.3-11.41-2.71,9.93-12.33,2.19Z" transform="translate(-5.01 -4.82)"/><path class="cls-1" d="M142.53,9.87q-.75,2.09-1.5,4.67T139.48,20c-.54,1.9-1,3.81-1.53,5.75s-1,3.79-1.42,5.6q-1.6,6.39-3.1,13.15l-11.3,1.9,2.2-19.3h-.6l-5,18.15-10.4,1.85,3.8-35.5a33.23,33.23,0,0,0,4.42-.48,36.7,36.7,0,0,1,4.13-.52s0,.37-.15,1-.24,1.5-.4,2.55-.35,2.23-.55,3.55-.5,3.13-.88,5.43-.89,5.48-1.52,9.54H118q1.29-4.59,2.15-7.52l1.37-4.75c.35-1.22.68-2.39,1-3.52s.62-2.19.9-3.15.51-1.79.68-2.46h.45a16.11,16.11,0,0,0,1.82-.1c.62-.06,1.2-.14,1.75-.22s1.13-.19,1.73-.32a15.39,15.39,0,0,0-.23,1.85c-.08.93-.19,2-.32,3.37s-.27,2.77-.4,4.35-.27,3.13-.4,4.65-.26,3-.38,4.32-.22,2.54-.32,3.5h.9l4.75-21.5c1.13-.16,2.25-.31,3.35-.44s2-.27,3-.4,1.95-.29,2.75-.45m3.08-2.69-3.49.73c-.75.15-1.62.3-2.6.42l-3,.4c-1.06.13-2.2.29-3.36.46l-1,.14.3-1.35-3.08.68q-.82.19-1.59.3c-.52.08-1.08.15-1.66.22a14.59,14.59,0,0,1-1.61.08h-1.8V8.41l-2.15.16a40.36,40.36,0,0,0-4.33.55,31,31,0,0,1-4.16.45l-1.72.07-.18,1.71-3.8,35.5-.29,2.65,2.63-.47,10.4-1.85L120,47l-.2,1.76,2.62-.44,11.3-1.9,1.33-.23.29-1.31c1-4.47,2-8.88,3.09-13.1.46-1.79.94-3.66,1.42-5.6s1-3.81,1.51-5.69,1-3.7,1.55-5.41,1-3.21,1.46-4.56l1.2-3.36Z" transform="translate(-5.01 -4.82)"/><path class="cls-1" d="M135.65,46.59c.33-1.41.67-3,1-4.75s.71-3.57,1.07-5.49.72-3.84,1-5.8.65-3.86,1-5.7q1-6.39,2.1-13.14L142,11l9.9-1.58-.24,1.37q-1.16,6.71-2.25,13.15c-.3,1.83-1.56,9.61-1.87,11.55s-.61,3.79-.87,5.61-.52,3.46-.76,4.93l-.13.85h-.85c-.19,0-.63,0-1.69.12-.87.08-1.77.18-2.69.29l-2.52.33-1,.14-1.81.91Z" transform="translate(-5.01 -4.82)"/><path class="cls-1" d="M150.63,10.62c-.77,4.46-1.52,8.85-2.25,13.14l-.93,5.71c-.32,2-.63,3.91-.95,5.85s-.61,3.8-.87,5.62-.52,3.46-.75,4.93c-.3,0-.9,0-1.78.12s-1.79.18-2.72.3l-2.53.33a8,8,0,0,0-1.22.2c.33-1.44.67-3,1-4.78s.71-3.58,1.08-5.5.71-3.86,1.05-5.82.65-3.87.95-5.71q1.05-6.39,2.1-13.14l7.8-1.25m2.44-2.42-2.76.44-7.8,1.25-1.44.23-.22,1.44c-.7,4.48-1.4,8.9-2.1,13.13-.3,1.83-.61,3.73-.95,5.69s-.68,3.92-1,5.78-.72,3.74-1.07,5.49-.69,3.31-1,4.71l-1,4.15,3.59-1.79c.13,0,.38-.06.82-.12l2.51-.33c.89-.11,1.79-.21,2.66-.29,1.11-.1,1.48-.11,1.59-.11h1.7l.27-1.69c.23-1.47.49-3.12.75-5s.57-3.71.87-5.59.64-3.89,1-5.86.62-3.86.92-5.69q1.1-6.43,2.25-13.14l.47-2.75Z" transform="translate(-5.01 -4.82)"/><path class="cls-1" d="M145.75,46.91q1.5-7.2,2.84-13.94c.33-1.91.69-3.92,1.08-6s.74-4.09,1.07-6.1.63-3.94.9-5.78.46-3.51.59-5l.09-1,1,.08c.41,0,.75,0,1,0h1c.45,0,1,0,1.67,0l2-.07L162,9l.17.84c.46,2.31.88,4.59,1.25,6.78l1.15,6a1,1,0,0,1,0-.17c.19-1,.39-1.93.57-2.9s.37-2,.58-2.95c.46-2.17,1.6-7.4,1.6-7.4l8.21-1-.31,1.38c-1.12,5.07-2.13,9.94-3,14.47-.4,2-.8,4-1.18,6s-.74,3.94-1.07,5.79-.62,3.57-.85,5.12-.41,2.89-.54,4l-.11.88h-.88l-1,.2-5,1.12a15,15,0,0,0-1.84.51l-1.25.48-.1-1.34c-.2-2.63-.42-5.18-.65-7.58-.1-1-.21-2.08-.32-3.16-.09-.79-.18-1.55-.27-2.29-.11.63-.22,1.28-.33,1.94-.17,1-.36,2-.56,3-.43,2.22-.89,4.56-1.4,7l-.12.62-9.45,2.2Z" transform="translate(-5.01 -4.82)"/><path class="cls-1" d="M174.33,9.37q-1.71,7.65-3,14.5c-.4,2-.8,3.95-1.18,6s-.74,3.95-1.07,5.8-.62,3.57-.85,5.15-.42,2.91-.55,4a10.05,10.05,0,0,0-1.18.22l-2.35.53c-.88.2-1.77.39-2.65.6a16.86,16.86,0,0,0-2,.54q-.3-4-.65-7.59-.15-1.56-.33-3.18c-.12-1.08-.24-2.12-.37-3.12s-.27-1.94-.4-2.8-.27-1.62-.4-2.25c-.1.63-.24,1.36-.4,2.19s-.34,1.72-.5,2.66-.34,1.9-.5,2.92-.35,2-.55,2.92c-.44,2.24-.9,4.57-1.4,7l-7.3,1.71q1.5-7.2,2.85-14,.49-2.89,1.07-6T151.73,21q.5-3,.9-5.8c.26-1.85.46-3.52.6-5,.43,0,.8,0,1.1,0h1c.46,0,1,0,1.7,0s1.33,0,2-.08l2.15-.09q.69,3.5,1.25,6.75c.36,1.9.74,3.84,1.12,5.84s.73,3.71,1,5.1c.13-.66.28-1.44.45-2.32s.35-1.81.55-2.78.39-1.94.57-2.92.38-2,.58-2.92c.46-2.17.95-4.41,1.45-6.7l6.1-.75M176.89,7l-2.81.35-6.1.75-1.41.17-.3,1.39c-.5,2.3-1,4.54-1.45,6.7-.07.33-.13.66-.2,1l-.18-.94c-.36-2.16-.79-4.45-1.25-6.77L162.85,8l-1.71.08-2.16.1L157,8.24c-.65,0-1.2,0-1.65,0h-1c-.26,0-.58,0-1,0l-2-.15-.18,2c-.13,1.45-.32,3.1-.58,4.92s-.57,3.78-.9,5.75-.69,4-1.07,6.09-.74,4.07-1.07,6c-.89,4.43-1.84,9.11-2.84,13.91l-.64,3.06,3.05-.71,7.3-1.7,1.25-.29.25-1.25c.37-1.76.71-3.48,1-5.14.18,2,.35,4,.51,6.13l.2,2.69,2.51-1a13.72,13.72,0,0,1,1.7-.46l1.49-.34,1.16-.26,2.34-.53.86-.17h1.65l.22-1.76c.13-1,.31-2.35.54-3.93s.51-3.24.84-5.09.69-3.77,1.08-5.78.75-3.92,1.17-5.95c.86-4.55,1.86-9.41,3-14.46L176.89,7Z" transform="translate(-5.01 -4.82)"/><path class="cls-1" d="M180.23,49.07a9.21,9.21,0,0,1-4-.9A8.86,8.86,0,0,1,173,45.44a13.33,13.33,0,0,1-2.09-4.4,22.08,22.08,0,0,1-.74-6,32.35,32.35,0,0,1,1.92-11.61A27.44,27.44,0,0,1,177,15.1a20.36,20.36,0,0,1,6.37-5,15.06,15.06,0,0,1,6.46-1.64,9.05,9.05,0,0,1,3.9.79,7.81,7.81,0,0,1,2.77,2.15A8.43,8.43,0,0,1,198,14.53a14,14,0,0,1,.46,3.59v.82l-8.62,1.64-.21-.95a5.47,5.47,0,0,0-1-2.4,1.19,1.19,0,0,0-.94-.51c-.3,0-.95.18-2,1.42a19.52,19.52,0,0,0-2.66,4.35,36.43,36.43,0,0,0-2.14,6,27.63,27.63,0,0,0-1,6.38c0,2.27.4,3.33.74,3.82a1.82,1.82,0,0,0,1.56.9,4,4,0,0,0,1.65-.41,5.25,5.25,0,0,0,1.61-1.2,7.22,7.22,0,0,0,1.25-1.89,5,5,0,0,0,.37-1.07l-5.43.81,1.35-7,.72-.09,4.59-.6c1.26-.16,2.59-.36,4-.59s2.64-.45,3.7-.65l1.27-.24-.09,1.29a27.79,27.79,0,0,1-2.08,9.21,23.85,23.85,0,0,1-4.15,6.6,16.86,16.86,0,0,1-5.32,4A13.09,13.09,0,0,1,180.23,49.07Z" transform="translate(-5.01 -4.82)"/><path class="cls-1" d="M189.78,9.47a8.11,8.11,0,0,1,3.47.69A6.9,6.9,0,0,1,195.67,12a7.21,7.21,0,0,1,1.38,2.75,12.87,12.87,0,0,1,.43,3.33l-6.86,1.29a6.37,6.37,0,0,0-1.2-2.84,2.2,2.2,0,0,0-1.69-.85c-.84,0-1.75.59-2.75,1.77a20.39,20.39,0,0,0-2.81,4.58A38.18,38.18,0,0,0,180,28.22a27.87,27.87,0,0,0-1,6.6,8,8,0,0,0,.92,4.42,2.81,2.81,0,0,0,2.38,1.33,5,5,0,0,0,2.07-.5,6.18,6.18,0,0,0,1.93-1.43,8.54,8.54,0,0,0,1.42-2.15,7,7,0,0,0,.63-2.67l-5.35.8.94-5c1.57-.19,3.11-.4,4.61-.59q1.89-.26,4-.6l3.73-.65a27.06,27.06,0,0,1-2,8.87,23.14,23.14,0,0,1-4,6.33,16.09,16.09,0,0,1-5,3.8,12,12,0,0,1-5.07,1.25,8.14,8.14,0,0,1-3.53-.8,8,8,0,0,1-2.9-2.43,12.32,12.32,0,0,1-1.93-4.07,21.34,21.34,0,0,1-.7-5.75A31.15,31.15,0,0,1,173,23.76a26.37,26.37,0,0,1,4.67-8A19.41,19.41,0,0,1,183.75,11a14,14,0,0,1,6-1.54m0-2a16.06,16.06,0,0,0-6.9,1.74,21.51,21.51,0,0,0-6.68,5.23,28.23,28.23,0,0,0-5,8.61,33.21,33.21,0,0,0-2,12,23.39,23.39,0,0,0,.78,6.3A14.28,14.28,0,0,0,172.2,46a9.84,9.84,0,0,0,3.64,3,10.11,10.11,0,0,0,4.39,1,14.15,14.15,0,0,0,5.92-1.44,18,18,0,0,0,5.63-4.27,25.06,25.06,0,0,0,4.33-6.87A28.72,28.72,0,0,0,198.27,28l.18-2.58-2.54.48c-1.08.2-2.32.42-3.68.64s-2.73.43-4,.59l-4.59.6-1.44.18L182,29.29l-1,5v.06a27,27,0,0,1,.91-5.57A35.74,35.74,0,0,1,184,22.91a18.51,18.51,0,0,1,2.51-4.13c.78-.92,1.2-1.05,1.25-1.07s.06.05.18.18a4.77,4.77,0,0,1,.74,2l.43,1.89,1.9-.36,6.85-1.3,1.63-.31V18.12a14.72,14.72,0,0,0-.5-3.85,9.34,9.34,0,0,0-1.75-3.49,8.84,8.84,0,0,0-3.12-2.42,10.09,10.09,0,0,0-4.33-.89Zm-8.65,29.44,2.14-.32,2.3-.34a6.23,6.23,0,0,1-.77,1,4.06,4.06,0,0,1-1.29,1,3,3,0,0,1-1.23.32c-.18,0-.41,0-.74-.47a3.11,3.11,0,0,1-.41-1.19Z" transform="translate(-5.01 -4.82)"/><path class="cls-2" d="M6.88,44.43c.39-1.4.78-3,1.16-4.76S8.81,36,9.19,34.06s.75-4,1.1-6,.69-4,1-5.83c.69-4.35,1.4-9,2.1-13.72l.12-.81,18.9-1L30.49,15h-7.8l-1.2,6.87,1.76,0H25.6c.77,0,1.36,0,1.77-.05l1.2-.09-.13,1.2c-.1.94-.23,1.89-.38,2.8s-.29,1.79-.42,2.69l-.13.85h-.86l-1.88,0c-.8,0-1.63,0-2.49-.07l-2-.07L18,43.66l-.7.12c-1.12.2-2.23.42-3.32.65S12,44.8,11,45s-2,.45-2.87.64l-1.65.4Z" transform="translate(-5.01 -4.82)"/><path class="cls-3" d="M31.15,7.85,29.7,14H21.85L20.3,22.9c1,0,2,0,2.95,0H25.6c.8,0,1.41,0,1.85-.05-.1.93-.23,1.85-.38,2.75s-.29,1.8-.42,2.7l-1.85,0-2.48-.08-2.87-.1L17.15,42.8c-1.14.2-2.25.42-3.35.65-.94.17-2,.37-3.05.6s-2.07.45-2.9.65c.4-1.43.79-3,1.17-4.82s.77-3.66,1.15-5.63.75-4,1.1-6,.69-3.95,1-5.82q1-6.64,2.1-13.75l16.75-.85M33.7,5.72,31,5.85,14.29,6.7l-1.63.09-.24,1.62c-.7,4.74-1.41,9.36-2.1,13.73-.33,1.83-.67,3.77-1,5.79s-.71,4-1.09,5.94-.76,3.8-1.14,5.59-.77,3.32-1.15,4.7L5,47.44l3.3-.8c.82-.19,1.78-.41,2.85-.63s2.05-.42,3-.59h.06c1.08-.23,2.19-.45,3.28-.64l1.41-.25.22-1.41,2-13,1.09,0c.86,0,1.7.06,2.51.07l1.9,0h1.72l.25-1.71L29,25.88c.16-.94.29-1.9.39-2.87l.26-2.39-2.4.19c-.38,0-.95,0-1.69,0H22.68L23.53,16h7.75l.36-1.54,1.45-6.15.61-2.59Z" transform="translate(-5.01 -4.82)"/><path class="cls-2" d="M33.75,45.85a8,8,0,0,1-3.43-.72A7.53,7.53,0,0,1,27.62,43a10,10,0,0,1-1.76-3.5,17.33,17.33,0,0,1-.61-4.91A28,28,0,0,1,26,28.48a43.84,43.84,0,0,1,1.94-6.3,36.43,36.43,0,0,1,3-6,30.71,30.71,0,0,1,4-5,19.48,19.48,0,0,1,4.75-3.56,11.81,11.81,0,0,1,5.47-1.36A7.84,7.84,0,0,1,49.4,7.33,7.59,7.59,0,0,1,52,10.09a11.88,11.88,0,0,1,1.29,3.62,21.43,21.43,0,0,1,.37,3.89,33.93,33.93,0,0,1-.91,8,34.51,34.51,0,0,1-2.39,6.85A28.89,28.89,0,0,1,46.9,38a28.14,28.14,0,0,1-4.18,4.2,18.48,18.48,0,0,1-4.5,2.69A11.86,11.86,0,0,1,33.75,45.85Zm9.65-27.1a4.74,4.74,0,0,0-2.45.66A8.29,8.29,0,0,0,38.8,21.3a13.62,13.62,0,0,0-1.75,2.81,27.81,27.81,0,0,0-1.33,3.28,20,20,0,0,0-.79,3.21,19.49,19.49,0,0,0-.23,2.7,2.83,2.83,0,0,0,.14.83,2.49,2.49,0,0,0,.4.76,2.12,2.12,0,0,0,.61.53,1.08,1.08,0,0,0,.6.18,4.81,4.81,0,0,0,3.33-1.3,11.61,11.61,0,0,0,2.67-3.5,21.34,21.34,0,0,0,1.7-4.59,19.08,19.08,0,0,0,.6-4.41c0-.36,0-.76-.07-1.19a4.22,4.22,0,0,0-.25-1.06,1.51,1.51,0,0,0-.43-.63A.81.81,0,0,0,43.4,18.75Z" transform="translate(-5.01 -4.82)"/><path class="cls-3" d="M45.15,7.25a6.93,6.93,0,0,1,3.72.92,6.69,6.69,0,0,1,2.3,2.4,11.24,11.24,0,0,1,1.18,3.33,20.15,20.15,0,0,1,.35,3.7,33,33,0,0,1-.88,7.72A33.87,33.87,0,0,1,49.5,32a27.94,27.94,0,0,1-3.38,5.4,26.57,26.57,0,0,1-4,4A17.81,17.81,0,0,1,37.85,44a11,11,0,0,1-4.1.87,7.15,7.15,0,0,1-3-.62,6.64,6.64,0,0,1-2.35-1.85,9,9,0,0,1-1.58-3.15,16.5,16.5,0,0,1-.57-4.63,26.61,26.61,0,0,1,.7-5.9,41.08,41.08,0,0,1,1.9-6.15,33.65,33.65,0,0,1,2.95-5.8,28.7,28.7,0,0,1,3.85-4.87,17.94,17.94,0,0,1,4.5-3.38,10.71,10.71,0,0,1,5-1.25M36.45,36.6a5.88,5.88,0,0,0,4-1.55,12.9,12.9,0,0,0,2.9-3.8,22.54,22.54,0,0,0,1.77-4.8,19.53,19.53,0,0,0,.63-4.65,12.39,12.39,0,0,0-.08-1.3,5.26,5.26,0,0,0-.3-1.3,2.59,2.59,0,0,0-.7-1,1.85,1.85,0,0,0-1.27-.42,5.7,5.7,0,0,0-2.95.8A9.14,9.14,0,0,0,38,20.67a15.05,15.05,0,0,0-1.87,3,28.16,28.16,0,0,0-1.38,3.4A20.22,20.22,0,0,0,34,30.45a19,19,0,0,0-.25,2.85,3.44,3.44,0,0,0,.2,1.15,3.28,3.28,0,0,0,.55,1,3.09,3.09,0,0,0,.87.77,2.09,2.09,0,0,0,1.13.33m8.7-31.35a12.74,12.74,0,0,0-5.93,1.48,19.92,19.92,0,0,0-5,3.74,31.39,31.39,0,0,0-4.11,5.21A35.82,35.82,0,0,0,27,21.82a45.44,45.44,0,0,0-2,6.44,29.29,29.29,0,0,0-.74,6.34,18.6,18.6,0,0,0,.65,5.2,11.1,11.1,0,0,0,2,3.84A8.45,8.45,0,0,0,29.91,46a9,9,0,0,0,3.84.81,12.88,12.88,0,0,0,4.85-1A19.66,19.66,0,0,0,43.34,43a28.37,28.37,0,0,0,4.33-4.36,28.87,28.87,0,0,0,3.63-5.79,35.44,35.44,0,0,0,2.46-7.05,34.83,34.83,0,0,0,.94-8.19,21.58,21.58,0,0,0-.39-4.07A13,13,0,0,0,52.92,9.6a8.67,8.67,0,0,0-3-3.12,8.83,8.83,0,0,0-4.78-1.23ZM36.45,34.6a.1.1,0,0,1-.07,0,1.42,1.42,0,0,1-.36-.31,1.58,1.58,0,0,1-.23-.45,1.83,1.83,0,0,1-.09-.52,17.42,17.42,0,0,1,.22-2.55,18,18,0,0,1,.75-3A25.94,25.94,0,0,1,38,24.54a12.88,12.88,0,0,1,1.62-2.6,7.08,7.08,0,0,1,1.9-1.67,3.68,3.68,0,0,1,1.93-.52h0a.53.53,0,0,1,.08.15,3.32,3.32,0,0,1,.18.81c0,.4.07.76.07,1.09A18.11,18.11,0,0,1,43.18,26a19.66,19.66,0,0,1-1.62,4.37,10.86,10.86,0,0,1-2.44,3.21,3.83,3.83,0,0,1-2.67,1.05Z" transform="translate(-5.01 -4.82)"/><path class="cls-2" d="M49,44.62c.2-1.5.44-3.18.71-5s.58-3.76.93-5.73.7-4,1-6,.71-4,1.08-5.78c.82-4.3,1.71-8.8,2.65-13.35l.14-.7L66.4,6.67l-.33,1.41q-1.35,5.79-2.6,11.29c-.37,1.57-.73,3.19-1.1,4.87l-1,4.91c-.33,1.6-.63,3.15-.89,4.63-.18,1-.33,1.9-.46,2.74l1.48,0,2.55,0h1l0,.95c0,.61.08,1.22.15,1.82s.14,1.13.22,1.62.15,1,.2,1.36.08.54.1.65L66,44.1H64.7c-.3,0-.58,0-.85,0l-.7,0c-1,0-2.1,0-3.22.1s-2.28.16-3.42.29-2.27.31-3.35.52a21.06,21.06,0,0,0-2.9.74l-1.52.51Z" transform="translate(-5.01 -4.82)"/><path class="cls-3" d="M65.1,7.85q-1.35,5.81-2.6,11.3c-.37,1.57-.74,3.19-1.1,4.87s-.72,3.33-1,4.93-.64,3.15-.9,4.65-.49,2.83-.65,4q1.25-.1,2.67-.12l2.53,0c0,.63.08,1.26.15,1.87s.14,1.18.22,1.68.15.94.2,1.32a6,6,0,0,0,.13.78q-.4,0-.78,0l-.77,0c-1,0-2.13,0-3.28.1s-2.31.17-3.47.3-2.31.31-3.43.53a22.85,22.85,0,0,0-3,.77c.2-1.5.43-3.17.7-5s.57-3.73.92-5.7.7-3.95,1-5.95.71-3.92,1.08-5.75Q54.95,15.8,56.35,9L65.1,7.85m2.6-2.36-2.87.38L56.08,7l-1.41.18-.28,1.4c-.94,4.55-1.84,9.06-2.66,13.38-.36,1.8-.73,3.75-1.08,5.78s-.7,4-1,5.94-.67,3.92-.93,5.76-.51,3.52-.71,5l-.42,3.17,3-1a22.23,22.23,0,0,1,2.77-.71c1.06-.21,2.16-.38,3.27-.5s2.25-.23,3.37-.29,2.16-.1,3.16-.1l.65,0q.42,0,.9,0h2.57l-.64-2.49s0-.12-.08-.54-.12-.87-.21-1.4-.14-1-.21-1.56S66,37.93,66,37.35l-.1-1.9H64l-2.56,0h-.29c.08-.49.17-1,.26-1.53.26-1.46.56-3,.89-4.59s.68-3.23,1.05-4.91.74-3.32,1.09-4.84c.84-3.68,1.7-7.44,2.6-11.31l.66-2.81Z" transform="translate(-5.01 -4.82)"/><path class="cls-2" d="M64.05,44.62c.2-1.5.44-3.18.7-5s.58-3.76.94-5.73.69-4,1-6,.72-4,1.08-5.78c.81-4.25,1.71-8.75,2.66-13.35l.14-.7L81.5,6.67l-.33,1.41q-1.35,5.79-2.6,11.29c-.37,1.57-.73,3.19-1.1,4.87s-.71,3.32-1,4.91-.63,3.16-.89,4.62c-.18,1-.33,1.91-.46,2.75l1.48,0,2.55,0h1l0,.95c0,.62.08,1.22.15,1.82s.14,1.13.22,1.61.15,1,.2,1.36.08.55.1.67l.32,1.24H79.79q-.44,0-.84,0l-.71,0c-1,0-2.09,0-3.21.1s-2.28.16-3.42.29-2.27.31-3.35.52a21.06,21.06,0,0,0-2.9.74l-1.52.51Z" transform="translate(-5.01 -4.82)"/><path class="cls-3" d="M80.19,7.85q-1.35,5.81-2.59,11.3c-.37,1.57-.74,3.19-1.11,4.87l-1,4.93q-.5,2.4-.9,4.65c-.26,1.5-.48,2.83-.65,4,.84-.07,1.73-.11,2.68-.12l2.53,0c0,.63.08,1.26.14,1.87s.15,1.18.23,1.68.15.94.2,1.32.09.65.12.78c-.26,0-.52,0-.77,0l-.78,0c-1,0-2.12,0-3.27.1s-2.31.17-3.48.3-2.3.31-3.42.53a23,23,0,0,0-3,.77c.2-1.5.44-3.17.7-5s.58-3.73.93-5.7.7-3.95,1-5.95.71-3.92,1.07-5.75Q70,15.8,71.44,9l8.75-1.15M82.8,5.49l-2.87.38L71.18,7l-1.41.18-.28,1.4c-.95,4.61-1.85,9.11-2.66,13.38-.36,1.8-.73,3.75-1.08,5.78s-.7,4-1,5.94-.67,3.92-.93,5.76-.51,3.52-.71,5l-.42,3.17,3-1a22.23,22.23,0,0,1,2.77-.71c1.06-.21,2.16-.38,3.27-.5s2.25-.23,3.37-.29,2.16-.1,3.15-.1l.65,0c.28,0,.59,0,.9,0h2.57l-.63-2.48c0-.1,0-.29-.08-.56s-.12-.86-.21-1.38-.15-1-.21-1.57-.11-1.19-.14-1.76L81,35.45H79.1l-2.57,0h-.28c.08-.49.17-1,.26-1.53.26-1.45.56-3,.89-4.59s.68-3.23,1-4.91.73-3.29,1.09-4.84c.84-3.68,1.7-7.44,2.6-11.31l.66-2.81Z" transform="translate(-5.01 -4.82)"/><path class="cls-2" d="M88.59,45.85a8,8,0,0,1-3.42-.72A7.64,7.64,0,0,1,82.47,43a10,10,0,0,1-1.76-3.5,17.3,17.3,0,0,1-.62-4.91,28,28,0,0,1,.73-6.12,43.08,43.08,0,0,1,1.94-6.3,35.66,35.66,0,0,1,3-6,30.71,30.71,0,0,1,4-5,19.48,19.48,0,0,1,4.75-3.56A11.8,11.8,0,0,1,100,6.25a7.86,7.86,0,0,1,4.26,1.08,7.59,7.59,0,0,1,2.64,2.76,12.15,12.15,0,0,1,1.29,3.62,21.41,21.41,0,0,1,.36,3.89,33.94,33.94,0,0,1-.9,8,34.3,34.3,0,0,1-2.4,6.85,28,28,0,0,1-3.5,5.6,27.63,27.63,0,0,1-4.17,4.2,18.48,18.48,0,0,1-4.5,2.69A11.87,11.87,0,0,1,88.59,45.85Zm9.65-27.1a4.7,4.7,0,0,0-2.44.66,8.13,8.13,0,0,0-2.15,1.89,13.54,13.54,0,0,0-1.75,2.8,28,28,0,0,0-1.33,3.29,19,19,0,0,0-.79,3.21,18.22,18.22,0,0,0-.24,2.7,2.56,2.56,0,0,0,.15.83,2.72,2.72,0,0,0,.39.76,2.43,2.43,0,0,0,.61.53,1.13,1.13,0,0,0,.6.18,4.84,4.84,0,0,0,3.34-1.3,11.54,11.54,0,0,0,2.67-3.51A21.06,21.06,0,0,0,99,26.21a19,19,0,0,0,.59-4.41,10.08,10.08,0,0,0-.07-1.19,4.22,4.22,0,0,0-.24-1.06,1.51,1.51,0,0,0-.43-.63A.91.91,0,0,0,98.24,18.75Z" transform="translate(-5.01 -4.82)"/><path class="cls-3" d="M100,7.25a7,7,0,0,1,3.73.92,6.69,6.69,0,0,1,2.3,2.4,11,11,0,0,1,1.17,3.33,19.31,19.31,0,0,1,.35,3.7A33.11,33.11,0,0,1,104.34,32a27.43,27.43,0,0,1-3.37,5.4,26.62,26.62,0,0,1-4,4A17.62,17.62,0,0,1,92.69,44a10.92,10.92,0,0,1-4.1.87,7.15,7.15,0,0,1-3-.62,6.73,6.73,0,0,1-2.35-1.85,9.11,9.11,0,0,1-1.57-3.15,16.11,16.11,0,0,1-.58-4.63,27.21,27.21,0,0,1,.7-5.9,42.28,42.28,0,0,1,1.9-6.15,34.37,34.37,0,0,1,3-5.8,29.2,29.2,0,0,1,3.85-4.87A17.94,17.94,0,0,1,95,8.5a10.74,10.74,0,0,1,5-1.25M91.29,36.6a5.87,5.87,0,0,0,4-1.55,12.57,12.57,0,0,0,2.9-3.8,22,22,0,0,0,1.78-4.8,19.48,19.48,0,0,0,.62-4.65,12.23,12.23,0,0,0-.07-1.3,5.26,5.26,0,0,0-.3-1.3,2.59,2.59,0,0,0-.7-1,1.86,1.86,0,0,0-1.28-.42,5.73,5.73,0,0,0-2.95.8,9.1,9.1,0,0,0-2.42,2.12,15.56,15.56,0,0,0-1.88,3,29.82,29.82,0,0,0-1.37,3.4,20.7,20.7,0,0,0-1.08,6.23,3.81,3.81,0,0,0,.75,2.2,3.28,3.28,0,0,0,.88.77,2.06,2.06,0,0,0,1.12.33M100,5.25a12.7,12.7,0,0,0-5.92,1.48,19.92,19.92,0,0,0-5,3.74A30.87,30.87,0,0,0,85,15.68a36.19,36.19,0,0,0-3.13,6.14,44.66,44.66,0,0,0-2,6.44,29.32,29.32,0,0,0-.75,6.34,18.57,18.57,0,0,0,.66,5.2,11.09,11.09,0,0,0,1.94,3.84A8.62,8.62,0,0,0,84.75,46a9.05,9.05,0,0,0,3.84.81,12.89,12.89,0,0,0,4.86-1A19.66,19.66,0,0,0,98.19,43a28.37,28.37,0,0,0,4.33-4.36,28.87,28.87,0,0,0,3.63-5.79,35.44,35.44,0,0,0,2.46-7.05,34.83,34.83,0,0,0,.93-8.19,22.42,22.42,0,0,0-.38-4.07,12.82,12.82,0,0,0-1.4-3.93,8.56,8.56,0,0,0-3-3.12A8.84,8.84,0,0,0,100,5.25ZM91.29,34.6l-.06,0a1.63,1.63,0,0,1-.36-.3,1.8,1.8,0,0,1-.23-.46,1.88,1.88,0,0,1-.1-.52,17.6,17.6,0,0,1,.23-2.55,18.2,18.2,0,0,1,.75-3,25.31,25.31,0,0,1,1.28-3.17,12.88,12.88,0,0,1,1.62-2.6,7.19,7.19,0,0,1,1.89-1.67,3.73,3.73,0,0,1,1.93-.52h0a.54.54,0,0,1,.09.15,3.21,3.21,0,0,1,.18.81,10.83,10.83,0,0,1,.06,1.09A18.05,18.05,0,0,1,98,26a20,20,0,0,1-1.62,4.37A10.86,10.86,0,0,1,94,33.55a3.84,3.84,0,0,1-2.68,1.05Z" transform="translate(-5.01 -4.82)"/><path class="cls-2" d="M109.14,8.39l.86,0a31.33,31.33,0,0,0,4.29-.46,41.83,41.83,0,0,1,4.23-.54l1.07-.08V8.35a10,10,0,0,1-.16,1.18c-.1.65-.23,1.5-.4,2.55s-.35,2.23-.55,3.55q-.26,1.71-.72,4.53c.24-.86.46-1.61.65-2.26.35-1.22.68-2.39,1-3.52s.61-2.19.9-3.16.5-1.76.66-2.41l.19-.76h1.23A16.51,16.51,0,0,0,124.11,8c.6-.07,1.17-.14,1.71-.22s1.08-.19,1.66-.32L129,7.08l-.35,1.54a16.66,16.66,0,0,0-.2,1.72c-.09.94-.2,2.06-.33,3.39s-.27,2.75-.4,4.33c-.11,1.29-.22,2.57-.33,3.82l3.06-13.82.68-.1c1.14-.17,2.27-.32,3.37-.45l3-.4c1-.13,1.9-.28,2.67-.44l1.75-.36L141.34,8c-.49,1.37-1,2.92-1.49,4.61s-1,3.52-1.54,5.42-1,3.81-1.52,5.72-1,3.81-1.43,5.61c-1.05,4.23-2.1,8.64-3.09,13.12l-.15.65-13.27,2.24,1.3-11.42-2.71,9.93-12.33,2.2Z" transform="translate(-5.01 -4.82)"/><path class="cls-3" d="M140.39,7.65q-.75,2.1-1.5,4.67c-.5,1.72-1,3.53-1.55,5.43s-1,3.82-1.52,5.75-1,3.8-1.43,5.6q-1.59,6.4-3.1,13.15L120,44.15l2.2-19.3h-.6l-5,18.15-10.4,1.85L110,9.35a33.25,33.25,0,0,0,4.43-.47,39.36,39.36,0,0,1,4.12-.53s0,.38-.15,1-.23,1.5-.4,2.54-.35,2.24-.55,3.56-.49,3.12-.87,5.42-.89,5.48-1.53,9.55h.75c.87-3.07,1.59-5.57,2.15-7.53s1-3.53,1.38-4.75.68-2.39,1-3.52.62-2.18.9-3.15.51-1.78.67-2.45h.45a16.28,16.28,0,0,0,1.83-.1c.62-.07,1.2-.14,1.75-.22s1.12-.2,1.72-.33c-.06.3-.14.92-.22,1.85s-.19,2.06-.33,3.38-.26,2.76-.4,4.35-.26,3.13-.4,4.65-.25,2.95-.37,4.32-.23,2.53-.33,3.5h.9L131.29,9c1.14-.17,2.25-.32,3.35-.45l3-.4c1-.13,2-.28,2.75-.45M143.48,5,140,5.69c-.75.16-1.63.3-2.6.43l-3,.4c-1.06.13-2.2.28-3.37.45l-1,.14.31-1.35-3.08.69c-.55.12-1.09.22-1.59.3S124.59,6.9,124,7a14.66,14.66,0,0,1-1.62.09h-1.8V6.2l-2.14.16a40.86,40.86,0,0,0-4.34.55,30.88,30.88,0,0,1-4.15.44l-1.72.07-.18,1.72-3.8,35.5L104,47.29l2.62-.47L117,45l.92-.16-.2,1.75,2.62-.44,11.3-1.9L133,44l.3-1.32c1-4.46,2-8.87,3.08-13.09.47-1.79.94-3.67,1.43-5.6s1-3.82,1.51-5.7,1-3.7,1.54-5.41,1-3.2,1.47-4.56L143.48,5Z" transform="translate(-5.01 -4.82)"/><path class="cls-2" d="M133.52,44.37c.33-1.41.67-3,1-4.74s.7-3.58,1.07-5.49.72-3.85,1-5.81.65-3.86,1-5.69q1-6.41,2.1-13.14l.11-.72,9.9-1.59-.24,1.38q-1.15,6.7-2.25,13.15c-.3,1.82-1.56,9.61-1.87,11.54s-.61,3.8-.88,5.61-.52,3.47-.75,4.94l-.13.84h-.86c-.18,0-.62,0-1.68.12-.87.08-1.77.18-2.69.3l-2.52.32-1,.15-1.81.91Z" transform="translate(-5.01 -4.82)"/><path class="cls-3" d="M148.49,8.4q-1.14,6.7-2.25,13.15c-.3,1.83-.6,3.73-.92,5.7s-.63,3.92-.95,5.85-.61,3.81-.88,5.63-.51,3.45-.75,4.92q-.45,0-1.77.12l-2.73.3-2.52.33a10.76,10.76,0,0,0-1.23.2c.34-1.43.68-3,1-4.78s.71-3.58,1.07-5.5.72-3.85,1-5.82.65-3.87,1-5.7q1-6.4,2.1-13.15l7.8-1.25M150.94,6l-2.76.45-7.8,1.25-1.44.23-.22,1.43c-.7,4.48-1.41,8.9-2.1,13.14-.3,1.83-.62,3.72-1,5.69s-.68,3.91-1,5.78-.72,3.74-1.07,5.48-.69,3.32-1,4.72l-1,4.14,3.59-1.79.81-.12,2.51-.32c.9-.11,1.79-.21,2.67-.29,1.11-.11,1.48-.12,1.58-.12h1.71l.27-1.69c.23-1.47.48-3.12.75-4.94s.56-3.72.87-5.6.64-3.88.95-5.85l.93-5.7c.73-4.28,1.48-8.67,2.25-13.13L150.94,6Z" transform="translate(-5.01 -4.82)"/><path class="cls-2" d="M143.61,44.7q1.5-7.2,2.85-14c.33-1.91.69-3.91,1.07-6s.74-4.1,1.08-6.11.63-3.93.89-5.78.47-3.5.6-5l.09-1,1,.07c.4,0,.74,0,1,0h1.05l1.68,0,2-.08,3-.14.16.84c.47,2.31.89,4.6,1.26,6.78l1.15,6,0-.16q.3-1.44.57-2.91c.19-1,.38-2,.58-2.94.47-2.18,1.61-7.41,1.61-7.41l8.21-1-.31,1.39c-1.13,5.06-2.13,9.93-3,14.47q-.62,3-1.18,6c-.38,2-.74,3.94-1.07,5.79s-.62,3.58-.85,5.12-.41,2.89-.54,4l-.11.88h-.89l-1,.2-5,1.13a15.34,15.34,0,0,0-1.84.5l-1.25.49-.1-1.34c-.2-2.64-.42-5.19-.65-7.58-.1-1-.21-2.09-.33-3.17-.08-.78-.17-1.54-.26-2.29q-.16.94-.33,1.95c-.17,1-.36,2-.56,3q-.65,3.33-1.4,7l-.13.63-9.45,2.2Z" transform="translate(-5.01 -4.82)"/><path class="cls-3" d="M172.19,7.15q-1.69,7.65-3,14.5-.6,3-1.17,6c-.39,2-.74,3.94-1.08,5.8s-.61,3.56-.85,5.14-.41,2.91-.55,4c-.1,0-.49.08-1.17.22L162,43.3l-2.65.6a15.47,15.47,0,0,0-2,.55c-.2-2.67-.41-5.2-.65-7.6-.1-1-.2-2.09-.32-3.17s-.24-2.13-.38-3.13-.26-1.93-.4-2.8-.26-1.62-.4-2.25c-.1.63-.23,1.37-.4,2.2s-.33,1.72-.5,2.65-.33,1.91-.5,2.92-.35,2-.55,2.93c-.43,2.23-.9,4.57-1.4,7l-7.3,1.7q1.5-7.2,2.85-13.95c.34-1.93.69-3.93,1.08-6s.74-4.11,1.07-6.13.64-3.94.9-5.8.47-3.52.6-5c.44,0,.8.05,1.1.05h1.05l1.7,0c.67,0,1.34,0,2-.07l2.15-.1q.71,3.49,1.25,6.75.56,2.85,1.13,5.85t1,5.1c.14-.67.29-1.44.45-2.32s.35-1.81.55-2.78.39-1.94.58-2.93.37-1.95.57-2.92q.71-3.26,1.45-6.7l6.1-.75m2.57-2.33L172,5.16l-6.1.75-1.41.18-.3,1.39q-.75,3.45-1.45,6.7c-.07.33-.14.65-.2,1l-.18-.94c-.37-2.15-.79-4.44-1.26-6.76l-.33-1.68L159,5.85l-2.16.1c-.66,0-1.31.06-2,.08l-1.65,0h-1.05c-.25,0-.57,0-.94,0l-2-.16-.18,2c-.13,1.45-.33,3.11-.59,4.92s-.56,3.78-.89,5.76-.69,4-1.07,6.09-.74,4.07-1.07,6c-.89,4.44-1.85,9.12-2.84,13.91L142,47.56l3.05-.71,7.3-1.7,1.24-.29.26-1.26c.36-1.76.71-3.48,1-5.13.18,2,.35,4,.51,6.13l.2,2.68,2.51-1a13,13,0,0,1,1.7-.47l1.49-.34,1.16-.26,2.34-.52c.52-.12.76-.16.86-.18h1.65l.22-1.75c.13-1,.31-2.36.54-3.93s.51-3.25.84-5.09S169.6,30,170,28s.76-3.92,1.17-5.95c.87-4.55,1.87-9.41,3-14.47l.61-2.76Z" transform="translate(-5.01 -4.82)"/><path class="cls-2" d="M178.09,46.85a9.06,9.06,0,0,1-4-.9,8.83,8.83,0,0,1-3.27-2.72,13.38,13.38,0,0,1-2.09-4.41,22.08,22.08,0,0,1-.74-6A32.39,32.39,0,0,1,170,21.19a27.18,27.18,0,0,1,4.86-8.3,20.3,20.3,0,0,1,6.36-5,15,15,0,0,1,6.46-1.65,9.07,9.07,0,0,1,3.91.8,7.81,7.81,0,0,1,2.77,2.15,8.29,8.29,0,0,1,1.56,3.11,13.64,13.64,0,0,1,.46,3.59v.83l-8.61,1.63-.21-.94a5.47,5.47,0,0,0-1-2.41,1.2,1.2,0,0,0-.95-.51c-.29,0-.94.18-2,1.42A19.52,19.52,0,0,0,181,20.27a36.55,36.55,0,0,0-2.14,6,28.12,28.12,0,0,0-1,6.37c0,2.27.41,3.34.75,3.82a1.8,1.8,0,0,0,1.55.9,4,4,0,0,0,1.66-.41,5.06,5.06,0,0,0,1.61-1.19,7.73,7.73,0,0,0,1.25-1.9,4.83,4.83,0,0,0,.37-1.07l-5.43.82,1.35-7,.72-.09,4.59-.6c1.26-.17,2.59-.37,4-.6s2.64-.44,3.7-.64l1.27-.24-.09,1.29a27.85,27.85,0,0,1-2.08,9.21,24.18,24.18,0,0,1-4.15,6.59,17,17,0,0,1-5.32,4A13.08,13.08,0,0,1,178.09,46.85Z" transform="translate(-5.01 -4.82)"/><path class="cls-3" d="M187.64,7.25a8,8,0,0,1,3.48.7,6.87,6.87,0,0,1,2.42,1.87,7.43,7.43,0,0,1,1.38,2.75,12.93,12.93,0,0,1,.42,3.33l-6.85,1.3a6.59,6.59,0,0,0-1.2-2.85,2.21,2.21,0,0,0-1.7-.85c-.83,0-1.75.59-2.75,1.77a20.61,20.61,0,0,0-2.8,4.58,38.88,38.88,0,0,0-2.2,6.15,28.93,28.93,0,0,0-1,6.6,7.92,7.92,0,0,0,.93,4.42,2.77,2.77,0,0,0,2.37,1.33,5,5,0,0,0,2.08-.5,6.11,6.11,0,0,0,1.92-1.42,8.63,8.63,0,0,0,1.43-2.16,6.71,6.71,0,0,0,.62-2.67l-5.35.8.95-4.95,4.6-.6c1.27-.17,2.61-.37,4-.6s2.66-.45,3.72-.65a26.62,26.62,0,0,1-2,8.88,23,23,0,0,1-4,6.32,15.93,15.93,0,0,1-5,3.8,12.1,12.1,0,0,1-5.08,1.25,8.09,8.09,0,0,1-3.52-.8,7.77,7.77,0,0,1-2.9-2.42,12.47,12.47,0,0,1-1.93-4.08,21.29,21.29,0,0,1-.7-5.75,31.28,31.28,0,0,1,1.85-11.25,26.15,26.15,0,0,1,4.68-8,19.27,19.27,0,0,1,6.05-4.75,14,14,0,0,1,6-1.55m0-2A16,16,0,0,0,180.75,7a21.22,21.22,0,0,0-6.68,5.23,28.18,28.18,0,0,0-5,8.6,33.25,33.25,0,0,0-2,12,22.9,22.9,0,0,0,.78,6.3,14.43,14.43,0,0,0,2.25,4.73,9.94,9.94,0,0,0,3.64,3,10.09,10.09,0,0,0,4.38,1A13.93,13.93,0,0,0,184,46.41a17.89,17.89,0,0,0,5.64-4.26A25.21,25.21,0,0,0,194,35.28a29,29,0,0,0,2.16-9.54l.18-2.58-2.54.47c-1.09.21-2.32.42-3.69.65s-2.73.43-4,.59l-4.59.6-1.44.18-.27,1.42-1,5v.07a26.73,26.73,0,0,1,.91-5.57,34.63,34.63,0,0,1,2.08-5.83,18.28,18.28,0,0,1,2.51-4.12c.78-.93,1.2-1.06,1.24-1.07a1.33,1.33,0,0,1,.18.17,4.62,4.62,0,0,1,.75,2l.43,1.89,1.9-.37,6.85-1.3,1.62-.3V15.9a14.77,14.77,0,0,0-.49-3.85,9.44,9.44,0,0,0-1.75-3.48A8.86,8.86,0,0,0,192,6.14a10.1,10.1,0,0,0-4.34-.89ZM179,34.7l2.14-.32,2.3-.35a6.37,6.37,0,0,1-.77,1,4.1,4.1,0,0,1-1.29,1,3.13,3.13,0,0,1-1.24.31c-.17,0-.4,0-.73-.47A3,3,0,0,1,179,34.7Z" transform="translate(-5.01 -4.82)"/></svg>