<svg id="Layer_1" data-name="Layer 1" xmlns="http://www.w3.org/2000/svg" viewBox="0 0 195 169"><defs><style>.cls-1{fill:#f963a6;}.cls-11{fill:#fff;}</style></defs><path class="cls-1" d="M49.43,156.56a228,228,0,0,1-22-16.23C18,132.74,8.22,124.55,3.85,113.22-5,90.28,4.77,48.44,21,30.57,31.48,19,53.35,10.92,68,6.05A99.79,99.79,0,0,1,121.49,3.3,101,101,0,0,1,187.74,55c4.63,9,7.92,18.95,7.77,29.09-.2,13.23-6.2,25.73-13.68,36.6-13.12,19.07-31.48,34.78-53,43s-46.27,8.6-67.38-.68A96,96,0,0,1,49.43,156.56Z" transform="translate(-0.51 -0.87)"/><path class="cls-2" d="M39.58,101.51c.39-1.4.78-3,1.16-4.76s.76-3.65,1.14-5.61.75-3.94,1.1-6,.69-4,1-5.83c.7-4.42,1.41-9,2.1-13.72l.12-.81,18.9-1-1.94,8.21h-7.8L54.18,79l1.76,0h2.35c.77,0,1.37,0,1.77,0l1.2-.1L61.13,80c-.1,1-.23,1.89-.38,2.81s-.29,1.79-.42,2.68l-.13.85h-.86c-.44,0-1.06,0-1.87,0s-1.64,0-2.5-.08l-2-.07-2.27,14.59-.71.12c-1.12.2-2.23.41-3.31.64s-2,.37-3.05.6-2,.45-2.88.65l-1.65.39Z" transform="translate(-0.51 -0.87)"/><path d="M63.84,64.93l-1.45,6.15H54.54L53,80c1,0,2,0,2.95,0h2.35c.8,0,1.41,0,1.85-.05-.1.94-.23,1.85-.38,2.75s-.29,1.8-.42,2.7c-.44,0-1.05,0-1.85,0s-1.63,0-2.48-.08l-2.87-.1-2.3,14.75c-1.14.2-2.25.42-3.35.65-.93.17-2,.37-3.05.6s-2.07.45-2.9.65c.4-1.43.79-3,1.17-4.82s.77-3.66,1.15-5.63.75-4,1.1-6,.69-4,1-5.83q1-6.65,2.1-13.75l16.75-.85M66.4,62.8l-2.66.14L47,63.79l-1.64.08-.24,1.62c-.69,4.68-1.4,9.3-2.1,13.73-.32,1.83-.67,3.78-1,5.8s-.7,4-1.09,5.93-.76,3.81-1.14,5.59-.76,3.32-1.15,4.71l-.91,3.27,3.31-.79c.79-.19,1.72-.4,2.84-.64s2.08-.43,3-.59h.06c1.11-.23,2.22-.45,3.28-.64l1.41-.24.22-1.42,2-13,1.1,0c.86,0,1.69.06,2.51.08s1.44,0,1.89,0h1.72l.26-1.7q.2-1.34.42-2.67c.15-.93.28-1.9.39-2.86l.25-2.4-2.4.19c-.38,0-.95,0-1.69,0H55.38l.84-4.86H64l.36-1.54,1.45-6.15.62-2.59Z" transform="translate(-0.51 -0.87)"/><path class="cls-2" d="M56.61,101.58q1.35-6.64,2.6-13c.29-1.78.63-3.66,1-5.62s.7-3.86,1-5.77.61-3.77.89-5.55.51-3.37.67-4.83l.08-.64.62-.2a36.89,36.89,0,0,1,6.32-1.36,52.15,52.15,0,0,1,6.68-.44,10.77,10.77,0,0,1,3.56.51,5.61,5.61,0,0,1,2.41,1.56,5.73,5.73,0,0,1,1.24,2.32A10.06,10.06,0,0,1,84,71.28a12.57,12.57,0,0,1-.76,4.27,17.5,17.5,0,0,1-2,3.87,19.62,19.62,0,0,1-2.84,3.32,16,16,0,0,1-2.68,2c.5,1.11,1,2.29,1.56,3.55q1,2.39,1.93,4.54,1,2.5,2,5l.41,1L72,102.22l-.31-1c-.67-2.15-1.28-4.18-1.8-6-.23-.76-.47-1.55-.7-2.38s-.46-1.6-.66-2.33l0-.18c0,.21-.08.43-.13.66-.28,1.42-.54,2.8-.77,4.13-.3,1.58-.6,3.16-.9,4.76l-.12.62-10.26,2.66Zm14-22.92.57-.27a15,15,0,0,0,2.46-1.57,13.61,13.61,0,0,0,2-1.89c.59-.69.66-1.07.66-1.2a.25.25,0,0,0,0-.14,1.39,1.39,0,0,0-.57-.27,5.72,5.72,0,0,0-1.17-.19c-.48,0-1,0-1.48,0l-1.08,0h-.25Z" transform="translate(-0.51 -0.87)"/><path d="M76.49,65.18a9.79,9.79,0,0,1,3.22.45,4.65,4.65,0,0,1,2,1.28,4.71,4.71,0,0,1,1,1.92,9.34,9.34,0,0,1,.3,2.45,11.55,11.55,0,0,1-.7,3.93,16.4,16.4,0,0,1-1.88,3.65A18.43,18.43,0,0,1,77.76,82a14.46,14.46,0,0,1-3.27,2.32q.9,2,1.92,4.38t1.93,4.52c.66,1.67,1.35,3.34,2,5l-7.75,2.7q-1-3.2-1.8-6c-.24-.76-.47-1.55-.7-2.37s-.45-1.59-.65-2.33-.37-1.39-.5-2a9.61,9.61,0,0,1-.25-1.43l-.65.2c-.2,1.07-.44,2.32-.73,3.75s-.54,2.82-.77,4.15c-.3,1.57-.6,3.15-.9,4.75l-8.1,2.1q1.35-6.65,2.6-13,.45-2.7,1-5.62c.36-2,.71-3.88,1-5.8s.62-3.77.9-5.55.51-3.41.68-4.88a35.14,35.14,0,0,1,6.15-1.32,51.82,51.82,0,0,1,6.55-.43m-7.15,14.9a6.73,6.73,0,0,0,2.32-.8,16,16,0,0,0,2.63-1.67,15,15,0,0,0,2.15-2,3,3,0,0,0,.9-1.85,1.15,1.15,0,0,0-.35-.87,2.38,2.38,0,0,0-1-.5,6.86,6.86,0,0,0-1.37-.23c-.5,0-1,0-1.55,0l-1.13,0c-.38,0-.72,0-1,0l-1.6,8m7.15-16.9a54.17,54.17,0,0,0-6.81.44A37,37,0,0,0,63.19,65L62,65.42l-.15,1.29c-.16,1.44-.39,3.05-.66,4.79s-.58,3.62-.9,5.53-.66,3.84-1,5.76-.7,3.82-1,5.64c-.81,4.11-1.68,8.47-2.59,13L55,104.52l3.1-.8,8.1-2.1,1.23-.32.23-1.25q.45-2.4.9-4.74l.12-.65c.08.29.17.57.26.86.51,1.81,1.12,3.85,1.8,6l.62,2,2-.68,7.75-2.7,2-.7-.83-2c-.69-1.66-1.38-3.33-2-5-.62-1.47-1.26-3-2-4.57-.43-1-.83-1.92-1.21-2.78a18,18,0,0,0,2.09-1.67,21.13,21.13,0,0,0,3-3.48,18.69,18.69,0,0,0,2.1-4.1A13.58,13.58,0,0,0,85,71.28a11.56,11.56,0,0,0-.37-3,6.88,6.88,0,0,0-1.45-2.72,6.62,6.62,0,0,0-2.84-1.84,11.66,11.66,0,0,0-3.89-.57ZM72.58,74.09h.51c.48,0,1,0,1.42,0l.49.05a.39.39,0,0,1-.08.1A13.13,13.13,0,0,1,73.06,76c-.33.26-.67.5-1,.72l.53-2.66Z" transform="translate(-0.51 -0.87)"/><path class="cls-2" d="M78.86,101.46c.33-1.41.67-3,1-4.75s.71-3.57,1.08-5.49.71-3.84,1-5.8.65-3.87,1-5.7q1-6.39,2.1-13.14l.11-.72,9.9-1.58-.24,1.37q-1.14,6.7-2.25,13.15c-.3,1.83-1.55,9.61-1.87,11.54s-.61,3.8-.87,5.61-.52,3.47-.75,4.94l-.14.84h-.85c-.18,0-.62,0-1.68.12l-2.7.3-2.52.32-1,.15-1.82.91Z" transform="translate(-0.51 -0.87)"/><path d="M93.84,65.48q-1.16,6.7-2.25,13.15l-.93,5.7q-.47,3-1,5.85c-.32,1.94-.61,3.81-.87,5.63s-.52,3.46-.75,4.92c-.3,0-.9,0-1.78.13s-1.79.18-2.72.3l-2.53.32a9.87,9.87,0,0,0-1.22.2q.5-2.15,1-4.77t1.08-5.5q.54-2.88,1-5.83t1-5.7Q85,73.49,86,66.73l7.8-1.25m2.44-2.41-2.76.44-7.8,1.25L84.28,65l-.22,1.44c-.7,4.48-1.4,8.9-2.1,13.13q-.45,2.75-.94,5.69c-.34,2-.69,3.92-1,5.78s-.72,3.74-1.07,5.49-.69,3.31-1,4.71l-1,4.15,3.58-1.8.82-.11,2.51-.33c.89-.11,1.79-.21,2.66-.29,1.11-.11,1.48-.12,1.59-.12H89.8l.26-1.68c.24-1.48.49-3.12.76-5s.56-3.72.87-5.59.63-3.89,1-5.86.62-3.86.92-5.69q1.09-6.43,2.25-13.14l.47-2.75Z" transform="translate(-0.51 -0.87)"/><path class="cls-2" d="M95.79,65.3l18-1.54-.45,1.43c-.22.7-.42,1.43-.58,2.16s-.32,1.31-.47,2-.27,1.27-.37,1.8l-.14.73-.74.08c-.35,0-.85.06-1.5.08l-2,0c-.71,0-1.42,0-2.15,0h-1L103.07,79l1.63-.08c.74,0,1.5,0,2.29,0s1.27,0,1.61,0l1.26-.12-.18,1.26c-.14.92-.26,1.84-.38,2.73s-.26,1.85-.43,2.8l-.13.74-.75.08c-.36,0-.91.06-1.71.08l-2.25.07-2.06.08-1.29,7,7.17-1.13-.69,7.75L88.85,103Z" transform="translate(-0.51 -0.87)"/><path d="M112.44,64.88a21.94,21.94,0,0,0-.6,2.25q-.25,1-.48,2c-.15.68-.27,1.29-.37,1.82-.34,0-.81.06-1.43.08l-2,0c-.7,0-1.41,0-2.13,0h-1.87l-1.75,9,2.9-.15c.73,0,1.48,0,2.25,0s1.33,0,1.7,0c-.14.94-.26,1.85-.38,2.75s-.26,1.82-.42,2.75c-.34,0-.88.06-1.63.08l-2.27.07-2.85.1-1.7,9.2,7.3-1.15-.5,5.7-16.15,2.5,6.55-35.55,15.8-1.35m2.81-2.24-3,.25-15.8,1.35L95,64.37l-.28,1.5-6.55,35.55-.51,2.77,2.78-.43,16.15-2.5,1.55-.24.14-1.56.5-5.7.22-2.55-2.52.4-4.51.71.89-4.84,1.25,0,2.25-.07c.83,0,1.39,0,1.78-.09l1.5-.15.27-1.49c.17-.95.31-1.91.44-2.84s.23-1.8.37-2.72l.36-2.51-2.53.23c-.2,0-.64,0-1.51,0s-1.57,0-2.34.06h-.36l.94-4.82h.23c.73,0,1.46,0,2.18,0l2,0c.66,0,1.17-.05,1.57-.09l1.48-.14L113,71.3c.1-.51.22-1.1.37-1.76s.3-1.31.45-1.89v-.09c.15-.7.34-1.4.55-2.07l.91-2.85Z" transform="translate(-0.51 -0.87)"/><path class="cls-2" d="M106,101.78q1.5-7.2,2.84-13.94c.33-1.91.69-3.92,1.08-6s.74-4.09,1.07-6.1.63-3.94.9-5.78.46-3.51.59-5l.09-1,1,.08c.41,0,.75,0,1,0h1c.46,0,1,0,1.67,0s1.32,0,2-.08l3-.13.17.84c.46,2.31.88,4.59,1.25,6.78l1.15,6a1,1,0,0,1,0-.17c.19-1,.39-1.93.57-2.9s.37-2,.58-3c.46-2.17,1.6-7.4,1.6-7.4l8.21-1-.31,1.38c-1.12,5.07-2.13,9.93-3,14.47-.4,2-.8,4-1.18,6s-.74,4-1.07,5.8-.62,3.58-.84,5.11-.42,2.9-.55,4l-.11.87h-.88l-1,.21-2.35.52L122,102a15,15,0,0,0-1.84.51l-1.25.48-.1-1.34c-.2-2.64-.42-5.19-.65-7.58-.1-1-.21-2.08-.32-3.16-.09-.79-.18-1.55-.27-2.29-.11.63-.22,1.27-.33,1.94-.17,1-.36,2-.56,3-.43,2.22-.89,4.56-1.39,7l-.13.63-9.45,2.2Z" transform="translate(-0.51 -0.87)"/><path d="M134.59,64.23q-1.71,7.65-3,14.5c-.4,2-.8,4-1.18,6s-.74,4-1.07,5.8-.62,3.57-.85,5.15-.42,2.91-.55,4a11.44,11.44,0,0,0-1.18.23l-2.35.52-2.65.6a16.47,16.47,0,0,0-2,.55c-.2-2.66-.42-5.2-.65-7.6-.1-1-.21-2.09-.33-3.17s-.24-2.13-.37-3.13-.27-1.93-.4-2.8-.27-1.61-.4-2.25c-.1.64-.24,1.37-.4,2.2s-.34,1.72-.5,2.65-.34,1.91-.5,2.93-.35,2-.55,2.92c-.44,2.24-.9,4.57-1.4,7L107,102q1.5-7.2,2.85-14,.5-2.9,1.07-6T112,75.91q.49-3,.9-5.8c.26-1.85.46-3.53.6-5,.43,0,.8,0,1.1,0h1c.46,0,1,0,1.7,0s1.33,0,2-.08l2.15-.1q.69,3.51,1.25,6.75c.36,1.9.74,3.85,1.12,5.85s.73,3.7,1,5.1c.13-.66.28-1.44.45-2.32s.35-1.81.55-2.78.39-1.94.57-2.92.38-2,.58-2.93c.46-2.16.95-4.4,1.45-6.7l6.1-.75m2.56-2.33-2.81.35-6.1.75-1.41.17-.3,1.39q-.75,3.45-1.45,6.7c-.07.33-.13.66-.2,1l-.18-.94c-.36-2.16-.79-4.45-1.25-6.77l-.34-1.68-1.71.08-2.16.1-1.95.07c-.65,0-1.2,0-1.65,0h-1c-.26,0-.58,0-1,0l-2-.15-.18,2c-.13,1.45-.32,3.1-.58,4.91s-.57,3.79-.9,5.76-.69,4-1.07,6.09-.74,4.07-1.07,6C107,92.1,106,96.78,105,101.58l-.64,3.06,3-.71,7.3-1.7,1.25-.29.25-1.25c.36-1.75.71-3.47,1-5.14.18,2,.35,4,.51,6.13l.2,2.68,2.51-1a15,15,0,0,1,1.7-.47l2.65-.59,2.34-.53.86-.18h1.65l.22-1.75c.13-1,.31-2.35.54-3.93s.51-3.24.84-5.09.69-3.77,1.08-5.78.75-3.93,1.17-6c.86-4.55,1.86-9.41,3-14.46l.61-2.77Z" transform="translate(-0.51 -0.87)"/><path class="cls-2" d="M132.34,103a12.73,12.73,0,0,1-1.51-.08q-.72-.08-1.44-.18l-1-.14.21-1q1.33-6.9,2.65-13.45l1-5.71q.56-3,1.05-5.87t1-5.55c.31-1.76.57-3.36.77-4.76l.1-.72.7-.13q2.16-.41,4.38-.75a29.8,29.8,0,0,1,4.66-.37,12.09,12.09,0,0,1,5,.94,8.91,8.91,0,0,1,3.43,2.65,10.85,10.85,0,0,1,1.9,3.85,16.94,16.94,0,0,1,.59,4.51A23.88,23.88,0,0,1,155,82a34.59,34.59,0,0,1-2.17,6,32.27,32.27,0,0,1-3.43,5.68,26,26,0,0,1-4.65,4.78,23.35,23.35,0,0,1-5.72,3.32A17.74,17.74,0,0,1,132.34,103Zm11.47-29.65c-.32,1.68-.66,3.29-1,4.82q-.6,2.7-1.2,5.45c-.39,1.82-.79,3.74-1.19,5.73-.24,1.16-.46,2.39-.68,3.67l.1-.12a22.14,22.14,0,0,0,2-3,36.17,36.17,0,0,0,1.78-3.7c.53-1.29,1-2.58,1.39-3.82a31.5,31.5,0,0,0,.9-3.44,14.59,14.59,0,0,0,.31-2.66,3,3,0,0,0-.74-2.2A2.81,2.81,0,0,0,143.81,73.33Z" transform="translate(-0.51 -0.87)"/><path d="M144.89,65.23a11.13,11.13,0,0,1,4.57.85,8,8,0,0,1,3,2.35,10,10,0,0,1,1.73,3.5,16.28,16.28,0,0,1,.55,4.25,22.28,22.28,0,0,1-.75,5.53,32.9,32.9,0,0,1-2.1,5.8,30.89,30.89,0,0,1-3.33,5.5,25.33,25.33,0,0,1-4.47,4.6,22.18,22.18,0,0,1-5.48,3.17,16.72,16.72,0,0,1-6.32,1.2,13,13,0,0,1-1.4-.07c-.47,0-.94-.11-1.4-.18q1.35-6.9,2.65-13.45.5-2.75,1.05-5.72t1-5.88q.5-2.9,1-5.55t.78-4.8q2.15-.39,4.35-.75a28.88,28.88,0,0,1,4.5-.35m-6.6,30.45a10.57,10.57,0,0,0,2.32-2.17,22,22,0,0,0,2.13-3.18,37.08,37.08,0,0,0,1.82-3.8c.55-1.33,1-2.63,1.43-3.9a33.4,33.4,0,0,0,.92-3.55,14.84,14.84,0,0,0,.33-2.85,4,4,0,0,0-1-2.9,4.33,4.33,0,0,0-3.22-1q-.56,3-1.15,5.65t-1.2,5.45c-.4,1.84-.8,3.75-1.2,5.75s-.79,4.19-1.15,6.55m6.6-32.45a30.73,30.73,0,0,0-4.82.38c-1.48.23-3,.49-4.4.76l-1.42.26-.19,1.43c-.2,1.39-.46,3-.77,4.72s-.64,3.63-1,5.56-.69,3.92-1,5.86-.72,3.89-1.05,5.73c-.86,4.33-1.75,8.82-2.65,13.42l-.4,2.07,2.08.29,1.47.19c.54,0,1.08.08,1.62.08a18.84,18.84,0,0,0,7.07-1.34,24.35,24.35,0,0,0,6-3.46,27.43,27.43,0,0,0,4.83-5,33.89,33.89,0,0,0,3.54-5.85A34.94,34.94,0,0,0,156,82.21a24.42,24.42,0,0,0,.82-6,18.2,18.2,0,0,0-.62-4.78,12.07,12.07,0,0,0-2.08-4.2,10,10,0,0,0-3.8-2.94,13.14,13.14,0,0,0-5.4-1ZM141.71,88c.29-1.43.59-2.83.88-4.18q.6-2.75,1.2-5.44c.27-1.21.53-2.48.79-3.79a1.15,1.15,0,0,1,.2.15,2,2,0,0,1,.46,1.5A13.32,13.32,0,0,1,145,78.7a31.8,31.8,0,0,1-.87,3.33c-.38,1.21-.84,2.47-1.37,3.74-.31.76-.65,1.5-1,2.22Z" transform="translate(-0.51 -0.87)"/></svg>