<svg id="Layer_1" data-name="Layer 1" xmlns="http://www.w3.org/2000/svg" viewBox="0 0 185.05 123"><defs><style>.cls-1{fill:#ff9ec0;}.cls-2{fill:#fff;}</style></defs><path class="cls-1" d="M107.78,13.15C98.11,7.85,88.62,8,78.42,5.54S61.71-.53,50.47,1.76C10.58,9.9-9,54.66,6.13,91.63,13.37,109.27,30.39,123.36,49.4,124c9.47.32,18.76-2.53,27.62-5.91,15-5.72,29.28-13,43.56-20.28,5.45-2.77,11.06-5.67,14.94-10.41,8.54-10.45,5.92-26.16.13-38.36C129.37,35.85,120.92,20.35,107.78,13.15Z" transform="translate(-1 -1.03)"/><path class="cls-2" d="M51.31,66.54c1-4.43,1.95-8.87,2.85-13.19.36-1.79.75-3.69,1.15-5.69s.78-4,1.15-5.89.71-3.8,1-5.59.61-3.44.84-4.93l.1-.61.59-.19c1-.3,2-.57,2.92-.79s1.93-.42,2.94-.59a18.2,18.2,0,0,1,2.94-.26,9.46,9.46,0,0,1,4.21.85A7.66,7.66,0,0,1,74.89,32a9,9,0,0,1,1.52,3.34,17.08,17.08,0,0,1,.43,3.88A15.65,15.65,0,0,1,75.74,45a17.35,17.35,0,0,1-2.92,4.9,14.83,14.83,0,0,1-4.23,3.46,10.76,10.76,0,0,1-4.85,1.32c-.2.89-.39,1.86-.57,2.87-.23,1.32-.43,2.55-.59,3.67-.24,1.36-.45,2.68-.65,4l-.11.69L51,68ZM67,37.19c-.3,1.78-.61,3.48-.91,5.1-.24,1.3-.5,2.66-.77,4.08A7.34,7.34,0,0,0,66.4,45a9.57,9.57,0,0,0,1.08-2.46,10.76,10.76,0,0,0,.41-3,3.31,3.31,0,0,0-.58-2.15A2.3,2.3,0,0,0,67,37.19Z" transform="translate(-1 -1.03)"/><path d="M67.84,29.81a8.47,8.47,0,0,1,3.77.75,6.68,6.68,0,0,1,2.48,2,8.12,8.12,0,0,1,1.35,3,15.71,15.71,0,0,1,.4,3.65,14.44,14.44,0,0,1-1,5.4,16.22,16.22,0,0,1-2.75,4.62,13.66,13.66,0,0,1-4,3.23,9.59,9.59,0,0,1-4.62,1.2h-.55c-.27,1.13-.52,2.37-.75,3.7s-.44,2.57-.6,3.7c-.24,1.33-.45,2.67-.65,4l-8.65,1.7q1.5-6.75,2.85-13.2c.36-1.8.75-3.7,1.15-5.7s.78-4,1.15-5.9.71-3.8,1.05-5.6.61-3.45.85-4.95q1.44-.45,2.85-.78c.93-.21,1.89-.4,2.87-.57a16.39,16.39,0,0,1,2.78-.25m-3.9,18.6a4.22,4.22,0,0,0,1.67-.93,7.76,7.76,0,0,0,1.63-1.9,10.42,10.42,0,0,0,1.2-2.72,11.6,11.6,0,0,0,.45-3.25,4.16,4.16,0,0,0-.83-2.8,2.41,2.41,0,0,0-1.82-1q-.55,3.3-1.1,6.25t-1.2,6.3m3.9-20.6a18.14,18.14,0,0,0-3.11.28c-1,.17-2,.37-3,.59s-2,.51-3,.82l-1.19.37-.19,1.23c-.23,1.47-.51,3.12-.84,4.9s-.68,3.66-1.05,5.58-.74,3.89-1.14,5.89-.79,3.89-1.15,5.69c-.9,4.3-1.86,8.74-2.84,13.16l-.67,3,3-.59L61.32,67l1.39-.27.21-1.39c.21-1.41.42-2.7.64-4v0c.16-1.08.35-2.28.59-3.65.12-.73.26-1.42.4-2.09a11.77,11.77,0,0,0,4.5-1.39,16,16,0,0,0,4.53-3.69,18.47,18.47,0,0,0,3.08-5.19,16.49,16.49,0,0,0,1.17-6.13,17.43,17.43,0,0,0-.46-4.11,9.84,9.84,0,0,0-1.69-3.71,8.75,8.75,0,0,0-3.19-2.63,10.58,10.58,0,0,0-4.66-1Z" transform="translate(-1 -1.03)"/><path class="cls-2" d="M70.61,66.56q1.35-6.64,2.6-13c.29-1.77.63-3.65,1-5.61s.71-3.87,1-5.78.61-3.76.89-5.54.51-3.38.67-4.84l.08-.64.62-.2a36.89,36.89,0,0,1,6.32-1.36,52.12,52.12,0,0,1,6.68-.43,10.51,10.51,0,0,1,3.56.51,5.6,5.6,0,0,1,2.41,1.55,5.77,5.77,0,0,1,1.24,2.33A10.36,10.36,0,0,1,98,36.26a12.51,12.51,0,0,1-.76,4.26,18.25,18.25,0,0,1-2,3.88,20,20,0,0,1-2.84,3.31,16,16,0,0,1-2.68,2c.5,1.1,1,2.28,1.56,3.55.69,1.58,1.33,3.1,1.93,4.53.67,1.68,1.35,3.34,2,5l.41,1L86,67.19l-.31-1c-.67-2.16-1.28-4.18-1.8-6-.23-.75-.47-1.55-.7-2.37s-.46-1.6-.66-2.34a1.21,1.21,0,0,0,0-.18c0,.22-.08.44-.13.66-.28,1.43-.54,2.8-.77,4.13-.3,1.58-.6,3.16-.9,4.76l-.12.63L70.29,68.13Zm14-22.92.57-.27a15.79,15.79,0,0,0,2.46-1.58,13.57,13.57,0,0,0,2-1.88c.59-.7.66-1.07.66-1.2a.27.27,0,0,0,0-.15,1.43,1.43,0,0,0-.57-.26,5.11,5.11,0,0,0-1.17-.19c-.48,0-1,0-1.48,0l-1.08,0h-.25Z" transform="translate(-1 -1.03)"/><path d="M90.49,30.16a9.79,9.79,0,0,1,3.22.45,4.63,4.63,0,0,1,2,1.27,4.75,4.75,0,0,1,1,1.93,9.29,9.29,0,0,1,.3,2.45,11.54,11.54,0,0,1-.7,3.92,16.18,16.18,0,0,1-1.88,3.65A18.43,18.43,0,0,1,91.76,47a14.51,14.51,0,0,1-3.27,2.33q.9,2,1.92,4.37t1.93,4.53c.66,1.67,1.35,3.33,2,5l-7.75,2.7q-1-3.19-1.8-6c-.24-.77-.47-1.56-.7-2.38s-.45-1.59-.65-2.32-.37-1.39-.5-2a9.52,9.52,0,0,1-.25-1.42l-.65.2c-.2,1.07-.44,2.32-.73,3.75s-.54,2.82-.77,4.15c-.3,1.57-.6,3.15-.9,4.75l-8.1,2.1q1.35-6.65,2.6-13,.45-2.7,1-5.63c.36-2,.71-3.88,1-5.8s.62-3.76.9-5.55.51-3.4.68-4.87a36.06,36.06,0,0,1,6.15-1.33,51.8,51.8,0,0,1,6.55-.42m-7.15,14.9a7,7,0,0,0,2.32-.8,16.7,16.7,0,0,0,2.63-1.68,15,15,0,0,0,2.15-2,3.05,3.05,0,0,0,.9-1.85,1.16,1.16,0,0,0-.35-.88,2.51,2.51,0,0,0-1-.5,6.89,6.89,0,0,0-1.37-.22c-.5,0-1,0-1.55,0l-1.13,0-1,0-1.6,8m7.15-16.9a54.17,54.17,0,0,0-6.81.44A37.92,37.92,0,0,0,77.19,30L76,30.39l-.15,1.29c-.16,1.45-.39,3.06-.66,4.79s-.58,3.62-.9,5.54-.66,3.83-1,5.75-.7,3.83-1,5.64c-.81,4.11-1.68,8.47-2.59,13L69,69.5l3.1-.81,8.1-2.1,1.23-.31L81.65,65c.3-1.6.6-3.18.9-4.75l.12-.64.25.85c.52,1.82,1.13,3.85,1.81,6l.62,2,2-.68,7.75-2.7,2-.7-.83-2c-.7-1.68-1.39-3.35-2-5s-1.26-3-2-4.58L91,50.12a18.3,18.3,0,0,0,2.09-1.68,20.73,20.73,0,0,0,3-3.48,18.62,18.62,0,0,0,2.1-4.09A13.58,13.58,0,0,0,99,36.26a11.63,11.63,0,0,0-.37-3,6.88,6.88,0,0,0-1.45-2.72,6.8,6.8,0,0,0-2.84-1.84,11.67,11.67,0,0,0-3.89-.56Zm-3.91,10.9h.51c.48,0,1,0,1.42,0,.17,0,.33,0,.49.06l-.08.1A13.73,13.73,0,0,1,87.06,41c-.33.25-.67.49-1,.72l.53-2.67Z" transform="translate(-1 -1.03)"/><path class="cls-2" d="M102.64,67.91a8,8,0,0,1-3.42-.72,7.51,7.51,0,0,1-2.71-2.13,10,10,0,0,1-1.76-3.49,17.33,17.33,0,0,1-.61-4.91,28,28,0,0,1,.72-6.12,43.13,43.13,0,0,1,2-6.3,35.61,35.61,0,0,1,3-6,30.23,30.23,0,0,1,4-5,19.11,19.11,0,0,1,4.75-3.56A11.74,11.74,0,0,1,114,28.31a7.84,7.84,0,0,1,4.25,1.08,7.67,7.67,0,0,1,2.65,2.75,12.1,12.1,0,0,1,1.28,3.63,21.35,21.35,0,0,1,.37,3.89,34,34,0,0,1-.91,8,34.51,34.51,0,0,1-2.39,6.85,28.33,28.33,0,0,1-3.5,5.59,27.23,27.23,0,0,1-4.18,4.2,18.22,18.22,0,0,1-4.5,2.7A11.9,11.9,0,0,1,102.64,67.91Zm9.65-27.1a4.61,4.61,0,0,0-2.44.66,8.17,8.17,0,0,0-2.16,1.89,14,14,0,0,0-1.75,2.8,29.79,29.79,0,0,0-1.33,3.29,19,19,0,0,0-.78,3.21,18.33,18.33,0,0,0-.24,2.7,2.66,2.66,0,0,0,.15.83,2.23,2.23,0,0,0,.39.75,2.13,2.13,0,0,0,.61.54,1.08,1.08,0,0,0,.6.18,4.84,4.84,0,0,0,3.33-1.3,11.85,11.85,0,0,0,2.68-3.51A21,21,0,0,0,113,48.27a18.55,18.55,0,0,0,.6-4.41c0-.37,0-.77-.07-1.19a4.22,4.22,0,0,0-.24-1.06,1.56,1.56,0,0,0-.44-.63A.88.88,0,0,0,112.29,40.81Z" transform="translate(-1 -1.03)"/><path d="M114,29.31a6.93,6.93,0,0,1,3.72.92,6.6,6.6,0,0,1,2.3,2.4A11.24,11.24,0,0,1,121.24,36a20.15,20.15,0,0,1,.35,3.7,32.43,32.43,0,0,1-.88,7.72A33.55,33.55,0,0,1,118.39,54a26.88,26.88,0,0,1-3.38,5.4,25.69,25.69,0,0,1-4,4A17.18,17.18,0,0,1,106.74,66a10.79,10.79,0,0,1-4.1.88,7,7,0,0,1-3-.63,6.42,6.42,0,0,1-2.35-1.85,8.78,8.78,0,0,1-1.58-3.15,16.38,16.38,0,0,1-.57-4.62,26.61,26.61,0,0,1,.7-5.9,41.08,41.08,0,0,1,1.9-6.15,33.65,33.65,0,0,1,3-5.8,29.18,29.18,0,0,1,3.85-4.88,18.13,18.13,0,0,1,4.5-3.37,10.71,10.71,0,0,1,5-1.25m-8.7,29.35a5.88,5.88,0,0,0,4-1.55,12.9,12.9,0,0,0,2.9-3.8,22,22,0,0,0,1.77-4.8,19.53,19.53,0,0,0,.63-4.65,12.39,12.39,0,0,0-.08-1.3,5.26,5.26,0,0,0-.3-1.3,2.59,2.59,0,0,0-.7-1,1.84,1.84,0,0,0-1.27-.42,5.7,5.7,0,0,0-3,.8,9.14,9.14,0,0,0-2.43,2.12,15.52,15.52,0,0,0-1.87,3,29.89,29.89,0,0,0-1.38,3.4,20,20,0,0,0-.82,3.38,19,19,0,0,0-.25,2.85,3.44,3.44,0,0,0,.2,1.15,3.28,3.28,0,0,0,.55,1.05,3.09,3.09,0,0,0,.87.77,2.09,2.09,0,0,0,1.13.33M114,27.31a12.73,12.73,0,0,0-5.93,1.47,20.16,20.16,0,0,0-5,3.75A31.24,31.24,0,0,0,99,37.73a35.52,35.52,0,0,0-3.12,6.15,42.28,42.28,0,0,0-2,6.44,28.71,28.71,0,0,0-.75,6.34,18.26,18.26,0,0,0,.66,5.2,10.92,10.92,0,0,0,1.94,3.84,8.55,8.55,0,0,0,3.06,2.4,9,9,0,0,0,3.84.81,13.08,13.08,0,0,0,4.85-1,19.71,19.71,0,0,0,4.75-2.84,29.12,29.12,0,0,0,8-10.15,36.09,36.09,0,0,0,2.47-7,35.37,35.37,0,0,0,.93-8.19,21.58,21.58,0,0,0-.39-4.07,12.81,12.81,0,0,0-1.39-3.93,8.65,8.65,0,0,0-3-3.12A8.89,8.89,0,0,0,114,27.31Zm-8.7,29.35s0,0-.07,0a1.17,1.17,0,0,1-.35-.3,1.36,1.36,0,0,1-.23-.45,1.58,1.58,0,0,1-.1-.52,17.42,17.42,0,0,1,.22-2.55,18,18,0,0,1,.75-3,28.77,28.77,0,0,1,1.28-3.17A12.82,12.82,0,0,1,108.47,44a7.17,7.17,0,0,1,1.89-1.66,3.68,3.68,0,0,1,1.93-.52h0a.53.53,0,0,1,.08.15,3.21,3.21,0,0,1,.18.81,8.63,8.63,0,0,1,.07,1.09,17.58,17.58,0,0,1-.57,4.17,20.54,20.54,0,0,1-1.61,4.37A10.89,10.89,0,0,1,108,55.61a3.81,3.81,0,0,1-2.67,1Z" transform="translate(-1 -1.03)"/><path class="cls-2" d="M117.48,66.49c.39-1.41.78-3,1.16-4.77s.76-3.64,1.14-5.6.75-3.95,1.1-6,.69-4,1-5.83c.7-4.42,1.41-9,2.1-13.72l.12-.81,18.9-1-1.94,8.22h-7.8l-1.2,6.87c.61,0,1.19,0,1.76,0h2.35c.77,0,1.37,0,1.77,0l1.2-.09L139,45c-.1.95-.23,1.9-.38,2.81s-.29,1.79-.42,2.68l-.13.86h-.86l-1.87,0c-.81,0-1.64,0-2.5-.07l-2-.07-2.27,14.58-.71.12c-1.12.2-2.23.42-3.31.65s-2,.37-3.06.6-2,.44-2.87.64l-1.65.4Z" transform="translate(-1 -1.03)"/><path d="M141.74,29.91l-1.45,6.15h-7.85L130.89,45c1,0,2-.05,3-.05h2.35c.8,0,1.41,0,1.85,0-.1.93-.23,1.85-.38,2.75s-.29,1.8-.42,2.7l-1.85,0c-.8,0-1.63,0-2.48-.07l-2.87-.1-2.3,14.75c-1.14.2-2.25.42-3.35.65-.94.17-2,.37-3,.6s-2.07.45-2.9.65q.6-2.15,1.17-4.83t1.15-5.62c.39-2,.75-4,1.1-6s.69-3.95,1-5.82q1-6.65,2.1-13.75l16.75-.85m2.56-2.13-2.66.13-16.75.85-1.64.08L123,30.47c-.69,4.67-1.4,9.29-2.1,13.73-.32,1.83-.67,3.77-1,5.79s-.71,4-1.09,5.94-.76,3.81-1.14,5.58-.76,3.32-1.15,4.71l-.91,3.28,3.31-.8c.78-.19,1.71-.39,2.84-.64s2.09-.42,3-.58h.06c1.1-.24,2.21-.45,3.29-.64l1.4-.25.22-1.41,2-13,1.1,0c.86,0,1.69.06,2.51.07l1.89,0H139l.26-1.71c.13-.89.27-1.78.42-2.66s.28-1.9.39-2.87l.25-2.39-2.4.18c-.38,0-.95,0-1.69,0h-2.91l.84-4.85h7.75l.36-1.54,1.45-6.15.62-2.59Z" transform="translate(-1 -1.03)"/><path class="cls-2" d="M134.56,66.43c.33-1.42.68-3,1-4.74s.71-3.58,1.07-5.5.72-3.84,1-5.8.65-3.86,1-5.69q1-6.41,2.1-13.15l.11-.71,9.9-1.59-.24,1.38q-1.16,6.69-2.25,13.15c-.3,1.82-1.55,9.61-1.87,11.54s-.61,3.8-.87,5.61-.52,3.47-.76,4.94l-.13.84h-.85c-.18,0-.63,0-1.68.12q-1.32.12-2.7.3l-2.52.32c-.63.08-.9.13-1,.15l-1.81.9Z" transform="translate(-1 -1.03)"/><path d="M149.54,30.46q-1.15,6.7-2.25,13.15l-.93,5.7c-.32,2-.63,3.92-1,5.85s-.61,3.81-.87,5.62-.52,3.46-.75,4.93c-.3,0-.9,0-1.78.12l-2.72.3-2.53.33a9.87,9.87,0,0,0-1.22.2c.33-1.43.67-3,1-4.78s.71-3.58,1.08-5.5.71-3.85,1.05-5.82.65-3.87.95-5.7q1.05-6.4,2.1-13.15l7.8-1.25M152,28l-2.76.44-7.8,1.25L140,30l-.22,1.44c-.7,4.48-1.4,8.9-2.1,13.13-.3,1.84-.61,3.73-.94,5.7S136,54.14,135.67,56s-.72,3.74-1.07,5.48-.68,3.31-1,4.72l-1,4.14,3.58-1.79.81-.12,2.52-.32c.92-.12,1.82-.22,2.66-.3,1.11-.1,1.48-.11,1.59-.11h1.7l.27-1.69c.24-1.47.49-3.12.76-4.94s.56-3.72.87-5.6.63-3.88,1-5.85.62-3.87.92-5.7q1.1-6.43,2.25-13.13L152,28Z" transform="translate(-1 -1.03)"/><path class="cls-2" d="M145,66.67c.21-1.5.44-3.17.71-5s.58-3.75.93-5.73.7-4,1.05-5.94.71-4,1.08-5.78c.82-4.31,1.71-8.81,2.65-13.35l.14-.7,10.89-1.43-.33,1.4q-1.35,5.81-2.6,11.3c-.37,1.57-.73,3.19-1.1,4.87s-.71,3.32-1,4.91-.63,3.13-.9,4.62c-.18,1-.33,1.91-.46,2.75l1.48,0,2.55,0h1l0,1c0,.61.07,1.22.14,1.81s.14,1.14.22,1.62.15,1,.2,1.36.08.55.11.67l.31,1.24h-1.28c-.29,0-.58,0-.85,0l-.7,0c-1,0-2.08,0-3.22.1s-2.28.16-3.42.29-2.27.31-3.35.52a21.83,21.83,0,0,0-2.9.74l-1.52.5Z" transform="translate(-1 -1.03)"/><path d="M161.14,29.91q-1.35,5.81-2.6,11.3c-.37,1.57-.74,3.19-1.1,4.87s-.72,3.33-1.05,4.93-.64,3.15-.9,4.65-.49,2.83-.65,4c.83-.07,1.72-.11,2.67-.13l2.53,0c0,.63.08,1.26.15,1.87s.14,1.18.22,1.68.15.94.2,1.32a6,6,0,0,0,.13.78q-.41,0-.78,0l-.77,0c-1,0-2.13,0-3.28.1s-2.31.17-3.47.3-2.31.31-3.43.52a24.45,24.45,0,0,0-3,.78c.2-1.5.43-3.17.7-5s.57-3.73.92-5.7.7-4,1-6,.71-3.92,1.08-5.75q1.24-6.55,2.65-13.35l8.75-1.15m2.6-2.36-2.86.38-8.75,1.15-1.42.18-.28,1.39c-.94,4.55-1.83,9.05-2.66,13.38-.36,1.8-.72,3.75-1.08,5.78s-.7,4-1.05,5.95-.67,3.93-.93,5.76-.51,3.52-.71,5l-.42,3.18,3-1a22.23,22.23,0,0,1,2.77-.71c1.06-.21,2.16-.38,3.27-.5s2.25-.23,3.37-.29,2.18-.1,3.16-.1l.64,0c.29,0,.59,0,.91,0h2.56l-.62-2.49a5.08,5.08,0,0,1-.09-.55c-.05-.4-.12-.86-.2-1.39s-.15-1-.22-1.56-.11-1.17-.14-1.76l-.09-1.9H160l-2.56,0h-.29q.12-.74.27-1.53c.26-1.49.56-3,.88-4.59s.68-3.23,1-4.91.73-3.28,1.09-4.85q1.26-5.5,2.6-11.3l.66-2.81Z" transform="translate(-1 -1.03)"/><path class="cls-2" d="M166.59,30.28l18-1.55-.45,1.43c-.22.7-.42,1.43-.58,2.16s-.33,1.31-.47,2-.27,1.27-.37,1.79l-.14.74-.74.07c-.36,0-.86.07-1.5.08l-2,.05c-.71,0-1.42,0-2.15,0h-1l-1.34,6.87,1.63-.07c.74,0,1.5,0,2.29,0s1.27,0,1.6-.05l1.27-.11-.18,1.25c-.14.93-.26,1.84-.38,2.74s-.26,1.84-.43,2.79l-.13.75-.75.07c-.36,0-.92.07-1.71.08s-1.49,0-2.25.08l-2.06.07-1.29,7,7.16-1.13L178,65.13,159.65,68Z" transform="translate(-1 -1.03)"/><path d="M183.24,29.86a20.65,20.65,0,0,0-.6,2.25c-.17.63-.33,1.29-.48,2s-.27,1.3-.37,1.83c-.34,0-.81.06-1.43.07l-2,.05q-1,0-2.13,0h-1.87L172.64,45c1-.07,2-.12,2.9-.15.73,0,1.48,0,2.25,0s1.33,0,1.7-.05c-.14.93-.26,1.85-.38,2.75s-.26,1.82-.42,2.75c-.34,0-.88.06-1.63.07l-2.27.08-2.85.1-1.7,9.2,7.3-1.15-.5,5.7-16.15,2.5,6.55-35.55,15.8-1.35m2.81-2.25-3,.26-15.8,1.35-1.52.13-.28,1.5L158.92,66.4l-.51,2.77,2.78-.44,16.15-2.5,1.55-.24.14-1.56.5-5.7.22-2.55-2.53.4-4.5.71.89-4.84,1.25,0c.77,0,1.51-.06,2.25-.08s1.39,0,1.78-.08l1.5-.15.27-1.49c.17-1,.31-1.92.43-2.84s.24-1.8.38-2.73l.36-2.51-2.53.24c-.21,0-.64,0-1.51,0s-1.57,0-2.34,0h-.36l.94-4.81h.23c.73,0,1.46,0,2.18,0l2-.05c.66,0,1.17,0,1.56-.08l1.49-.15.28-1.47q.15-.78.36-1.77c.16-.69.31-1.31.46-1.89v-.09c.15-.7.34-1.39.55-2.07l.91-2.85Z" transform="translate(-1 -1.03)"/></svg>