<svg id="Layer_1" data-name="Layer 1" xmlns="http://www.w3.org/2000/svg" viewBox="0 0 166.27 129.38"><defs><style>.cls-1{fill:#f5c84e;}.cls-2{fill:#fff;}</style></defs><path class="cls-1" d="M165.4,78.59c-2.71-7.22-8.34-12.83-14.55-17.16a70.92,70.92,0,0,0-23.11-10.49C112.09,47,95,48.16,80.19,41.16c-7.07-3.33-13-8.49-18.11-14.36C51,14,43.21-3.29,22.77,1.06A28.33,28.33,0,0,0,2,20.06C-1.63,32,3,44.69,5.57,56.93c2,9.84,2.72,20.12,6.93,29.24,5.36,11.61,15.71,19.71,26.37,26.23C49.27,118.76,59,127.1,71.38,129a74.64,74.64,0,0,0,13.61.67c4.67-.13,9.34-.43,14-.81a215.1,215.1,0,0,0,27.1-3.75c7.94-1.68,15.84-4.17,22.79-8.46A39.15,39.15,0,0,0,164.05,100C167.14,93.32,168,85.6,165.4,78.59Z" transform="translate(-0.68 -0.38)"/><path class="cls-2" d="M34.16,70.7q1.41-7,2.7-13.65c.33-1.88.68-3.86,1-5.91s.71-4.06,1-6.06.62-3.93.9-5.81.51-3.58.67-5.09l.1-.93.94,0c.78,0,1.5.08,2.16.13l1.9.12c.62,0,1.25.06,1.9.08l2.09,0h1.27l-.29,1.23C50,37.24,49.44,39.6,48.89,42c-.44,1.91-.86,3.85-1.25,5.78l2.86-.32c.41-2.09.78-4.15,1.11-6.13.37-2.22.86-4.56,1.47-6.95l.15-.63.64-.11c.8-.14,1.68-.25,2.64-.34l2.6-.23L62,32.8l1.49-.14L63,34.09c-.46,1.46-.9,3.1-1.31,4.85s-.82,3.61-1.22,5.53-.78,3.85-1.14,5.8-.7,3.83-1,5.59c-.73,4.21-1.42,8.58-2,13l-.1.77-10,1.14.3-1.36c.43-2,.81-3.95,1.14-5.81.34-1.63.68-3.29,1-5,.23-1.15.43-2.2.6-3.13l-2.8.26q-.3,1.63-.69,3.66c-.31,1.66-.61,3.24-.87,4.74l-1.24,6.07-9.82,2Z" transform="translate(-0.68 -0.38)"/><path d="M62,33.79q-.69,2.25-1.32,4.93t-1.23,5.55q-.6,2.86-1.15,5.82c-.36,2-.7,3.84-1,5.6q-1.1,6.36-2.05,13l-7.8.9q.66-3,1.15-5.85c.34-1.6.68-3.26,1-5s.62-3.22.82-4.45l-4.85.45c-.23,1.27-.5,2.74-.82,4.4s-.61,3.25-.88,4.75q-.54,2.7-1.1,5.4l-7.7,1.6q1.41-7,2.7-13.65.51-2.85,1-5.92t1-6.08q.48-3,.9-5.82c.28-1.89.51-3.59.67-5.13.77,0,1.48.08,2.13.13l1.92.12c.64,0,1.28.06,1.93.08l2.12,0c-.56,2.37-1.12,4.73-1.67,7.1s-1.06,4.75-1.53,7.15l5-.55c.47-2.36.89-4.66,1.25-6.87S53.44,37,54,34.59c.77-.13,1.62-.24,2.55-.32l2.6-.23c.8-.06,1.75-.15,2.85-.25m2.8-2.26-3,.27L59,32.05l-2.61.22c-1,.09-1.9.21-2.72.35l-1.28.22-.31,1.26c-.62,2.42-1.12,4.79-1.49,7-.29,1.74-.61,3.54-1,5.38l-.76.08c.3-1.47.63-2.94,1-4.41.55-2.36,1.1-4.72,1.67-7.08l.59-2.47H49.59l-2.07,0c-.63,0-1.25,0-1.87-.08l-1.88-.12c-.66-.05-1.4-.09-2.19-.13l-1.87-.08-.2,1.86c-.17,1.5-.39,3.2-.67,5s-.58,3.81-.9,5.81-.65,4-1,6-.72,4-1.06,5.94c-.85,4.39-1.75,8.94-2.69,13.6l-.59,3,3-.62,7.7-1.6L44.54,71l.26-1.29,1.1-5.4v-.05c.27-1.49.56-3.07.87-4.72.2-1.06.39-2,.56-2.93l.73-.06c-.11.57-.23,1.18-.36,1.82q-.52,2.59-1,5v.07c-.32,1.85-.7,3.79-1.13,5.77L45,71.9l2.77-.32,7.8-.9,1.54-.18L57.27,69c.63-4.38,1.32-8.74,2-12.94.3-1.77.63-3.64,1-5.57s.74-3.87,1.14-5.78.81-3.77,1.22-5.51.84-3.34,1.28-4.78l.89-2.86Z" transform="translate(-0.68 -0.38)"/><path class="cls-2" d="M65.84,72a8,8,0,0,1-3.42-.72,7.64,7.64,0,0,1-2.7-2.12A10,10,0,0,1,58,65.65a17.3,17.3,0,0,1-.62-4.91,28,28,0,0,1,.73-6.12A43.33,43.33,0,0,1,60,48.33a35.38,35.38,0,0,1,3-6,30.71,30.71,0,0,1,4-5,19.48,19.48,0,0,1,4.75-3.56,11.8,11.8,0,0,1,5.46-1.36,7.86,7.86,0,0,1,4.26,1.08,7.59,7.59,0,0,1,2.64,2.76,12.15,12.15,0,0,1,1.29,3.62,21.5,21.5,0,0,1,.36,3.89,33.94,33.94,0,0,1-.9,8,34.93,34.93,0,0,1-2.39,6.85,28.89,28.89,0,0,1-3.5,5.6,28.14,28.14,0,0,1-4.18,4.2A18.17,18.17,0,0,1,70.32,71,11.91,11.91,0,0,1,65.84,72Zm9.65-27.1a4.7,4.7,0,0,0-2.44.66,8,8,0,0,0-2.15,1.9,13.54,13.54,0,0,0-1.75,2.8,27.81,27.81,0,0,0-1.33,3.28A19.24,19.24,0,0,0,67,56.74a18.22,18.22,0,0,0-.24,2.7,2.56,2.56,0,0,0,.15.83,2.72,2.72,0,0,0,.39.76,2.54,2.54,0,0,0,.62.54,1.06,1.06,0,0,0,.59.17,4.84,4.84,0,0,0,3.34-1.3,11.61,11.61,0,0,0,2.67-3.5,21.34,21.34,0,0,0,1.7-4.59,19,19,0,0,0,.59-4.41,10.08,10.08,0,0,0-.07-1.19,4.33,4.33,0,0,0-.24-1.06,1.51,1.51,0,0,0-.43-.63A.91.91,0,0,0,75.49,44.89Z" transform="translate(-0.68 -0.38)"/><path d="M77.24,33.39a6.88,6.88,0,0,1,3.73.93,6.53,6.53,0,0,1,2.3,2.4A10.8,10.8,0,0,1,84.44,40a19.31,19.31,0,0,1,.35,3.7,33,33,0,0,1-3.2,14.38,27.43,27.43,0,0,1-3.37,5.4,26.62,26.62,0,0,1-4,4,17.62,17.62,0,0,1-4.25,2.55,10.92,10.92,0,0,1-4.1.87,7.15,7.15,0,0,1-3-.62,6.73,6.73,0,0,1-2.35-1.85,9.11,9.11,0,0,1-1.57-3.15,16.47,16.47,0,0,1-.58-4.63,27.21,27.21,0,0,1,.7-5.9,44,44,0,0,1,1.9-6.15,34.75,34.75,0,0,1,3-5.8A29.2,29.2,0,0,1,67.74,38a18.18,18.18,0,0,1,4.5-3.38,10.74,10.74,0,0,1,5-1.25m-8.7,29.35a5.82,5.82,0,0,0,4-1.55,12.57,12.57,0,0,0,2.9-3.8,22,22,0,0,0,1.78-4.8,19.48,19.48,0,0,0,.62-4.65,12.23,12.23,0,0,0-.07-1.3,5.37,5.37,0,0,0-.3-1.3,2.49,2.49,0,0,0-.7-1,1.82,1.82,0,0,0-1.28-.43,5.73,5.73,0,0,0-2.95.8,9.14,9.14,0,0,0-2.42,2.13,15,15,0,0,0-1.88,3,29.1,29.1,0,0,0-1.37,3.4A20.94,20.94,0,0,0,66,56.59a20.37,20.37,0,0,0-.25,2.85,3.81,3.81,0,0,0,.75,2.2,3.49,3.49,0,0,0,.88.78,2.14,2.14,0,0,0,1.12.32m8.7-31.35a12.7,12.7,0,0,0-5.92,1.48,19.92,19.92,0,0,0-5,3.74,31.39,31.39,0,0,0-4.11,5.21A36.19,36.19,0,0,0,59.08,48a45.44,45.44,0,0,0-2,6.44,29.32,29.32,0,0,0-.75,6.34,18.57,18.57,0,0,0,.66,5.2,10.93,10.93,0,0,0,2,3.84,8.5,8.5,0,0,0,3,2.4,9.05,9.05,0,0,0,3.84.81,12.89,12.89,0,0,0,4.86-1,19.34,19.34,0,0,0,4.74-2.84,28.28,28.28,0,0,0,4.33-4.35A29.23,29.23,0,0,0,83.4,59a35.57,35.57,0,0,0,2.46-7,34.92,34.92,0,0,0,.93-8.2,21.56,21.56,0,0,0-.38-4.07A12.65,12.65,0,0,0,85,35.74a8.64,8.64,0,0,0-3-3.12,8.93,8.93,0,0,0-4.79-1.23Zm-8.7,29.35-.06,0a1.34,1.34,0,0,1-.35-.3,1.54,1.54,0,0,1-.24-.46,1.88,1.88,0,0,1-.1-.52A17.72,17.72,0,0,1,68,56.89a18.2,18.2,0,0,1,.75-3,25.94,25.94,0,0,1,1.28-3.17,12.88,12.88,0,0,1,1.62-2.6,7.19,7.19,0,0,1,1.89-1.67,3.73,3.73,0,0,1,1.93-.52h0a.75.75,0,0,1,.09.15,3.32,3.32,0,0,1,.18.81c0,.4.06.76.06,1.09a18,18,0,0,1-.56,4.17,19.66,19.66,0,0,1-1.62,4.37,10.86,10.86,0,0,1-2.44,3.21,3.84,3.84,0,0,1-2.68,1.05Z" transform="translate(-0.68 -0.38)"/><path class="cls-2" d="M79,70.18c1.45-4.37,2.86-8.76,4.2-13q.86-2.7,1.75-5.64t1.8-5.85c.6-1.93,1.15-3.79,1.67-5.58s1-3.45,1.37-5l.19-.75h.77a42.8,42.8,0,0,0,5.08-.29c1.62-.2,3.41-.39,5.34-.55l1.24-.11-.17,1.24c-.1.73-.2,1.55-.32,2.46s-.25,1.89-.4,2.9-.31,2-.48,3.11-.35,2.33-.57,3.91l1.7-4.52q.6-1.62,1.23-3.15c.42-1,.82-2,1.21-2.91s.75-1.76,1.09-2.47l.25-.52.57,0c.82-.06,1.58-.14,2.3-.24l2.18-.32,2.22-.35,2.45-.42,1.41-.26-.24,1.41c-.33,1.91-.65,3.9-1,5.93s-.57,4.07-.79,6-.46,4-.68,6-.41,3.82-.57,5.59c-.4,4.07-.75,8.14-1,12.08l-.06.77-10.64,1.9v-1.2c0-.17,0-.65.08-1.42s.12-1.64.2-2.71.2-2.27.36-3.58l.37-3.22-.74,2c-.59,1.61-1.16,3.17-1.73,4.71s-1.06,3-1.48,4.35l-.21.68-.72,0q-1.73,0-3,.12l-4,.25,1-12c-.21.79-.44,1.61-.67,2.44-.4,1.42-.78,2.73-1.13,4s-.64,2.23-.88,3-.37,1.25-.41,1.36l-.21.63-10.4.7Z" transform="translate(-0.68 -0.38)"/><path d="M115.84,33q-.5,2.91-1,6c-.3,2-.56,4.06-.8,6.08s-.46,4-.67,6-.41,3.83-.58,5.6q-.6,6.2-1,12.1l-8.7,1.55c0-.17,0-.61.08-1.35s.12-1.63.2-2.7.2-2.25.35-3.55l.45-3.9c.15-1.3.31-2.56.47-3.77s.34-2.26.5-3.13h-.45c-.46,1.4-1,2.88-1.55,4.43S102,59.44,101.42,61s-1.16,3.17-1.73,4.7-1.06,3-1.5,4.4c-1.16,0-2.16.08-3,.13l-2.9.17,1.6-18.55h-.75a21.3,21.3,0,0,1-.5,2.18c-.26,1-.57,2.18-.92,3.5s-.73,2.68-1.13,4.1-.77,2.73-1.12,4-.64,2.21-.88,3-.36,1.22-.4,1.32l-8.25.55q2.2-6.64,4.2-13,.85-2.7,1.75-5.65c.6-2,1.2-3.92,1.8-5.85s1.16-3.8,1.68-5.6,1-3.47,1.37-5a42.71,42.71,0,0,0,5.2-.3c1.64-.2,3.4-.38,5.3-.55-.1.74-.2,1.56-.32,2.48s-.25,1.87-.4,2.87-.31,2-.48,3.1-.36,2.43-.6,4.1-.55,3.75-1,6.25h.65q1.45-3.8,2.4-6.32c.64-1.69,1.15-3.06,1.55-4.13s.81-2.11,1.23-3.12.81-2,1.2-2.9.74-1.73,1.07-2.43c.84-.06,1.62-.15,2.35-.25l2.2-.32,2.23-.35c.75-.12,1.57-.26,2.47-.43m2.46-2.49-2.82.53c-.88.16-1.69.3-2.42.41l-2.23.35c-.72.12-1.44.22-2.16.32s-1.44.17-2.24.24l-1.14.09-.5,1c-.35.72-.72,1.57-1.12,2.52l-.9,2.17c0-.34.09-.67.13-1q.18-1.36.33-2.46l.33-2.48-2.49.22c-1.94.17-3.74.36-5.37.56a40.82,40.82,0,0,1-5,.28H89.2l-.39,1.5c-.39,1.48-.85,3.15-1.36,4.95s-1.07,3.64-1.67,5.56-1.2,3.89-1.8,5.86-1.18,3.84-1.74,5.63c-1.34,4.28-2.75,8.66-4.19,13l-.94,2.83,3-.2,8.25-.55,1.34-.09.42-1.28c0-.08.11-.36.26-.84l0,.54-.2,2.31,2.31-.14.91-.06,2-.12c.8-.05,1.76-.09,2.94-.12l1.43,0,.42-1.37c.35-1.12.75-2.31,1.19-3.53-.05.6-.08,1.14-.12,1.6-.07,1-.08,1.34-.08,1.49v2.39l2.35-.42,8.7-1.55,1.53-.27.12-1.55c.3-3.93.65-8,1-12.06.17-1.75.36-3.62.58-5.57s.44-3.95.67-6,.49-4,.79-6,.62-4,.94-5.9l.49-2.83Z" transform="translate(-0.68 -0.38)"/><path class="cls-2" d="M118.5,34.36l18.05-1.54-.45,1.42c-.23.71-.42,1.43-.58,2.16s-.33,1.31-.48,2-.27,1.27-.37,1.8l-.13.73-.75.08c-.35,0-.85.06-1.5.08l-2,0-2.15,0h-1L125.77,48l1.64-.08c.74,0,1.5,0,2.28,0s1.28,0,1.61,0l1.26-.12L132.38,49c-.13.93-.26,1.84-.37,2.74s-.26,1.85-.43,2.8l-.13.74-.76.08c-.36,0-.92.06-1.7.08s-1.49,0-2.25.07l-2.06.07-1.3,7,7.17-1.13-.68,7.76L111.55,72Z" transform="translate(-0.68 -0.38)"/><path d="M135.14,33.94q-.34,1.11-.6,2.25c-.16.64-.32,1.29-.47,2s-.28,1.29-.38,1.82c-.33,0-.81.06-1.42.08l-2,0-2.12,0h-1.88l-1.75,9c1-.07,2-.11,2.9-.15.74,0,1.49,0,2.25,0s1.34,0,1.7,0c-.13.93-.26,1.85-.37,2.75s-.26,1.82-.43,2.75c-.33,0-.87.06-1.62.08s-1.51,0-2.28.07l-2.85.1-1.7,9.2,7.3-1.15-.5,5.7-16.15,2.5,6.55-35.55,15.8-1.35M138,31.69,135,32l-15.8,1.35-1.52.13-.27,1.5-6.55,35.55-.51,2.77,2.78-.43,16.15-2.5,1.55-.24.13-1.56.5-5.7.23-2.55-2.53.4-4.51.71.9-4.84,1.25,0c.76,0,1.51-.06,2.24-.07s1.4-.05,1.78-.09l1.51-.15.26-1.49c.17-1,.32-1.91.44-2.84s.24-1.8.37-2.73l.36-2.5-2.52.23c-.21,0-.64,0-1.52,0s-1.57,0-2.34,0L127,47l.94-4.82h.23l2.17,0,2,0c.67,0,1.18,0,1.57-.09l1.49-.15.28-1.47q.15-.77.36-1.77c.15-.69.3-1.3.46-1.89v-.09a20.83,20.83,0,0,1,.55-2.06l.91-2.86Z" transform="translate(-0.68 -0.38)"/></svg>