<svg id="Layer_1" data-name="Layer 1" xmlns="http://www.w3.org/2000/svg" viewBox="0 0 426.86 205.36"><defs><style>.cls-1{fill:#f9b233;}.cls-2{fill:#fff;}.cls-3{fill:#1d1d1b;}</style></defs><path class="cls-1" d="M17.91,13.83l.86,0a64.69,64.69,0,0,0,8.72-.94,80.77,80.77,0,0,1,8.35-1.06l1.08-.08V12.8c0,.1,0,.17-.32,2.2-.2,1.3-.46,3-.8,5.1s-.7,4.47-1.09,7.1-1,6.12-1.76,10.86c-.62,3.74-1.41,8.63-2.34,14.59q1.83-6.48,3.15-11,1.7-5.85,2.75-9.5c.69-2.43,1.36-4.78,2-7s1.24-4.38,1.81-6.32,1-3.54,1.34-4.86l.19-.76h1.68A32.56,32.56,0,0,0,47.06,13c1.22-.13,2.38-.28,3.46-.44s2.2-.38,3.38-.64l1.54-.34-.35,1.53a34.53,34.53,0,0,0-.43,3.57c-.17,1.87-.38,4.13-.65,6.77s-.54,5.56-.8,8.68-.53,6.27-.8,9.3-.51,5.92-.75,8.65c-.16,1.86-.31,3.54-.45,5l9.28-42,.68-.1c2.25-.34,4.52-.64,6.73-.91l6-.8c2-.26,3.86-.56,5.42-.88l1.75-.37-.6,1.68c-1,2.77-2,5.89-3,9.3s-2,7-3.1,10.84-2.09,7.63-3,11.47-1.92,7.6-2.86,11.21C66.37,63,64.29,71.83,62.29,80.81l-.14.66L37.57,85.6,41.5,51.1,32.81,83,10.08,87Z" transform="translate(-5.05 -4.33)"/><path class="cls-1" d="M79.52,11.4q-1.5,4.18-3,9.35T73.42,31.6q-1.61,5.7-3,11.5T67.52,54.29Q64.31,67.1,61.32,80.6l-22.6,3.8,4.4-38.61h-1.2L32,82.1l-20.8,3.69,7.6-71a65.07,65.07,0,0,0,8.85-.94,81,81,0,0,1,8.25-1.06c0,.07-.1.75-.3,2.06s-.47,3-.8,5.09-.7,4.47-1.1,7.1-1,6.25-1.75,10.86-1.79,11-3,19.1h1.5q2.59-9.21,4.3-15.06t2.75-9.5c.7-2.43,1.36-4.78,2-7s1.23-4.37,1.8-6.3,1-3.57,1.35-4.91h.9A34.88,34.88,0,0,0,47.17,14c1.23-.14,2.4-.29,3.5-.46s2.25-.38,3.45-.64a32.48,32.48,0,0,0-.45,3.7q-.26,2.79-.65,6.75T52.22,32q-.4,4.76-.8,9.31T50.67,50c-.24,2.73-.45,5.06-.65,7h1.8l9.5-43c2.26-.34,4.5-.64,6.7-.9l6-.81c2.06-.26,3.9-.56,5.5-.89M82.6,8.71l-3.49.73c-1.54.32-3.34.61-5.35.87l-6,.8c-2.18.27-4.45.57-6.71.91l-1.37.2-.3,1.34-5.81,26.3q.33-3.75.66-7.65c.26-3.11.53-6,.8-8.66s.48-4.94.65-6.78a31.9,31.9,0,0,1,.41-3.44l.69-3.07-3.08.68c-1.16.26-2.27.47-3.31.63s-2.21.31-3.42.44a33.13,33.13,0,0,1-3.43.18H41.06l-.38,1.52c-.33,1.3-.78,2.93-1.33,4.82s-1.18,4.07-1.81,6.33-1.3,4.6-2,7c-.37,1.3-.8,2.8-1.3,4.52.64-3.85,1.11-6.83,1.45-9.06q.6-3.95,1.1-7.09c.34-2.11.6-3.81.8-5.11a19.11,19.11,0,0,0,.33-2.36V10.64l-2.15.16a79.89,79.89,0,0,0-8.46,1.08,64.26,64.26,0,0,1-8.58.92L17,12.87l-.18,1.71-7.6,71-.29,2.65,2.63-.47,20.8-3.7,1.24-.22L34,82.62,39,64l-2.3,20.2-.3,2.64,2.62-.44,22.6-3.8L63,82.34,63.27,81c2-9,4.07-17.8,6.19-26.25.92-3.56,1.88-7.33,2.85-11.2s2-7.67,3-11.44,2.07-7.32,3.1-10.84,2-6.48,3-9.23l1.2-3.36Z" transform="translate(-5.05 -4.33)"/><path class="cls-1" d="M80.27,13.46l33.85-2.89L113.67,12c-.46,1.43-.85,2.91-1.18,4.41-.33,1.27-.65,2.59-.95,3.95S111,22.92,110.8,24l-.14.73-.74.08c-.7.07-1.66.12-2.93.15L103,25c-1.41,0-2.83.06-4.27.06H95.84L92.75,40.92c1.59-.1,3.11-.17,4.53-.22s3-.1,4.54-.1,2.61,0,3.31-.1l1.26-.12-.18,1.26q-.4,2.79-.75,5.48c-.24,1.83-.53,3.7-.86,5.55l-.13.74-.75.08c-.7.07-1.82.12-3.33.16s-3,.08-4.53.14L91,54,88,70.19l14.46-2.28-1.18,13.45L66.78,86.7Z" transform="translate(-5.05 -4.33)"/><path class="cls-1" d="M112.72,11.69q-.7,2.21-1.2,4.5c-.34,1.27-.65,2.59-1,4s-.55,2.58-.75,3.64q-1,.11-2.85.15l-4,.1c-1.4,0-2.82.06-4.25.06H95L91.52,42c2.06-.14,4-.24,5.8-.31q2.19-.09,4.5-.09c1.53,0,2.66,0,3.4-.1q-.41,2.79-.75,5.5c-.24,1.79-.52,3.63-.85,5.5-.67.06-1.75.11-3.25.15s-3,.08-4.55.14l-5.7.21-3.4,18.4,14.6-2.3-1,11.4L68,85.5l13.1-71.1,31.6-2.71m2.81-2.24-3,.25L81,12.4l-1.52.13L79.15,14l-13.1,71.1-.51,2.77,2.78-.43,32.3-5,1.55-.24.14-1.56,1-11.4.22-2.55-2.52.4L89.2,69l2.59-14,4.1-.15,4.52-.15c1.56,0,2.68-.08,3.41-.15l1.5-.16.26-1.48c.34-1.87.63-3.76.87-5.6s.48-3.61.75-5.47l.35-2.51L105,39.5c-.66.06-1.75.1-3.21.1s-3.08,0-4.59.1L94,39.85,96.66,26.1h2.11c1.48,0,2.93,0,4.3-.06l4-.1c1.3,0,2.28-.08,3-.16l1.49-.15.27-1.47c.2-1,.45-2.25.74-3.59s.61-2.65.93-3.87v-.08c.32-1.47.71-2.92,1.15-4.32l.91-2.85Z" transform="translate(-5.05 -4.33)"/><path class="cls-1" d="M101.52,85.46q.6-4.5,1.41-10c.52-3.64,1.15-7.49,1.85-11.43s1.4-7.9,2.1-11.9,1.43-7.9,2.16-11.52c1.65-8.66,3.43-17.64,5.3-26.71l.14-.69,19.64-2.58-.33,1.4q-2.7,11.6-5.2,22.6c-.72,3.07-1.46,6.34-2.2,9.74S125,51,124.29,54.2s-1.26,6.3-1.79,9.27c-.44,2.45-.81,4.71-1.11,6.74,1.31-.08,2.7-.14,4.16-.16,1.9,0,3.59,0,5.07,0h.94l.05.94c.07,1.25.17,2.49.3,3.7s.28,2.31.44,3.29.31,1.91.41,2.69.19,1.28.22,1.43l.32,1.25H132q-.84,0-1.62-.06c-.48,0-1,0-1.48,0-2,0-4.22.07-6.5.2s-4.59.34-6.89.6-4.57.61-6.77,1a47.29,47.29,0,0,0-5.93,1.51l-1.52.51Z" transform="translate(-5.05 -4.33)"/><path class="cls-1" d="M132.82,11.79q-2.7,11.61-5.2,22.61-1.11,4.7-2.2,9.75T123.32,54q-1,4.78-1.8,9.29t-1.3,8c1.66-.13,3.45-.21,5.35-.25s3.58,0,5.05,0q.09,1.89.3,3.75c.13,1.23.28,2.35.45,3.35s.3,1.88.4,2.65a15.15,15.15,0,0,0,.25,1.54c-.54,0-1.05,0-1.55,0s-1-.06-1.55-.06q-3.1,0-6.55.21t-7,.6q-3.51.39-6.85,1a49.08,49.08,0,0,0-6,1.56c.4-3,.86-6.34,1.4-10s1.15-7.47,1.85-11.41,1.4-7.9,2.1-11.9,1.41-7.83,2.15-11.5q2.49-13.09,5.3-26.69l17.5-2.31m2.6-2.35-2.87.37-17.5,2.3-1.41.19-.28,1.39c-1.87,9.07-3.66,18.06-5.31,26.73-.72,3.62-1.45,7.5-2.15,11.53s-1.4,8-2.1,11.89-1.33,7.81-1.86,11.47-1,6.93-1.41,10l-.42,3.18,3-1A46.48,46.48,0,0,1,109,86c2.17-.42,4.42-.77,6.69-1s4.59-.46,6.84-.59,4.43-.2,6.44-.2c.47,0,1,0,1.41,0s1.09.05,1.69.05h2.57L134,81.8c0-.06-.08-.35-.2-1.31-.1-.78-.24-1.67-.41-2.72s-.31-2-.44-3.24-.22-2.42-.29-3.64l-.1-1.89h-1.89c-1.47,0-3.13,0-5.09,0-1,0-2,0-3,.09.27-1.7.58-3.54.92-5.49.53-3,1.13-6.08,1.79-9.25s1.36-6.45,2.1-9.83,1.48-6.66,2.19-9.72c1.62-7.1,3.37-14.7,5.2-22.6l.66-2.81Z" transform="translate(-5.05 -4.33)"/><path class="cls-1" d="M149.71,86.6a12.61,12.61,0,0,1-6.13-1.53,13.92,13.92,0,0,1-4.79-4.51,24.4,24.4,0,0,1-3.19-7.2,36.68,36.68,0,0,1-1.19-9.86,68.88,68.88,0,0,1,2.64-18.83A62.24,62.24,0,0,1,144.47,28a42.25,42.25,0,0,1,11.43-12,25.61,25.61,0,0,1,14.81-4.62,12.12,12.12,0,0,1,5,1.08,12.34,12.34,0,0,1,4.13,3,14.48,14.48,0,0,1,2.74,4.72,18,18,0,0,1,1,6.15v1.25A9.66,9.66,0,0,1,183.5,29l-.09.66-14.54,3.89-.36-.75c-.42-.88-1.09-1.93-1.9-1.93A4,4,0,0,0,164,32.43,24.89,24.89,0,0,0,160.68,37a68,68,0,0,0-3.25,6.51,75.3,75.3,0,0,0-2.76,7.25c-.79,2.43-1.44,4.77-1.93,7A25.6,25.6,0,0,0,152,63c0,2.4.38,3.47.69,4a1.6,1.6,0,0,0,1.41.85,4.07,4.07,0,0,0,2-.71,10.52,10.52,0,0,0,2.37-2,18.74,18.74,0,0,0,2.08-2.89,11.41,11.41,0,0,0,1.29-3.12l.27-1.14,13.43,5.42-.41.95A51.84,51.84,0,0,1,169.67,74a39.43,39.43,0,0,1-6.36,7,25.1,25.1,0,0,1-6.83,4.22A18.67,18.67,0,0,1,149.71,86.6Z" transform="translate(-5.05 -4.33)"/><path class="cls-1" d="M170.71,12.29a11.07,11.07,0,0,1,4.6,1,11.24,11.24,0,0,1,3.8,2.81,13.24,13.24,0,0,1,2.55,4.4,16.59,16.59,0,0,1,1,5.79v1.25a9.18,9.18,0,0,1-.1,1.36l-13.1,3.5c-.8-1.67-1.73-2.5-2.8-2.5a4.84,4.84,0,0,0-3.35,1.85,26.17,26.17,0,0,0-3.45,4.79,69,69,0,0,0-3.3,6.61c-1.06,2.43-2,4.88-2.8,7.35s-1.45,4.81-2,7A26.25,26.25,0,0,0,151,63a8.77,8.77,0,0,0,.85,4.5,2.59,2.59,0,0,0,2.25,1.29,4.9,4.9,0,0,0,2.5-.85,11.06,11.06,0,0,0,2.6-2.19,18.69,18.69,0,0,0,2.2-3.06,11.83,11.83,0,0,0,1.4-3.4l11.4,4.61a50.07,50.07,0,0,1-5.35,9.54,38.23,38.23,0,0,1-6.2,6.81,23.43,23.43,0,0,1-6.55,4,17.35,17.35,0,0,1-6.4,1.31,11.5,11.5,0,0,1-5.65-1.41A13,13,0,0,1,139.61,80a23.91,23.91,0,0,1-3.05-6.9,36.08,36.08,0,0,1-1.15-9.6A67.73,67.73,0,0,1,138,44.94a61.25,61.25,0,0,1,7.3-16.44,40.94,40.94,0,0,1,11.15-11.75,24.53,24.53,0,0,1,14.25-4.46m0-2a26.61,26.61,0,0,0-15.38,4.81,43.14,43.14,0,0,0-11.7,12.31,63.48,63.48,0,0,0-7.54,17,69.64,69.64,0,0,0-2.68,19.1,38,38,0,0,0,1.23,10.14A25.79,25.79,0,0,0,138,81.12,15,15,0,0,0,143.1,86a13.59,13.59,0,0,0,6.61,1.65,19.64,19.64,0,0,0,7.14-1.44A26,26,0,0,0,164,81.77a41,41,0,0,0,6.52-7.15,52.54,52.54,0,0,0,5.57-9.93l.82-1.88L175,62l-11.4-4.6-2.16-.87-.53,2.27a10.46,10.46,0,0,1-1.18,2.84,17.46,17.46,0,0,1-2,2.74,9.63,9.63,0,0,1-2.14,1.81,3,3,0,0,1-1.47.56c-.15,0-.31,0-.57-.39-.13-.19-.53-1-.53-3.4a24.19,24.19,0,0,1,.71-5c.48-2.16,1.12-4.47,1.9-6.87A74.48,74.48,0,0,1,158.35,44a63.77,63.77,0,0,1,3.2-6.41,23.31,23.31,0,0,1,3.17-4.42,3.24,3.24,0,0,1,1.89-1.22s.42.15,1,1.36l.72,1.5,1.6-.43,13.1-3.5,1.28-.34.18-1.32a11.6,11.6,0,0,0,.12-1.63V26.29a18.9,18.9,0,0,0-1.07-6.48,15.59,15.59,0,0,0-2.93-5,13.37,13.37,0,0,0-4.47-3.3,13.08,13.08,0,0,0-5.43-1.18Z" transform="translate(-5.05 -4.33)"/><path class="cls-1" d="M191,86.8a15.15,15.15,0,0,1-6.42-1.35,14.17,14.17,0,0,1-5.05-4,19.12,19.12,0,0,1-3.34-6.65A33.68,33.68,0,0,1,175,65.3a54.64,54.64,0,0,1,1.43-12,86.38,86.38,0,0,1,3.84-12.44,68.92,68.92,0,0,1,6-11.77,59.89,59.89,0,0,1,7.83-9.92,37.43,37.43,0,0,1,9.25-6.93A22.39,22.39,0,0,1,213.81,9.6a14.81,14.81,0,0,1,8,2,14.22,14.22,0,0,1,5,5.16,23,23,0,0,1,2.45,7,40.64,40.64,0,0,1,.72,7.59,67.5,67.5,0,0,1-6.5,29.18,55.47,55.47,0,0,1-6.87,11,53.88,53.88,0,0,1-8.2,8.26A36.16,36.16,0,0,1,199.59,85,22.85,22.85,0,0,1,191,86.8Zm19.3-54.2a10.43,10.43,0,0,0-5.39,1.46,17.14,17.14,0,0,0-4.58,4,28.67,28.67,0,0,0-3.63,5.8,60.22,60.22,0,0,0-2.7,6.68,40.11,40.11,0,0,0-1.61,6.58,38.68,38.68,0,0,0-.49,5.55,6.33,6.33,0,0,0,.35,2,6.14,6.14,0,0,0,.94,1.8,5.27,5.27,0,0,0,1.49,1.31,3.14,3.14,0,0,0,1.72.51,10.72,10.72,0,0,0,7.34-2.85,24.56,24.56,0,0,0,5.57-7.31,43.08,43.08,0,0,0,3.47-9.38A38.63,38.63,0,0,0,214,39.69c0-.75,0-1.59-.14-2.49a9.51,9.51,0,0,0-.54-2.35,4.17,4.17,0,0,0-1.13-1.66A2.73,2.73,0,0,0,210.31,32.6Z" transform="translate(-5.05 -4.33)"/><path class="cls-1" d="M213.81,10.6a13.81,13.81,0,0,1,7.45,1.84,13.24,13.24,0,0,1,4.6,4.81,21.57,21.57,0,0,1,2.35,6.65,39.34,39.34,0,0,1,.7,7.39A66.34,66.34,0,0,1,222.51,60a54.1,54.1,0,0,1-6.75,10.81,52.66,52.66,0,0,1-8,8.09,34.18,34.18,0,0,1-8.5,5.1,21.66,21.66,0,0,1-8.2,1.75,14,14,0,0,1-6-1.25,13.2,13.2,0,0,1-4.7-3.69,18.2,18.2,0,0,1-3.15-6.31A32.75,32.75,0,0,1,176,65.29a53.73,53.73,0,0,1,1.4-11.79,85.07,85.07,0,0,1,3.8-12.31,67.92,67.92,0,0,1,5.9-11.59,58.5,58.5,0,0,1,7.7-9.75,35.83,35.83,0,0,1,9-6.75,21.35,21.35,0,0,1,10-2.5m-17.4,58.69a11.7,11.7,0,0,0,8-3.1,25.27,25.27,0,0,0,5.8-7.59,43.55,43.55,0,0,0,3.55-9.6A39,39,0,0,0,215,39.69a24.43,24.43,0,0,0-.15-2.59,10.42,10.42,0,0,0-.6-2.6,5,5,0,0,0-1.4-2.06,3.7,3.7,0,0,0-2.55-.84,11.43,11.43,0,0,0-5.9,1.59,18.46,18.46,0,0,0-4.85,4.25,30.48,30.48,0,0,0-3.75,6,61,61,0,0,0-2.75,6.81A41.43,41.43,0,0,0,191.41,57a39.16,39.16,0,0,0-.5,5.69,7.54,7.54,0,0,0,.4,2.31,7.35,7.35,0,0,0,1.1,2.1,6.93,6.93,0,0,0,1.75,1.55,4.22,4.22,0,0,0,2.25.64M213.81,8.6a23.42,23.42,0,0,0-10.92,2.72,38.34,38.34,0,0,0-9.5,7.12,60.38,60.38,0,0,0-8,10.08,69.83,69.83,0,0,0-6.08,11.94,87.23,87.23,0,0,0-3.89,12.59A56,56,0,0,0,174,65.29a34.63,34.63,0,0,0,1.24,9.83,19.94,19.94,0,0,0,3.51,7,15.26,15.26,0,0,0,5.41,4.25A16.2,16.2,0,0,0,191,87.79a23.84,23.84,0,0,0,9-1.89,37.15,37.15,0,0,0,9-5.39,55,55,0,0,0,8.36-8.41,57.22,57.22,0,0,0,7-11.19,70.1,70.1,0,0,0,4.79-13.7,68.41,68.41,0,0,0,1.8-15.92,41.86,41.86,0,0,0-.73-7.77,24.17,24.17,0,0,0-2.57-7.25,15.33,15.33,0,0,0-5.28-5.52,15.85,15.85,0,0,0-8.52-2.15Zm-17.4,58.69a2.22,2.22,0,0,1-1.19-.34A4.64,4.64,0,0,1,194,65.87a4.9,4.9,0,0,1-.78-1.51,5.23,5.23,0,0,1-.3-1.67,36.42,36.42,0,0,1,.48-5.39A38,38,0,0,1,195,50.88a55.77,55.77,0,0,1,2.66-6.57,28,28,0,0,1,3.5-5.61,16.12,16.12,0,0,1,4.31-3.78,9.31,9.31,0,0,1,4.88-1.32,1.61,1.61,0,0,1,1.22.34,3.15,3.15,0,0,1,.86,1.26,8.57,8.57,0,0,1,.48,2.11,20.66,20.66,0,0,1,.14,2.38,37.65,37.65,0,0,1-1.19,8.83,41.86,41.86,0,0,1-3.39,9.17,23.73,23.73,0,0,1-5.34,7,9.71,9.71,0,0,1-6.68,2.59Z" transform="translate(-5.05 -4.33)"/><path class="cls-1" d="M218.26,84.48c2.9-8.74,5.72-17.51,8.4-26.08q1.69-5.4,3.5-11.3t3.6-11.7c1.17-3.77,2.29-7.53,3.34-11.18s2-6.95,2.74-10l.2-.74h.77a83.65,83.65,0,0,0,10.28-.6c3.23-.39,6.81-.76,10.63-1.1l1.25-.11-.17,1.24c-.2,1.46-.41,3.11-.65,4.94s-.5,3.77-.8,5.77-.62,4.07-1,6.21-.72,4.8-1.2,8.18c-.35,2.49-.79,5.46-1.32,8.86l3.6-9.5,3.1-8.25c.81-2.16,1.64-4.27,2.46-6.27s1.63-4,2.4-5.81,1.49-3.47,2.17-4.89l.25-.53.57,0c1.63-.13,3.19-.3,4.65-.5s2.91-.41,4.37-.64l4.46-.7c1.5-.24,3.16-.52,4.92-.85l1.41-.26L292,10.07c-.66,3.81-1.3,7.8-1.9,11.87s-1.14,8.15-1.6,12.12-.91,8-1.34,11.94-.82,7.64-1.15,11.19c-.8,8.24-1.51,16.37-2.1,24.18l-.06.77-19.34,3.45V84.4c0-.37.05-1.27.15-2.77s.24-3.27.4-5.41.41-4.51.71-7.14l.9-7.8c.29-2.57.61-5.05.93-7.39-.34,1-.69,1.92-1.05,2.9l-3.45,9.45q-1.75,4.8-3.45,9.4c-1.12,3-2.13,6-3,8.75l-.21.68-.72,0c-2.32.07-4.33.16-6,.25l-7,.42,3-34.32c-.07.24-.13.5-.2.76-.54,2-1.15,4.37-1.85,7s-1.45,5.38-2.26,8.22-1.55,5.47-2.25,7.9-1.28,4.44-1.75,6-.74,2.47-.81,2.68l-.21.64L217.8,85.89Z" transform="translate(-5.05 -4.33)"/><path class="cls-1" d="M291,9.9q-1,5.79-1.9,11.89t-1.6,12.15q-.69,6.06-1.35,12T285,57.1q-1.2,12.39-2.1,24.19l-17.4,3.11c0-.34.05-1.24.15-2.71s.23-3.26.4-5.4.4-4.5.7-7.1l.9-7.79c.3-2.61.62-5.12.95-7.55s.67-4.52,1-6.25h-.9c-.93,2.8-2,5.75-3.1,8.84l-3.45,9.46c-1.17,3.2-2.31,6.33-3.45,9.39s-2.13,6-3,8.81c-2.33.06-4.33.15-6,.25l-5.8.34,3.2-37.09h-1.5c-.13.86-.47,2.31-1,4.34s-1.15,4.37-1.85,7-1.45,5.37-2.25,8.21S239,72.61,238.26,75s-1.28,4.44-1.75,6-.73,2.46-.8,2.65l-16.5,1.1q4.41-13.29,8.4-26.1,1.69-5.38,3.5-11.29t3.6-11.71q1.8-5.79,3.35-11.19t2.75-10a87.73,87.73,0,0,0,10.4-.6q4.91-.6,10.6-1.11c-.2,1.47-.42,3.12-.65,5s-.5,3.75-.8,5.75-.62,4.06-.95,6.19-.73,4.87-1.2,8.21-1.1,7.5-1.9,12.5h1.3c1.94-5.07,3.53-9.29,4.8-12.65l3.1-8.25q1.2-3.21,2.45-6.25l2.4-5.81q1.15-2.75,2.15-4.84c1.67-.14,3.23-.31,4.7-.5s2.93-.42,4.4-.66l4.45-.69c1.5-.24,3.15-.52,4.95-.85m2.46-2.5-2.82.53c-1.75.32-3.4.61-4.89.84l-4.46.7c-1.41.22-2.87.44-4.36.64s-3,.36-4.59.49l-1.15.09-.49,1.05c-.69,1.43-1.42,3.09-2.19,4.93s-1.57,3.78-2.41,5.82-1.66,4.13-2.47,6.3-1.76,4.7-3,7.91l-.13.34-.3.8c.45-3.23.83-5.79,1.15-7.84s.65-4.2.95-6.21.56-3.9.81-5.79.44-3.47.64-4.93l.34-2.49-2.49.22c-3.84.34-7.43.71-10.67,1.11a83.7,83.7,0,0,1-10.16.59h-1.54L238.88,14c-.79,3-1.71,6.37-2.74,10S234,31.34,232.8,35.1s-2.4,7.78-3.6,11.71-2.33,7.58-3.5,11.28c-2.67,8.57-5.5,17.34-8.39,26.08L216.38,87l3-.2,16.5-1.1,1.34-.09.42-1.28c.12-.35.61-2,.82-2.7q.7-2.36,1.75-6c.71-2.44,1.46-5.07,2.26-7.91.46-1.66.92-3.29,1.35-4.88l-1.87,21.71-.2,2.31,2.31-.14,1.45-.09,4.35-.26c1.63-.1,3.63-.18,5.94-.25l1.43,0,.42-1.36c.85-2.75,1.85-5.68,3-8.7s2.28-6.21,3.45-9.41l1.48-4-.71,6.12,0,.32c-.31,2.63-.55,5-.71,7.17s-.3,4-.4,5.42c-.14,2-.16,2.59-.16,2.84v2.38l2.35-.42,17.4-3.1,1.53-.27.12-1.54c.59-7.8,1.3-15.93,2.09-24.16.34-3.55.72-7.3,1.15-11.18s.88-7.86,1.35-11.94,1-8,1.59-12.08,1.24-8,1.89-11.85l.49-2.84Z" transform="translate(-5.05 -4.33)"/><path class="cls-1" d="M297.16,13.46,331,10.57,330.56,12c-.45,1.42-.85,2.91-1.17,4.41-.34,1.28-.66,2.6-.95,3.95s-.55,2.56-.75,3.62l-.14.73-.74.08c-.7.07-1.65.12-2.92.15l-4,.1c-1.4,0-2.83.06-4.27.06h-2.93l-3.09,15.82c1.59-.1,3.11-.17,4.53-.22s3-.1,4.54-.1,2.61,0,3.31-.1l1.26-.12-.18,1.26q-.41,2.79-.75,5.48c-.23,1.82-.52,3.69-.86,5.55l-.13.74-.75.08c-.69.07-1.81.12-3.33.16s-3,.08-4.53.14l-4.9.18-3,16.22,14.47-2.28-1.18,13.45L283.67,86.7Z" transform="translate(-5.05 -4.33)"/><path class="cls-1" d="M329.61,11.69q-.71,2.21-1.2,4.5c-.33,1.27-.65,2.59-1,4s-.55,2.58-.75,3.64q-1,.11-2.85.15l-3.95.1c-1.4,0-2.82.06-4.25.06h-3.75L308.41,42q3.1-.21,5.8-.31,2.21-.09,4.5-.09c1.53,0,2.67,0,3.4-.1q-.41,2.79-.75,5.5c-.23,1.79-.52,3.63-.85,5.5-.67.06-1.75.11-3.25.15s-3,.08-4.55.14L307,53l-3.4,18.4,14.6-2.3-1,11.4-32.3,5L298,14.4l31.6-2.71m2.82-2.24-3,.25-31.6,2.7-1.52.13L296,14l-13.1,71.1-.51,2.77,2.79-.43,32.3-5,1.55-.24.13-1.56,1-11.4.23-2.55-2.53.4L306.09,69l2.59-14,4.11-.15,4.52-.15c1.56,0,2.67-.08,3.4-.15l1.5-.16.27-1.48c.33-1.88.63-3.76.86-5.6s.48-3.61.75-5.47l.36-2.51-2.52.23c-.67.06-1.75.1-3.22.1s-3.08,0-4.59.1l-3.25.15,2.69-13.75h2.1c1.49,0,2.94,0,4.3-.06l4-.1c1.29,0,2.27-.08,3-.16l1.49-.15.28-1.47c.19-1,.44-2.25.73-3.59s.61-2.64.93-3.87l0,0v0c.32-1.47.71-2.92,1.16-4.32l.91-2.85Z" transform="translate(-5.05 -4.33)"/><path class="cls-1" d="M345.73,85.29c1.53-7.3,3-14.6,4.4-21.69.6-3,1.21-6.18,1.79-9.39s1.19-6.48,1.75-9.64,1.07-6.22,1.5-9.17c.37-2.56.71-4.94,1-7.12-.78-.07-1.57-.11-2.35-.11l-1.13,0-.63,0a14.76,14.76,0,0,1-4.35-.66l-.76-.23.05-.79c.07-1.05.1-2.27.1-3.63s0-2.86.1-4.25.13-3.16.2-4.89l0-1,1,.08c1.71.13,3.44.23,5.16.3s3.43.09,5.16.09c3.38,0,6.68-.08,9.8-.24s6.09-.37,8.76-.6,5.35-.52,7.91-.85l1.39-.17-1.38,6.76c-.33,1.51-.65,3.08-1,4.69s-.59,3-.86,4.14l-.13.58-.58.16a30.34,30.34,0,0,1-4.6.88c-1.25.14-2.49.31-3.72.52q-.65,3.14-1.36,6.87c-.52,2.7-1,5.58-1.55,8.58s-1,6.06-1.44,9-.94,6-1.41,8.81c-1.06,6.55-2.06,13.44-3,20.47l-.1.74-20.17,3.14Z" transform="translate(-5.05 -4.33)"/><path class="cls-1" d="M385.41,12.5l-1.1,5.4c-.34,1.53-.65,3.1-.95,4.7s-.59,3-.85,4.09a27.28,27.28,0,0,1-4.45.85c-1.5.17-3,.39-4.45.65q-.71,3.4-1.5,7.56c-.54,2.76-1.05,5.63-1.55,8.6s-1,6-1.45,9-.94,6-1.4,8.79q-1.6,9.9-3,20.5l-18,2.81q2.3-11,4.4-21.71.9-4.5,1.8-9.39t1.75-9.65q.84-4.76,1.5-9.21c.43-3,.81-5.68,1.15-8.14a25.32,25.32,0,0,0-3.48-.23l-1.17,0-.59,0A14.12,14.12,0,0,1,348,26.6c.06-1.07.1-2.31.1-3.7s0-2.8.1-4.21.13-3.16.2-4.9c1.73.14,3.46.24,5.2.31s3.46.09,5.2.09q5.1,0,9.85-.25c3.16-.16,6.1-.36,8.8-.59s5.35-.52,8-.85m2.52-2.35-2.78.36c-2.54.33-5.19.61-7.86.84s-5.6.43-8.74.6-6.38.24-9.74.24c-1.71,0-3.44,0-5.12-.09s-3.43-.17-5.13-.3l-2.07-.16-.08,2.08c-.07,1.73-.13,3.36-.2,4.89s-.1,2.84-.1,4.29,0,2.54-.1,3.57l-.1,1.58,1.52.46a16,16,0,0,0,4.64.7l.67,0,1.09,0c.4,0,.81,0,1.21,0-.26,1.91-.55,3.94-.86,6.06-.43,2.93-.93,6-1.49,9.13s-1.15,6.38-1.75,9.64-1.19,6.35-1.79,9.37c-1.39,7.09-2.87,14.39-4.4,21.69l-.59,2.83,2.86-.45,18-2.8,1.48-.23.19-1.48c.93-7,1.93-13.9,3-20.45.47-2.79.94-5.76,1.41-8.81s.93-6,1.44-9,1-5.87,1.54-8.56c.43-2.21.84-4.29,1.22-6.18,1-.16,2-.3,3-.41a29.92,29.92,0,0,0,4.75-.91l1.15-.31.28-1.16c.27-1.17.56-2.57.86-4.19s.62-3.16.94-4.64l1.11-5.43.56-2.74Z" transform="translate(-5.05 -4.33)"/><path class="cls-1" d="M392,86.8a15.15,15.15,0,0,1-6.42-1.35,14.2,14.2,0,0,1-5.06-4,19.11,19.11,0,0,1-3.33-6.65A33.68,33.68,0,0,1,376,65.3a55.21,55.21,0,0,1,1.42-12,85.2,85.2,0,0,1,3.85-12.44,68.86,68.86,0,0,1,6-11.77,60,60,0,0,1,7.84-9.92,37.43,37.43,0,0,1,9.25-6.93A22.39,22.39,0,0,1,414.81,9.6a14.83,14.83,0,0,1,8,2,14.27,14.27,0,0,1,4.94,5.16,22.73,22.73,0,0,1,2.46,7,40.64,40.64,0,0,1,.72,7.59A67,67,0,0,1,429.13,47a68.94,68.94,0,0,1-4.72,13.5,55.88,55.88,0,0,1-6.88,11,54.71,54.71,0,0,1-8.2,8.25A35.78,35.78,0,0,1,400.58,85,22.8,22.8,0,0,1,392,86.8Zm19.3-54.2a10.41,10.41,0,0,0-5.39,1.46,17.46,17.46,0,0,0-4.59,4,29.46,29.46,0,0,0-3.62,5.81,56.58,56.58,0,0,0-2.7,6.68,39.12,39.12,0,0,0-1.61,6.58,37.28,37.28,0,0,0-.49,5.55,6.33,6.33,0,0,0,.35,2,5.91,5.91,0,0,0,.94,1.8,5.36,5.36,0,0,0,1.48,1.31,3.2,3.2,0,0,0,1.73.51,10.68,10.68,0,0,0,7.33-2.85,24.59,24.59,0,0,0,5.58-7.31,43.6,43.6,0,0,0,3.47-9.38A38.63,38.63,0,0,0,415,39.69a22.67,22.67,0,0,0-.15-2.49,9.4,9.4,0,0,0-.54-2.35,4,4,0,0,0-1.13-1.66A2.7,2.7,0,0,0,411.31,32.6Z" transform="translate(-5.05 -4.33)"/><path class="cls-1" d="M414.81,10.6a13.83,13.83,0,0,1,7.45,1.84,13.32,13.32,0,0,1,4.6,4.81,21.83,21.83,0,0,1,2.35,6.65,40.19,40.19,0,0,1,.7,7.39,66.14,66.14,0,0,1-1.75,15.46A67.46,67.46,0,0,1,423.51,60a55,55,0,0,1-6.75,10.81,53.11,53.11,0,0,1-8.05,8.09,34.36,34.36,0,0,1-8.5,5.1,21.7,21.7,0,0,1-8.2,1.75,14,14,0,0,1-6-1.25,13.11,13.11,0,0,1-4.7-3.69,17.86,17.86,0,0,1-3.15-6.31A32.39,32.39,0,0,1,377,65.29a53.13,53.13,0,0,1,1.4-11.79,83.84,83.84,0,0,1,3.8-12.31,67.2,67.2,0,0,1,5.9-11.59,58,58,0,0,1,7.7-9.75,35.83,35.83,0,0,1,9-6.75,21.32,21.32,0,0,1,10-2.5m-17.4,58.69a11.72,11.72,0,0,0,8-3.1,25.59,25.59,0,0,0,5.8-7.59,44.58,44.58,0,0,0,3.55-9.6A39.55,39.55,0,0,0,416,39.69a24.43,24.43,0,0,0-.15-2.59,10.42,10.42,0,0,0-.6-2.6,5.15,5.15,0,0,0-1.4-2.06,3.73,3.73,0,0,0-2.55-.84,11.4,11.4,0,0,0-5.9,1.59,18.31,18.31,0,0,0-4.85,4.25,29.58,29.58,0,0,0-3.75,6,57.38,57.38,0,0,0-2.75,6.81A39.47,39.47,0,0,0,392.41,57a37.8,37.8,0,0,0-.5,5.69,7.25,7.25,0,0,0,.4,2.31,6.88,6.88,0,0,0,1.1,2.1,6.76,6.76,0,0,0,1.75,1.55,4.22,4.22,0,0,0,2.25.64M414.81,8.6a23.39,23.39,0,0,0-10.92,2.72,38.34,38.34,0,0,0-9.5,7.12,60.53,60.53,0,0,0-8,10.08,69.79,69.79,0,0,0-6.07,11.94,87.23,87.23,0,0,0-3.89,12.59A56,56,0,0,0,375,65.29a34.66,34.66,0,0,0,1.23,9.83,20,20,0,0,0,3.52,7,15.26,15.26,0,0,0,5.41,4.25A16.14,16.14,0,0,0,392,87.79,23.76,23.76,0,0,0,401,85.9a37.2,37.2,0,0,0,9-5.39,54.94,54.94,0,0,0,8.35-8.41,56.29,56.29,0,0,0,7-11.19,68.81,68.81,0,0,0,4.79-13.7,67.87,67.87,0,0,0,1.81-15.92,41.88,41.88,0,0,0-.74-7.77,23.9,23.9,0,0,0-2.57-7.25,15.25,15.25,0,0,0-5.28-5.52,15.81,15.81,0,0,0-8.51-2.15Zm-17.4,58.69a2.28,2.28,0,0,1-1.2-.34A4.75,4.75,0,0,1,395,65.87a4.9,4.9,0,0,1-.78-1.51,5.23,5.23,0,0,1-.3-1.67,36.42,36.42,0,0,1,.48-5.39A38,38,0,0,1,396,50.88a55.69,55.69,0,0,1,2.65-6.57,28.13,28.13,0,0,1,3.5-5.6,16.18,16.18,0,0,1,4.32-3.79,9.31,9.31,0,0,1,4.88-1.32,1.66,1.66,0,0,1,1.22.34,3.15,3.15,0,0,1,.86,1.26,8.82,8.82,0,0,1,.48,2.11,23.18,23.18,0,0,1,.14,2.38,37.65,37.65,0,0,1-1.19,8.83,42.91,42.91,0,0,1-3.39,9.17,23.76,23.76,0,0,1-5.35,7,9.67,9.67,0,0,1-6.67,2.59Z" transform="translate(-5.05 -4.33)"/><path class="cls-1" d="M32.52,204.48c2.89-8.73,5.71-17.51,8.39-26.08q1.7-5.4,3.5-11.3T48,155.4c1.17-3.77,2.3-7.53,3.35-11.18s2-6.95,2.74-10l.19-.74h.78a83.65,83.65,0,0,0,10.28-.6c3.22-.39,6.8-.76,10.63-1.1l1.25-.11-.17,1.24c-.2,1.47-.42,3.11-.65,4.94s-.5,3.77-.8,5.77-.62,4.07-1,6.21-.74,4.87-1.2,8.18c-.35,2.49-.79,5.46-1.33,8.86q2.12-5.53,3.6-9.5,1.9-5,3.1-8.25c.81-2.15,1.64-4.26,2.46-6.27l2.4-5.81c.77-1.83,1.5-3.48,2.17-4.89l.25-.53.58,0c1.63-.13,3.19-.3,4.64-.49s2.92-.42,4.38-.65l4.45-.7c1.49-.23,3.14-.52,4.92-.85l1.42-.26-.25,1.42c-.66,3.82-1.3,7.81-1.89,11.87s-1.14,8.14-1.6,12.12-.92,8-1.35,11.95-.81,7.63-1.15,11.18c-.79,8.24-1.5,16.37-2.1,24.18l-.06.77-19.33,3.45V204.4c0-.23,0-.77.15-2.77.1-1.47.23-3.27.4-5.41s.4-4.51.7-7.14l.9-7.8c.3-2.57.61-5.06.93-7.39-.34,1-.69,1.92-1,2.9q-1.71,4.65-3.45,9.45t-3.46,9.4c-1.12,3-2.12,6-3,8.75l-.21.68-.71,0c-2.39.06-4.34.15-6,.24l-7,.42,3-34.32c-.06.24-.13.49-.2.76-.53,2-1.15,4.37-1.85,7s-1.45,5.38-2.25,8.22-1.55,5.47-2.25,7.9-1.29,4.44-1.76,6l-.8,2.68-.21.64-18.66,1.24Z" transform="translate(-5.05 -4.33)"/><path class="cls-1" d="M105.27,129.9q-1,5.79-1.9,11.9T101.77,154q-.7,6-1.35,12t-1.15,11.2q-1.2,12.39-2.1,24.2l-17.4,3.1q0-.51.15-2.7c.1-1.47.23-3.27.4-5.4s.4-4.5.7-7.1l.9-7.8c.3-2.6.61-5.12,1-7.55s.66-4.52,1-6.25H83q-1.41,4.2-3.1,8.85t-3.45,9.45q-1.76,4.8-3.45,9.4c-1.14,3.06-2.14,6-3,8.8-2.34.06-4.34.15-6,.25l-5.8.35,3.2-37.1h-1.5c-.14.86-.47,2.31-1,4.35s-1.15,4.36-1.85,7-1.45,5.36-2.25,8.2-1.55,5.46-2.25,7.9-1.29,4.43-1.75,6L50,203.7l-16.5,1.1q4.39-13.31,8.4-26.1,1.7-5.4,3.5-11.3T49,155.7q1.8-5.8,3.35-11.2t2.75-10a85.78,85.78,0,0,0,10.4-.6c3.26-.4,6.8-.77,10.6-1.1-.2,1.46-.42,3.11-.65,4.95s-.5,3.75-.8,5.75-.62,4.06-1,6.2-.74,4.86-1.2,8.2-1.1,7.5-1.9,12.5h1.3q2.89-7.6,4.8-12.65c1.26-3.37,2.3-6.12,3.1-8.25s1.61-4.22,2.45-6.25,1.63-4,2.4-5.8,1.48-3.45,2.15-4.85c1.66-.14,3.23-.3,4.7-.5s2.93-.42,4.4-.65,2.95-.47,4.45-.7,3.15-.52,5-.85m2.46-2.49-2.83.52c-1.77.33-3.42.61-4.89.84l-4.46.7c-1.4.22-2.87.44-4.35.64s-3,.36-4.59.49l-1.15.09-.5,1.05c-.68,1.42-1.42,3.09-2.19,4.93s-1.57,3.78-2.4,5.82-1.66,4.14-2.48,6.3-1.83,4.89-3.1,8.25c-.09.26-.19.53-.3.8.45-3.16.83-5.79,1.15-7.84s.65-4.2,1-6.21.57-3.91.81-5.79.45-3.47.65-4.93l.34-2.49-2.5.22c-3.84.34-7.43.71-10.67,1.11a83.41,83.41,0,0,1-10.15.59H53.52L53.13,134c-.79,3-1.71,6.37-2.74,9.95s-2.17,7.4-3.33,11.16-2.41,7.78-3.61,11.71S41.12,174.4,40,178.09c-2.68,8.58-5.5,17.35-8.39,26.08L30.63,207l3-.2,16.5-1.1,1.35-.09.42-1.28c.11-.35.61-2,.81-2.7q.7-2.35,1.76-6c.7-2.44,1.45-5.07,2.25-7.91q.7-2.49,1.36-4.88l-1.88,21.71L56,206.83l2.31-.14,1.56-.09,4.24-.26c1.62-.1,3.56-.18,5.93-.25l1.43,0,.43-1.36c.85-2.76,1.85-5.68,3-8.7s2.29-6.21,3.46-9.41l1.47-4.05-.29,2.54L79,189c-.31,2.64-.54,5.05-.71,7.17s-.3,4-.4,5.42c-.14,2-.15,2.57-.15,2.84v2.38l2.35-.42,17.4-3.1L99,203l.12-1.54c.6-7.8,1.3-15.93,2.1-24.16.33-3.55.72-7.3,1.14-11.17s.88-7.88,1.35-11.94,1-8,1.6-12.09,1.23-8,1.89-11.85l.49-2.83Z" transform="translate(-5.05 -4.33)"/><path class="cls-1" d="M109.67,183.68c0-2.82-.06-5.91-.15-9.21s-.25-6.74-.45-10.12-.4-6.68-.6-9.84-.37-6-.5-8.41-.34-5.1-.6-8l-.07-.76,18.37-7V149.1c0,1.74,0,3.44,0,5.11,0,1,0,2-.05,2.88.38-1,.78-2.1,1.21-3.24,1.23-3.32,2.38-6.58,3.44-9.68,1.26-3.64,2.57-7.54,3.9-11.59l.28-.86,17.63,4-.57,1.14c-2.85,5.71-5.68,11.46-8.39,17.09-1.13,2.44-2.34,5-3.6,7.65l-3.8,7.9c-1.27,2.63-2.5,5.19-3.7,7.65s-2.26,4.68-3.25,6.78c-.33,1.73-.75,3.62-1.23,5.62s-1,4-1.45,5.91c-.6,2.19-1.24,4.42-1.92,6.65l-.19.62-19.16,2.35Z" transform="translate(-5.05 -4.33)"/><path class="cls-1" d="M124.67,131.8v17.3c0,1.73,0,3.43,0,5.1s-.05,3.23-.05,4.7v3.7q1.29-3.4,3.15-8.4t3.45-9.7q1.89-5.5,3.9-11.6l15.5,3.5q-4.31,8.59-8.4,17.1-1.71,3.69-3.6,7.65t-3.8,7.9q-1.91,3.94-3.7,7.65t-3.3,6.9c-.34,1.73-.75,3.63-1.25,5.7s-1,4-1.45,5.9c-.6,2.2-1.24,4.4-1.9,6.6l-17.1,2.1,4.6-20.1q0-4.31-.15-9.35t-.45-10.15c-.2-3.4-.4-6.69-.6-9.85s-.37-6-.5-8.4-.34-5.12-.6-8.05l16.3-6.2m2-2.9-2.72,1-16.3,6.2-1.41.53.13,1.52c.27,2.9.47,5.58.6,8s.3,5.23.5,8.41.4,6.45.6,9.84.35,6.76.45,10.09.14,6.29.15,9.07l-4.55,19.88-.64,2.78,2.83-.35,17.1-2.1,1.29-.16.38-1.24c.68-2.24,1.32-4.48,1.92-6.66.47-1.91,1-3.88,1.46-5.95s.89-3.84,1.22-5.55c1-2,2-4.28,3.18-6.65s2.44-5,3.71-7.66l2.89-6,.91-1.9c1.26-2.63,2.48-5.21,3.61-7.68,2.7-5.6,5.52-11.34,8.37-17L153.5,135l-2.49-.57-15.5-3.5-1.78-.4-.56,1.73c-1.33,4-2.64,7.94-3.9,11.57-.81,2.4-1.69,4.89-2.61,7.44,0-.73,0-1.46,0-2.18V128.9Z" transform="translate(-5.05 -4.33)"/><path class="cls-1" d="M163.06,206.8a38.55,38.55,0,0,1-7.08-.62l-1.07-.2.29-1a335.16,335.16,0,0,0,7.63-35.14c1.87-11.69,3.71-23.72,5.44-35.74l.1-.69.69-.14c3.47-.74,7.12-1.4,10.85-2a79,79,0,0,1,11.75-.86,26,26,0,0,1,5.51.62,15,15,0,0,1,5.46,2.35,14.38,14.38,0,0,1,4.14,4.51,13.82,13.82,0,0,1,1.69,7.12,21,21,0,0,1-1.31,7.45,26.71,26.71,0,0,1-3.33,6.23,23.53,23.53,0,0,1-4.64,4.85,22.07,22.07,0,0,1-3.64,2.33c.43.33.87.7,1.3,1.1a19.4,19.4,0,0,1,2.75,3.22,16.74,16.74,0,0,1,2.08,4.42,19.06,19.06,0,0,1,.79,5.7,18.14,18.14,0,0,1-1.8,8,23.88,23.88,0,0,1-4.8,6.63,32.77,32.77,0,0,1-7,5.16,50.14,50.14,0,0,1-8.26,3.67,55.81,55.81,0,0,1-8.86,2.24A52.43,52.43,0,0,1,163.06,206.8Zm16.37-36c-.23,1.31-.44,2.49-.63,3.53-.24,1.23-.45,2.41-.65,3.54s-.42,2.32-.65,3.56c-.17.89-.35,1.89-.53,3,.89-.13,1.86-.31,2.89-.52a19.25,19.25,0,0,0,4.37-1.48,10,10,0,0,0,3.37-2.54,5.29,5.29,0,0,0,1.26-3.6,3.69,3.69,0,0,0-.73-2.38,7,7,0,0,0-2.1-1.75,10.13,10.13,0,0,0-2.87-1,14.87,14.87,0,0,0-3-.33Zm4.17-22.34c-.17,1-.35,2.06-.55,3.16s-.42,2.21-.66,3.29c-.1.46-.19.9-.27,1.31.94-.22,1.89-.48,2.84-.78a29.6,29.6,0,0,0,3.82-1.49,10.07,10.07,0,0,0,2.54-1.68,2,2,0,0,0,.74-1.47,2.45,2.45,0,0,0-.62-1.77,5.84,5.84,0,0,0-2-1.31,12.63,12.63,0,0,0-2.78-.79,17.51,17.51,0,0,0-2.59-.23h-.16Z" transform="translate(-5.05 -4.33)"/><path class="cls-1" d="M191.66,131.4a25.26,25.26,0,0,1,5.3.6,13.85,13.85,0,0,1,5.1,2.2,13.1,13.1,0,0,1,3.85,4.2,12.65,12.65,0,0,1,1.55,6.6,19.75,19.75,0,0,1-1.25,7.1,25.67,25.67,0,0,1-3.2,6,22.64,22.64,0,0,1-4.45,4.65,19.86,19.86,0,0,1-5.1,2.95,12.81,12.81,0,0,1,2.7,2,17.45,17.45,0,0,1,2.6,3.05,15.34,15.34,0,0,1,2,4.15,18.07,18.07,0,0,1,.75,5.4,17.1,17.1,0,0,1-1.7,7.6,22.73,22.73,0,0,1-4.6,6.35,31.46,31.46,0,0,1-6.75,5,49.14,49.14,0,0,1-8.1,3.6,56,56,0,0,1-8.7,2.2,51.34,51.34,0,0,1-8.55.75,37.56,37.56,0,0,1-6.9-.6A332.74,332.74,0,0,0,163.81,170q2.85-17.76,5.45-35.75,5.2-1.11,10.8-1.95a76.85,76.85,0,0,1,11.6-.85m-10.8,26.1a36.75,36.75,0,0,0,4.4-1.1,30.44,30.44,0,0,0,4-1.55A11.23,11.23,0,0,0,192,153a3,3,0,0,0,1.05-2.2,3.41,3.41,0,0,0-.9-2.45,6.6,6.6,0,0,0-2.35-1.55,12.87,12.87,0,0,0-3-.85,17.07,17.07,0,0,0-2.75-.25h-1c-.13.73-.28,1.6-.45,2.6s-.35,2-.55,3.15-.41,2.18-.65,3.25-.41,2-.55,2.8m-5.1,28.1c1.27-.14,2.7-.37,4.3-.7a20.43,20.43,0,0,0,4.6-1.55,11.15,11.15,0,0,0,3.7-2.8,6.33,6.33,0,0,0,1.5-4.25,4.64,4.64,0,0,0-1-3,7.73,7.73,0,0,0-2.4-2,10.68,10.68,0,0,0-3.15-1.15,15.41,15.41,0,0,0-3.2-.35h-.85a3,3,0,0,0-.75.1c-.26,1.6-.51,3-.75,4.25s-.45,2.41-.65,3.55-.41,2.31-.65,3.55-.48,2.68-.75,4.35m15.9-56.2a79.63,79.63,0,0,0-11.9.87c-3.74.57-7.42,1.23-10.91,2l-1.37.29-.2,1.38c-1.73,12-3.56,24-5.44,35.72a330.75,330.75,0,0,1-7.61,35l-.57,2.09,2.13.4a39.74,39.74,0,0,0,7.27.64A54.56,54.56,0,0,0,172,207a58,58,0,0,0,9-2.28,51,51,0,0,0,8.43-3.75,33.55,33.55,0,0,0,7.18-5.32,25.1,25.1,0,0,0,5-6.9,19.25,19.25,0,0,0,1.9-8.47,20,20,0,0,0-.84-6,17.18,17.18,0,0,0-2.21-4.68,19.75,19.75,0,0,0-2.89-3.39l-.21-.2a22.89,22.89,0,0,0,2.48-1.71,24.73,24.73,0,0,0,4.84-5,27.72,27.72,0,0,0,3.45-6.46,21.94,21.94,0,0,0,1.38-7.81,14.71,14.71,0,0,0-1.83-7.63,15.54,15.54,0,0,0-4.42-4.82,16.06,16.06,0,0,0-5.83-2.51,27.31,27.31,0,0,0-5.72-.64Zm-8.24,25.46c.22-1,.43-2,.61-3.06s.39-2.16.56-3.17c0-.32.1-.62.15-.91.52,0,1.11.1,1.76.2a12,12,0,0,1,2.55.72,4.83,4.83,0,0,1,1.66,1.08,1.39,1.39,0,0,1,.35,1.08c0,.09,0,.34-.42.75a9.34,9.34,0,0,1-2.3,1.5,28.86,28.86,0,0,1-3.68,1.44l-1.24.37Zm-5.23,28.36c.1-.57.19-1.11.29-1.6.23-1.24.45-2.44.65-3.58s.42-2.3.65-3.52c.15-.82.32-1.73.49-2.72a14,14,0,0,1,2.69.3,9.32,9.32,0,0,1,2.59,1,5.77,5.77,0,0,1,1.8,1.49,2.77,2.77,0,0,1,.51,1.76,4.32,4.32,0,0,1-1,2.94,9.27,9.27,0,0,1-3,2.3,18.2,18.2,0,0,1-4.14,1.4l-1.47.28Z" transform="translate(-5.05 -4.33)"/><path class="cls-1" d="M215.56,208.2a16.77,16.77,0,0,1-5-.8,14.27,14.27,0,0,1-4.62-2.42,13.23,13.23,0,0,1-3.41-4.11,12.15,12.15,0,0,1-1.37-5.87v-.8a4.51,4.51,0,0,1,.11-1c.27-2.71.71-6,1.3-9.89s1.24-7.9,1.9-12.1,1.4-8.42,2.21-12.68,1.52-8.08,2.15-11.54,1.19-6.39,1.65-8.67.77-3.74.91-4.3l.17-.68.71-.07c1.4-.13,3.06-.3,5-.5s3.75-.37,5.42-.5l6.08-.6,1.37-.14-.29,1.35c-1.72,8-3.26,15.35-4.6,21.89q-.9,4.2-1.75,8.39c-.56,2.81-1.1,5.38-1.6,7.72l-1.3,6.05-.9,4.15c-.23,1-.49,2.35-.79,4a23.71,23.71,0,0,0-.44,4.27,3.23,3.23,0,0,0,.6,2,1.44,1.44,0,0,0,1.2.66,2.47,2.47,0,0,0,2-1,11.33,11.33,0,0,0,1.69-3,19.49,19.49,0,0,0,1.05-3.66c.23-1.31.46-2.37.67-3.14.38-1.87.83-4,1.33-6.39s1-4.82,1.5-7.39,1-5.17,1.5-7.84,1-5.26,1.45-7.8c1.13-5.85,2.24-12,3.3-18.18l.13-.78,17.28-1.14-.25,1.27c-.66,3.47-1.26,6.63-1.79,9.5s-1.12,6.13-1.75,9.79-1.36,7.54-2.16,11.47-1.58,7.87-2.35,11.7-1.52,7.38-2.25,10.58a33.58,33.58,0,0,1-4.08,10,25.85,25.85,0,0,1-6.25,6.86,24.6,24.6,0,0,1-7.65,4A27.4,27.4,0,0,1,215.56,208.2Z" transform="translate(-5.05 -4.33)"/><path class="cls-1" d="M228.86,132.7q-2.6,12.09-4.6,21.9-.9,4.2-1.75,8.4c-.56,2.8-1.1,5.36-1.6,7.7s-.93,4.35-1.3,6.05-.66,3.08-.9,4.15-.5,2.41-.8,4a24.74,24.74,0,0,0-.45,4.45,4.28,4.28,0,0,0,.8,2.65,2.43,2.43,0,0,0,2,1,3.44,3.44,0,0,0,2.8-1.35,12.11,12.11,0,0,0,1.85-3.25,20,20,0,0,0,1.1-3.85c.24-1.3.45-2.32.65-3.05q.6-2.91,1.35-6.45t1.5-7.4q.75-3.85,1.5-7.85c.5-2.67,1-5.27,1.45-7.8q1.71-8.81,3.3-18.2l15.2-1q-1,5.19-1.8,9.5t-1.75,9.8q-.94,5.49-2.15,11.45t-2.35,11.7q-1.14,5.75-2.25,10.55a32.21,32.21,0,0,1-3.95,9.7,25.14,25.14,0,0,1-6,6.6,23.85,23.85,0,0,1-7.35,3.8,26.4,26.4,0,0,1-7.8,1.2,15.72,15.72,0,0,1-4.7-.75,13.28,13.28,0,0,1-4.3-2.25,12.39,12.39,0,0,1-3.15-3.8,11.21,11.21,0,0,1-1.25-5.4v-.8a3.58,3.58,0,0,1,.1-.8q.41-4.11,1.3-9.9t1.9-12.1q1-6.3,2.2-12.65t2.15-11.55q1-5.2,1.65-8.65c.47-2.3.77-3.72.9-4.25l5-.5c1.94-.2,3.74-.37,5.4-.5l6.1-.6m2.53-2.27-2.73.28-6.09.6c-1.67.13-3.5.3-5.41.5s-3.59.36-5,.49l-1.4.14-.35,1.37c-.14.57-.44,2-.92,4.34s-1,5.21-1.65,8.69-1.38,7.45-2.15,11.53c-.81,4.27-1.55,8.55-2.21,12.71s-1.3,8.24-1.9,12.11-1,7.16-1.3,9.88a4.78,4.78,0,0,0-.13,1.13v.8a13.15,13.15,0,0,0,1.5,6.35,14.27,14.27,0,0,0,3.66,4.42,15.38,15.38,0,0,0,5,2.58,17.65,17.65,0,0,0,5.29.85,28.64,28.64,0,0,0,8.39-1.29,26,26,0,0,0,8-4.12,27,27,0,0,0,6.48-7.12,34.21,34.21,0,0,0,4.2-10.3c.75-3.24,1.51-6.81,2.27-10.63s1.55-7.73,2.35-11.7,1.52-7.81,2.16-11.5,1.23-7,1.75-9.78,1.13-6,1.8-9.49l.49-2.54-2.59.17-15.2,1-1.57.1-.27,1.56c-1.06,6.21-2.16,12.32-3.29,18.16-.47,2.55-.95,5.14-1.45,7.81s-1,5.27-1.5,7.83-1,5-1.49,7.37-.95,4.48-1.34,6.4c-.22.79-.44,1.86-.68,3.16a18,18,0,0,1-1,3.47,10.24,10.24,0,0,1-1.54,2.72,1.46,1.46,0,0,1-1.25.62c-.1,0-.21,0-.41-.27a2.3,2.3,0,0,1-.39-1.43,22.61,22.61,0,0,1,.42-4.09c.3-1.65.56-3,.79-4l.9-4.15.2-.94c.32-1.49.69-3.19,1.1-5.12.49-2.31,1-4.83,1.6-7.72.55-2.69,1.13-5.5,1.75-8.38,1.34-6.55,2.88-13.91,4.6-21.89l.57-2.69Z" transform="translate(-5.05 -4.33)"/><path class="cls-1" d="M247,206.9a28.37,28.37,0,0,1-2.91-.16c-.94-.1-1.89-.22-2.83-.35l-1-.15.2-1q2.7-13.8,5.3-26.9,1-5.48,2.1-11.44c.73-3.94,1.43-7.88,2.1-11.73s1.31-7.57,2-11.11,1.14-6.72,1.54-9.56l.1-.72.71-.13c2.86-.53,5.79-1,8.72-1.5a59,59,0,0,1,9.16-.71,23.11,23.11,0,0,1,9.56,1.79,17,17,0,0,1,6.48,5,20.64,20.64,0,0,1,3.62,7.35,32.83,32.83,0,0,1,1.14,8.77,45.52,45.52,0,0,1-1.53,11.29,67.24,67.24,0,0,1-4.26,11.78,63.88,63.88,0,0,1-6.76,11.18,51.08,51.08,0,0,1-9.13,9.38A45.6,45.6,0,0,1,260,204.42,34.68,34.68,0,0,1,247,206.9Zm22.13-59.38c-.69,3.65-1.42,7.17-2.15,10.49q-1.2,5.4-2.4,10.9c-.79,3.63-1.6,7.49-2.4,11.48-.65,3.27-1.29,6.81-1.9,10.56a23.6,23.6,0,0,0,2.5-2.64,42.82,42.82,0,0,0,4.15-6.2,74.18,74.18,0,0,0,3.6-7.5c1.08-2.62,2-5.22,2.82-7.72a66,66,0,0,0,1.82-7,29.2,29.2,0,0,0,.63-5.5,7,7,0,0,0-1.77-5.11A7.15,7.15,0,0,0,269.09,147.52Z" transform="translate(-5.05 -4.33)"/><path class="cls-1" d="M272.06,132.4a22,22,0,0,1,9.15,1.7,16,16,0,0,1,6.1,4.7,19.53,19.53,0,0,1,3.45,7,32,32,0,0,1,1.1,8.5,44.6,44.6,0,0,1-1.5,11,65.8,65.8,0,0,1-4.2,11.6,62.67,62.67,0,0,1-6.65,11,50.06,50.06,0,0,1-8.95,9.2,44.29,44.29,0,0,1-10.95,6.35A33.49,33.49,0,0,1,247,205.9a26.26,26.26,0,0,1-2.8-.15c-.93-.1-1.87-.22-2.8-.35q2.7-13.8,5.3-26.9,1-5.5,2.1-11.45t2.1-11.75q1-5.81,1.95-11.1t1.55-9.6q4.31-.81,8.7-1.5a56.74,56.74,0,0,1,9-.7m-13.2,60.9a21.74,21.74,0,0,0,4.65-4.35,43,43,0,0,0,4.25-6.35,74.12,74.12,0,0,0,3.65-7.6q1.65-4,2.85-7.8a65.82,65.82,0,0,0,1.85-7.1,30.39,30.39,0,0,0,.65-5.7,7.93,7.93,0,0,0-2.05-5.8q-2.06-2.1-6.45-2.1-1.1,5.9-2.3,11.3t-2.4,10.9q-1.2,5.49-2.4,11.5t-2.3,13.1m13.2-62.9a59.67,59.67,0,0,0-9.31.72c-2.94.47-5.89,1-8.75,1.51l-1.42.26-.2,1.43c-.39,2.83-.91,6-1.54,9.52s-1.29,7.31-2,11.12-1.37,7.79-2.1,11.72-1.43,7.79-2.1,11.46c-1.66,8.4-3.45,17.45-5.29,26.87l-.41,2.07,2.09.3c1,.13,1.94.25,2.87.35a27.47,27.47,0,0,0,3,.17,35.65,35.65,0,0,0,13.4-2.55,46.15,46.15,0,0,0,11.44-6.64,52.11,52.11,0,0,0,9.31-9.56A64.22,64.22,0,0,0,288,177.8a68,68,0,0,0,4.33-12,46.58,46.58,0,0,0,1.56-11.54,33.9,33.9,0,0,0-1.17-9,21.74,21.74,0,0,0-3.8-7.71,18.2,18.2,0,0,0-6.85-5.29,24.28,24.28,0,0,0-10-1.87Zm-10.29,57.52c.44-2.57.89-5,1.35-7.33.8-4,1.6-7.84,2.4-11.47s1.59-7.29,2.39-10.89c.68-3.06,1.35-6.3,2-9.64a5.6,5.6,0,0,1,3.38,1.4,6,6,0,0,1,1.48,4.41,27.94,27.94,0,0,1-.61,5.31,64.13,64.13,0,0,1-1.8,6.88c-.77,2.47-1.71,5-2.79,7.64a69.08,69.08,0,0,1-3.55,7.39,40.65,40.65,0,0,1-4.05,6.06l-.19.24Z" transform="translate(-5.05 -4.33)"/><path class="cls-1" d="M291.06,206.9a28.22,28.22,0,0,1-2.91-.16c-.94-.1-1.89-.22-2.83-.35l-1-.15.2-1q2.7-13.8,5.3-26.9,1-5.48,2.1-11.44c.73-3.94,1.43-7.88,2.1-11.73s1.31-7.57,1.95-11.11,1.14-6.72,1.54-9.56l.1-.72.71-.13c2.86-.53,5.79-1,8.72-1.5a59,59,0,0,1,9.16-.71,23.11,23.11,0,0,1,9.56,1.79,17,17,0,0,1,6.48,5,20.64,20.64,0,0,1,3.62,7.35A32.83,32.83,0,0,1,337,154.3a45.52,45.52,0,0,1-1.53,11.29,67.24,67.24,0,0,1-4.26,11.78,63.88,63.88,0,0,1-6.76,11.18,51.08,51.08,0,0,1-9.13,9.38,45.48,45.48,0,0,1-11.2,6.49A34.63,34.63,0,0,1,291.06,206.9Zm22.13-59.38c-.69,3.65-1.42,7.17-2.15,10.49q-1.2,5.4-2.4,10.9c-.79,3.63-1.6,7.49-2.4,11.48-.65,3.27-1.29,6.81-1.9,10.56a23.6,23.6,0,0,0,2.5-2.64,42.82,42.82,0,0,0,4.15-6.2,74.18,74.18,0,0,0,3.6-7.5c1.08-2.62,2-5.22,2.82-7.72a66,66,0,0,0,1.82-7,29.2,29.2,0,0,0,.63-5.5,7,7,0,0,0-1.77-5.11A7.15,7.15,0,0,0,313.19,147.52Z" transform="translate(-5.05 -4.33)"/><path class="cls-1" d="M316.16,132.4a22,22,0,0,1,9.15,1.7,16,16,0,0,1,6.1,4.7,19.53,19.53,0,0,1,3.45,7,32,32,0,0,1,1.1,8.5,44.6,44.6,0,0,1-1.5,11,65.8,65.8,0,0,1-4.2,11.6,62.67,62.67,0,0,1-6.65,11,50.06,50.06,0,0,1-8.95,9.2,44.29,44.29,0,0,1-11,6.35,33.49,33.49,0,0,1-12.65,2.4,26.26,26.26,0,0,1-2.8-.15c-.93-.1-1.87-.22-2.8-.35q2.7-13.8,5.3-26.9,1-5.5,2.1-11.45T295,155.3q1-5.81,2-11.1t1.55-9.6q4.31-.81,8.7-1.5a56.74,56.74,0,0,1,9-.7M303,193.3a21.74,21.74,0,0,0,4.65-4.35,43,43,0,0,0,4.25-6.35,74.12,74.12,0,0,0,3.65-7.6q1.65-4,2.85-7.8a65.82,65.82,0,0,0,1.85-7.1,30.39,30.39,0,0,0,.65-5.7,7.93,7.93,0,0,0-2.05-5.8q-2.06-2.1-6.45-2.1-1.1,5.9-2.3,11.3t-2.4,10.9q-1.2,5.49-2.4,11.5T303,193.3m13.2-62.9a59.67,59.67,0,0,0-9.31.72c-2.94.47-5.89,1-8.75,1.51l-1.42.26-.2,1.43c-.39,2.83-.91,6-1.54,9.52S293.65,151.15,293,155s-1.37,7.79-2.1,11.72-1.43,7.79-2.1,11.46c-1.66,8.4-3.45,17.45-5.29,26.87l-.41,2.07,2.09.3c1,.13,1.94.25,2.87.35a27.47,27.47,0,0,0,3,.17,35.65,35.65,0,0,0,13.4-2.55,46.15,46.15,0,0,0,11.44-6.64,52.11,52.11,0,0,0,9.31-9.56,64.22,64.22,0,0,0,6.86-11.35,68,68,0,0,0,4.33-12A46.58,46.58,0,0,0,338,154.3a33.9,33.9,0,0,0-1.17-9,21.74,21.74,0,0,0-3.8-7.71,18.2,18.2,0,0,0-6.85-5.29,24.28,24.28,0,0,0-10-1.87Zm-10.3,57.52c.45-2.57.9-5,1.36-7.33.8-4,1.6-7.84,2.4-11.47s1.59-7.29,2.39-10.89c.68-3.06,1.35-6.3,2-9.64a5.6,5.6,0,0,1,3.38,1.4,6,6,0,0,1,1.48,4.41,28.78,28.78,0,0,1-.61,5.31,64.13,64.13,0,0,1-1.8,6.88c-.78,2.47-1.71,5-2.79,7.64a69.08,69.08,0,0,1-3.55,7.39,40.65,40.65,0,0,1-4.05,6.06l-.2.24Z" transform="translate(-5.05 -4.33)"/><path class="cls-1" d="M340.46,183.68c0-2.81,0-5.91-.15-9.21s-.25-6.77-.45-10.12-.4-6.68-.6-9.84-.36-6-.5-8.41-.33-5.1-.6-8l-.06-.76,18.36-7V149.1c0,1.74,0,3.44,0,5.11,0,1,0,2,0,2.88l1.2-3.24c1.22-3.3,2.38-6.56,3.44-9.68,1.25-3.61,2.56-7.51,3.9-11.59l.28-.86,17.64,4-.58,1.14c-2.83,5.68-5.66,11.43-8.39,17.09-1.11,2.42-2.33,5-3.6,7.65l-3.8,7.9c-1.27,2.63-2.5,5.19-3.7,7.65s-2.26,4.68-3.24,6.78c-.34,1.74-.76,3.63-1.24,5.62s-1,4-1.45,5.91c-.6,2.21-1.24,4.44-1.91,6.65l-.19.62-19.16,2.35Z" transform="translate(-5.05 -4.33)"/><path class="cls-1" d="M355.46,131.8v17.3c0,1.73,0,3.43,0,5.1s-.05,3.23-.05,4.7v3.7q1.31-3.4,3.15-8.4t3.45-9.7q1.91-5.5,3.9-11.6l15.5,3.5q-4.31,8.59-8.4,17.1-1.69,3.69-3.6,7.65c-1.27,2.63-2.53,5.26-3.8,7.9s-2.5,5.18-3.7,7.65-2.3,4.76-3.3,6.9q-.49,2.6-1.25,5.7t-1.45,5.9q-.9,3.3-1.9,6.6l-17.1,2.1,4.6-20.1q0-4.31-.15-9.35t-.45-10.15c-.2-3.4-.4-6.69-.6-9.85s-.37-6-.5-8.4-.33-5.12-.6-8.05l16.3-6.2m2-2.9-2.71,1-16.3,6.2-1.42.53.14,1.52c.26,2.89.46,5.58.59,8s.3,5.22.51,8.41.39,6.45.59,9.84.35,6.74.45,10.1.15,6.29.15,9.06l-4.55,19.88-.63,2.78,2.82-.35,17.1-2.1,1.3-.16.37-1.24c.68-2.22,1.32-4.46,1.92-6.66.48-1.91,1-3.88,1.46-5.95s.89-3.83,1.23-5.55c1-2.06,2-4.3,3.18-6.65s2.43-5,3.7-7.66l3.8-7.9c1.28-2.65,2.49-5.24,3.62-7.68,2.71-5.62,5.53-11.37,8.37-17l1.14-2.28-2.49-.57-15.5-3.5-1.77-.4-.57,1.73c-1.34,4.07-2.64,8-3.89,11.57-.82,2.42-1.7,4.91-2.62,7.43,0-.72,0-1.45,0-2.17V128.9Z" transform="translate(-5.05 -4.33)"/><path class="cls-1" d="M376,208.7a9.92,9.92,0,0,1-4.23-.9,8.42,8.42,0,0,1-3.11-2.44,11.5,11.5,0,0,1-1.8-3.33,11.12,11.12,0,0,1-.66-3.73,12.34,12.34,0,0,1,.65-4,9.76,9.76,0,0,1,2.06-3.45,11.37,11.37,0,0,1,3.4-2.47,11,11,0,0,1,4.89-1c4.11,0,7.27,1,9.39,3a9.42,9.42,0,0,1,3.21,7,10.28,10.28,0,0,1-.94,4.2,11,11,0,0,1-2.69,3.69,12.76,12.76,0,0,1-4.34,2.5A17.53,17.53,0,0,1,376,208.7Zm-.77-26.65c2.05-8.14,4.09-16.38,6.05-24.49s4-16.31,6.15-24.52l.17-.63.64-.1c1.27-.2,2.75-.41,4.39-.61s3.29-.43,4.91-.69,3.35-.51,4.88-.71,2.85-.39,3.89-.59l1.85-.34-.74,1.72c-3.58,8.35-6.89,16.85-9.83,25.29S391.61,173.5,388.7,182l-.23.68h-.71c-1.89,0-3.82.06-5.73.19l-7.18.5Z" transform="translate(-5.05 -4.33)"/><path class="cls-1" d="M406.46,130.7q-5.4,12.6-9.85,25.35t-8.85,25.65c-1.94,0-3.87.06-5.8.2l-5.8.4q3.09-12.3,6-24.5t6.15-24.5q1.89-.3,4.35-.6c1.63-.2,3.28-.44,5-.7s3.28-.5,4.85-.7,2.88-.4,3.95-.6m-29.3,57.7c3.86,0,6.76.91,8.7,2.75a8.41,8.41,0,0,1,2.9,6.25,9.38,9.38,0,0,1-.85,3.8,10.24,10.24,0,0,1-2.45,3.35,11.87,11.87,0,0,1-4,2.3,16.63,16.63,0,0,1-5.5.85,8.85,8.85,0,0,1-3.8-.8,7.42,7.42,0,0,1-2.75-2.15,10.81,10.81,0,0,1-1.65-3.05,10.2,10.2,0,0,1-.6-3.4,11.13,11.13,0,0,1,.6-3.65,8.51,8.51,0,0,1,1.85-3.1,10.19,10.19,0,0,1,3.1-2.25,10.06,10.06,0,0,1,4.45-.9M409.77,128l-3.68.69c-1,.19-2.31.39-3.83.58s-3.2.44-4.92.71-3.25.49-4.87.69-3.14.41-4.42.61l-1.3.21-.33,1.26c-2.13,8.21-4.2,16.46-6.15,24.54s-4,16.34-6,24.48l-.67,2.67,2.75-.19,5.8-.4c1.88-.13,3.79-.19,5.66-.19h1.43l.46-1.36c2.91-8.51,5.88-17.14,8.85-25.63s6.23-16.9,9.8-25.23l1.47-3.44ZM377.16,186.4a11.83,11.83,0,0,0-9,3.79,10.62,10.62,0,0,0-2.27,3.81,13.19,13.19,0,0,0-.71,4.3,12.27,12.27,0,0,0,.71,4.06,12.85,12.85,0,0,0,2,3.61,9.28,9.28,0,0,0,3.48,2.73,10.77,10.77,0,0,0,4.65,1,18.54,18.54,0,0,0,6.17-1,13.69,13.69,0,0,0,4.67-2.7,11.87,11.87,0,0,0,2.93-4,11.25,11.25,0,0,0,1-4.61,10.41,10.41,0,0,0-3.52-7.71c-2.32-2.18-5.71-3.29-10.08-3.29Z" transform="translate(-5.05 -4.33)"/><path class="cls-2" d="M14,10.76l.86,0a64.58,64.58,0,0,0,8.71-.93A80.61,80.61,0,0,1,32,8.73L33,8.65V9.72c0,.11,0,.18-.31,2.21-.2,1.3-.47,3-.8,5.1s-.7,4.46-1.1,7.09-1,6.13-1.75,10.87c-.63,3.74-1.41,8.63-2.35,14.59q1.84-6.48,3.15-11,1.7-5.84,2.75-9.49c.7-2.43,1.36-4.78,2-7s1.23-4.37,1.8-6.31,1-3.54,1.34-4.86l.19-.76h1.68a32.43,32.43,0,0,0,3.54-.19c1.22-.13,2.39-.28,3.46-.45s2.2-.37,3.38-.63l1.54-.34L51.2,10a31.58,31.58,0,0,0-.43,3.57c-.17,1.87-.39,4.13-.65,6.76s-.54,5.57-.8,8.69-.54,6.27-.8,9.3S48,44.28,47.77,47c-.16,1.86-.31,3.54-.46,5l9.28-42,.69-.1C59.53,9.6,61.79,9.3,64,9l6-.8c2-.26,3.86-.56,5.43-.89L77.16,7l-.6,1.68c-1,2.77-2,5.89-3,9.29s-2,7.05-3.1,10.84-2.08,7.64-3,11.48-1.92,7.6-2.85,11.2c-2.11,8.45-4.2,17.29-6.19,26.27l-.15.66L33.68,82.53,37.61,48,28.92,79.9l-22.74,4Z" transform="translate(-5.05 -4.33)"/><path class="cls-3" d="M75.62,8.32q-1.5,4.2-3,9.35t-3.1,10.85q-1.6,5.7-3,11.5t-2.85,11.2Q60.43,64,57.42,77.52l-22.6,3.8,4.4-38.6H38L28.12,79l-20.8,3.7,7.6-71a65,65,0,0,0,8.85-1,78.86,78.86,0,0,1,8.25-1c0,.07-.1.75-.3,2s-.47,3-.8,5.1-.7,4.47-1.1,7.1-1,6.25-1.75,10.85-1.78,11-3.05,19.1h1.5q2.6-9.2,4.3-15.05t2.75-9.5q1.05-3.64,2-7t1.8-6.3q.85-2.89,1.35-4.9h.9a32.27,32.27,0,0,0,3.65-.2c1.23-.13,2.4-.28,3.5-.45s2.25-.38,3.45-.65c-.13.6-.28,1.84-.45,3.7s-.38,4.12-.65,6.75-.53,5.54-.8,8.7-.53,6.27-.8,9.3-.52,5.92-.75,8.65-.45,5.07-.65,7h1.8l9.5-43q3.4-.49,6.7-.9l6-.8q3.1-.39,5.5-.9M78.7,5.64l-3.49.73c-1.54.32-3.34.61-5.34.87l-6,.8c-2.19.27-4.46.57-6.72.9l-1.36.21-.3,1.34-5.81,26.3q.33-3.75.65-7.65c.27-3.11.53-6,.8-8.66s.49-4.94.65-6.78c.21-2.32.35-3.15.41-3.44l.69-3.07-3.07.68c-1.16.26-2.28.47-3.32.63s-2.21.31-3.41.44a33.32,33.32,0,0,1-3.44.18H37.16l-.38,1.52c-.33,1.3-.77,2.93-1.33,4.82s-1.18,4.07-1.81,6.33-1.29,4.6-2,7c-.37,1.3-.81,2.8-1.3,4.51.63-3.84,1.11-6.82,1.45-9.06.4-2.62.76-5,1.1-7.08s.6-3.81.8-5.11A19.68,19.68,0,0,0,34,9.72V7.57l-2.15.16a79.71,79.71,0,0,0-8.45,1.08,64.44,64.44,0,0,1-8.58.92l-1.72.07-.19,1.71-7.6,71-.28,2.65,2.62-.47L28.47,81l1.25-.22.33-1.22L35.14,60.9,32.83,81.1l-.3,2.64,2.62-.44,22.6-3.8,1.33-.23L59.37,78c2-9,4.08-17.81,6.19-26.25.92-3.56,1.88-7.33,2.85-11.2s2-7.68,3-11.45,2.07-7.32,3.09-10.83,2-6.49,3-9.23l1.2-3.36Z" transform="translate(-5.05 -4.33)"/><path class="cls-2" d="M76.38,10.39,110.23,7.5l-.46,1.43c-.45,1.43-.85,2.91-1.17,4.41-.34,1.27-.65,2.59-.95,3.95s-.55,2.56-.75,3.62l-.13.73-.75.08c-.7.07-1.65.12-2.92.15l-4,.1c-1.4,0-2.83.05-4.27.05H91.94L88.85,37.85c1.59-.1,3.11-.17,4.53-.23s3-.1,4.54-.1,2.61,0,3.31-.09l1.26-.12-.18,1.26q-.41,2.79-.75,5.48c-.24,1.83-.52,3.69-.86,5.55l-.13.74-.75.08c-.69.07-1.81.12-3.33.15L92,50.72l-4.9.18-3,16.22,14.47-2.28L97.35,78.29,62.88,83.63Z" transform="translate(-5.05 -4.33)"/><path class="cls-3" d="M108.82,8.62q-.7,2.21-1.2,4.5c-.33,1.27-.65,2.59-1,4s-.55,2.59-.75,3.65q-1,.11-2.85.15l-3.95.1c-1.4,0-2.82.05-4.25.05H91.12l-3.5,17.9q3.1-.2,5.8-.3c1.47-.06,3-.1,4.5-.1s2.67,0,3.4-.1q-.41,2.8-.75,5.5c-.23,1.8-.52,3.64-.85,5.5-.67.07-1.75.12-3.25.15l-4.55.15c-1.73.07-3.63.14-5.7.2l-3.4,18.4L97.42,66l-1,11.4-32.3,5,13.1-71.1,31.6-2.7m2.82-2.24-3,.25-31.6,2.7-1.52.13L75.25,11l-13.1,71.1-.51,2.77,2.79-.43,32.3-5,1.55-.24.13-1.56,1-11.4.23-2.55-2.53.4L85.3,65.91l2.59-14L92,51.72l4.52-.15c1.56,0,2.67-.08,3.4-.16l1.5-.15.27-1.48c.33-1.88.62-3.76.86-5.6s.48-3.62.75-5.47l.36-2.51-2.52.23c-.67.06-1.75.09-3.22.09s-3.08,0-4.59.11c-1,0-2.12.08-3.25.14L92.77,23h2.1c1.49,0,2.94,0,4.3-.05l4-.1c1.29,0,2.27-.08,3-.16l1.49-.15.28-1.47c.19-1,.44-2.25.73-3.59s.61-2.65.93-3.87l0,0v0c.32-1.47.71-2.92,1.16-4.32l.91-2.85Z" transform="translate(-5.05 -4.33)"/><path class="cls-2" d="M97.63,82.39c.4-3,.86-6.34,1.4-10s1.15-7.49,1.86-11.43,1.39-7.9,2.09-11.9,1.43-7.9,2.16-11.52c1.65-8.66,3.43-17.65,5.3-26.71l.14-.7,19.64-2.58L129.89,9q-2.7,11.6-5.2,22.6c-.72,3.07-1.45,6.34-2.19,9.74s-1.44,6.64-2.1,9.84-1.27,6.3-1.8,9.27c-.43,2.44-.81,4.7-1.11,6.74,1.31-.08,2.71-.14,4.16-.17,1.91,0,3.6,0,5.07,0h1l0,1c.06,1.24.16,2.49.29,3.7s.28,2.31.45,3.29.3,1.91.4,2.68.19,1.28.23,1.44l.32,1.24h-1.29c-.56,0-1.1,0-1.62,0s-1,0-1.48,0c-2,0-4.21.07-6.49.2s-4.59.33-6.9.6-4.57.61-6.77,1a46.67,46.67,0,0,0-5.92,1.51L97.42,84Z" transform="translate(-5.05 -4.33)"/><path class="cls-3" d="M128.92,8.72q-2.7,11.61-5.2,22.6c-.73,3.14-1.47,6.39-2.2,9.75s-1.43,6.65-2.1,9.85-1.27,6.3-1.8,9.3-1,5.67-1.3,8c1.67-.13,3.45-.21,5.35-.25s3.58,0,5,0q.11,1.9.3,3.75c.13,1.24.28,2.35.45,3.35s.3,1.89.4,2.65a15,15,0,0,0,.25,1.55c-.53,0-1.05,0-1.55,0s-1,0-1.55,0q-3.1,0-6.55.2t-7,.6c-2.33.27-4.62.62-6.85,1a49.63,49.63,0,0,0-6,1.55q.6-4.5,1.4-10t1.85-11.4q1-5.9,2.1-11.9t2.15-11.5q2.5-13.09,5.3-26.7l17.5-2.3m2.6-2.36-2.86.38L111.16,9l-1.41.19-.29,1.39c-1.87,9.07-3.65,18.06-5.3,26.73-.73,3.61-1.46,7.5-2.16,11.53s-1.4,8-2.1,11.89S98.57,68.58,98,72.24s-1,6.93-1.4,10l-.43,3.17,3-1a45.65,45.65,0,0,1,5.8-1.48c2.18-.42,4.43-.77,6.7-1s4.58-.46,6.84-.59,4.42-.2,6.43-.2c.47,0,1,0,1.42,0s1.08,0,1.68,0h2.57l-.63-2.49a12.8,12.8,0,0,1-.21-1.31c-.1-.78-.23-1.67-.41-2.72s-.3-2-.43-3.24-.23-2.42-.29-3.64l-.1-1.9h-1.9c-1.46,0-3.13,0-5.08,0-1,0-2,.06-3,.1.27-1.7.58-3.54.93-5.5.53-3,1.13-6.07,1.79-9.24s1.36-6.46,2.09-9.83,1.48-6.66,2.2-9.72c1.61-7.11,3.36-14.71,5.2-22.6l.65-2.82Z" transform="translate(-5.05 -4.33)"/><path class="cls-2" d="M145.82,83.52A12.58,12.58,0,0,1,139.69,82a14,14,0,0,1-4.8-4.52,24.47,24.47,0,0,1-3.18-7.19,36.7,36.7,0,0,1-1.19-9.87,68.86,68.86,0,0,1,2.64-18.82,62.24,62.24,0,0,1,7.42-16.72,42.22,42.22,0,0,1,11.42-12,25.65,25.65,0,0,1,14.82-4.63,12.09,12.09,0,0,1,5,1.09,12.48,12.48,0,0,1,4.14,3,14.84,14.84,0,0,1,2.74,4.72,17.93,17.93,0,0,1,1,6.14v1.25a11.26,11.26,0,0,1-.11,1.49l-.09.66L165,30.5l-.36-.74c-.43-.89-1.1-1.94-1.9-1.94a4,4,0,0,0-2.62,1.54A24.56,24.56,0,0,0,156.78,34a69,69,0,0,0-3.25,6.5c-1,2.39-2,4.84-2.76,7.26s-1.43,4.77-1.93,7a25.3,25.3,0,0,0-.72,5.23c0,2.4.37,3.48.69,4a1.58,1.58,0,0,0,1.41.84,4,4,0,0,0,2-.7,10.52,10.52,0,0,0,2.37-2,18.14,18.14,0,0,0,2.09-2.89A11.79,11.79,0,0,0,158,56l.26-1.13,13.44,5.42-.41.94A51.94,51.94,0,0,1,165.78,71a40.21,40.21,0,0,1-6.37,7,24.66,24.66,0,0,1-6.83,4.21A18.41,18.41,0,0,1,145.82,83.52Z" transform="translate(-5.05 -4.33)"/><path class="cls-3" d="M166.82,9.22a11.11,11.11,0,0,1,4.6,1,11.41,11.41,0,0,1,3.8,2.8,13.8,13.8,0,0,1,2.55,4.4,16.92,16.92,0,0,1,.95,5.8v1.25a10.48,10.48,0,0,1-.1,1.35l-13.1,3.5c-.8-1.66-1.74-2.5-2.8-2.5a4.84,4.84,0,0,0-3.35,1.85,25.68,25.68,0,0,0-3.45,4.8,65.42,65.42,0,0,0-3.3,6.6q-1.6,3.66-2.8,7.35t-1.95,7a26.17,26.17,0,0,0-.75,5.45,8.61,8.61,0,0,0,.85,4.5,2.56,2.56,0,0,0,2.25,1.3,5,5,0,0,0,2.5-.85,11.31,11.31,0,0,0,2.6-2.2,19.21,19.21,0,0,0,2.2-3.05,12.42,12.42,0,0,0,1.4-3.4l11.4,4.6A50.72,50.72,0,0,1,165,70.37a38.92,38.92,0,0,1-6.2,6.8,23.38,23.38,0,0,1-6.55,4,17.37,17.37,0,0,1-6.4,1.3,11.46,11.46,0,0,1-5.65-1.4,12.83,12.83,0,0,1-4.45-4.2,23.15,23.15,0,0,1-3.05-6.9,35.57,35.57,0,0,1-1.15-9.6,67.33,67.33,0,0,1,2.6-18.55,60.7,60.7,0,0,1,7.3-16.45,41.06,41.06,0,0,1,11.15-11.75,24.59,24.59,0,0,1,14.25-4.45m0-2A26.62,26.62,0,0,0,151.43,12a43,43,0,0,0-11.69,12.31,63,63,0,0,0-7.55,17,70,70,0,0,0-2.67,19.09,37.92,37.92,0,0,0,1.22,10.14,25.73,25.73,0,0,0,3.32,7.49,15,15,0,0,0,5.15,4.83,13.55,13.55,0,0,0,6.61,1.64A19.34,19.34,0,0,0,153,83.08a25.57,25.57,0,0,0,7.11-4.38,41.06,41.06,0,0,0,6.53-7.15,53.08,53.08,0,0,0,5.56-9.93l.82-1.88-1.9-.77-11.4-4.6-2.16-.87L157,55.77a10.16,10.16,0,0,1-1.18,2.84,16.84,16.84,0,0,1-2,2.74,9.45,9.45,0,0,1-2.14,1.81,3,3,0,0,1-1.46.56c-.16,0-.32,0-.58-.39-.12-.19-.52-1-.52-3.41a24.06,24.06,0,0,1,.7-5c.48-2.16,1.12-4.47,1.9-6.87s1.7-4.81,2.73-7.16a66,66,0,0,1,3.2-6.41,23.76,23.76,0,0,1,3.17-4.42,3.31,3.31,0,0,1,1.9-1.23s.42.16,1,1.37l.71,1.49,1.6-.42,13.1-3.5,1.28-.35.19-1.31a11.6,11.6,0,0,0,.12-1.63V23.22a18.9,18.9,0,0,0-1.07-6.48,15.5,15.5,0,0,0-2.94-5,13.22,13.22,0,0,0-9.89-4.48Z" transform="translate(-5.05 -4.33)"/><path class="cls-2" d="M187.12,83.72a15.15,15.15,0,0,1-6.42-1.34,14.2,14.2,0,0,1-5.06-4,19.11,19.11,0,0,1-3.33-6.65,33.7,33.7,0,0,1-1.19-9.54,55.12,55.12,0,0,1,1.42-12,85.2,85.2,0,0,1,3.85-12.44,68.88,68.88,0,0,1,6-11.77,59.52,59.52,0,0,1,7.84-9.92,37.32,37.32,0,0,1,9.24-6.93,22.47,22.47,0,0,1,10.47-2.62,14.83,14.83,0,0,1,8,2,14.27,14.27,0,0,1,4.94,5.16,23,23,0,0,1,2.46,7,40.61,40.61,0,0,1,.72,7.58,67,67,0,0,1-1.78,15.69,68.94,68.94,0,0,1-4.72,13.5,55.5,55.5,0,0,1-6.88,11,54.34,54.34,0,0,1-8.2,8.26,35.78,35.78,0,0,1-8.75,5.24A22.78,22.78,0,0,1,187.12,83.72Zm19.3-54.2A10.5,10.5,0,0,0,201,31a17.53,17.53,0,0,0-4.59,4,29.67,29.67,0,0,0-3.62,5.8,57.42,57.42,0,0,0-2.7,6.69,38.89,38.89,0,0,0-1.61,6.58,37.17,37.17,0,0,0-.49,5.55,6.1,6.1,0,0,0,.35,2,5.7,5.7,0,0,0,.94,1.8,5.53,5.53,0,0,0,1.48,1.31,3.19,3.19,0,0,0,1.73.5,10.63,10.63,0,0,0,7.33-2.85,24.71,24.71,0,0,0,5.58-7.3,43.8,43.8,0,0,0,3.47-9.38,38.63,38.63,0,0,0,1.22-9.07,22.81,22.81,0,0,0-.15-2.49,9.69,9.69,0,0,0-.54-2.36,4,4,0,0,0-1.13-1.65A2.72,2.72,0,0,0,206.42,29.52Z" transform="translate(-5.05 -4.33)"/><path class="cls-3" d="M209.92,7.52a13.83,13.83,0,0,1,7.45,1.85,13.37,13.37,0,0,1,4.6,4.8,22,22,0,0,1,2.35,6.65,40.38,40.38,0,0,1,.7,7.4,66,66,0,0,1-1.75,15.45A67.33,67.33,0,0,1,218.62,57a54.65,54.65,0,0,1-6.75,10.8,52.74,52.74,0,0,1-8.05,8.1,34.36,34.36,0,0,1-8.5,5.1,21.7,21.7,0,0,1-8.2,1.75,14,14,0,0,1-6-1.25,13,13,0,0,1-4.7-3.7,17.72,17.72,0,0,1-3.15-6.3,32.44,32.44,0,0,1-1.15-9.25,53.28,53.28,0,0,1,1.4-11.8,84.09,84.09,0,0,1,3.8-12.3,67.66,67.66,0,0,1,5.9-11.6,58.8,58.8,0,0,1,7.7-9.75,36.32,36.32,0,0,1,9-6.75,21.44,21.44,0,0,1,10-2.5m-17.4,58.7a11.72,11.72,0,0,0,8-3.1,25.64,25.64,0,0,0,5.8-7.6,44.58,44.58,0,0,0,3.55-9.6,39.53,39.53,0,0,0,1.25-9.3A24.61,24.61,0,0,0,211,34a10.63,10.63,0,0,0-.6-2.6,5.18,5.18,0,0,0-1.4-2.05,3.74,3.74,0,0,0-2.55-.85,11.41,11.41,0,0,0-5.9,1.6,18.31,18.31,0,0,0-4.85,4.25,29.58,29.58,0,0,0-3.75,6,57.93,57.93,0,0,0-2.75,6.8,39.93,39.93,0,0,0-1.65,6.75,37.92,37.92,0,0,0-.5,5.7,7.14,7.14,0,0,0,.4,2.3,6.77,6.77,0,0,0,1.1,2.1,6.41,6.41,0,0,0,1.75,1.55,4.14,4.14,0,0,0,2.25.65m17.4-60.7A23.47,23.47,0,0,0,199,8.25a38.52,38.52,0,0,0-9.5,7.12,61,61,0,0,0-8,10.08,69.79,69.79,0,0,0-6.07,11.94A86,86,0,0,0,171.57,50a55.32,55.32,0,0,0-1.45,12.24,34.71,34.71,0,0,0,1.23,9.83,20,20,0,0,0,3.52,7,15.26,15.26,0,0,0,5.41,4.25,16.14,16.14,0,0,0,6.84,1.43,23.76,23.76,0,0,0,8.95-1.89,37,37,0,0,0,9-5.39A55,55,0,0,0,213.42,69a56.75,56.75,0,0,0,7-11.19,68.81,68.81,0,0,0,4.79-13.7A67.93,67.93,0,0,0,227,28.22a41.88,41.88,0,0,0-.74-7.77,23.71,23.71,0,0,0-2.57-7.25,15.25,15.25,0,0,0-5.28-5.52,15.81,15.81,0,0,0-8.51-2.16Zm-17.4,58.7a2.2,2.2,0,0,1-1.2-.35,4.39,4.39,0,0,1-1.22-1.07,5.14,5.14,0,0,1-.79-1.51,5.49,5.49,0,0,1-.29-1.67,37.78,37.78,0,0,1,.47-5.4,40.11,40.11,0,0,1,1.57-6.41,57.54,57.54,0,0,1,2.66-6.57,28,28,0,0,1,3.5-5.61,16.54,16.54,0,0,1,4.32-3.79,9.38,9.38,0,0,1,4.88-1.32,1.64,1.64,0,0,1,1.22.35,3,3,0,0,1,.85,1.26,8.47,8.47,0,0,1,.49,2.11,23.18,23.18,0,0,1,.14,2.38,37.19,37.19,0,0,1-1.2,8.83,42.27,42.27,0,0,1-3.38,9.16,23.84,23.84,0,0,1-5.35,7,9.73,9.73,0,0,1-6.67,2.59Z" transform="translate(-5.05 -4.33)"/><path class="cls-2" d="M214.37,81.41c2.89-8.74,5.71-17.51,8.39-26.08q1.69-5.4,3.5-11.3t3.6-11.7c1.17-3.77,2.3-7.54,3.35-11.18s1.95-6.95,2.74-10l.19-.75h.78a86,86,0,0,0,10.28-.59c3.23-.39,6.8-.77,10.63-1.1l1.25-.11-.17,1.24c-.2,1.46-.42,3.11-.65,4.94s-.5,3.76-.8,5.77-.62,4.07-.95,6.21-.73,4.79-1.2,8.18c-.35,2.49-.8,5.46-1.33,8.85q2.11-5.52,3.6-9.49l3.1-8.25c.81-2.16,1.64-4.28,2.46-6.28s1.64-4,2.4-5.8,1.5-3.48,2.17-4.9l.25-.52.58,0c1.62-.13,3.18-.3,4.64-.5s2.92-.41,4.38-.64l4.45-.7c1.51-.24,3.17-.52,4.92-.85l1.42-.26L288.1,7c-.66,3.81-1.29,7.81-1.89,11.88S285.07,27,284.61,31s-.92,8-1.35,11.94-.81,7.64-1.15,11.19c-.8,8.24-1.5,16.37-2.1,24.18l-.05.77-19.34,3.45v-1.2c0-.36.05-1.27.15-2.76s.23-3.28.4-5.41.4-4.52.7-7.14l.9-7.8c.3-2.57.61-5.05.93-7.39l-1,2.9q-1.71,4.65-3.45,9.45t-3.45,9.4c-1.13,3-2.13,6-3,8.75l-.21.68-.71,0c-2.33.07-4.34.15-6,.25l-7,.42,3-34.33c-.06.25-.13.5-.2.77-.53,2-1.15,4.37-1.85,7s-1.45,5.38-2.25,8.22-1.55,5.47-2.25,7.9-1.29,4.44-1.76,6-.74,2.47-.8,2.67l-.21.65L213.9,82.82Z" transform="translate(-5.05 -4.33)"/><path class="cls-3" d="M287.12,6.82q-1,5.81-1.9,11.9t-1.6,12.15q-.71,6.06-1.35,12T281.12,54q-1.2,12.4-2.1,24.2l-17.4,3.1q0-.5.15-2.7c.1-1.46.23-3.26.4-5.4s.4-4.5.7-7.1l.9-7.8c.3-2.6.61-5.11,1-7.55s.66-4.51,1-6.25h-.9q-1.41,4.2-3.1,8.85t-3.45,9.45q-1.75,4.8-3.45,9.4t-3,8.8q-3.51.11-6,.25l-5.8.35,3.2-37.1h-1.5c-.14.87-.47,2.32-1,4.35s-1.15,4.37-1.85,7-1.45,5.37-2.25,8.2-1.55,5.47-2.25,7.9-1.29,4.44-1.75,6-.74,2.45-.8,2.65l-16.5,1.1q4.4-13.29,8.4-26.1,1.69-5.4,3.5-11.3t3.6-11.7q1.8-5.79,3.35-11.2t2.75-10a85.78,85.78,0,0,0,10.4-.6c3.26-.4,6.8-.76,10.6-1.1-.2,1.47-.42,3.12-.65,4.95s-.5,3.75-.8,5.75-.62,4.07-1,6.2-.74,4.87-1.2,8.2-1.1,7.5-1.9,12.5h1.3q2.9-7.59,4.8-12.65c1.26-3.36,2.3-6.11,3.1-8.25s1.61-4.21,2.45-6.25,1.63-4,2.4-5.8,1.48-3.45,2.15-4.85c1.66-.13,3.23-.3,4.7-.5s2.93-.41,4.4-.65l4.45-.7c1.5-.23,3.15-.51,4.95-.85m2.46-2.49-2.83.53c-1.75.32-3.39.6-4.89.84l-4.46.7c-1.4.22-2.87.44-4.35.64s-3,.36-4.59.49l-1.15.09-.5,1c-.68,1.44-1.42,3.1-2.19,4.94s-1.57,3.78-2.4,5.82-1.66,4.13-2.48,6.3-1.76,4.7-3,7.91l-.13.34c-.09.26-.19.53-.3.8.46-3.23.83-5.79,1.15-7.84s.65-4.21.95-6.21.57-3.9.81-5.79.45-3.47.65-4.94l.34-2.48-2.5.22c-3.84.34-7.42.71-10.67,1.11a83.72,83.72,0,0,1-10.15.58h-1.55l-.39,1.5c-.79,3-1.71,6.37-2.74,10s-2.16,7.4-3.33,11.16-2.41,7.77-3.61,11.71c-1.15,3.78-2.33,7.58-3.49,11.28-2.68,8.57-5.5,17.34-8.39,26.08l-.94,2.82,3-.2,16.5-1.1,1.35-.09.42-1.28c.11-.35.61-2,.81-2.71q.71-2.36,1.76-6t2.25-7.91q.71-2.49,1.36-4.88L238,81.45l-.19,2.31,2.31-.14,1.44-.09,4.36-.26c1.62-.1,3.62-.18,5.93-.25l1.43,0,.43-1.37c.85-2.74,1.84-5.67,3-8.69s2.29-6.21,3.46-9.41q.74-2,1.47-4l-.7,6.11,0,.32c-.3,2.64-.54,5.06-.71,7.18s-.3,4-.4,5.42c-.14,2-.15,2.59-.15,2.83v2.39l2.35-.42,17.4-3.1,1.52-.27.12-1.54c.6-7.81,1.3-15.93,2.1-24.16.33-3.55.72-7.31,1.14-11.18s.88-7.86,1.35-11.94,1-8,1.59-12.08,1.24-8,1.9-11.86l.49-2.83Z" transform="translate(-5.05 -4.33)"/><path class="cls-2" d="M293.27,10.39,327.12,7.5l-.45,1.43c-.46,1.42-.85,2.9-1.18,4.41-.33,1.28-.65,2.59-.95,3.95s-.54,2.56-.74,3.62l-.14.73-.74.08c-.7.07-1.66.12-2.93.15L316,22c-1.41,0-2.83.05-4.28.05h-2.92l-3.1,15.83c1.6-.1,3.11-.17,4.54-.23s3-.1,4.53-.1,2.62,0,3.31-.09l1.26-.12-.17,1.26q-.4,2.79-.75,5.48c-.24,1.82-.53,3.69-.86,5.55l-.13.74-.76.08c-.69.07-1.81.12-3.32.15l-4.53.15L304,50.9l-3,16.22,14.46-2.28-1.18,13.45-34.46,5.34Z" transform="translate(-5.05 -4.33)"/><path class="cls-3" d="M325.72,8.62c-.47,1.47-.87,3-1.21,4.5-.33,1.27-.65,2.59-.95,4s-.55,2.59-.75,3.65c-.66.07-1.61.12-2.84.15l-4,.1c-1.4,0-2.81.05-4.25.05H308l-3.5,17.9q3.11-.2,5.8-.3c1.47-.06,3-.1,4.5-.1s2.67,0,3.41-.1q-.41,2.8-.75,5.5c-.24,1.8-.52,3.64-.86,5.5-.66.07-1.75.12-3.25.15l-4.55.15c-1.73.07-3.63.14-5.7.2l-3.39,18.4L314.31,66l-1,11.4-32.3,5,13.1-71.1,31.61-2.7m2.81-2.24-3,.25-31.6,2.7-1.52.13-.27,1.5-13.1,71.1-.51,2.77,2.78-.43,32.3-5,1.55-.24.14-1.56,1-11.4.22-2.55-2.53.4-11.8,1.86,2.59-14,4.1-.15,4.52-.15c1.56,0,2.67-.08,3.4-.16l1.51-.15.26-1.48c.34-1.88.63-3.76.87-5.6s.48-3.62.74-5.47l.36-2.51-2.52.23c-.67.06-1.75.09-3.22.09s-3.07,0-4.58.11c-1,0-2.13.08-3.26.14L309.66,23h2.1c1.49,0,2.94,0,4.3-.05l4-.1c1.29,0,2.28-.08,3-.16l1.48-.15.28-1.47c.2-1,.45-2.25.74-3.59s.61-2.64.93-3.87v-.08c.32-1.47.71-2.92,1.15-4.32l.91-2.85Z" transform="translate(-5.05 -4.33)"/><path class="cls-2" d="M341.83,82.22c1.53-7.3,3-14.6,4.4-21.69.61-3,1.21-6.19,1.8-9.39s1.18-6.48,1.75-9.64,1.06-6.22,1.49-9.17c.38-2.56.71-4.94,1-7.13-.78-.07-1.56-.1-2.35-.1l-1.12,0-.64,0a14.76,14.76,0,0,1-4.35-.66l-.75-.23,0-.79c.07-1.05.1-2.27.1-3.64s0-2.85.1-4.24.14-3.16.2-4.9l0-1,1,.08c1.71.13,3.45.23,5.16.29s3.44.1,5.16.1c3.38,0,6.68-.08,9.8-.25s6.1-.36,8.77-.59,5.34-.52,7.91-.85l1.38-.18L381.39,15c-.33,1.51-.64,3.08-.94,4.69s-.59,3-.86,4.14l-.14.58-.57.16a30.7,30.7,0,0,1-4.61.88c-1.24.14-2.49.31-3.71.52q-.65,3.14-1.36,6.87c-.53,2.69-1.05,5.58-1.55,8.58s-1,6.06-1.45,9-.93,6-1.4,8.82c-1.06,6.55-2.07,13.43-3,20.46l-.09.75-20.17,3.13Z" transform="translate(-5.05 -4.33)"/><path class="cls-3" d="M381.51,9.42l-1.1,5.4c-.33,1.54-.65,3.1-1,4.7s-.58,3-.85,4.1a28.17,28.17,0,0,1-4.45.85c-1.5.17-3,.39-4.45.65q-.69,3.4-1.5,7.55t-1.55,8.6q-.75,4.45-1.45,9t-1.4,8.8q-1.59,9.9-3,20.5l-18,2.8q2.31-11,4.4-21.7.9-4.5,1.8-9.4c.6-3.26,1.19-6.48,1.75-9.65s1.07-6.23,1.5-9.2.82-5.68,1.15-8.15a26.88,26.88,0,0,0-3.48-.22l-1.17,0-.59,0a13.85,13.85,0,0,1-4.06-.62c.07-1.06.1-2.3.1-3.7s0-2.8.1-4.2.14-3.16.2-4.9c1.74.14,3.47.24,5.2.3s3.47.1,5.2.1c3.4,0,6.69-.08,9.85-.25s6.1-.36,8.8-.6,5.35-.51,7.95-.85M384,7.08l-2.77.36c-2.55.33-5.2.61-7.87.84s-5.6.43-8.73.6-6.38.24-9.75.24c-1.71,0-3.43,0-5.12-.09s-3.42-.17-5.12-.3l-2.07-.16-.09,2.08c-.06,1.73-.13,3.36-.2,4.89s-.1,2.84-.1,4.28,0,2.55-.09,3.58L342,25l1.51.46a16.07,16.07,0,0,0,4.64.7l.68,0,1.08,0c.41,0,.81,0,1.22,0-.27,1.91-.56,3.94-.87,6.05-.43,2.94-.93,6-1.49,9.14s-1.15,6.38-1.74,9.64-1.19,6.35-1.8,9.37c-1.39,7.09-2.87,14.39-4.39,21.68l-.6,2.83,2.86-.44,18-2.8,1.48-.23.2-1.48c.92-7,1.93-13.9,3-20.45.46-2.79.93-5.76,1.4-8.81s.94-6,1.44-9,1-5.87,1.55-8.56c.42-2.21.83-4.29,1.22-6.18,1-.16,2-.3,3-.41a30.26,30.26,0,0,0,4.76-.91l1.15-.31.27-1.16c.27-1.17.57-2.58.87-4.19s.61-3.16.94-4.64l1.1-5.43L384,7.08Z" transform="translate(-5.05 -4.33)"/><path class="cls-2" d="M388.11,83.72a15.15,15.15,0,0,1-6.42-1.34,14.17,14.17,0,0,1-5.05-4,18.94,18.94,0,0,1-3.33-6.65,33.32,33.32,0,0,1-1.2-9.54,54.62,54.62,0,0,1,1.43-12,86.38,86.38,0,0,1,3.84-12.44,68.91,68.91,0,0,1,6-11.77,60,60,0,0,1,7.83-9.92,37.18,37.18,0,0,1,9.25-6.93,22.4,22.4,0,0,1,10.46-2.62,14.81,14.81,0,0,1,8,2,14.22,14.22,0,0,1,4.95,5.16,23.27,23.27,0,0,1,2.46,7,41.46,41.46,0,0,1,.71,7.58,67.5,67.5,0,0,1-6.5,29.19,55.47,55.47,0,0,1-6.87,11,54.34,54.34,0,0,1-8.2,8.26,36,36,0,0,1-8.75,5.24A22.83,22.83,0,0,1,388.11,83.72Zm19.3-54.2A10.53,10.53,0,0,0,402,31a17.49,17.49,0,0,0-4.58,4,28.75,28.75,0,0,0-3.62,5.8,59.31,59.31,0,0,0-2.71,6.69,39.87,39.87,0,0,0-1.61,6.58,38.68,38.68,0,0,0-.49,5.55,6.38,6.38,0,0,0,.35,2,6.14,6.14,0,0,0,.94,1.8,5.42,5.42,0,0,0,1.49,1.31,3.16,3.16,0,0,0,1.72.5,10.64,10.64,0,0,0,7.34-2.85,24.51,24.51,0,0,0,5.57-7.3,43.27,43.27,0,0,0,3.47-9.38,38.63,38.63,0,0,0,1.22-9.07c0-.76-.05-1.6-.14-2.49a9.86,9.86,0,0,0-.54-2.35,4.17,4.17,0,0,0-1.13-1.66A2.73,2.73,0,0,0,407.41,29.52Z" transform="translate(-5.05 -4.33)"/><path class="cls-3" d="M410.91,7.52a13.81,13.81,0,0,1,7.45,1.85,13.29,13.29,0,0,1,4.6,4.8,21.76,21.76,0,0,1,2.35,6.65,39.53,39.53,0,0,1,.7,7.4A66.43,66.43,0,0,1,419.61,57a53.74,53.74,0,0,1-6.75,10.8,52.3,52.3,0,0,1-8.05,8.1,34.18,34.18,0,0,1-8.5,5.1,21.66,21.66,0,0,1-8.2,1.75,14,14,0,0,1-6-1.25,13.12,13.12,0,0,1-4.7-3.7,18.05,18.05,0,0,1-3.15-6.3,32.8,32.8,0,0,1-1.15-9.25,53.88,53.88,0,0,1,1.4-11.8,85.33,85.33,0,0,1,3.8-12.3,68.38,68.38,0,0,1,5.9-11.6,59.33,59.33,0,0,1,7.7-9.75,36.32,36.32,0,0,1,9-6.75,21.47,21.47,0,0,1,10-2.5m-17.4,58.7a11.7,11.7,0,0,0,8-3.1,25.31,25.31,0,0,0,5.8-7.6,43.55,43.55,0,0,0,3.55-9.6,39,39,0,0,0,1.25-9.3A24.61,24.61,0,0,0,412,34a10.63,10.63,0,0,0-.6-2.6,5.08,5.08,0,0,0-1.4-2.05,3.7,3.7,0,0,0-2.55-.85,11.44,11.44,0,0,0-5.9,1.6,18.46,18.46,0,0,0-4.85,4.25,30.48,30.48,0,0,0-3.75,6,61.61,61.61,0,0,0-2.75,6.8,41.94,41.94,0,0,0-1.65,6.75,39.28,39.28,0,0,0-.5,5.7,7.43,7.43,0,0,0,.4,2.3,7.22,7.22,0,0,0,1.1,2.1,6.56,6.56,0,0,0,1.75,1.55,4.14,4.14,0,0,0,2.25.65m17.4-60.7A23.44,23.44,0,0,0,400,8.25a38.34,38.34,0,0,0-9.5,7.12,60,60,0,0,0-8,10.08,70.56,70.56,0,0,0-6.08,11.94A87.23,87.23,0,0,0,372.56,50a56,56,0,0,0-1.45,12.24,34.68,34.68,0,0,0,1.24,9.83,19.78,19.78,0,0,0,3.52,7,15.14,15.14,0,0,0,5.4,4.25,16.2,16.2,0,0,0,6.84,1.43,23.84,23.84,0,0,0,9-1.89,37.15,37.15,0,0,0,9-5.39A55,55,0,0,0,414.42,69a57.22,57.22,0,0,0,7-11.19,70.1,70.1,0,0,0,4.79-13.7A67.88,67.88,0,0,0,428,28.22a41.86,41.86,0,0,0-.73-7.77,24,24,0,0,0-2.57-7.25,15.33,15.33,0,0,0-5.28-5.52,15.85,15.85,0,0,0-8.52-2.16Zm-17.4,58.7a2.14,2.14,0,0,1-1.19-.35,4.44,4.44,0,0,1-1.23-1.07,5.12,5.12,0,0,1-.78-1.51,5.23,5.23,0,0,1-.3-1.67,36.66,36.66,0,0,1,.48-5.4,38.82,38.82,0,0,1,1.57-6.41,57.54,57.54,0,0,1,2.66-6.57,28,28,0,0,1,3.5-5.61,16.5,16.5,0,0,1,4.31-3.79,9.41,9.41,0,0,1,4.88-1.32,1.6,1.6,0,0,1,1.22.35,3.15,3.15,0,0,1,.86,1.26,8.37,8.37,0,0,1,.48,2.11,20.66,20.66,0,0,1,.14,2.38,37.65,37.65,0,0,1-1.19,8.83,41.78,41.78,0,0,1-3.39,9.16,23.65,23.65,0,0,1-5.34,7,9.75,9.75,0,0,1-6.68,2.59Z" transform="translate(-5.05 -4.33)"/><path class="cls-2" d="M28.62,201.41c2.89-8.73,5.72-17.51,8.4-26.08q1.69-5.4,3.49-11.3t3.61-11.7c1.17-3.77,2.29-7.53,3.34-11.18s1.95-7,2.74-10l.2-.75h.77a85.74,85.74,0,0,0,10.28-.59c3.22-.39,6.8-.76,10.63-1.1l1.25-.11-.17,1.24c-.2,1.46-.41,3.11-.65,4.94s-.5,3.76-.8,5.77-.62,4.07-.95,6.21-.74,4.87-1.2,8.18c-.35,2.49-.79,5.46-1.32,8.85q2.1-5.52,3.6-9.49l3.09-8.25c.81-2.15,1.64-4.26,2.47-6.28s1.63-4,2.4-5.8,1.49-3.48,2.17-4.9l.25-.52.57,0c1.64-.13,3.2-.3,4.65-.5s2.91-.41,4.37-.64l4.46-.7c1.48-.23,3.14-.52,4.92-.85l1.41-.26-.24,1.41c-.66,3.83-1.3,7.82-1.9,11.88S99.32,147,98.86,151s-.91,8-1.34,11.94-.82,7.64-1.15,11.19c-.8,8.23-1.51,16.37-2.1,24.18l-.06.77-19.34,3.45v-1.2c0-.22,0-.76.15-2.76.1-1.47.24-3.28.4-5.41s.4-4.51.71-7.14l.9-7.8c.29-2.57.61-5.06.93-7.39-.34,1-.69,1.92-1,2.9l-3.45,9.45q-1.75,4.8-3.45,9.4c-1.12,3-2.13,6-3,8.75l-.21.68-.72,0c-2.39.07-4.34.15-6,.25l-7,.42,3-34.33c-.07.25-.13.5-.2.77-.54,2-1.15,4.37-1.85,7s-1.45,5.38-2.26,8.22-1.55,5.47-2.25,7.9-1.28,4.44-1.75,6-.74,2.47-.81,2.67l-.21.65-18.66,1.24Z" transform="translate(-5.05 -4.33)"/><path class="cls-3" d="M101.37,126.82q-1,5.81-1.9,11.9t-1.6,12.15q-.7,6.06-1.35,11.95T95.37,174q-1.2,12.4-2.1,24.2l-17.4,3.1q0-.49.15-2.7c.1-1.46.23-3.26.4-5.4s.4-4.5.7-7.1l.9-7.8c.3-2.6.62-5.11,1-7.55s.67-4.51,1-6.25h-.9c-.93,2.8-2,5.75-3.1,8.85l-3.45,9.45q-1.76,4.8-3.45,9.4t-3,8.8q-3.49.1-6,.25l-5.8.35,3.2-37.1H56c-.13.87-.47,2.32-1,4.35s-1.15,4.37-1.85,7-1.45,5.37-2.25,8.2-1.55,5.47-2.25,7.9-1.28,4.44-1.75,6-.73,2.45-.8,2.65l-16.5,1.1Q34,188.43,38,175.62q1.7-5.4,3.5-11.3t3.6-11.7q1.8-5.79,3.35-11.2t2.75-10a85.66,85.66,0,0,0,10.4-.6c3.27-.4,6.8-.76,10.6-1.1-.2,1.47-.42,3.12-.65,4.95s-.5,3.75-.8,5.75-.62,4.07-1,6.2-.73,4.87-1.2,8.2-1.1,7.5-1.9,12.5H68q2.9-7.59,4.8-12.65t3.1-8.25q1.2-3.19,2.45-6.25t2.4-5.8c.77-1.83,1.48-3.45,2.15-4.85,1.67-.13,3.23-.3,4.7-.5s2.93-.41,4.4-.65l4.45-.7c1.5-.23,3.15-.51,5-.85m2.46-2.49-2.82.53c-1.78.33-3.42.61-4.9.84l-4.45.7c-1.41.22-2.87.44-4.36.64s-3,.36-4.59.49l-1.15.09-.49,1c-.69,1.43-1.42,3.09-2.19,4.94s-1.57,3.78-2.41,5.82-1.66,4.14-2.47,6.3-1.84,4.89-3.1,8.25l-.3.8c.44-3.16.83-5.8,1.15-7.84s.65-4.21,1-6.21.56-3.91.81-5.79.44-3.47.64-4.94l.34-2.48-2.49.22c-3.85.34-7.44.71-10.67,1.11a83.77,83.77,0,0,1-10.16.58H49.63l-.39,1.5c-.79,3-1.71,6.37-2.74,10s-2.17,7.4-3.34,11.16-2.4,7.77-3.6,11.71-2.34,7.59-3.5,11.28c-2.68,8.58-5.5,17.35-8.39,26.08l-.93,2.82,3-.2,16.5-1.1,1.35-.09.42-1.28c.11-.35.61-2,.82-2.7.47-1.58,1.05-3.58,1.75-6s1.45-5.08,2.26-7.91c.46-1.66.92-3.29,1.35-4.88l-1.87,21.71-.2,2.31,2.31-.14,1.57-.09,4.23-.26c1.62-.1,3.56-.18,5.94-.25l1.43,0,.42-1.36c.85-2.76,1.85-5.69,3-8.7s2.28-6.21,3.45-9.41l1.48-4-.3,2.53-.45,3.9c-.3,2.65-.54,5.06-.7,7.18s-.3,4-.4,5.42c-.14,2-.16,2.57-.16,2.83v2.39l2.35-.42,17.4-3.1,1.53-.27.12-1.54c.59-7.81,1.3-15.93,2.09-24.16.34-3.55.72-7.31,1.15-11.18s.88-7.87,1.35-11.94,1-8,1.59-12.08,1.23-8,1.89-11.86l.49-2.83Z" transform="translate(-5.05 -4.33)"/><path class="cls-2" d="M105.77,180.61c0-2.82,0-5.91-.15-9.21s-.25-6.74-.45-10.12-.4-6.68-.6-9.84-.37-6-.5-8.41-.33-5.1-.6-8l-.06-.75,18.36-7V146c0,1.75,0,3.45,0,5.12,0,1,0,2,0,2.88l1.2-3.24c1.23-3.32,2.39-6.58,3.44-9.68,1.26-3.64,2.57-7.54,3.9-11.59l.28-.86,17.64,4-.58,1.14c-2.85,5.71-5.67,11.45-8.39,17.09-1.12,2.44-2.34,5-3.6,7.65l-3.8,7.9q-1.91,3.94-3.7,7.65t-3.24,6.78c-.34,1.72-.75,3.62-1.24,5.62s-1,4-1.45,5.91c-.6,2.19-1.24,4.42-1.91,6.64l-.19.63L100.88,202Z" transform="translate(-5.05 -4.33)"/><path class="cls-3" d="M120.77,128.72V146c0,1.74,0,3.44,0,5.1s0,3.24,0,4.7v3.7q1.31-3.39,3.15-8.4t3.45-9.7q1.9-5.49,3.9-11.6l15.5,3.5q-4.3,8.61-8.4,17.1-1.7,3.71-3.6,7.65c-1.27,2.64-2.53,5.27-3.8,7.9s-2.5,5.19-3.7,7.65-2.3,4.77-3.3,6.9q-.5,2.61-1.25,5.7t-1.45,5.9q-.9,3.3-1.9,6.6l-17.1,2.1,4.6-20.1q0-4.29-.15-9.35c-.1-3.36-.25-6.75-.45-10.15s-.4-6.68-.6-9.85-.37-6-.5-8.4-.33-5.11-.6-8.05l16.3-6.2m2-2.9-2.71,1-16.3,6.19-1.42.54.14,1.51c.26,2.91.46,5.59.59,8s.3,5.23.5,8.42.4,6.44.6,9.84.35,6.76.45,10.09.15,6.29.15,9.07l-4.55,19.88-.64,2.78,2.83-.35,17.1-2.1,1.3-.16.37-1.25c.68-2.23,1.32-4.47,1.92-6.65.48-1.91,1-3.88,1.46-6s.89-3.83,1.23-5.54c1-2.05,2-4.28,3.18-6.65s2.43-5,3.7-7.66l2.88-6,.92-1.92c1.27-2.63,2.48-5.21,3.62-7.68,2.7-5.6,5.52-11.34,8.37-17l1.14-2.28-2.49-.57-15.5-3.5-1.77-.4-.57,1.73c-1.33,4-2.64,7.94-3.89,11.57-.82,2.4-1.7,4.89-2.62,7.43,0-.72,0-1.45,0-2.18v-20.2Z" transform="translate(-5.05 -4.33)"/><path class="cls-2" d="M159.17,203.72a38.69,38.69,0,0,1-7.09-.61l-1.06-.2.28-1a332.63,332.63,0,0,0,7.63-35.14C160.81,155,162.64,143,164.38,131l.1-.69.68-.14c3.48-.74,7.13-1.4,10.86-2a77.53,77.53,0,0,1,11.75-.87,26.1,26.1,0,0,1,5.51.63,15,15,0,0,1,5.46,2.35,14.62,14.62,0,0,1,4.14,4.51,13.81,13.81,0,0,1,1.69,7.11,20.87,20.87,0,0,1-1.32,7.46,27.06,27.06,0,0,1-3.32,6.23,23.58,23.58,0,0,1-4.65,4.85,21.59,21.59,0,0,1-3.63,2.33c.43.33.86.7,1.3,1.1a19.42,19.42,0,0,1,2.74,3.22,16,16,0,0,1,2.08,4.42,19,19,0,0,1,.8,5.69,18.29,18.29,0,0,1-1.8,8,24.08,24.08,0,0,1-4.8,6.63,32.77,32.77,0,0,1-7,5.16,50.71,50.71,0,0,1-8.27,3.67,56.91,56.91,0,0,1-8.86,2.24A52.27,52.27,0,0,1,159.17,203.72Zm16.36-36q-.33,2-.63,3.54c-.23,1.23-.45,2.41-.65,3.54s-.42,2.32-.65,3.56c-.17.89-.35,1.89-.53,3,.89-.14,1.86-.31,2.89-.52a19.66,19.66,0,0,0,4.38-1.48,10.12,10.12,0,0,0,3.37-2.55,5.26,5.26,0,0,0,1.26-3.6,3.68,3.68,0,0,0-.74-2.38,7,7,0,0,0-2.1-1.74,10.39,10.39,0,0,0-2.86-1,15,15,0,0,0-3-.33Zm4.17-22.33c-.16,1-.35,2.06-.55,3.16s-.42,2.21-.66,3.29c-.1.46-.19.89-.27,1.31.95-.22,1.9-.48,2.84-.78a27.68,27.68,0,0,0,3.82-1.5,9.87,9.87,0,0,0,2.55-1.67,2,2,0,0,0,.74-1.48,2.45,2.45,0,0,0-.63-1.76,5.66,5.66,0,0,0-2-1.31,12.79,12.79,0,0,0-2.78-.79,16.59,16.59,0,0,0-2.59-.24H180Z" transform="translate(-5.05 -4.33)"/><path class="cls-3" d="M187.77,128.32a25.41,25.41,0,0,1,5.3.6,14.17,14.17,0,0,1,5.1,2.2,13.55,13.55,0,0,1,3.85,4.2,12.79,12.79,0,0,1,1.55,6.6,19.92,19.92,0,0,1-1.25,7.1,26,26,0,0,1-3.2,6,22.9,22.9,0,0,1-4.45,4.65,19.9,19.9,0,0,1-5.1,3,14.15,14.15,0,0,1,2.7,2,18.69,18.69,0,0,1,2.6,3,15.48,15.48,0,0,1,1.95,4.15,18.07,18.07,0,0,1,.75,5.4,17.18,17.18,0,0,1-1.7,7.6,23,23,0,0,1-4.6,6.35,31.63,31.63,0,0,1-6.75,5,48.22,48.22,0,0,1-8.1,3.6,55.43,55.43,0,0,1-8.7,2.2,51.52,51.52,0,0,1-8.55.75,37.4,37.4,0,0,1-6.9-.6,331.66,331.66,0,0,0,7.65-35.25q2.85-17.75,5.45-35.75,5.19-1.1,10.8-2a78.08,78.08,0,0,1,11.6-.85M177,154.42a34.1,34.1,0,0,0,4.4-1.1,28.8,28.8,0,0,0,3.95-1.55,10.88,10.88,0,0,0,2.8-1.85,3,3,0,0,0,1-2.2,3.43,3.43,0,0,0-.9-2.45,6.83,6.83,0,0,0-2.35-1.55,13.68,13.68,0,0,0-3-.85,18.41,18.41,0,0,0-2.75-.25h-1c-.14.74-.29,1.6-.45,2.6s-.35,2.05-.55,3.15-.42,2.19-.65,3.25-.42,2-.55,2.8m-5.1,28.1a41.31,41.31,0,0,0,4.3-.7,20.1,20.1,0,0,0,4.6-1.55,11.12,11.12,0,0,0,3.7-2.8,6.29,6.29,0,0,0,1.5-4.25,4.7,4.7,0,0,0-.95-3,8.11,8.11,0,0,0-2.4-2,11.51,11.51,0,0,0-3.15-1.15,16.2,16.2,0,0,0-3.2-.35h-.85a3.37,3.37,0,0,0-.75.1c-.27,1.6-.52,3-.75,4.25s-.45,2.42-.65,3.55-.42,2.32-.65,3.55-.49,2.69-.75,4.35m15.9-56.2a79.52,79.52,0,0,0-11.9.88c-3.75.57-7.42,1.23-10.92,2l-1.36.29-.2,1.38c-1.74,12-3.57,24-5.45,35.72a332.49,332.49,0,0,1-7.6,35l-.58,2.1,2.14.4a39.69,39.69,0,0,0,7.27.63,54.31,54.31,0,0,0,8.88-.77,58.85,58.85,0,0,0,9-2.28,50.64,50.64,0,0,0,8.43-3.75,33.3,33.3,0,0,0,7.18-5.32,24.93,24.93,0,0,0,5-6.9,19.27,19.27,0,0,0,1.9-8.48,20,20,0,0,0-.84-6,17.69,17.69,0,0,0-2.21-4.69,20.05,20.05,0,0,0-2.89-3.38l-.22-.2a24,24,0,0,0,2.49-1.71,24.73,24.73,0,0,0,4.84-5.05,28.56,28.56,0,0,0,3.45-6.47,22.08,22.08,0,0,0,1.38-7.81,14.8,14.8,0,0,0-1.83-7.62,15.57,15.57,0,0,0-4.43-4.82,16.09,16.09,0,0,0-5.82-2.51,27.35,27.35,0,0,0-5.72-.65Zm-8.24,25.47c.22-1,.42-2,.61-3.06s.38-2.17.55-3.18q.08-.47.15-.9c.53,0,1.12.1,1.76.2a11.25,11.25,0,0,1,2.55.72,4.83,4.83,0,0,1,1.67,1.08,1.42,1.42,0,0,1,.35,1.07c0,.1,0,.35-.43.75a8.9,8.9,0,0,1-2.29,1.5,27.58,27.58,0,0,1-3.69,1.45l-1.23.37Zm-5.24,28.36c.1-.57.2-1.11.29-1.6.24-1.25.46-2.44.66-3.58s.41-2.3.64-3.52c.16-.82.32-1.73.49-2.72a14.11,14.11,0,0,1,2.7.3,9.14,9.14,0,0,1,2.58.95,5.64,5.64,0,0,1,1.8,1.49,2.7,2.7,0,0,1,.52,1.75,4.31,4.31,0,0,1-1,2.95,9.23,9.23,0,0,1-3,2.3,18.28,18.28,0,0,1-4.15,1.4l-1.47.28Z" transform="translate(-5.05 -4.33)"/><path class="cls-2" d="M211.67,205.12a16.7,16.7,0,0,1-5-.79,14.36,14.36,0,0,1-4.62-2.42,13.1,13.1,0,0,1-3.41-4.11,12.16,12.16,0,0,1-1.37-5.88v-.8a4.49,4.49,0,0,1,.11-1c.26-2.72.7-6,1.3-9.89s1.23-7.9,1.9-12.1,1.4-8.42,2.2-12.68,1.52-8.08,2.15-11.55,1.19-6.38,1.66-8.66.77-3.74.91-4.3l.17-.68.7-.07c1.4-.13,3.06-.3,5-.5s3.75-.37,5.43-.5l6.08-.6,1.36-.14-.29,1.34c-1.71,8-3.26,15.36-4.59,21.89-.6,2.81-1.19,5.61-1.75,8.4s-1.1,5.38-1.6,7.71l-1.31,6c-.36,1.71-.66,3.09-.9,4.16s-.48,2.35-.79,4a23.81,23.81,0,0,0-.43,4.27,3.28,3.28,0,0,0,.59,2.05,1.44,1.44,0,0,0,1.21.65,2.44,2.44,0,0,0,2-1,11.07,11.07,0,0,0,1.7-3,19.45,19.45,0,0,0,1-3.66c.24-1.32.46-2.37.67-3.14.39-1.87.84-4,1.34-6.39s1-4.83,1.5-7.39,1-5.18,1.5-7.84,1-5.26,1.44-7.8c1.13-5.85,2.24-12,3.3-18.18l.13-.78,17.28-1.14-.24,1.27c-.67,3.47-1.27,6.63-1.8,9.5s-1.12,6.12-1.75,9.78-1.36,7.55-2.15,11.48-1.59,7.87-2.35,11.7-1.53,7.38-2.26,10.58a33.32,33.32,0,0,1-4.08,10,26,26,0,0,1-6.24,6.86,24.76,24.76,0,0,1-7.66,4A27.65,27.65,0,0,1,211.67,205.12Z" transform="translate(-5.05 -4.33)"/><path class="cls-3" d="M225,129.62q-2.61,12.1-4.6,21.9c-.6,2.8-1.19,5.6-1.75,8.4s-1.1,5.37-1.6,7.7-.94,4.35-1.3,6l-.9,4.15c-.24,1.07-.5,2.42-.8,4.05a24.92,24.92,0,0,0-.45,4.45,4.2,4.2,0,0,0,.8,2.65,2.42,2.42,0,0,0,2,1.05,3.47,3.47,0,0,0,2.8-1.35,12.22,12.22,0,0,0,1.85-3.25,20.53,20.53,0,0,0,1.1-3.85c.23-1.3.45-2.31.65-3q.6-2.9,1.35-6.45t1.5-7.4q.75-3.84,1.5-7.85t1.45-7.8q1.69-8.79,3.3-18.2l15.2-1q-1,5.2-1.8,9.5t-1.75,9.8q-1,5.5-2.15,11.45T239,172.27q-1.16,5.76-2.25,10.55a32.36,32.36,0,0,1-4,9.7,24.83,24.83,0,0,1-6,6.6,23.64,23.64,0,0,1-7.35,3.8,26.4,26.4,0,0,1-7.8,1.2,15.67,15.67,0,0,1-4.7-.75,13.18,13.18,0,0,1-4.3-2.25,12,12,0,0,1-3.15-3.8,11,11,0,0,1-1.25-5.4v-.8a3.19,3.19,0,0,1,.1-.8c.26-2.73.7-6,1.3-9.9s1.23-7.9,1.9-12.1,1.4-8.41,2.2-12.65,1.51-8.08,2.15-11.55,1.18-6.35,1.65-8.65.76-3.71.9-4.25c1.4-.13,3.06-.3,5-.5s3.73-.36,5.4-.5l6.1-.6m2.53-2.26-2.73.27-6.1.6c-1.66.14-3.5.31-5.41.51l-5,.49-1.41.14-.34,1.37c-.15.57-.45,2-.92,4.34s-1,5.21-1.66,8.68-1.38,7.46-2.15,11.54c-.8,4.27-1.55,8.55-2.21,12.71s-1.3,8.24-1.9,12.11-1,7.16-1.3,9.88a5.33,5.33,0,0,0-.12,1.12v.8a13.16,13.16,0,0,0,1.49,6.36,14.15,14.15,0,0,0,3.67,4.41,15.16,15.16,0,0,0,4.94,2.59,17.75,17.75,0,0,0,5.3.84,28.68,28.68,0,0,0,8.39-1.28,25.83,25.83,0,0,0,8-4.12,27,27,0,0,0,6.48-7.12,34.22,34.22,0,0,0,4.21-10.3c.74-3.24,1.5-6.81,2.27-10.63s1.55-7.73,2.35-11.7,1.52-7.81,2.16-11.51,1.22-7,1.74-9.77,1.13-6,1.8-9.49l.49-2.54-2.58.17-15.2,1-1.58.1-.26,1.56c-1.06,6.21-2.17,12.31-3.3,18.16q-.71,3.81-1.45,7.81t-1.5,7.83c-.49,2.56-1,5-1.49,7.37l-1.34,6.4c-.21.79-.44,1.85-.67,3.16a18.74,18.74,0,0,1-1,3.47,10.24,10.24,0,0,1-1.54,2.72,1.46,1.46,0,0,1-1.25.61c-.11,0-.21,0-.41-.26a2.25,2.25,0,0,1-.39-1.44,23.45,23.45,0,0,1,.41-4.08c.31-1.66.56-3,.79-4l.9-4.15.2-.94q.48-2.24,1.1-5.12c.5-2.31,1-4.83,1.61-7.72.54-2.69,1.13-5.51,1.74-8.38,1.34-6.55,2.89-13.91,4.6-21.9l.58-2.68Z" transform="translate(-5.05 -4.33)"/><path class="cls-2" d="M243.07,203.82a28.21,28.21,0,0,1-2.91-.15c-.95-.1-1.89-.22-2.83-.36l-1.05-.14.2-1q2.7-13.8,5.31-26.9,1-5.47,2.09-11.44c.73-3.94,1.44-7.89,2.1-11.74s1.32-7.57,2-11.1,1.15-6.72,1.55-9.56l.1-.72.7-.13c2.86-.53,5.8-1,8.73-1.5a57.76,57.76,0,0,1,9.16-.72,23.3,23.3,0,0,1,9.56,1.79,17.11,17.11,0,0,1,6.47,5,20.83,20.83,0,0,1,3.63,7.35,33.22,33.22,0,0,1,1.14,8.76,45.57,45.57,0,0,1-1.54,11.3,66.72,66.72,0,0,1-4.26,11.78,63.88,63.88,0,0,1-6.76,11.18,51,51,0,0,1-9.12,9.38,45.66,45.66,0,0,1-11.2,6.49A34.66,34.66,0,0,1,243.07,203.82Zm22.12-59.38c-.69,3.65-1.41,7.18-2.15,10.5q-1.2,5.4-2.4,10.9c-.79,3.63-1.6,7.49-2.39,11.48-.66,3.27-1.29,6.81-1.9,10.56a22.67,22.67,0,0,0,2.49-2.64A42,42,0,0,0,263,179a70.13,70.13,0,0,0,3.6-7.5c1.09-2.63,2-5.22,2.82-7.72a63.7,63.7,0,0,0,1.82-7,29.32,29.32,0,0,0,.64-5.51,6.94,6.94,0,0,0-1.77-5.1A7.23,7.23,0,0,0,265.19,144.44Z" transform="translate(-5.05 -4.33)"/><path class="cls-3" d="M268.17,129.32a22.15,22.15,0,0,1,9.15,1.7,16.06,16.06,0,0,1,6.1,4.7,19.94,19.94,0,0,1,3.45,7,32.08,32.08,0,0,1,1.1,8.5,44.54,44.54,0,0,1-1.5,11.05,65.51,65.51,0,0,1-4.2,11.6,62.31,62.31,0,0,1-6.65,11,50.07,50.07,0,0,1-8.95,9.2,44.34,44.34,0,0,1-11,6.35,33.53,33.53,0,0,1-12.65,2.4,26.12,26.12,0,0,1-2.8-.15c-.94-.1-1.87-.21-2.8-.35q2.7-13.8,5.3-26.9,1-5.49,2.1-11.45t2.1-11.75q1-5.79,1.95-11.1t1.55-9.6q4.29-.79,8.7-1.5a57.94,57.94,0,0,1,9-.7M255,190.22a21.24,21.24,0,0,0,4.65-4.35,43.27,43.27,0,0,0,4.25-6.35,73.13,73.13,0,0,0,3.65-7.6q1.65-4,2.85-7.8a67.6,67.6,0,0,0,1.85-7.1,30.39,30.39,0,0,0,.65-5.7,8,8,0,0,0-2.05-5.8q-2.06-2.1-6.45-2.1-1.11,5.91-2.3,11.3t-2.4,10.9q-1.2,5.5-2.4,11.5t-2.3,13.1m13.2-62.9a59.7,59.7,0,0,0-9.32.73c-2.94.47-5.88,1-8.75,1.51l-1.42.26-.19,1.43c-.4,2.83-.92,6-1.54,9.52s-1.3,7.3-1.95,11.12-1.37,7.79-2.1,11.72-1.44,7.79-2.1,11.46c-1.67,8.4-3.45,17.45-5.3,26.87l-.4,2.07,2.08.29c1,.14,1.94.26,2.87.36a27.64,27.64,0,0,0,3,.16,35.56,35.56,0,0,0,13.39-2.54,46.7,46.7,0,0,0,11.45-6.64,51.74,51.74,0,0,0,9.3-9.56,64.59,64.59,0,0,0,6.87-11.36,67.84,67.84,0,0,0,4.32-11.95A46.62,46.62,0,0,0,290,151.22a34,34,0,0,0-1.18-9,21.78,21.78,0,0,0-3.8-7.7,18,18,0,0,0-6.85-5.29,24.26,24.26,0,0,0-10-1.88Zm-10.3,57.53c.44-2.57.89-5,1.36-7.33.79-4,1.6-7.85,2.39-11.47s1.6-7.29,2.4-10.89c.68-3.06,1.34-6.3,2-9.64a5.57,5.57,0,0,1,3.37,1.4,6,6,0,0,1,1.49,4.4,28.14,28.14,0,0,1-.62,5.32,64,64,0,0,1-1.79,6.88c-.78,2.47-1.72,5-2.79,7.64a72,72,0,0,1-3.55,7.39,42.25,42.25,0,0,1-4.05,6.06l-.2.24Z" transform="translate(-5.05 -4.33)"/><path class="cls-2" d="M287.17,203.82a28.21,28.21,0,0,1-2.91-.15c-.95-.1-1.89-.22-2.83-.36l-1.05-.14.2-1q2.7-13.8,5.31-26.9,1-5.47,2.09-11.44c.73-3.94,1.44-7.89,2.1-11.74s1.32-7.57,1.95-11.1,1.15-6.72,1.55-9.56l.1-.72.7-.13c2.86-.53,5.8-1,8.73-1.5a57.76,57.76,0,0,1,9.16-.72,23.3,23.3,0,0,1,9.56,1.79,17.11,17.11,0,0,1,6.47,5,20.83,20.83,0,0,1,3.63,7.35,33.22,33.22,0,0,1,1.14,8.76,45.57,45.57,0,0,1-1.54,11.3,66.72,66.72,0,0,1-4.26,11.78,63.88,63.88,0,0,1-6.76,11.18,51,51,0,0,1-9.12,9.38,45.66,45.66,0,0,1-11.2,6.49A34.66,34.66,0,0,1,287.17,203.82Zm22.12-59.38c-.69,3.65-1.41,7.18-2.15,10.5q-1.2,5.4-2.4,10.9c-.79,3.63-1.6,7.49-2.39,11.48-.66,3.27-1.29,6.81-1.9,10.56a22.67,22.67,0,0,0,2.49-2.64,42,42,0,0,0,4.15-6.2,72.1,72.1,0,0,0,3.6-7.5c1.09-2.63,2-5.22,2.82-7.72a63.7,63.7,0,0,0,1.82-7,29.32,29.32,0,0,0,.64-5.51,6.94,6.94,0,0,0-1.77-5.1A7.23,7.23,0,0,0,309.29,144.44Z" transform="translate(-5.05 -4.33)"/><path class="cls-3" d="M312.27,129.32a22.15,22.15,0,0,1,9.15,1.7,16.06,16.06,0,0,1,6.1,4.7,19.94,19.94,0,0,1,3.45,7,32.08,32.08,0,0,1,1.1,8.5,44.54,44.54,0,0,1-1.5,11.05,65.51,65.51,0,0,1-4.2,11.6,62.31,62.31,0,0,1-6.65,11,50.07,50.07,0,0,1-9,9.2,44.34,44.34,0,0,1-10.95,6.35,33.53,33.53,0,0,1-12.65,2.4,26.12,26.12,0,0,1-2.8-.15c-.94-.1-1.87-.21-2.8-.35q2.7-13.8,5.3-26.9,1-5.49,2.1-11.45t2.1-11.75q1-5.79,1.95-11.1t1.55-9.6q4.29-.79,8.7-1.5a57.94,57.94,0,0,1,9-.7m-13.2,60.9a21.24,21.24,0,0,0,4.65-4.35,43.27,43.27,0,0,0,4.25-6.35,73.13,73.13,0,0,0,3.65-7.6q1.65-4,2.85-7.8a67.6,67.6,0,0,0,1.85-7.1,30.39,30.39,0,0,0,.65-5.7,8,8,0,0,0-2.05-5.8q-2.06-2.1-6.45-2.1-1.11,5.91-2.3,11.3t-2.4,10.9q-1.2,5.5-2.4,11.5t-2.3,13.1m13.2-62.9a59.7,59.7,0,0,0-9.32.73c-2.94.47-5.88,1-8.75,1.51l-1.42.26-.2,1.43c-.39,2.83-.91,6-1.53,9.52s-1.3,7.3-2,11.12-1.36,7.79-2.09,11.72-1.44,7.79-2.1,11.46c-1.67,8.4-3.45,17.45-5.3,26.87l-.4,2.07,2.08.29c1,.14,1.94.26,2.87.36a27.64,27.64,0,0,0,3,.16,35.56,35.56,0,0,0,13.39-2.54A46.7,46.7,0,0,0,312,195.64a51.74,51.74,0,0,0,9.3-9.56,64.59,64.59,0,0,0,6.87-11.36,67.84,67.84,0,0,0,4.32-11.95,46.62,46.62,0,0,0,1.57-11.55,34,34,0,0,0-1.18-9,21.78,21.78,0,0,0-3.8-7.7,18,18,0,0,0-6.85-5.29,24.26,24.26,0,0,0-10-1.88ZM302,184.85c.44-2.57.89-5,1.36-7.33.79-4,1.6-7.85,2.39-11.47s1.6-7.29,2.4-10.89c.68-3.06,1.34-6.3,2-9.64a5.57,5.57,0,0,1,3.38,1.4,6,6,0,0,1,1.49,4.4,28.14,28.14,0,0,1-.62,5.32,64,64,0,0,1-1.79,6.88c-.78,2.47-1.72,5-2.79,7.64a72,72,0,0,1-3.55,7.39,42.25,42.25,0,0,1-4.05,6.06l-.2.24Z" transform="translate(-5.05 -4.33)"/><path class="cls-2" d="M336.56,180.61c0-2.81-.05-5.91-.14-9.21s-.26-6.77-.45-10.12-.4-6.68-.6-9.84-.37-6-.5-8.41-.34-5.11-.6-8l-.07-.75,18.36-7V146c0,1.75,0,3.45-.05,5.12,0,1,0,2,0,2.88.38-1,.78-2.1,1.21-3.24,1.22-3.3,2.38-6.56,3.44-9.68,1.25-3.61,2.56-7.51,3.89-11.59l.29-.86,17.63,4-.57,1.14c-2.84,5.68-5.66,11.43-8.39,17.09-1.12,2.42-2.33,5-3.6,7.65l-3.8,7.9q-1.9,3.94-3.71,7.65t-3.24,6.78c-.33,1.73-.75,3.63-1.23,5.62s-1,4-1.46,5.91c-.6,2.21-1.24,4.43-1.91,6.64l-.19.63L331.67,202Z" transform="translate(-5.05 -4.33)"/><path class="cls-3" d="M351.56,128.72V146c0,1.74,0,3.44-.05,5.1s0,3.24,0,4.7v3.7q1.29-3.39,3.14-8.4t3.45-9.7q1.9-5.49,3.91-11.6l15.5,3.5q-4.31,8.61-8.41,17.1-1.69,3.71-3.59,7.65t-3.8,7.9q-1.91,4-3.7,7.65c-1.21,2.47-2.3,4.77-3.3,6.9-.34,1.74-.75,3.64-1.25,5.7s-1,4-1.45,5.9c-.61,2.2-1.24,4.4-1.91,6.6L333,200.82l4.59-20.1q0-4.29-.14-9.35c-.11-3.36-.25-6.75-.45-10.15s-.41-6.68-.6-9.85-.37-6-.5-8.4-.34-5.11-.61-8.05l16.3-6.2m2-2.9-2.71,1-16.3,6.19-1.41.54.13,1.51c.27,2.9.47,5.59.6,8s.3,5.22.5,8.41.4,6.44.6,9.84.35,6.74.45,10.09.14,6.3.14,9.07L331,200.38l-.64,2.78,2.83-.35,17.1-2.1,1.29-.16.38-1.25c.67-2.21,1.31-4.45,1.91-6.65.48-1.91,1-3.88,1.47-6s.88-3.82,1.22-5.54c1-2.06,2-4.3,3.18-6.65s2.44-5,3.71-7.66l3.8-7.9c1.27-2.65,2.49-5.24,3.61-7.68,2.72-5.62,5.54-11.37,8.37-17l1.15-2.28-2.49-.57-15.5-3.5-1.78-.4-.57,1.73c-1.33,4.07-2.64,8-3.89,11.57-.82,2.42-1.7,4.91-2.61,7.43V125.82Z" transform="translate(-5.05 -4.33)"/><path class="cls-2" d="M372.06,205.62a9.88,9.88,0,0,1-4.22-.89,8.46,8.46,0,0,1-3.12-2.44,12,12,0,0,1-1.8-3.33,11.13,11.13,0,0,1-.66-3.74,12.07,12.07,0,0,1,.66-4,9.66,9.66,0,0,1,2.06-3.46,11.39,11.39,0,0,1,3.4-2.46,11,11,0,0,1,4.88-1c4.11,0,7.27,1,9.39,3a9.41,9.41,0,0,1,3.21,7,10.27,10.27,0,0,1-.93,4.21,11.14,11.14,0,0,1-2.69,3.69,13,13,0,0,1-4.34,2.5A17.64,17.64,0,0,1,372.06,205.62ZM371.29,179c2.06-8.14,4.09-16.38,6-24.49s4-16.32,6.16-24.52l.16-.63.65-.1c1.27-.2,2.74-.41,4.38-.61s3.29-.43,4.91-.69,3.36-.51,4.89-.71,2.85-.39,3.89-.59l1.84-.34-.74,1.72c-3.58,8.35-6.88,16.85-9.82,25.28s-6,17.13-8.85,25.65l-.23.67h-.72c-1.89,0-3.82.07-5.73.2l-7.17.5Z" transform="translate(-5.05 -4.33)"/><path class="cls-3" d="M402.56,127.62q-5.4,12.6-9.85,25.35t-8.85,25.65q-2.89,0-5.8.2l-5.8.4q3.11-12.3,6.05-24.5t6.15-24.5q1.91-.3,4.35-.6c1.64-.2,3.29-.43,4.95-.7s3.29-.5,4.85-.7,2.89-.4,3.95-.6m-29.3,57.7q5.81,0,8.7,2.75a8.41,8.41,0,0,1,2.9,6.25,9.15,9.15,0,0,1-.85,3.8,9.77,9.77,0,0,1-2.45,3.35,11.46,11.46,0,0,1-4,2.3,16.33,16.33,0,0,1-5.5.85,8.74,8.74,0,0,1-3.8-.8,7.4,7.4,0,0,1-2.75-2.15,10.67,10.67,0,0,1-1.65-3,10.12,10.12,0,0,1-.6-3.4,11.22,11.22,0,0,1,.6-3.65,8.74,8.74,0,0,1,1.85-3.1,10.45,10.45,0,0,1,3.1-2.25,10.12,10.12,0,0,1,4.45-.9M405.88,125l-3.68.69c-1,.19-2.32.39-3.84.58s-3.19.43-4.91.71-3.25.49-4.88.69-3.14.41-4.42.61l-1.29.2-.33,1.27c-2.14,8.21-4.21,16.46-6.16,24.53s-4,16.35-6.05,24.49l-.67,2.67,2.75-.19,5.8-.4c1.89-.13,3.79-.2,5.66-.2h1.43l.47-1.35c2.9-8.51,5.88-17.14,8.84-25.64s6.23-16.89,9.8-25.22l1.48-3.44Zm-32.62,58.35a11.88,11.88,0,0,0-9,3.8,10.56,10.56,0,0,0-2.28,3.81,13.18,13.18,0,0,0-.71,4.29,12,12,0,0,0,.72,4.07,12.58,12.58,0,0,0,1.95,3.61,9.36,9.36,0,0,0,3.48,2.73,10.8,10.8,0,0,0,4.65,1,18.54,18.54,0,0,0,6.17-1,13.69,13.69,0,0,0,4.67-2.7,11.9,11.9,0,0,0,2.94-4,11.25,11.25,0,0,0,1-4.62,10.37,10.37,0,0,0-3.52-7.7c-2.31-2.19-5.7-3.3-10.08-3.3Z" transform="translate(-5.05 -4.33)"/></svg>