<svg id="Layer_1" data-name="Layer 1" xmlns="http://www.w3.org/2000/svg" viewBox="0 0 134.93 43.85"><defs><style>.cls-1{fill:#f87474;stroke:#f87474;stroke-miterlimit:10;stroke-width:2px;}.cls-2{fill:#fff;}</style></defs><path class="cls-1" d="M25.78,35.79a12.55,12.55,0,0,1-2.9,3.92,13,13,0,0,1-4.3,2.55,15.49,15.49,0,0,1-5.33.9,8.48,8.48,0,0,1-4-1.07A12.71,12.71,0,0,1,5.4,38.66l3.7-7.25a6,6,0,0,0,1.05,1.33,7.71,7.71,0,0,0,1.58,1.17,12.08,12.08,0,0,0,1.75.83,4.72,4.72,0,0,0,1.57.32,4.34,4.34,0,0,0,1.25-.2,3.86,3.86,0,0,0,1.2-.6,3.33,3.33,0,0,0,.88-.92,2.35,2.35,0,0,0,.32-1.23,3.63,3.63,0,0,0-.77-2.22A10.76,10.76,0,0,0,16,27.94c-.76-.62-1.6-1.25-2.5-1.88a22.65,22.65,0,0,1-2.47-2A11.14,11.14,0,0,1,9.1,21.71a5.45,5.45,0,0,1-.8-2.9A8.42,8.42,0,0,1,9.85,14a15.19,15.19,0,0,1,3.88-3.87A20.19,20.19,0,0,1,18.8,7.51a16,16,0,0,1,5.2-1,9.58,9.58,0,0,1,2.55.33A5.21,5.21,0,0,1,30,9.76a6.37,6.37,0,0,1,.52,2.75,8.27,8.27,0,0,1-.12,1.4c-.09.47-.16,1-.23,1.5L23,17.51c.07-.27.13-.53.18-.8a4.33,4.33,0,0,0,.07-.8,3.55,3.55,0,0,0-.52-2.17,1.67,1.67,0,0,0-1.38-.68,2.2,2.2,0,0,0-1,.3,6.15,6.15,0,0,0-1.15.78,4.39,4.39,0,0,0-1,1.12,2.68,2.68,0,0,0-.4,1.4,3,3,0,0,0,.68,2,9.1,9.1,0,0,0,1.67,1.5c.67.47,1.39.94,2.18,1.43a9.23,9.23,0,0,1,2.17,1.87,9.76,9.76,0,0,1,1.68,2.88,12.09,12.09,0,0,1,.67,4.37A11.85,11.85,0,0,1,25.78,35.79Z" transform="translate(-1.57 -0.63)"/><path class="cls-1" d="M26.6,43.11,33.15,7.56,49,6.21q-.35,1.1-.6,2.25c-.17.63-.32,1.29-.47,2s-.28,1.29-.38,1.82c-.33,0-.81.06-1.42.08l-2,.05-2.12,0H40.1l-1.75,9c1-.07,2-.12,2.9-.15.73,0,1.48-.05,2.25-.05s1.33,0,1.7-.05c-.13.93-.26,1.85-.37,2.75s-.26,1.82-.43,2.75c-.33,0-.87.06-1.62.08s-1.51,0-2.28.07l-2.85.1L36,36.06l7.3-1.15-.5,5.7Z" transform="translate(-1.57 -0.63)"/><path class="cls-1" d="M58.9,42.51,56.2,43c.13-1.1.27-2.18.4-3.25s.19-1.87.28-2.8.15-1.73.22-2.4H52.75l-2,7.2-2.6.33-2.8.32-3.15.4q2-6.65,3.95-13.1.8-2.7,1.68-5.65c.58-2,1.16-3.92,1.75-5.87s1.14-3.83,1.67-5.63,1-3.45,1.4-4.95q3.41-.25,6.93-.6t6.87-1c-.1,1.07-.21,2.39-.32,4s-.23,3.3-.33,5.17S65.6,19,65.5,21s-.2,4-.3,6q-.26,6.9-.55,14.65c-1,.17-2,.3-3,.4ZM54,29.51l.73,0,1.1,0,1.07-.05a4.85,4.85,0,0,0,.7-.08c0-.2,0-.54.08-1s.1-1,.15-1.65.1-1.3.17-2,.13-1.45.2-2.15c.13-1.7.3-3.53.5-5.5l.3-4.35-.75.05L57.05,17Z" transform="translate(-1.57 -0.63)"/><path class="cls-1" d="M65.1,43.11q1.35-6.64,2.6-13,.45-2.7,1-5.62c.37-1.95.71-3.89,1-5.8l.9-5.55c.28-1.79.5-3.41.67-4.88a35.14,35.14,0,0,1,6.15-1.32A50,50,0,0,1,84,6.51,9.85,9.85,0,0,1,87.23,7a4.71,4.71,0,0,1,2,1.28,4.81,4.81,0,0,1,1,1.92,9.29,9.29,0,0,1,.3,2.45,11.4,11.4,0,0,1-.7,3.93A16.79,16.79,0,0,1,88,20.19a19.36,19.36,0,0,1-2.7,3.15A14.52,14.52,0,0,1,82,25.66q.9,2,1.93,4.38t1.92,4.52c.67,1.67,1.35,3.33,2.05,5l-7.75,2.7c-.66-2.13-1.27-4.13-1.8-6-.23-.77-.47-1.56-.7-2.37s-.45-1.6-.65-2.33-.37-1.39-.5-2a11.43,11.43,0,0,1-.25-1.43l-.65.2q-.3,1.61-.72,3.75c-.29,1.43-.55,2.82-.78,4.15-.3,1.57-.6,3.15-.9,4.75Zm11.75-21.7a7,7,0,0,0,2.33-.8,16.56,16.56,0,0,0,2.62-1.67,15,15,0,0,0,2.15-2,3.05,3.05,0,0,0,.9-1.85,1.09,1.09,0,0,0-.35-.87,2.22,2.22,0,0,0-1-.5,6.41,6.41,0,0,0-1.38-.23c-.5,0-1-.05-1.55-.05l-1.12,0-1,0Z" transform="translate(-1.57 -0.63)"/><path class="cls-1" d="M105.78,37.09a19.84,19.84,0,0,1-3.1,3.4,12,12,0,0,1-3.28,2,8.79,8.79,0,0,1-3.2.65,5.73,5.73,0,0,1-2.82-.7,6.52,6.52,0,0,1-2.23-2.1,11.7,11.7,0,0,1-1.52-3.45,17.63,17.63,0,0,1-.58-4.8,33.63,33.63,0,0,1,1.3-9.27A30.47,30.47,0,0,1,94,14.61a20.53,20.53,0,0,1,5.58-5.87,12.21,12.21,0,0,1,7.12-2.23,5.64,5.64,0,0,1,4.2,1.9,6.86,6.86,0,0,1,1.28,2.2,8.56,8.56,0,0,1,.47,2.9v.63a5.29,5.29,0,0,1-.05.67l-6.55,1.75c-.4-.83-.87-1.25-1.4-1.25a2.41,2.41,0,0,0-1.67.93,12.21,12.21,0,0,0-1.73,2.4,31.68,31.68,0,0,0-1.65,3.3c-.53,1.21-1,2.44-1.4,3.67s-.72,2.41-1,3.53a13,13,0,0,0-.38,2.72,4.25,4.25,0,0,0,.43,2.25,1.28,1.28,0,0,0,1.12.65,2.5,2.5,0,0,0,1.25-.42,5.8,5.8,0,0,0,1.3-1.1,9.35,9.35,0,0,0,1.1-1.53,6.12,6.12,0,0,0,.7-1.7l5.7,2.3A25.56,25.56,0,0,1,105.78,37.09Z" transform="translate(-1.57 -0.63)"/><path class="cls-1" d="M108.2,43.16q1.39-7,2.7-13.65.5-2.85,1-5.92t1-6.08l.9-5.82c.28-1.89.5-3.6.67-5.13.77,0,1.48.08,2.13.13l1.92.12,1.93.08,2.12,0c-.57,2.37-1.12,4.73-1.67,7.1s-1.06,4.75-1.53,7.15l5-.55c.47-2.37.88-4.66,1.25-6.87s.85-4.51,1.45-6.88c.77-.13,1.62-.24,2.55-.32l2.6-.23,2.85-.25q-.71,2.25-1.32,4.93t-1.23,5.55q-.6,2.87-1.15,5.82c-.37,2-.7,3.83-1,5.6q-1.1,6.34-2.05,13l-7.8.9c.43-2,.82-4,1.15-5.85.33-1.6.68-3.27,1-5s.62-3.22.82-4.45L118.7,27c-.23,1.27-.51,2.73-.82,4.4s-.61,3.25-.88,4.75c-.37,1.8-.73,3.6-1.1,5.4Z" transform="translate(-1.57 -0.63)"/><path class="cls-2" d="M11.79,41.21A9.42,9.42,0,0,1,7.31,40a13.67,13.67,0,0,1-4.16-3.69l-.4-.5,4.86-9.52L8.52,28a4.55,4.55,0,0,0,.86,1.08,7,7,0,0,0,1.38,1,10.54,10.54,0,0,0,1.6.76,3.72,3.72,0,0,0,1.23.26,3.34,3.34,0,0,0,.95-.15,3.12,3.12,0,0,0,.91-.46,2.3,2.3,0,0,0,.61-.64,1.28,1.28,0,0,0,.18-.7,2.6,2.6,0,0,0-.58-1.62,10.06,10.06,0,0,0-1.75-1.77c-.75-.61-1.58-1.23-2.45-1.84a24.72,24.72,0,0,1-2.58-2.09,12.25,12.25,0,0,1-2.1-2.56,6.49,6.49,0,0,1-.94-3.42,9.47,9.47,0,0,1,1.72-5.42,16.5,16.5,0,0,1,4.13-4.12A21.32,21.32,0,0,1,17,3.62a16.94,16.94,0,0,1,5.53-1A10.71,10.71,0,0,1,25.35,3a6.22,6.22,0,0,1,4.11,3.41,7.3,7.3,0,0,1,.63,3.18A9.46,9.46,0,0,1,30,11.14c-.09.45-.16.93-.22,1.45l-.08.65L20.1,16l.42-1.69c.06-.25.11-.49.16-.74a3.26,3.26,0,0,0,.06-.62,2.55,2.55,0,0,0-.32-1.56.68.68,0,0,0-.58-.29,1.38,1.38,0,0,0-.52.19,5.38,5.38,0,0,0-1,.66,3.4,3.4,0,0,0-.76.88,1.6,1.6,0,0,0-.25.87,2,2,0,0,0,.44,1.36,7.71,7.71,0,0,0,1.48,1.32c.64.45,1.36.92,2.13,1.39A10.39,10.39,0,0,1,25.64,23a13,13,0,0,1,.75,4.74,12.84,12.84,0,0,1-1.17,5.5,13.51,13.51,0,0,1-3.14,4.24,13.85,13.85,0,0,1-4.63,2.75A16.45,16.45,0,0,1,11.79,41.21Z" transform="translate(-1.57 -0.63)"/><path d="M22.54,3.61a9.58,9.58,0,0,1,2.55.33A5.21,5.21,0,0,1,27.16,5a5.31,5.31,0,0,1,1.4,1.82,6.39,6.39,0,0,1,.53,2.75A8.19,8.19,0,0,1,29,11c-.08.47-.16,1-.22,1.5l-7.25,2.1c.06-.26.12-.53.17-.8a4.26,4.26,0,0,0,.08-.8,3.55,3.55,0,0,0-.53-2.17,1.66,1.66,0,0,0-1.37-.68,2.2,2.2,0,0,0-1,.3,6.49,6.49,0,0,0-1.15.78,4.35,4.35,0,0,0-1,1.12,2.61,2.61,0,0,0-.4,1.4,3,3,0,0,0,.67,2,8.23,8.23,0,0,0,1.68,1.5c.66.47,1.39.94,2.17,1.43A9.72,9.72,0,0,1,23,20.51a10,10,0,0,1,1.67,2.88,12.11,12.11,0,0,1,.68,4.37,11.71,11.71,0,0,1-1.08,5.08,12.39,12.39,0,0,1-2.9,3.92,13,13,0,0,1-4.3,2.55,15.44,15.44,0,0,1-5.32.9,8.42,8.42,0,0,1-4-1.07,12.59,12.59,0,0,1-3.85-3.43l3.7-7.25a5.26,5.26,0,0,0,1,1.33A7.64,7.64,0,0,0,10.26,31a11.55,11.55,0,0,0,1.75.83,4.72,4.72,0,0,0,1.58.32,4.07,4.07,0,0,0,1.25-.2,4,4,0,0,0,1.2-.6,3.3,3.3,0,0,0,.87-.92,2.26,2.26,0,0,0,.33-1.23,3.58,3.58,0,0,0-.78-2.22,11,11,0,0,0-1.92-2c-.77-.62-1.6-1.24-2.5-1.88a22.78,22.78,0,0,1-2.48-2,11.1,11.1,0,0,1-1.92-2.35,5.34,5.34,0,0,1-.8-2.9A8.34,8.34,0,0,1,8.39,11a15.14,15.14,0,0,1,3.87-3.87,20.42,20.42,0,0,1,5.08-2.58,16,16,0,0,1,5.2-.95m0-2a18.14,18.14,0,0,0-5.86,1.06A22.41,22.41,0,0,0,11.12,5.5,17,17,0,0,0,6.74,9.88a10.38,10.38,0,0,0-1.9,6,7.48,7.48,0,0,0,1.09,3.95A13.3,13.3,0,0,0,8.2,22.57a24.56,24.56,0,0,0,2.69,2.18c.85.6,1.66,1.2,2.39,1.8a9.19,9.19,0,0,1,1.59,1.59,1.66,1.66,0,0,1,.37,1,.38.38,0,0,1,0,.17,1.19,1.19,0,0,1-.35.36,2.07,2.07,0,0,1-.61.31,2.45,2.45,0,0,1-.66.11,2.47,2.47,0,0,1-.88-.2,11.19,11.19,0,0,1-1.46-.68,6.07,6.07,0,0,1-1.17-.88,3.39,3.39,0,0,1-.68-.83L7.59,24.15l-1.74,3.4L2.15,34.8l-.58,1.14.79,1A14.91,14.91,0,0,0,6.84,40.9a10.39,10.39,0,0,0,4.95,1.31,17.42,17.42,0,0,0,6-1,15,15,0,0,0,5-2.95,14.36,14.36,0,0,0,3.37-4.55,13.77,13.77,0,0,0,1.27-5.93,13.83,13.83,0,0,0-.82-5.1,11.86,11.86,0,0,0-2-3.46,11.37,11.37,0,0,0-2.64-2.26l-.45-.29.58-.17,7.25-2.1L30.56,14l.16-1.31c.06-.49.13-1,.21-1.4a10.36,10.36,0,0,0,.16-1.75A8.48,8.48,0,0,0,30.37,6a7.39,7.39,0,0,0-1.93-2.5A7.44,7.44,0,0,0,25.61,2a11.43,11.43,0,0,0-3.07-.4ZM19.28,15.15a6.4,6.4,0,0,1-.74-.73,1,1,0,0,1-.2-.71.64.64,0,0,1,.1-.35,2.54,2.54,0,0,1,.54-.63,5.3,5.3,0,0,1,.7-.49,3.68,3.68,0,0,1,.06.72,3.13,3.13,0,0,1,0,.43l-.15.69-.27,1.07Z" transform="translate(-1.57 -0.63)"/><path class="cls-2" d="M30.84,3.68,48.89,2.14l-.45,1.42c-.22.71-.42,1.43-.58,2.16s-.33,1.31-.47,2S47.12,9,47,9.5l-.14.73-.75.08c-.35,0-.85.06-1.49.08l-2,0-2.15,0h-1l-1.35,6.88,1.64-.08c.74,0,1.5-.05,2.29-.05s1.27,0,1.6,0l1.26-.12-.17,1.25c-.14.93-.26,1.84-.38,2.74s-.26,1.85-.43,2.8l-.13.74-.75.08c-.37,0-.92.06-1.71.08s-1.49,0-2.25.07L37,24.88l-1.29,7,7.16-1.13-.68,7.76L23.9,41.37Z" transform="translate(-1.57 -0.63)"/><path d="M47.49,3.26a21.94,21.94,0,0,0-.6,2.25c-.17.64-.33,1.29-.48,2S46.14,8.78,46,9.31c-.34,0-.81.06-1.43.08l-2,0-2.13,0H38.64l-1.75,9c1-.07,2-.11,2.9-.15.73,0,1.48-.05,2.25-.05s1.33,0,1.7-.05c-.14.93-.26,1.85-.38,2.75s-.26,1.82-.42,2.75c-.34,0-.88.06-1.63.08s-1.51,0-2.27.07l-2.85.1-1.7,9.2L41.79,32l-.5,5.7-16.15,2.5L31.69,4.61l15.8-1.35M50.3,1l-3,.26L31.52,2.62,30,2.75l-.28,1.5L23.17,39.8l-.51,2.77,2.78-.43,16.15-2.5,1.55-.24.14-1.56.5-5.7L44,29.59l-2.53.4L37,30.7l.89-4.84,1.25-.05c.76,0,1.51-.06,2.25-.07s1.39,0,1.78-.09l1.5-.15L44.9,24c.18-1,.32-1.91.44-2.84s.24-1.8.38-2.72l.35-2.51-2.52.23c-.21,0-.64,0-1.51,0s-1.57,0-2.34.05l-.36,0,.94-4.82h.23l2.17,0,2,0c.66,0,1.17-.05,1.56-.09l1.49-.15L48,9.68c.1-.52.22-1.1.36-1.77s.3-1.3.46-1.89V5.94c.15-.7.34-1.4.55-2.07L50.3,1Z" transform="translate(-1.57 -0.63)"/><path class="cls-2" d="M53.74,39.89c.14-1.1.27-2.18.4-3.25.1-.91.19-1.84.27-2.77.05-.47.09-.9.12-1.31H52.05l-2,7.1-.65.09-2.62.33L44,40.4l-4.67.6.45-1.48q2-6.65,3.95-13.1l1.67-5.64c.58-2,1.17-3.93,1.75-5.88l1.68-5.62c.53-1.81,1-3.47,1.39-4.93l.18-.68.71-.06c2.26-.16,4.58-.36,6.9-.59s4.6-.55,6.8-.94l1.29-.23L66,3.15c-.1,1.07-.21,2.38-.32,4s-.23,3.3-.33,5.16-.2,3.81-.3,5.84l-.3,6q-.24,6.88-.55,14.64l0,.81-.8.14c-1,.17-2,.3-3.07.41l-6.66,1.1Zm0-14.38,1.36-.06,0-.22c0-.47.09-1,.14-1.62s.11-1.3.18-2,.13-1.45.2-2.15.13-1.65.21-2.53Z" transform="translate(-1.57 -0.63)"/><path d="M65,3.06c-.1,1.07-.21,2.39-.33,4s-.22,3.3-.33,5.17S64.14,16,64,18.06s-.2,4-.29,6q-.26,6.9-.56,14.65c-1,.17-2,.3-3,.4l-2.75.45L54.74,40c.13-1.1.26-2.18.39-3.25s.2-1.87.28-2.8.16-1.73.22-2.4H51.28l-2,7.2-2.6.33-2.8.32-3.14.4q2-6.64,3.94-13.1.81-2.7,1.68-5.65c.58-2,1.17-3.92,1.75-5.87s1.14-3.83,1.67-5.63,1-3.45,1.4-4.95q3.41-.24,6.93-.6T65,3.06m-7.5,6.6-.75.05L55.58,14,52.49,26.56l.72,0,1.1-.05,1.07,0a3.61,3.61,0,0,0,.7-.08c0-.2,0-.54.08-1s.1-1,.15-1.65.11-1.29.18-2,.13-1.45.19-2.15c.14-1.7.31-3.53.5-5.5l.31-4.35m9.73-9-2.59.46c-2.17.39-4.43.7-6.72.93s-4.62.43-6.87.6l-1.42.1L49.25,4.1C48.87,5.55,48.4,7.2,47.87,9s-1.09,3.68-1.68,5.62S45,18.52,44.44,20.49l-1.67,5.65q-2,6.44-4,13.1l-.89,2.95L41,41.8l3.14-.4,2.79-.33,2.64-.33,1.3-.18.35-1.26,1.59-5.74h.64l0,.22c-.08.92-.17,1.85-.27,2.77s-.27,2.12-.4,3.22l-.32,2.65L55.06,42l2.7-.45,2.68-.43c1-.11,2.07-.25,3.07-.42l1.61-.26.06-1.63q.3-7.76.55-14.66c.1-1.94.2-3.94.3-6s.2-4,.3-5.84.21-3.6.32-5.14.22-2.84.33-3.93L67.22.63Z" transform="translate(-1.57 -0.63)"/><path class="cls-2" d="M62.66,40Q64,33.32,65.25,27c.3-1.78.63-3.66,1-5.62s.71-3.87,1-5.78.62-3.76.9-5.54.5-3.37.67-4.83l.08-.65.61-.19A36.27,36.27,0,0,1,75.86,3a53.84,53.84,0,0,1,6.67-.43,10.69,10.69,0,0,1,3.56.51A5.49,5.49,0,0,1,89.75,7a10.47,10.47,0,0,1,.34,2.71,12.38,12.38,0,0,1-.77,4.27,17.68,17.68,0,0,1-2,3.87,20.07,20.07,0,0,1-2.85,3.32,15.5,15.5,0,0,1-2.67,2c.5,1.1,1,2.29,1.56,3.55.68,1.59,1.33,3.1,1.93,4.53.67,1.68,1.35,3.34,2,5l.41,1L78,40.6l-.31-1c-.67-2.15-1.28-4.18-1.81-6-.23-.76-.46-1.56-.7-2.38s-.45-1.6-.65-2.34c0-.06,0-.12,0-.18,0,.22-.08.44-.13.67-.28,1.42-.54,2.8-.77,4.12q-.45,2.37-.9,4.77l-.12.62L62.34,41.53ZM76.69,17l.57-.27a15,15,0,0,0,2.46-1.57,14.72,14.72,0,0,0,2-1.89c.59-.69.66-1.07.66-1.2s0-.13,0-.14a1.33,1.33,0,0,0-.56-.27,5.72,5.72,0,0,0-1.17-.19c-.48,0-1,0-1.48,0l-1.09,0h-.24Z" transform="translate(-1.57 -0.63)"/><path d="M82.53,3.56A9.81,9.81,0,0,1,85.76,4a4.48,4.48,0,0,1,3,3.2,8.93,8.93,0,0,1,.31,2.45,11.59,11.59,0,0,1-.7,3.93,16.83,16.83,0,0,1-1.88,3.65,18.43,18.43,0,0,1-2.7,3.15,14.52,14.52,0,0,1-3.28,2.32c.61,1.34,1.25,2.79,1.93,4.38s1.32,3.09,1.93,4.52c.66,1.67,1.35,3.33,2,5l-7.75,2.7q-1-3.2-1.8-6c-.24-.76-.47-1.56-.7-2.37s-.45-1.6-.66-2.33-.36-1.39-.5-2a13.65,13.65,0,0,1-.25-1.43l-.64.2c-.2,1.07-.45,2.32-.73,3.75s-.54,2.82-.77,4.15c-.3,1.57-.61,3.15-.9,4.75l-8.1,2.1q1.35-6.64,2.6-13,.45-2.7,1-5.62c.36-1.95.7-3.89,1-5.8s.62-3.77.9-5.55.51-3.41.68-4.88A34.94,34.94,0,0,1,76,4a50,50,0,0,1,6.54-.43m-7.14,14.9a6.8,6.8,0,0,0,2.32-.8A16,16,0,0,0,80.34,16a15,15,0,0,0,2.15-2,3,3,0,0,0,.9-1.85,1.11,1.11,0,0,0-.36-.87,2.17,2.17,0,0,0-1-.5,7,7,0,0,0-1.37-.23c-.5,0-1,0-1.55,0l-1.13,0-1,0-1.6,8m7.14-16.9a54.14,54.14,0,0,0-6.8.44,38,38,0,0,0-6.5,1.4L68,3.8l-.15,1.28c-.17,1.45-.39,3.06-.67,4.79s-.58,3.63-.89,5.54-.67,3.87-1,5.76-.69,3.78-1,5.63c-.84,4.26-1.71,8.62-2.59,13L61,42.9l3.1-.8,8.1-2.1,1.23-.32.23-1.25q.45-2.4.9-4.74c0-.22.08-.43.11-.65.09.29.18.57.26.85.52,1.82,1.13,3.86,1.81,6l.61,2,2-.68,7.75-2.7,2-.7-.82-2c-.71-1.68-1.39-3.35-2-5s-1.26-3-1.94-4.58l-1.21-2.77a18,18,0,0,0,2.09-1.67,21.15,21.15,0,0,0,3-3.49,18.2,18.2,0,0,0,2.1-4.09,13.35,13.35,0,0,0,.83-4.61,11.25,11.25,0,0,0-.38-3,6.48,6.48,0,0,0-4.28-4.55,11.68,11.68,0,0,0-3.9-.57Zm-3.9,10.91h.51c.48,0,1,0,1.41,0l.5.05-.08.1a13.26,13.26,0,0,1-1.87,1.75,11.47,11.47,0,0,1-1,.72l.53-2.66Z" transform="translate(-1.57 -0.63)"/><path class="cls-2" d="M94.73,41.21a6.81,6.81,0,0,1-3.3-.82A7.47,7.47,0,0,1,88.86,38a12.66,12.66,0,0,1-1.66-3.74,18.71,18.71,0,0,1-.62-5.07,34.9,34.9,0,0,1,1.34-9.55,31.78,31.78,0,0,1,3.77-8.49A21.72,21.72,0,0,1,97.54,5a13.34,13.34,0,0,1,7.69-2.4,6.61,6.61,0,0,1,5,2.24,7.72,7.72,0,0,1,1.47,2.52,9.53,9.53,0,0,1,.53,3.24v.63a5.73,5.73,0,0,1-.06.81l-.09.66-8,2.13-.36-.75c-.29-.6-.49-.68-.5-.68a1.61,1.61,0,0,0-.94.61,11.82,11.82,0,0,0-1.59,2.22,34,34,0,0,0-1.6,3.2A35.46,35.46,0,0,0,97.69,23c-.39,1.2-.71,2.36-1,3.43a12,12,0,0,0-.36,2.51,3.19,3.19,0,0,0,.27,1.7c.13.2.21.2.28.2a1.44,1.44,0,0,0,.73-.28,4.75,4.75,0,0,0,1.08-.91,9,9,0,0,0,1-1.37,5,5,0,0,0,.59-1.42l.27-1.13,7.73,3.12-.41.94a26.06,26.06,0,0,1-2.78,5,20.77,20.77,0,0,1-3.26,3.58,13,13,0,0,1-3.56,2.19A9.68,9.68,0,0,1,94.73,41.21Z" transform="translate(-1.57 -0.63)"/><path d="M105.23,3.56a5.54,5.54,0,0,1,2.3.5,5.62,5.62,0,0,1,1.9,1.4,6.78,6.78,0,0,1,1.28,2.2,8.36,8.36,0,0,1,.47,2.9v.63a3.92,3.92,0,0,1-.05.67l-6.55,1.75c-.4-.83-.86-1.25-1.4-1.25a2.41,2.41,0,0,0-1.67.93,12.64,12.64,0,0,0-1.73,2.4A36.2,36.2,0,0,0,98.13,19c-.53,1.21-1,2.44-1.4,3.67s-.72,2.41-1,3.53a13,13,0,0,0-.38,2.72,4.35,4.35,0,0,0,.43,2.25,1.29,1.29,0,0,0,1.12.65,2.47,2.47,0,0,0,1.25-.42,5.8,5.8,0,0,0,1.3-1.1,9.35,9.35,0,0,0,1.1-1.53,5.72,5.72,0,0,0,.7-1.7l5.7,2.3a25.25,25.25,0,0,1-2.67,4.78,19.44,19.44,0,0,1-3.1,3.4,11.85,11.85,0,0,1-3.28,2,8.55,8.55,0,0,1-3.2.65,5.73,5.73,0,0,1-2.82-.7,6.51,6.51,0,0,1-2.23-2.1A11.7,11.7,0,0,1,88.16,34a18,18,0,0,1-.58-4.8,34,34,0,0,1,1.3-9.27,30.78,30.78,0,0,1,3.65-8.23,20.53,20.53,0,0,1,5.58-5.87,12.21,12.21,0,0,1,7.12-2.23m0-2A14.32,14.32,0,0,0,97,4.14a22.62,22.62,0,0,0-6.12,6.44A32.87,32.87,0,0,0,87,19.34a36,36,0,0,0-1.38,9.82,19.92,19.92,0,0,0,.65,5.34,13.92,13.92,0,0,0,1.8,4A8.5,8.5,0,0,0,91,41.27a7.82,7.82,0,0,0,3.78.94,10.61,10.61,0,0,0,3.94-.79,13.57,13.57,0,0,0,3.83-2.36,21.26,21.26,0,0,0,3.43-3.75,27.77,27.77,0,0,0,2.89-5.15l.82-1.88-1.91-.77-5.7-2.3-2.16-.87-.53,2.26a4.28,4.28,0,0,1-.48,1.15A8.16,8.16,0,0,1,98,29a4.13,4.13,0,0,1-.58.54,4.8,4.8,0,0,1,0-.59,11.09,11.09,0,0,1,.33-2.29c.24-1,.55-2.17.93-3.34A33.73,33.73,0,0,1,100,19.79a29.81,29.81,0,0,1,1.55-3.1,10.84,10.84,0,0,1,1.38-2l.6,1.24,1.6-.43,6.55-1.75,1.28-.34.18-1.31a6.16,6.16,0,0,0,.07-1v-.63A10.54,10.54,0,0,0,112.59,7a8.88,8.88,0,0,0-1.66-2.85,7.76,7.76,0,0,0-2.57-1.89,7.51,7.51,0,0,0-3.13-.68Z" transform="translate(-1.57 -0.63)"/><path class="cls-2" d="M105.75,40c.94-4.66,1.83-9.21,2.7-13.64.33-1.88.68-3.86,1-5.91s.7-4.06,1-6.06.62-3.93.9-5.81.51-3.59.67-5.09l.1-.93.94,0c.78,0,1.49.08,2.15.13l1.91.12c.62,0,1.25.06,1.89.08l2.1,0h1.27l-.29,1.23c-.57,2.37-1.13,4.73-1.68,7.1q-.66,2.88-1.25,5.78l2.86-.32c.41-2.08.78-4.14,1.11-6.13.37-2.23.86-4.57,1.46-6.95l.16-.63.64-.11c.79-.14,1.68-.25,2.63-.34l2.61-.23,2.84-.24L135,2l-.44,1.43c-.46,1.46-.9,3.1-1.31,4.85s-.81,3.59-1.22,5.53-.78,3.85-1.14,5.8-.7,3.83-1,5.59c-.73,4.22-1.42,8.58-2,13l-.11.77-10,1.14.3-1.36c.43-2,.81-3.94,1.14-5.81.34-1.63.68-3.29,1-5,.23-1.14.43-2.19.6-3.13l-2.8.26q-.3,1.64-.69,3.66-.48,2.49-.87,4.74l-1.24,6.07-9.82,2Z" transform="translate(-1.57 -0.63)"/><path d="M133.63,3.11q-.69,2.25-1.32,4.93t-1.23,5.55c-.4,1.91-.78,3.86-1.15,5.82s-.7,3.84-1,5.6q-1.1,6.36-2.05,13l-7.8.9q.66-3,1.15-5.85c.34-1.6.68-3.26,1-5s.62-3.22.82-4.45l-4.85.45c-.23,1.27-.5,2.74-.82,4.4s-.61,3.25-.88,4.75q-.54,2.7-1.1,5.4l-7.7,1.6q1.41-7,2.7-13.65.51-2.85,1-5.92t1-6.08l.9-5.82c.28-1.89.51-3.59.67-5.13.77,0,1.48.08,2.13.13l1.92.12c.64,0,1.28.06,1.93.08l2.12,0q-.84,3.56-1.67,7.1T118,18.21l5-.55c.47-2.36.89-4.66,1.25-6.87s.85-4.51,1.45-6.88c.77-.13,1.62-.24,2.55-.32l2.6-.23c.8-.06,1.75-.15,2.85-.25m2.8-2.26-3,.27-2.83.25L128,1.59c-1,.09-1.9.21-2.72.35L124,2.16l-.32,1.26c-.61,2.41-1.11,4.78-1.48,7-.29,1.75-.61,3.55-1,5.38l-.76.08c.3-1.47.63-2.94,1-4.41.55-2.36,1.1-4.72,1.67-7.08L123.72,2h-2.54l-2.07,0c-.63,0-1.26,0-1.87-.08l-1.88-.12c-.66-.05-1.4-.09-2.19-.13l-1.87-.08-.2,1.87c-.17,1.48-.39,3.18-.67,5s-.58,3.81-.9,5.81-.66,4-1,6-.72,4-1.06,5.94c-.86,4.39-1.76,8.94-2.69,13.6l-.59,3,3-.61,7.7-1.6,1.29-.27.26-1.29.55-2.7.55-2.7v0c.27-1.49.56-3.07.87-4.72.2-1.06.39-2,.55-2.93l.74-.06c-.11.57-.23,1.18-.36,1.82q-.52,2.59-1,5v.06c-.32,1.85-.7,3.8-1.13,5.77l-.59,2.73,2.77-.32,7.8-.9,1.54-.18.21-1.53c.63-4.38,1.32-8.73,2-12.94.32-1.83.65-3.7,1-5.57s.75-3.92,1.14-5.78.81-3.79,1.22-5.51.83-3.34,1.28-4.78l.89-2.86Z" transform="translate(-1.57 -0.63)"/></svg>