<svg id="Layer_1" data-name="Layer 1" xmlns="http://www.w3.org/2000/svg" viewBox="0 0 169.17 46.47"><defs><style>.cls-1{fill:#f8b365;}.cls-2{fill:#f9b233;}.cls-3{fill:#fff;}.cls-4{fill:#1d1d1b;}</style></defs><path class="cls-1" d="M10.14,47.2c.2-1.5.43-3.17.7-5s.58-3.75.93-5.73.7-4,1.05-5.95.72-4,1.08-5.77c.82-4.31,1.71-8.8,2.65-13.36l.15-.69L27.58,9.26l-.32,1.4q-1.35,5.81-2.6,11.3c-.37,1.57-.74,3.19-1.1,4.86s-.72,3.32-1,4.92-.63,3.14-.89,4.62c-.18,1-.33,1.91-.47,2.75l1.49,0,2.54,0h.95l.05.95c0,.62.08,1.22.15,1.82s.13,1.14.21,1.62.16,1,.21,1.36a6.05,6.05,0,0,0,.1.66l.32,1.25H25.88q-.43,0-.84,0c-.23,0-.47,0-.71,0-1,0-2.08,0-3.22.1s-2.28.17-3.42.3-2.26.3-3.34.51a24.39,24.39,0,0,0-2.9.74l-1.52.51Z" transform="translate(-6.73 -4.4)"/><path class="cls-2" d="M26.28,10.44q-1.35,5.79-2.6,11.29c-.37,1.57-.73,3.2-1.1,4.88s-.72,3.33-1,4.92-.63,3.16-.9,4.66-.48,2.83-.65,4c.83-.07,1.73-.11,2.68-.13l2.52,0c0,.64.08,1.26.15,1.88s.14,1.17.23,1.67.15,1,.2,1.33.09.64.12.78c-.27,0-.52,0-.77,0s-.51,0-.78,0c-1,0-2.12,0-3.27.1s-2.31.17-3.48.3-2.31.31-3.42.53a24.71,24.71,0,0,0-3,.77c.2-1.5.43-3.16.7-5s.58-3.73.93-5.7.7-3.94,1.05-5.94.7-3.92,1.07-5.75q1.24-6.56,2.65-13.36l8.75-1.14m2.6-2.36L26,8.45,17.27,9.6l-1.41.19-.29,1.39c-.94,4.56-1.83,9.06-2.65,13.38-.36,1.8-.73,3.76-1.08,5.78s-.7,4-1.05,5.94-.67,3.93-.94,5.77-.5,3.51-.7,5l-.42,3.17,3-1a22.88,22.88,0,0,1,2.78-.71c1.05-.2,2.15-.37,3.27-.5s2.25-.22,3.36-.29,2.18-.1,3.16-.1c.22,0,.44,0,.64,0s.6,0,.91,0h2.57l-.63-2.5a5.45,5.45,0,0,1-.08-.54c0-.4-.12-.87-.21-1.39s-.15-1-.21-1.56-.11-1.18-.14-1.77l-.1-1.9h-1.9l-2.56,0h-.28c.08-.49.17-1,.26-1.53.26-1.47.56-3,.89-4.6s.68-3.23,1.05-4.9.73-3.33,1.09-4.85q1.25-5.52,2.6-11.3l.65-2.81Z" transform="translate(-6.73 -4.4)"/><path class="cls-1" d="M34.68,48.44a8.18,8.18,0,0,1-3.42-.72,7.5,7.5,0,0,1-2.7-2.13A10,10,0,0,1,26.8,42.1a17.35,17.35,0,0,1-.62-4.91,27.43,27.43,0,0,1,.73-6.13,42.13,42.13,0,0,1,1.94-6.29,34.2,34.2,0,0,1,3-6,30.3,30.3,0,0,1,4-5,19,19,0,0,1,4.75-3.56,11.66,11.66,0,0,1,5.46-1.37,8,8,0,0,1,4.26,1.08A7.75,7.75,0,0,1,53,12.67a12,12,0,0,1,1.28,3.63,20.5,20.5,0,0,1,.37,3.89,33.91,33.91,0,0,1-.9,8A34.94,34.94,0,0,1,51.33,35a28,28,0,0,1-3.5,5.6,27.68,27.68,0,0,1-4.18,4.2,18.48,18.48,0,0,1-4.49,2.7A12,12,0,0,1,34.68,48.44Zm9.65-27.11a4.62,4.62,0,0,0-2.44.67,8.14,8.14,0,0,0-2.16,1.89A14.44,14.44,0,0,0,38,26.69,29.79,29.79,0,0,0,36.65,30a20.1,20.1,0,0,0-.78,3.2,18.44,18.44,0,0,0-.24,2.7,2.82,2.82,0,0,0,.54,1.59,2.13,2.13,0,0,0,.61.54,1.13,1.13,0,0,0,.6.18,4.88,4.88,0,0,0,3.34-1.3,12.13,12.13,0,0,0,2.67-3.51,20.72,20.72,0,0,0,1.69-4.58,18.63,18.63,0,0,0,.6-4.42,10.33,10.33,0,0,0-.07-1.19,4.14,4.14,0,0,0-.24-1.05,1.65,1.65,0,0,0-.43-.64A.84.84,0,0,0,44.33,21.33Z" transform="translate(-6.73 -4.4)"/><path class="cls-2" d="M46.08,9.83a6.9,6.9,0,0,1,3.73.93,6.69,6.69,0,0,1,2.3,2.4,10.8,10.8,0,0,1,1.17,3.32,20.26,20.26,0,0,1,.35,3.71,33,33,0,0,1-.87,7.72,33.78,33.78,0,0,1-2.33,6.65A26.9,26.9,0,0,1,43,44a17.18,17.18,0,0,1-4.25,2.55,10.94,10.94,0,0,1-4.1.88,7,7,0,0,1-3-.63A6.61,6.61,0,0,1,29.33,45a8.94,8.94,0,0,1-1.57-3.15,16,16,0,0,1-.58-4.62,26.69,26.69,0,0,1,.7-5.91,43.05,43.05,0,0,1,1.9-6.15,34,34,0,0,1,2.95-5.8,29.62,29.62,0,0,1,3.85-4.87,18.18,18.18,0,0,1,4.5-3.38,10.74,10.74,0,0,1,5-1.25m-8.7,29.36a5.85,5.85,0,0,0,4-1.56,12.74,12.74,0,0,0,2.9-3.8A22,22,0,0,0,46.06,29a20,20,0,0,0,.62-4.65,12.23,12.23,0,0,0-.07-1.3,5.48,5.48,0,0,0-.3-1.3,2.59,2.59,0,0,0-.7-1,1.88,1.88,0,0,0-1.28-.43,5.7,5.7,0,0,0-2.95.8A9.17,9.17,0,0,0,39,23.26a14.53,14.53,0,0,0-1.88,3,29.82,29.82,0,0,0-1.37,3.4A20.18,20.18,0,0,0,34.88,33a19,19,0,0,0-.25,2.85,3.71,3.71,0,0,0,.2,1.15,3.38,3.38,0,0,0,.55,1,3.33,3.33,0,0,0,.88.78,2.06,2.06,0,0,0,1.12.33m8.7-31.36a12.7,12.7,0,0,0-5.92,1.48,20.41,20.41,0,0,0-5,3.74A31.85,31.85,0,0,0,31,18.26a36.52,36.52,0,0,0-3.12,6.14,44.18,44.18,0,0,0-2,6.44,28.8,28.8,0,0,0-.75,6.35,18.19,18.19,0,0,0,.66,5.19,11.14,11.14,0,0,0,1.94,3.85,8.61,8.61,0,0,0,3.06,2.39,9,9,0,0,0,3.84.82,12.86,12.86,0,0,0,4.85-1,19.39,19.39,0,0,0,4.75-2.84,28.74,28.74,0,0,0,4.33-4.35,29.67,29.67,0,0,0,3.62-5.8,35.07,35.07,0,0,0,3.4-15.23,22.61,22.61,0,0,0-.38-4.08,13.29,13.29,0,0,0-1.4-3.93,8.62,8.62,0,0,0-3-3.11,8.89,8.89,0,0,0-4.79-1.24Zm-8.7,29.36s0,0-.07,0a1.31,1.31,0,0,1-.35-.3,1.91,1.91,0,0,1-.33-1,17.84,17.84,0,0,1,.23-2.55,19.17,19.17,0,0,1,.74-3,28.48,28.48,0,0,1,1.29-3.17,12.71,12.71,0,0,1,1.62-2.6,7.4,7.4,0,0,1,1.89-1.67,3.77,3.77,0,0,1,1.93-.52h0a.53.53,0,0,1,.08.15,3.7,3.7,0,0,1,.19.81,10.8,10.8,0,0,1,.06,1.08,17.65,17.65,0,0,1-.57,4.18,20.26,20.26,0,0,1-1.61,4.36,10.78,10.78,0,0,1-2.44,3.22,3.88,3.88,0,0,1-2.68,1Z" transform="translate(-6.73 -4.4)"/><path class="cls-1" d="M59.38,48.33a6.77,6.77,0,0,1-3.31-.82A7.52,7.52,0,0,1,53.5,45.1a12.84,12.84,0,0,1-1.66-3.75,19.14,19.14,0,0,1-.61-5.07,34.78,34.78,0,0,1,1.34-9.54,31.84,31.84,0,0,1,3.77-8.5,21.55,21.55,0,0,1,5.85-6.15,13.26,13.26,0,0,1,7.69-2.4,6.51,6.51,0,0,1,2.71.58,6.79,6.79,0,0,1,2.24,1.65,7.88,7.88,0,0,1,1.46,2.52,9.39,9.39,0,0,1,.54,3.25v.62a6,6,0,0,1-.06.82l-.09.65-8,2.14-.36-.75c-.29-.61-.5-.69-.5-.69a1.68,1.68,0,0,0-1,.62,11.71,11.71,0,0,0-1.58,2.21,31.78,31.78,0,0,0-1.6,3.2c-.52,1.18-1,2.39-1.37,3.58s-.71,2.36-.95,3.44A12.34,12.34,0,0,0,61,36a3.49,3.49,0,0,0,.26,1.71c.13.2.22.2.29.2a1.51,1.51,0,0,0,.73-.29,4.46,4.46,0,0,0,1.07-.9,9.41,9.41,0,0,0,1-1.37A5.3,5.3,0,0,0,65,34l.26-1.14L73,35.94l-.41.94a26.48,26.48,0,0,1-2.79,5,19.92,19.92,0,0,1-3.26,3.57A13,13,0,0,1,63,47.62,9.86,9.86,0,0,1,59.38,48.33Z" transform="translate(-6.73 -4.4)"/><path class="cls-2" d="M69.88,10.69a5.39,5.39,0,0,1,2.3.5,5.56,5.56,0,0,1,1.9,1.39,7.08,7.08,0,0,1,1.28,2.2,8.62,8.62,0,0,1,.47,2.91v.62a5.16,5.16,0,0,1,0,.67l-6.55,1.75c-.4-.83-.87-1.25-1.4-1.25a2.41,2.41,0,0,0-1.67.93,12.85,12.85,0,0,0-1.73,2.4,31.68,31.68,0,0,0-1.65,3.3c-.53,1.22-1,2.44-1.4,3.67s-.72,2.41-1,3.53A13.1,13.1,0,0,0,60,36a4.25,4.25,0,0,0,.43,2.25,1.27,1.27,0,0,0,1.12.66,2.52,2.52,0,0,0,1.25-.43,5.55,5.55,0,0,0,1.3-1.1,9.35,9.35,0,0,0,1.1-1.53,6.07,6.07,0,0,0,.7-1.69l5.7,2.29A25.25,25.25,0,0,1,69,41.26a19.84,19.84,0,0,1-3.1,3.4,12,12,0,0,1-3.28,2,8.77,8.77,0,0,1-3.2.64,5.73,5.73,0,0,1-2.82-.7,6.34,6.34,0,0,1-2.23-2.1,11.7,11.7,0,0,1-1.52-3.45,17.53,17.53,0,0,1-.58-4.8A33.63,33.63,0,0,1,53.53,27a30.6,30.6,0,0,1,3.65-8.23,20.53,20.53,0,0,1,5.58-5.87,12.28,12.28,0,0,1,7.12-2.22m0-2a14.29,14.29,0,0,0-8.26,2.57A22.61,22.61,0,0,0,55.5,17.7a32.39,32.39,0,0,0-3.89,8.76,35.66,35.66,0,0,0-1.38,9.82,19.92,19.92,0,0,0,.65,5.34,13.66,13.66,0,0,0,1.8,4,8.47,8.47,0,0,0,2.91,2.73,7.75,7.75,0,0,0,3.79.94,10.74,10.74,0,0,0,3.93-.78,14.24,14.24,0,0,0,3.84-2.36,21.55,21.55,0,0,0,3.42-3.75,27.06,27.06,0,0,0,2.89-5.16l.82-1.88-1.9-.77-5.7-2.3-2.16-.87L64,33.73a4,4,0,0,1-.47,1.14,8.16,8.16,0,0,1-.87,1.21,5,5,0,0,1-.59.55c0-.16,0-.36,0-.6a11,11,0,0,1,.33-2.28c.23-1,.54-2.18.92-3.35s.83-2.34,1.33-3.49a32,32,0,0,1,1.55-3.1,10.83,10.83,0,0,1,1.39-2l.6,1.24,1.6-.42,6.55-1.75,1.27-.34.19-1.31a6.39,6.39,0,0,0,.07-1v-.62a10.56,10.56,0,0,0-.59-3.59,8.9,8.9,0,0,0-1.66-2.84A7.65,7.65,0,0,0,73,9.36a7.56,7.56,0,0,0-3.13-.67Z" transform="translate(-6.73 -4.4)"/><path class="cls-1" d="M83.34,43.76c.1-.91.19-1.84.27-2.77,0-.47.08-.9.12-1.3H81.24l-2,7.1-.65.08c-.74.11-1.62.22-2.62.33l-2.81.33-4.66.59L69,46.65l4-13.11L74.6,27.9c.58-2,2.89-9.7,3.42-11.5s1-3.44,1.39-4.92l.19-.69.71,0c2.26-.17,4.58-.37,6.9-.6S91.8,9.59,94,9.2L95.3,9l-.12,1.31c-.1,1.06-.21,2.38-.33,4s-.22,3.3-.32,5.16-.2,3.81-.3,5.84l-.3,6c-.17,4.58-.35,9.47-.55,14.63l0,.82-.8.13c-1,.17-2,.31-3.07.41l-6.7,1.11S83.2,44.83,83.34,43.76ZM83,32.63l1.37-.06c0-.07,0-.14,0-.21,0-.48.1-1,.15-1.63s.11-1.3.17-2,.14-1.45.2-2.15S85,24.89,85.1,24Z" transform="translate(-6.73 -4.4)"/><path class="cls-2" d="M94.18,10.19c-.1,1.06-.21,2.39-.32,4s-.23,3.31-.33,5.17-.2,3.82-.3,5.86-.2,4-.3,6c-.17,4.59-.35,9.48-.55,14.64-1,.17-2,.3-3,.4l-2.75.46-2.7.44c.13-1.1.27-2.18.4-3.25s.19-1.86.28-2.8.15-1.73.22-2.39H80.48l-2,7.19-2.6.33-2.8.32-3.15.41q2-6.66,3.95-13.11.8-2.7,1.68-5.64t1.75-5.88L79,16.69q.8-2.71,1.4-5c2.27-.16,4.57-.36,6.93-.6s4.64-.55,6.87-.94m-7.5,6.59-.75,0-1.15,4.3-3.1,12.56.73,0,1.1,0,1.07,0a3.72,3.72,0,0,0,.7-.08c0-.2,0-.54.08-1s.09-1,.15-1.65.1-1.29.17-2,.13-1.45.2-2.15c.13-1.69.3-3.53.5-5.5l.3-4.35m9.74-9-2.59.47c-2.18.39-4.44.7-6.72.92s-4.62.43-6.88.6l-1.41.1-.37,1.38c-.4,1.47-.86,3.12-1.39,4.9S76,19.79,75.39,21.74s-1.17,3.91-1.75,5.88S72.5,31.47,72,33.27Q70,39.71,68,46.36l-.89,3,3.06-.39,3.14-.4,2.78-.32,2.64-.33,1.31-.18.35-1.27L82,40.69h.63l0,.22q-.12,1.38-.27,2.76c-.13,1-.26,2.12-.4,3.22l-.32,2.65,2.64-.43.2,0,2.5-.41,2.68-.44c1-.11,2.06-.24,3.07-.41l1.61-.27.06-1.63q.3-7.75.55-14.65c.1-1.94.2-3.94.3-6s.2-4,.3-5.84.21-3.6.32-5.13.22-2.89.32-3.94l.25-2.62Z" transform="translate(-6.73 -4.4)"/><path class="cls-1" d="M96.15,47.08c.76-3.64,1.5-7.28,2.2-10.84.3-1.5.6-3.06.9-4.69s.59-3.23.87-4.82.53-3.1.74-4.56c.16-1.08.31-2.09.44-3l-.61,0h-.88a8,8,0,0,1-2.32-.35l-.76-.23,0-.79c0-.51,0-1.11,0-1.79s0-1.43,0-2.14.14-3.48.14-3.48l1,.08c.85.06,1.7.11,2.56.15s1.7,0,2.56,0c1.68,0,3.32,0,4.87-.12s3-.18,4.37-.3,2.67-.25,3.93-.42l1.39-.18-.83,4.07c-.17.78-.32,1.55-.47,2.34s-.3,1.51-.44,2.09l-.13.58-.58.16a14.9,14.9,0,0,1-2.38.45l-1.49.21c-.19.95-.39,2-.61,3.09-.26,1.38-.52,2.8-.77,4.28s-.49,3-.72,4.51-.47,3-.7,4.41c-.53,3.27-1,6.71-1.5,10.22l-.1.74L95.85,48.49Z" transform="translate(-6.73 -4.4)"/><path class="cls-2" d="M116.48,10.78l-.55,2.7c-.17.77-.33,1.55-.48,2.35s-.29,1.49-.42,2a14.16,14.16,0,0,1-2.23.43c-.75.08-1.49.19-2.22.32q-.35,1.71-.75,3.78c-.27,1.38-.53,2.82-.78,4.3s-.49,3-.72,4.52-.47,3-.7,4.4c-.53,3.31-1,6.72-1.5,10.25l-9,1.4q1.16-5.49,2.2-10.84.45-2.25.9-4.71c.3-1.63.59-3.24.87-4.82s.54-3.12.75-4.6.41-2.84.58-4.08a14.52,14.52,0,0,0-1.74-.11h-.88a6.76,6.76,0,0,1-2-.31c0-.53,0-1.14,0-1.85s0-1.4,0-2.1.07-1.58.1-2.44c.87.06,1.73.11,2.6.14s1.73.05,2.6.05q2.55,0,4.92-.12c1.59-.08,3.05-.18,4.4-.3s2.68-.26,4-.43M119,8.44l-2.78.36c-1.25.16-2.56.3-3.89.42s-2.78.21-4.33.29-3.16.12-4.82.12c-.85,0-1.7,0-2.52,0S99,9.51,98.13,9.44l-2.07-.16L96,11.36c0,.86-.07,1.68-.1,2.44s0,1.46,0,2.18,0,1.23,0,1.73l-.09,1.58,1.51.46a8.92,8.92,0,0,0,2.61.39h.34c-.09.61-.18,1.24-.28,1.89-.21,1.46-.46,3-.73,4.54l-.88,4.81C98,33,97.67,34.56,97.37,36c-.7,3.56-1.44,7.2-2.2,10.84l-.59,2.83,2.86-.45,9-1.4,1.48-.23.19-1.48c.46-3.5,1-6.93,1.49-10.2.24-1.4.47-2.87.71-4.41s.46-3,.72-4.5.5-2.92.76-4.25c.17-.85.32-1.65.47-2.4l.77-.09a17.37,17.37,0,0,0,2.53-.49l1.14-.31.28-1.16c.14-.59.28-1.31.44-2.14s.3-1.54.46-2.29l.56-2.73L119,8.44Z" transform="translate(-6.73 -4.4)"/><path class="cls-1" d="M110,47c.33-1.42.67-3,1-4.75s.71-3.57,1.08-5.49.71-3.84,1-5.8.65-3.86,1-5.7q1.05-6.39,2.1-13.14l.11-.72,9.9-1.58L126,11.15q-1.16,6.7-2.25,13.15c-.3,1.83-1.56,9.61-1.88,11.55s-.61,3.79-.87,5.61-.52,3.46-.75,4.93l-.14.84h-.85c-.18,0-.62,0-1.68.13-.87.08-1.77.18-2.7.29l-2.51.33-1,.14-1.82.91Z" transform="translate(-6.73 -4.4)"/><path class="cls-2" d="M125,11q-1.16,6.7-2.25,13.15l-.93,5.7q-.47,3-1,5.86T120,41.31q-.41,2.73-.75,4.92c-.3,0-.89.05-1.78.13s-1.79.18-2.72.3L112.2,47a7.56,7.56,0,0,0-1.22.21c.33-1.44.67-3,1-4.78s.7-3.58,1.07-5.5.72-3.86,1-5.83.65-3.86,1-5.7q1-6.39,2.1-13.15L125,11m2.44-2.41L124.66,9l-7.8,1.25-1.43.23-.23,1.44c-.69,4.48-1.4,8.9-2.09,13.13q-.45,2.75-1,5.69c-.34,2-.69,3.92-1,5.78S110.39,40.27,110,42s-.68,3.31-1,4.71l-1,4.15,3.58-1.8.82-.11,2.51-.33c.92-.11,1.82-.21,2.66-.29,1.12-.1,1.48-.12,1.59-.12h1.71l.27-1.68c.23-1.48.48-3.12.75-4.95s.56-3.71.87-5.59.63-3.89,1-5.86.62-3.86.92-5.69Q125.8,18,127,11.32l.47-2.75Z" transform="translate(-6.73 -4.4)"/><path class="cls-1" d="M129.88,48.44a8.18,8.18,0,0,1-3.42-.72,7.61,7.61,0,0,1-2.71-2.13A10.11,10.11,0,0,1,122,42.1a17.35,17.35,0,0,1-.62-4.91,28,28,0,0,1,.72-6.13,43,43,0,0,1,2-6.29,34.2,34.2,0,0,1,3-6,30.3,30.3,0,0,1,4-5,18.87,18.87,0,0,1,4.75-3.56,11.63,11.63,0,0,1,5.46-1.37,8,8,0,0,1,4.26,1.08,7.67,7.67,0,0,1,2.64,2.76,11.83,11.83,0,0,1,1.28,3.63,20.5,20.5,0,0,1,.37,3.89,33.91,33.91,0,0,1-.9,8,34.94,34.94,0,0,1-2.4,6.85,28.42,28.42,0,0,1-3.5,5.6,27.68,27.68,0,0,1-4.18,4.2,18.67,18.67,0,0,1-4.49,2.7A12,12,0,0,1,129.88,48.44Zm9.65-27.11a4.62,4.62,0,0,0-2.44.67,8.14,8.14,0,0,0-2.16,1.89,14.44,14.44,0,0,0-1.75,2.8A29,29,0,0,0,131.85,30a19.07,19.07,0,0,0-.78,3.2,18.44,18.44,0,0,0-.24,2.7,2.67,2.67,0,0,0,.15.84,2.42,2.42,0,0,0,.39.75A2.13,2.13,0,0,0,132,38a1.08,1.08,0,0,0,.6.18,4.88,4.88,0,0,0,3.34-1.3,12.13,12.13,0,0,0,2.67-3.51,20.91,20.91,0,0,0,1.69-4.58,18.63,18.63,0,0,0,.6-4.42,10.33,10.33,0,0,0-.07-1.19,4.14,4.14,0,0,0-.24-1.05,1.76,1.76,0,0,0-.43-.64A.93.93,0,0,0,139.53,21.33Z" transform="translate(-6.73 -4.4)"/><path class="cls-2" d="M141.28,9.83a6.84,6.84,0,0,1,3.72.93,6.6,6.6,0,0,1,2.3,2.4,10.81,10.81,0,0,1,1.18,3.32,20.26,20.26,0,0,1,.35,3.71,32.49,32.49,0,0,1-.88,7.72,33.14,33.14,0,0,1-2.32,6.65,26.88,26.88,0,0,1-3.38,5.4,26.57,26.57,0,0,1-4,4A17.18,17.18,0,0,1,134,46.56a10.94,10.94,0,0,1-4.1.88,7,7,0,0,1-3-.63A6.61,6.61,0,0,1,124.53,45,9.12,9.12,0,0,1,123,41.81a16.42,16.42,0,0,1-.57-4.62,26.69,26.69,0,0,1,.7-5.91,43.05,43.05,0,0,1,1.9-6.15,34,34,0,0,1,3-5.8,29.62,29.62,0,0,1,3.85-4.87,18.18,18.18,0,0,1,4.5-3.38,10.74,10.74,0,0,1,5-1.25m-8.7,29.36a5.85,5.85,0,0,0,4-1.56,12.74,12.74,0,0,0,2.9-3.8,21.51,21.51,0,0,0,1.77-4.8,19.53,19.53,0,0,0,.63-4.65,12.39,12.39,0,0,0-.08-1.3,5.48,5.48,0,0,0-.3-1.3,2.49,2.49,0,0,0-.7-1,1.84,1.84,0,0,0-1.27-.43,5.7,5.7,0,0,0-2.95.8,9.36,9.36,0,0,0-2.43,2.13,14.94,14.94,0,0,0-1.87,3,31.86,31.86,0,0,0-1.38,3.4,21.14,21.14,0,0,0-.82,3.37,19,19,0,0,0-.25,2.85A3.71,3.71,0,0,0,130,37a3.38,3.38,0,0,0,.55,1,3.28,3.28,0,0,0,.87.78,2.09,2.09,0,0,0,1.13.33m8.7-31.36a12.7,12.7,0,0,0-5.92,1.48,20.41,20.41,0,0,0-5,3.74,31.32,31.32,0,0,0-4.12,5.21,35.79,35.79,0,0,0-3.12,6.14,45,45,0,0,0-2,6.44,28.87,28.87,0,0,0-.75,6.35,18.19,18.19,0,0,0,.66,5.19A10.84,10.84,0,0,0,123,46.22a8.45,8.45,0,0,0,3.06,2.4,9,9,0,0,0,3.84.82,12.86,12.86,0,0,0,4.85-1,19.39,19.39,0,0,0,4.75-2.84,28.74,28.74,0,0,0,4.33-4.35,29.67,29.67,0,0,0,3.62-5.8,36.23,36.23,0,0,0,2.47-7,34.89,34.89,0,0,0,.93-8.19,22.61,22.61,0,0,0-.38-4.08,13.29,13.29,0,0,0-1.4-3.93,8.62,8.62,0,0,0-3-3.11,8.89,8.89,0,0,0-4.79-1.24Zm-8.7,29.36s0,0-.07,0a1.17,1.17,0,0,1-.35-.3,1.32,1.32,0,0,1-.23-.46,1.53,1.53,0,0,1-.1-.52,17.84,17.84,0,0,1,.23-2.55,18.14,18.14,0,0,1,.74-3,29.59,29.59,0,0,1,1.28-3.17,13.19,13.19,0,0,1,1.63-2.6,7.17,7.17,0,0,1,1.89-1.66,3.68,3.68,0,0,1,1.93-.53h0a.64.64,0,0,1,.08.14,3.94,3.94,0,0,1,.19.82,10.64,10.64,0,0,1,.06,1.08,17.65,17.65,0,0,1-.57,4.18,20.54,20.54,0,0,1-1.61,4.37,10.73,10.73,0,0,1-2.45,3.21,3.84,3.84,0,0,1-2.67,1Z" transform="translate(-6.73 -4.4)"/><path class="cls-1" d="M144.75,47.28q1.5-7.2,2.85-13.94c.33-1.91.69-3.92,1.07-6s.74-4.09,1.07-6.1.63-3.94.9-5.78.46-3.51.59-5l.09-1,1,.08c.4,0,.74,0,1,0h1c.46,0,1,0,1.67,0l2-.07,3-.14.17.84c.46,2.31.88,4.59,1.26,6.78l1.15,6,0-.17c.2-1,.39-1.93.57-2.9s.38-2,.58-2.95l1.6-7.4,8.21-1L174.3,10c-1.12,5.07-2.13,9.94-3,14.47-.4,2-.79,4-1.17,6s-.75,3.94-1.08,5.79-.62,3.58-.84,5.12-.42,2.89-.55,3.95l-.11.87h-.88l-1,.21-2.35.52-2.65.6a14.19,14.19,0,0,0-1.83.51l-1.26.48-.1-1.34c-.2-2.64-.41-5.19-.65-7.58-.1-1-.2-2.08-.32-3.16-.09-.79-.17-1.55-.27-2.29-.11.63-.22,1.28-.32,1.94-.18,1-.36,2-.56,3-.43,2.22-.9,4.56-1.4,7l-.13.62-9.45,2.2Z" transform="translate(-6.73 -4.4)"/><path class="cls-2" d="M173.33,9.73q-1.7,7.65-3,14.5-.6,3-1.18,6T168.08,36c-.33,1.85-.62,3.57-.85,5.15s-.42,2.91-.55,4a12,12,0,0,0-1.18.23l-2.35.52-2.65.6a18.64,18.64,0,0,0-2,.55c-.2-2.66-.42-5.2-.65-7.59q-.15-1.56-.33-3.18c-.11-1.08-.24-2.13-.37-3.13s-.27-1.93-.4-2.8-.27-1.61-.4-2.25c-.1.64-.24,1.37-.4,2.2s-.34,1.72-.5,2.66-.34,1.9-.5,2.92-.35,2-.55,2.92q-.65,3.36-1.4,7l-7.3,1.7c1-4.79,2-9.45,2.85-13.95q.49-2.89,1.07-6c.39-2.06.74-4.1,1.08-6.12s.63-3.95.9-5.8.46-3.53.6-5c.43,0,.8.05,1.1.05h1c.46,0,1,0,1.7,0s1.33,0,2-.08l2.15-.09c.47,2.33.88,4.58,1.25,6.75.36,1.89.74,3.84,1.12,5.84s.73,3.7,1,5.1c.13-.66.28-1.44.45-2.32s.35-1.81.55-2.78.39-1.94.57-2.92.38-2,.58-2.92q.71-3.26,1.45-6.71l6.1-.75m2.56-2.33-2.81.35L167,8.5l-1.4.17-.31,1.39c-.5,2.3-1,4.54-1.45,6.7-.06.33-.13.66-.2,1l-.18-.94c-.36-2.16-.79-4.45-1.25-6.77l-.34-1.68-1.71.08-2.16.1L156,8.61c-.65,0-1.2,0-1.65,0h-1c-.26,0-.57,0-1,0l-2-.15-.17,2c-.13,1.45-.33,3.1-.59,4.92s-.57,3.78-.89,5.75-.69,4-1.07,6.09-.75,4.07-1.08,6c-.88,4.43-1.84,9.11-2.84,13.91l-.64,3.06,3.05-.71,7.3-1.7,1.25-.29.26-1.25c.36-1.75.7-3.47,1-5.14.18,2,.36,4,.51,6.13l.21,2.68,2.51-1a13.17,13.17,0,0,1,1.7-.46l2.65-.61,2.33-.52.87-.18h1.65l.21-1.75c.13-1,.31-2.33.55-3.93s.5-3.24.84-5.09.69-3.77,1.07-5.78.76-3.92,1.17-5.95c.86-4.55,1.87-9.41,3-14.46l.61-2.77Z" transform="translate(-6.73 -4.4)"/><path class="cls-3" d="M8.14,44.2c.2-1.5.43-3.17.7-5s.58-3.75.93-5.73.7-3.95,1.05-5.95.72-4,1.08-5.77c.82-4.31,1.71-8.8,2.65-13.36l.15-.69L25.58,6.26l-.32,1.4q-1.35,5.81-2.6,11.3c-.37,1.57-.74,3.19-1.1,4.86s-.72,3.32-1,4.92-.63,3.14-.89,4.62c-.18,1-.33,1.91-.47,2.75l1.49,0,2.54,0h.95l.05.95c0,.62.08,1.22.15,1.82s.13,1.14.21,1.62.16,1,.21,1.36a6.05,6.05,0,0,0,.1.66l.32,1.25H23.88q-.43,0-.84,0c-.23,0-.47,0-.71,0-1,0-2.08,0-3.22.1s-2.28.17-3.42.3-2.26.3-3.34.51a24.39,24.39,0,0,0-2.9.74l-1.52.51Z" transform="translate(-6.73 -4.4)"/><path class="cls-4" d="M24.28,7.44q-1.35,5.79-2.6,11.29c-.37,1.57-.73,3.2-1.1,4.88s-.72,3.33-1,4.92-.63,3.16-.9,4.66-.48,2.83-.65,4c.83-.07,1.73-.11,2.68-.13l2.52,0c0,.64.08,1.26.15,1.88s.14,1.17.23,1.67.15,1,.2,1.33.09.64.12.78c-.27,0-.52,0-.77,0s-.51,0-.78,0c-1,0-2.12,0-3.27.1s-2.31.17-3.48.3-2.31.31-3.42.53a24.71,24.71,0,0,0-3,.77c.2-1.5.43-3.16.7-5s.58-3.73.93-5.7.7-3.94,1.05-5.94.7-3.92,1.07-5.75q1.24-6.56,2.65-13.36l8.75-1.14m2.6-2.36L24,5.45,15.27,6.6l-1.41.19-.29,1.39c-.94,4.56-1.83,9.06-2.65,13.38-.36,1.8-.73,3.76-1.08,5.78s-.7,4-1.05,5.94-.67,3.93-.94,5.77-.5,3.51-.7,5l-.42,3.17,3-1a22.88,22.88,0,0,1,2.78-.71c1.05-.2,2.15-.37,3.27-.5s2.25-.22,3.36-.29,2.18-.1,3.16-.1c.22,0,.44,0,.64,0s.6,0,.91,0h2.57l-.63-2.5a5.45,5.45,0,0,1-.08-.54c0-.4-.12-.87-.21-1.39s-.15-1-.21-1.56-.11-1.18-.14-1.77l-.1-1.9h-1.9l-2.56,0h-.28c.08-.49.17-1,.26-1.53.26-1.47.56-3,.89-4.6s.68-3.23,1.05-4.9.73-3.33,1.09-4.85q1.25-5.52,2.6-11.3l.65-2.81Z" transform="translate(-6.73 -4.4)"/><path class="cls-3" d="M32.68,45.44a8.18,8.18,0,0,1-3.42-.72,7.5,7.5,0,0,1-2.7-2.13A10,10,0,0,1,24.8,39.1a17.35,17.35,0,0,1-.62-4.91,27.43,27.43,0,0,1,.73-6.13,42.13,42.13,0,0,1,1.94-6.29,34.2,34.2,0,0,1,3-6,30.3,30.3,0,0,1,4-5A19,19,0,0,1,38.62,7.2a11.66,11.66,0,0,1,5.46-1.37,8,8,0,0,1,4.26,1.08A7.75,7.75,0,0,1,51,9.67a12,12,0,0,1,1.28,3.63,20.5,20.5,0,0,1,.37,3.89,33.91,33.91,0,0,1-.9,8A34.94,34.94,0,0,1,49.33,32a28,28,0,0,1-3.5,5.6,27.68,27.68,0,0,1-4.18,4.2,18.48,18.48,0,0,1-4.49,2.7A12,12,0,0,1,32.68,45.44Zm9.65-27.11a4.62,4.62,0,0,0-2.44.67,8.14,8.14,0,0,0-2.16,1.89A14.44,14.44,0,0,0,36,23.69,29.79,29.79,0,0,0,34.65,27a20.1,20.1,0,0,0-.78,3.2,18.44,18.44,0,0,0-.24,2.7,2.82,2.82,0,0,0,.54,1.59,2.13,2.13,0,0,0,.61.54,1.13,1.13,0,0,0,.6.18,4.88,4.88,0,0,0,3.34-1.3,12.13,12.13,0,0,0,2.67-3.51,20.72,20.72,0,0,0,1.69-4.58,18.63,18.63,0,0,0,.6-4.42,10.33,10.33,0,0,0-.07-1.19,4.14,4.14,0,0,0-.24-1.05,1.65,1.65,0,0,0-.43-.64A.84.84,0,0,0,42.33,18.33Z" transform="translate(-6.73 -4.4)"/><path class="cls-4" d="M44.08,6.83a6.9,6.9,0,0,1,3.73.93,6.69,6.69,0,0,1,2.3,2.4,10.8,10.8,0,0,1,1.17,3.32,20.26,20.26,0,0,1,.35,3.71,33,33,0,0,1-.87,7.72,33.78,33.78,0,0,1-2.33,6.65A26.9,26.9,0,0,1,41,41a17.18,17.18,0,0,1-4.25,2.55,10.94,10.94,0,0,1-4.1.88,7,7,0,0,1-3-.63A6.61,6.61,0,0,1,27.33,42a8.94,8.94,0,0,1-1.57-3.15,16,16,0,0,1-.58-4.62,26.69,26.69,0,0,1,.7-5.91,43.05,43.05,0,0,1,1.9-6.15,34,34,0,0,1,2.95-5.8,29.62,29.62,0,0,1,3.85-4.87,18.18,18.18,0,0,1,4.5-3.38,10.74,10.74,0,0,1,5-1.25m-8.7,29.36a5.85,5.85,0,0,0,4-1.56,12.74,12.74,0,0,0,2.9-3.8A22,22,0,0,0,44.06,26a20,20,0,0,0,.62-4.65,12.23,12.23,0,0,0-.07-1.3,5.48,5.48,0,0,0-.3-1.3,2.59,2.59,0,0,0-.7-1,1.88,1.88,0,0,0-1.28-.43,5.7,5.7,0,0,0-2.95.8A9.17,9.17,0,0,0,37,20.26a14.53,14.53,0,0,0-1.88,3,29.82,29.82,0,0,0-1.37,3.4A20.18,20.18,0,0,0,32.88,30a19,19,0,0,0-.25,2.85,3.71,3.71,0,0,0,.2,1.15,3.38,3.38,0,0,0,.55,1,3.33,3.33,0,0,0,.88.78,2.06,2.06,0,0,0,1.12.33m8.7-31.36a12.7,12.7,0,0,0-5.92,1.48,20.41,20.41,0,0,0-5,3.74A31.85,31.85,0,0,0,29,15.26a36.52,36.52,0,0,0-3.12,6.14,44.18,44.18,0,0,0-2,6.44,28.8,28.8,0,0,0-.75,6.35,18.19,18.19,0,0,0,.66,5.19,11.14,11.14,0,0,0,1.94,3.85,8.61,8.61,0,0,0,3.06,2.39,9,9,0,0,0,3.84.82,12.86,12.86,0,0,0,4.85-1,19.39,19.39,0,0,0,4.75-2.84,28.74,28.74,0,0,0,4.33-4.35,29.67,29.67,0,0,0,3.62-5.8,35.07,35.07,0,0,0,3.4-15.23,22.61,22.61,0,0,0-.38-4.08,13.29,13.29,0,0,0-1.4-3.93,8.62,8.62,0,0,0-3-3.11,8.89,8.89,0,0,0-4.79-1.24Zm-8.7,29.36s0,0-.07,0a1.31,1.31,0,0,1-.35-.3,1.91,1.91,0,0,1-.33-1,17.84,17.84,0,0,1,.23-2.55,19.17,19.17,0,0,1,.74-3,28.48,28.48,0,0,1,1.29-3.17,12.71,12.71,0,0,1,1.62-2.6,7.4,7.4,0,0,1,1.89-1.67,3.77,3.77,0,0,1,1.93-.52h0a.53.53,0,0,1,.08.15,3.7,3.7,0,0,1,.19.81,10.8,10.8,0,0,1,.06,1.08,17.65,17.65,0,0,1-.57,4.18,20.26,20.26,0,0,1-1.61,4.36,10.78,10.78,0,0,1-2.44,3.22,3.88,3.88,0,0,1-2.68,1Z" transform="translate(-6.73 -4.4)"/><path class="cls-3" d="M57.38,45.33a6.77,6.77,0,0,1-3.31-.82A7.52,7.52,0,0,1,51.5,42.1a12.84,12.84,0,0,1-1.66-3.75,19.14,19.14,0,0,1-.61-5.07,34.78,34.78,0,0,1,1.34-9.54,31.84,31.84,0,0,1,3.77-8.5,21.55,21.55,0,0,1,5.85-6.15,13.26,13.26,0,0,1,7.69-2.4,6.51,6.51,0,0,1,2.71.58,6.79,6.79,0,0,1,2.24,1.65,7.88,7.88,0,0,1,1.46,2.52,9.39,9.39,0,0,1,.54,3.25v.62a6,6,0,0,1-.06.82l-.09.65-8,2.14-.36-.75c-.29-.61-.5-.69-.5-.69a1.68,1.68,0,0,0-1,.62,11.71,11.71,0,0,0-1.58,2.21,31.78,31.78,0,0,0-1.6,3.2c-.52,1.18-1,2.39-1.37,3.58s-.71,2.36-.95,3.44A12.34,12.34,0,0,0,59,33a3.49,3.49,0,0,0,.26,1.71c.13.2.22.2.29.2a1.51,1.51,0,0,0,.73-.29,4.46,4.46,0,0,0,1.07-.9,9.41,9.41,0,0,0,1-1.37A5.3,5.3,0,0,0,63,31l.26-1.14L71,32.94l-.41.94a26.48,26.48,0,0,1-2.79,5,19.92,19.92,0,0,1-3.26,3.57A13,13,0,0,1,61,44.62,9.86,9.86,0,0,1,57.38,45.33Z" transform="translate(-6.73 -4.4)"/><path class="cls-4" d="M67.88,7.69a5.39,5.39,0,0,1,2.3.5,5.56,5.56,0,0,1,1.9,1.39,7.08,7.08,0,0,1,1.28,2.2,8.62,8.62,0,0,1,.47,2.91v.62a5.16,5.16,0,0,1,0,.67l-6.55,1.75c-.4-.83-.87-1.25-1.4-1.25a2.41,2.41,0,0,0-1.67.93,12.85,12.85,0,0,0-1.73,2.4,31.68,31.68,0,0,0-1.65,3.3c-.53,1.22-1,2.44-1.4,3.67s-.72,2.41-1,3.53A13.1,13.1,0,0,0,58,33a4.25,4.25,0,0,0,.43,2.25,1.27,1.27,0,0,0,1.12.66,2.52,2.52,0,0,0,1.25-.43,5.55,5.55,0,0,0,1.3-1.1,9.35,9.35,0,0,0,1.1-1.53,6.07,6.07,0,0,0,.7-1.69l5.7,2.29A25.25,25.25,0,0,1,67,38.26a19.84,19.84,0,0,1-3.1,3.4,12,12,0,0,1-3.28,2,8.77,8.77,0,0,1-3.2.64,5.73,5.73,0,0,1-2.82-.7,6.34,6.34,0,0,1-2.23-2.1,11.7,11.7,0,0,1-1.52-3.45,17.53,17.53,0,0,1-.58-4.8A33.63,33.63,0,0,1,51.53,24a30.6,30.6,0,0,1,3.65-8.23,20.53,20.53,0,0,1,5.58-5.87,12.28,12.28,0,0,1,7.12-2.22m0-2a14.29,14.29,0,0,0-8.26,2.57A22.61,22.61,0,0,0,53.5,14.7a32.39,32.39,0,0,0-3.89,8.76,35.66,35.66,0,0,0-1.38,9.82,19.92,19.92,0,0,0,.65,5.34,13.66,13.66,0,0,0,1.8,4,8.47,8.47,0,0,0,2.91,2.73,7.75,7.75,0,0,0,3.79.94,10.74,10.74,0,0,0,3.93-.78,14.24,14.24,0,0,0,3.84-2.36,21.55,21.55,0,0,0,3.42-3.75,27.06,27.06,0,0,0,2.89-5.16l.82-1.88-1.9-.77-5.7-2.3-2.16-.87L62,30.73a4,4,0,0,1-.47,1.14,8.16,8.16,0,0,1-.87,1.21,5,5,0,0,1-.59.55c0-.16,0-.36,0-.6a11,11,0,0,1,.33-2.28c.23-1.05.54-2.18.92-3.35s.83-2.34,1.33-3.49a32,32,0,0,1,1.55-3.1,10.83,10.83,0,0,1,1.39-2l.6,1.24,1.6-.42,6.55-1.75,1.27-.34.19-1.31a6.39,6.39,0,0,0,.07-1v-.62a10.56,10.56,0,0,0-.59-3.59,8.9,8.9,0,0,0-1.66-2.84A7.65,7.65,0,0,0,71,6.36a7.56,7.56,0,0,0-3.13-.67Z" transform="translate(-6.73 -4.4)"/><path class="cls-3" d="M81.34,40.76c.1-.91.19-1.84.27-2.77,0-.47.08-.9.12-1.3H79.24l-2,7.1-.65.08c-.74.11-1.62.22-2.62.33l-2.81.33-4.66.59L67,43.65l4-13.11L72.6,24.9c.58-2,2.89-9.7,3.42-11.5S77,10,77.41,8.48l.19-.69.71,0c2.26-.17,4.58-.37,6.9-.6S89.8,6.59,92,6.2L93.3,6l-.12,1.31c-.1,1.06-.21,2.38-.33,4s-.22,3.3-.32,5.16-.2,3.81-.3,5.84l-.3,6c-.17,4.58-.35,9.47-.55,14.63l0,.82-.8.13c-1,.17-2,.31-3.07.41l-6.7,1.11S81.2,41.83,81.34,40.76ZM81,29.63l1.37-.06c0-.07,0-.14,0-.21,0-.48.1-1,.15-1.63s.11-1.3.17-2,.14-1.45.2-2.15S83,21.89,83.1,21Z" transform="translate(-6.73 -4.4)"/><path class="cls-4" d="M92.18,7.19c-.1,1.06-.21,2.39-.32,4s-.23,3.31-.33,5.17-.2,3.82-.3,5.86-.2,4-.3,6c-.17,4.59-.35,9.48-.55,14.64-1,.17-2,.3-3,.4l-2.75.46-2.7.44c.13-1.1.27-2.18.4-3.25s.19-1.86.28-2.8.15-1.73.22-2.39H78.48l-2,7.19-2.6.33-2.8.32-3.15.41q2-6.66,3.95-13.11.8-2.7,1.68-5.64t1.75-5.88L77,13.69q.8-2.71,1.4-5c2.27-.16,4.57-.36,6.93-.6s4.64-.55,6.87-.94m-7.5,6.59-.75.05-1.15,4.3-3.1,12.56.73,0,1.1-.05,1.07-.05a3.72,3.72,0,0,0,.7-.08c0-.2,0-.54.08-1s.09-1,.15-1.65.1-1.29.17-2,.13-1.45.2-2.15c.13-1.69.3-3.53.5-5.5l.3-4.35m9.74-9-2.59.47c-2.18.39-4.44.7-6.72.92s-4.62.43-6.88.6l-1.41.1-.37,1.38c-.4,1.47-.86,3.12-1.39,4.9S74,16.79,73.39,18.74s-1.17,3.91-1.75,5.88S70.5,28.47,70,30.27Q68,36.71,66,43.36l-.89,3,3.06-.39,3.14-.4,2.78-.32,2.64-.33,1.31-.18.35-1.27L80,37.69h.63l0,.22q-.12,1.38-.27,2.76c-.13,1-.26,2.12-.4,3.22l-.32,2.65,2.64-.43.2,0,2.5-.41,2.68-.44c1-.11,2.06-.24,3.07-.41l1.61-.27.06-1.63q.3-7.75.55-14.65c.1-1.94.2-3.94.3-6s.2-4,.3-5.84.21-3.6.32-5.13.22-2.89.32-3.94l.25-2.62Z" transform="translate(-6.73 -4.4)"/><path class="cls-3" d="M94.15,44.08c.76-3.64,1.5-7.28,2.2-10.84.3-1.5.6-3.06.9-4.69s.59-3.23.87-4.82.53-3.1.74-4.56c.16-1.08.31-2.09.44-3l-.61,0h-.88a8,8,0,0,1-2.32-.35l-.76-.23,0-.79c0-.51,0-1.11,0-1.79s0-1.43,0-2.14S95,7.36,95,7.36l1,.08c.85.06,1.7.11,2.56.15s1.7,0,2.56,0c1.68,0,3.32,0,4.87-.12s3-.18,4.37-.3,2.67-.25,3.93-.42l1.39-.18-.83,4.07c-.17.78-.32,1.55-.47,2.34s-.3,1.51-.44,2.09l-.13.58-.58.16a14.9,14.9,0,0,1-2.38.45l-1.49.21c-.19.95-.39,2-.61,3.09-.26,1.38-.52,2.8-.77,4.28s-.49,3-.72,4.51-.47,3-.7,4.41c-.53,3.27-1,6.71-1.5,10.22l-.1.74L93.85,45.49Z" transform="translate(-6.73 -4.4)"/><path class="cls-4" d="M114.48,7.78l-.55,2.7c-.17.77-.33,1.55-.48,2.35s-.29,1.49-.42,2.05a14.16,14.16,0,0,1-2.23.43c-.75.08-1.49.19-2.22.32q-.35,1.71-.75,3.78c-.27,1.38-.53,2.82-.78,4.3s-.49,3-.72,4.52-.47,3-.7,4.4c-.53,3.31-1,6.72-1.5,10.25l-9,1.4q1.16-5.49,2.2-10.84.45-2.25.9-4.71c.3-1.63.59-3.24.87-4.82s.54-3.12.75-4.6.41-2.84.58-4.08a14.52,14.52,0,0,0-1.74-.11h-.88a6.76,6.76,0,0,1-2-.31c0-.53,0-1.14,0-1.85s0-1.4,0-2.1S96,9.3,96,8.44c.87.06,1.73.11,2.6.14s1.73.05,2.6.05q2.55,0,4.92-.12c1.59-.08,3.05-.18,4.4-.3s2.68-.26,4-.43M117,5.44l-2.78.36c-1.25.16-2.56.3-3.89.42s-2.78.21-4.33.29-3.16.12-4.82.12c-.85,0-1.7,0-2.52,0S97,6.51,96.13,6.44l-2.07-.16L94,8.36c0,.86-.07,1.68-.1,2.44s0,1.46,0,2.18,0,1.23,0,1.73l-.09,1.58,1.51.46a8.92,8.92,0,0,0,2.61.39h.34c-.09.61-.18,1.24-.28,1.89-.21,1.46-.46,3-.73,4.54l-.88,4.81C96,30,95.67,31.56,95.37,33c-.7,3.56-1.44,7.2-2.2,10.84l-.59,2.83,2.86-.45,9-1.4,1.48-.23.19-1.48c.46-3.5,1-6.93,1.49-10.2.24-1.4.47-2.87.71-4.41s.46-3,.72-4.5.5-2.92.76-4.25c.17-.85.32-1.65.47-2.4l.77-.09a17.37,17.37,0,0,0,2.53-.49l1.14-.31.28-1.16c.14-.59.28-1.31.44-2.14s.3-1.54.46-2.29l.56-2.73L117,5.44Z" transform="translate(-6.73 -4.4)"/><path class="cls-3" d="M108,44c.33-1.42.67-3,1-4.75s.71-3.57,1.08-5.49.71-3.84,1-5.8.65-3.86,1-5.7q1.05-6.39,2.1-13.14l.11-.72,9.9-1.58L124,8.15q-1.16,6.7-2.25,13.15c-.3,1.83-1.56,9.61-1.88,11.55s-.61,3.79-.87,5.61-.52,3.46-.75,4.93l-.14.84h-.85c-.18,0-.62,0-1.68.13-.87.08-1.77.18-2.7.29l-2.51.33-1,.14-1.82.91Z" transform="translate(-6.73 -4.4)"/><path class="cls-4" d="M123,8q-1.16,6.7-2.25,13.15l-.93,5.7q-.47,3-1,5.86T118,38.31q-.41,2.73-.75,4.92c-.3,0-.89.05-1.78.13s-1.79.18-2.72.3L110.2,44a7.56,7.56,0,0,0-1.22.21c.33-1.44.67-3,1-4.78s.7-3.58,1.07-5.5.72-3.86,1-5.83.65-3.86,1-5.7q1-6.39,2.1-13.15L123,8m2.44-2.41L122.66,6l-7.8,1.25-1.43.23-.23,1.44c-.69,4.48-1.4,8.9-2.09,13.13q-.45,2.75-1,5.69c-.34,2-.69,3.92-1,5.78S108.39,37.27,108,39s-.68,3.31-1,4.71l-1,4.15,3.58-1.8.82-.11,2.51-.33c.92-.11,1.82-.21,2.66-.29,1.12-.1,1.48-.12,1.59-.12h1.71l.27-1.68c.23-1.48.48-3.12.75-4.95s.56-3.71.87-5.59.63-3.89,1-5.86.62-3.86.92-5.69Q123.8,15,125,8.32l.47-2.75Z" transform="translate(-6.73 -4.4)"/><path class="cls-3" d="M127.88,45.44a8.18,8.18,0,0,1-3.42-.72,7.61,7.61,0,0,1-2.71-2.13A10.11,10.11,0,0,1,120,39.1a17.35,17.35,0,0,1-.62-4.91,28,28,0,0,1,.72-6.13,43,43,0,0,1,2-6.29,34.2,34.2,0,0,1,3-6,30.3,30.3,0,0,1,4-5,18.87,18.87,0,0,1,4.75-3.56,11.63,11.63,0,0,1,5.46-1.37,8,8,0,0,1,4.26,1.08,7.67,7.67,0,0,1,2.64,2.76,11.83,11.83,0,0,1,1.28,3.63,20.5,20.5,0,0,1,.37,3.89,33.91,33.91,0,0,1-.9,8,34.94,34.94,0,0,1-2.4,6.85,28.42,28.42,0,0,1-3.5,5.6,27.68,27.68,0,0,1-4.18,4.2,18.67,18.67,0,0,1-4.49,2.7A12,12,0,0,1,127.88,45.44Zm9.65-27.11a4.62,4.62,0,0,0-2.44.67,8.14,8.14,0,0,0-2.16,1.89,14.44,14.44,0,0,0-1.75,2.8A29,29,0,0,0,129.85,27a19.07,19.07,0,0,0-.78,3.2,18.44,18.44,0,0,0-.24,2.7,2.67,2.67,0,0,0,.15.84,2.42,2.42,0,0,0,.39.75A2.13,2.13,0,0,0,130,35a1.08,1.08,0,0,0,.6.18,4.88,4.88,0,0,0,3.34-1.3,12.13,12.13,0,0,0,2.67-3.51,20.91,20.91,0,0,0,1.69-4.58,18.63,18.63,0,0,0,.6-4.42,10.33,10.33,0,0,0-.07-1.19,4.14,4.14,0,0,0-.24-1.05,1.76,1.76,0,0,0-.43-.64A.93.93,0,0,0,137.53,18.33Z" transform="translate(-6.73 -4.4)"/><path class="cls-4" d="M139.28,6.83a6.84,6.84,0,0,1,3.72.93,6.6,6.6,0,0,1,2.3,2.4,10.81,10.81,0,0,1,1.18,3.32,20.26,20.26,0,0,1,.35,3.71,32.49,32.49,0,0,1-.88,7.72,33.14,33.14,0,0,1-2.32,6.65,26.88,26.88,0,0,1-3.38,5.4,26.57,26.57,0,0,1-4,4A17.18,17.18,0,0,1,132,43.56a10.94,10.94,0,0,1-4.1.88,7,7,0,0,1-3-.63A6.61,6.61,0,0,1,122.53,42,9.12,9.12,0,0,1,121,38.81a16.42,16.42,0,0,1-.57-4.62,26.69,26.69,0,0,1,.7-5.91,43.05,43.05,0,0,1,1.9-6.15,34,34,0,0,1,3-5.8,29.62,29.62,0,0,1,3.85-4.87,18.18,18.18,0,0,1,4.5-3.38,10.74,10.74,0,0,1,5-1.25m-8.7,29.36a5.85,5.85,0,0,0,4-1.56,12.74,12.74,0,0,0,2.9-3.8,21.51,21.51,0,0,0,1.77-4.8,19.53,19.53,0,0,0,.63-4.65,12.39,12.39,0,0,0-.08-1.3,5.48,5.48,0,0,0-.3-1.3,2.49,2.49,0,0,0-.7-1,1.84,1.84,0,0,0-1.27-.43,5.7,5.7,0,0,0-2.95.8,9.36,9.36,0,0,0-2.43,2.13,14.94,14.94,0,0,0-1.87,3,31.86,31.86,0,0,0-1.38,3.4,21.14,21.14,0,0,0-.82,3.37,19,19,0,0,0-.25,2.85A3.71,3.71,0,0,0,128,34a3.38,3.38,0,0,0,.55,1,3.28,3.28,0,0,0,.87.78,2.09,2.09,0,0,0,1.13.33m8.7-31.36a12.7,12.7,0,0,0-5.92,1.48,20.41,20.41,0,0,0-5,3.74,31.32,31.32,0,0,0-4.12,5.21,35.79,35.79,0,0,0-3.12,6.14,45,45,0,0,0-2,6.44,28.87,28.87,0,0,0-.75,6.35,18.19,18.19,0,0,0,.66,5.19A10.84,10.84,0,0,0,121,43.22a8.45,8.45,0,0,0,3.06,2.4,9,9,0,0,0,3.84.82,12.86,12.86,0,0,0,4.85-1,19.39,19.39,0,0,0,4.75-2.84,28.74,28.74,0,0,0,4.33-4.35,29.67,29.67,0,0,0,3.62-5.8,36.23,36.23,0,0,0,2.47-7,34.89,34.89,0,0,0,.93-8.19,22.61,22.61,0,0,0-.38-4.08,13.29,13.29,0,0,0-1.4-3.93,8.62,8.62,0,0,0-3-3.11,8.89,8.89,0,0,0-4.79-1.24Zm-8.7,29.36s0,0-.07,0a1.17,1.17,0,0,1-.35-.3,1.32,1.32,0,0,1-.23-.46,1.53,1.53,0,0,1-.1-.52,17.84,17.84,0,0,1,.23-2.55,18.14,18.14,0,0,1,.74-3,29.59,29.59,0,0,1,1.28-3.17,13.19,13.19,0,0,1,1.63-2.6,7.17,7.17,0,0,1,1.89-1.66,3.68,3.68,0,0,1,1.93-.53h0a.64.64,0,0,1,.08.14,3.94,3.94,0,0,1,.19.82,10.64,10.64,0,0,1,.06,1.08,17.65,17.65,0,0,1-.57,4.18,20.54,20.54,0,0,1-1.61,4.37,10.73,10.73,0,0,1-2.45,3.21,3.84,3.84,0,0,1-2.67,1Z" transform="translate(-6.73 -4.4)"/><path class="cls-3" d="M142.75,44.28q1.5-7.2,2.85-13.94c.33-1.91.69-3.92,1.07-6s.74-4.09,1.07-6.1.63-3.94.9-5.78.46-3.51.59-5l.09-1,1,.08c.4,0,.74,0,1,0h1c.46,0,1,0,1.67,0l2-.07,3-.14.17.84c.46,2.31.88,4.59,1.26,6.78l1.15,6,0-.17c.2-1,.39-1.93.57-2.9s.38-2,.58-2.95l1.6-7.4,8.21-1L172.3,7c-1.12,5.07-2.13,9.94-3,14.47-.4,2-.79,4-1.17,6s-.75,3.94-1.08,5.79-.62,3.58-.84,5.12-.42,2.89-.55,3.95l-.11.87h-.88l-1,.21-2.35.52-2.65.6a14.19,14.19,0,0,0-1.83.51l-1.26.48-.1-1.34c-.2-2.64-.41-5.19-.65-7.58-.1-1-.2-2.08-.32-3.16-.09-.79-.17-1.55-.27-2.29-.11.63-.22,1.28-.32,1.94-.18,1-.36,2-.56,3-.43,2.22-.9,4.56-1.4,7l-.13.62-9.45,2.2Z" transform="translate(-6.73 -4.4)"/><path class="cls-4" d="M171.33,6.73q-1.7,7.65-3,14.5-.6,3-1.18,6T166.08,33c-.33,1.85-.62,3.57-.85,5.15s-.42,2.91-.55,4a12,12,0,0,0-1.18.23l-2.35.52-2.65.6a18.64,18.64,0,0,0-2,.55c-.2-2.66-.42-5.2-.65-7.59q-.15-1.56-.33-3.18c-.11-1.08-.24-2.13-.37-3.13s-.27-1.93-.4-2.8-.27-1.61-.4-2.25c-.1.64-.24,1.37-.4,2.2s-.34,1.72-.5,2.66-.34,1.9-.5,2.92-.35,2-.55,2.92q-.65,3.36-1.4,7l-7.3,1.7c1-4.79,2-9.45,2.85-13.95q.49-2.89,1.07-6c.39-2.06.74-4.1,1.08-6.12s.63-3.95.9-5.8.46-3.53.6-5c.43,0,.8,0,1.1,0h1c.46,0,1,0,1.7,0s1.33,0,2-.08l2.15-.09c.47,2.33.88,4.58,1.25,6.75.36,1.89.74,3.84,1.12,5.84s.73,3.7,1,5.1c.13-.66.28-1.44.45-2.32s.35-1.81.55-2.78.39-1.94.57-2.92.38-2,.58-2.92q.71-3.26,1.45-6.71l6.1-.75m2.56-2.33-2.81.35L165,5.5l-1.4.17-.31,1.39c-.5,2.3-1,4.54-1.45,6.7-.06.33-.13.66-.2,1l-.18-.94c-.36-2.16-.79-4.45-1.25-6.77l-.34-1.68-1.71.08-2.16.1L154,5.61c-.65,0-1.2,0-1.65,0h-1c-.26,0-.57,0-1,0l-2-.15-.17,2c-.13,1.45-.33,3.1-.59,4.92s-.57,3.78-.89,5.75-.69,4-1.07,6.09-.75,4.07-1.08,6c-.88,4.43-1.84,9.11-2.84,13.91l-.64,3.06,3.05-.71,7.3-1.7,1.25-.29.26-1.25c.36-1.75.7-3.47,1-5.14.18,2,.36,4,.51,6.13l.21,2.68,2.51-1a13.17,13.17,0,0,1,1.7-.46l2.65-.61,2.33-.52.87-.18h1.65l.21-1.75c.13-1,.31-2.33.55-3.93s.5-3.24.84-5.09.69-3.77,1.07-5.78.76-3.92,1.17-5.95c.86-4.55,1.87-9.41,3-14.46l.61-2.77Z" transform="translate(-6.73 -4.4)"/></svg>