<svg id="Layer_1" data-name="Layer 1" xmlns="http://www.w3.org/2000/svg" viewBox="0 0 180.55 98.12"><defs><style>.cls-1{fill:#133047;}.cls-2{fill:#ffb562;}.cls-3{fill:#fff;}</style></defs><path class="cls-1" d="M149.32,42.91c-8.45-10.53-21.11-15-33.23-19.81a151.09,151.09,0,0,1-18.42-9C91.56,10.6,85.4,7.35,78.59,5.49,55.42-.81,26.9,13.09,20.36,36.88,16.47,51,25.29,63.3,36,71.67,57.31,88.43,74.63,82.93,97.49,88.29c21.29,5,42.79,28.41,61.13,0C165.42,77.72,156.41,51.75,149.32,42.91Z" transform="translate(-3.86 -3.98)"/><path class="cls-2" d="M10.42,74.5q2.19-6.66,4.2-13c.56-1.8,1.15-3.69,1.75-5.65s1.2-3.92,1.8-5.85,1.15-3.8,1.65-5.6,1-3.47,1.4-5a43,43,0,0,0,5.2-.3c1.63-.2,3.4-.39,5.3-.55-.1.73-.22,1.56-.35,2.5s-.24,1.85-.4,2.85-.29,2-.45,3.1-.37,2.43-.6,4.1-.55,3.75-1,6.25h.65Q31.06,53.49,32,51c.63-1.7,1.15-3.09,1.55-4.15s.8-2.1,1.2-3.1l1.2-2.9c.4-.94.76-1.75,1.1-2.45.83-.07,1.61-.15,2.35-.25l2.2-.3c.73-.14,1.46-.25,2.2-.35l2.5-.45c-.34,1.93-.65,3.91-1,6s-.57,4.06-.8,6.1-.47,4-.7,5.95-.39,3.83-.55,5.6q-.6,6.2-1,12.1l-8.7,1.55c0-.17,0-.62,0-1.35s.13-1.64.2-2.7S34,68,34.17,66.7s.31-2.6.45-3.9.33-2.55.5-3.75.33-2.29.5-3.15h-.45c-.47,1.4-1,2.88-1.55,4.45s-1.15,3.1-1.75,4.7-1.14,3.16-1.7,4.7-1.07,3-1.5,4.4q-1.76,0-3,.15c-.84,0-1.8.08-2.9.15l1.6-18.55h-.75c-.07.43-.24,1.16-.5,2.2s-.59,2.16-.95,3.5-.7,2.66-1.1,4.1-.79,2.71-1.15,4-.62,2.2-.85,3-.37,1.2-.4,1.3Zm36.3-.45L49,64c0-1.44,0-3-.1-4.65s-.1-3.4-.2-5.1-.2-3.34-.3-4.9-.18-3-.25-4.2S48,42.93,48,42.2s-.1-1.1-.1-1.1L56,38v8.65c0,.86,0,1.71-.05,2.55v4.2c.44-1.14,1-2.54,1.55-4.2s1.22-3.29,1.75-4.85q1-2.76,1.95-5.8L69,40.3q-2.14,4.29-4.2,8.55c-.56,1.23-1.16,2.51-1.8,3.85l-1.9,3.95-1.85,3.8q-.9,1.84-1.65,3.45c-.16.86-.38,1.81-.65,2.85s-.46,2-.7,3c-.3,1.1-.61,2.2-.95,3.3Zm47.71-11.8a8.57,8.57,0,0,1-.85,3.8,12,12,0,0,1-2.3,3.2,17.08,17.08,0,0,1-3.4,2.5,26.47,26.47,0,0,1-4,1.8,32.19,32.19,0,0,1-4.35,1.1,27.46,27.46,0,0,1-4.25.35,18.78,18.78,0,0,1-3.45-.3,162,162,0,0,0,3.8-17.6Q77,48.19,78.33,39.2q2.6-.56,5.4-1a36.54,36.54,0,0,1,5.8-.45,12.67,12.67,0,0,1,2.65.3,6.92,6.92,0,0,1,2.55,1.1,6.32,6.32,0,0,1,1.9,2.1,6.2,6.2,0,0,1,.8,3.3,9.69,9.69,0,0,1-.65,3.55,11.66,11.66,0,0,1-1.6,3A11.45,11.45,0,0,1,93,53.5,10.59,10.59,0,0,1,90.43,55a6.49,6.49,0,0,1,1.35,1,8.4,8.4,0,0,1,1.3,1.55,6.7,6.7,0,0,1,1,2A8.42,8.42,0,0,1,94.43,62.25ZM83,57.05c-.13.8-.27,1.51-.4,2.15s-.2,1.18-.3,1.75-.22,1.16-.35,1.8-.22,1.31-.35,2.15c.63-.07,1.35-.19,2.15-.35A11.26,11.26,0,0,0,86,63.8a6.23,6.23,0,0,0,1.85-1.4,3.26,3.26,0,0,0,.75-2.15,2.28,2.28,0,0,0-.5-1.5,3.49,3.49,0,0,0-1.2-1,4.69,4.69,0,0,0-1.55-.55,6.67,6.67,0,0,0-1.6-.2h-.45A1.18,1.18,0,0,0,83,57.05ZM85.23,45c-.07.36-.15.8-.25,1.3s-.15,1-.25,1.6-.22,1.06-.35,1.6-.18,1-.25,1.4a19.65,19.65,0,0,0,2.2-.55,19.08,19.08,0,0,0,2-.75,5.4,5.4,0,0,0,1.4-.95,1.47,1.47,0,0,0,.55-1.1,1.62,1.62,0,0,0-.45-1.2,3.08,3.08,0,0,0-1.2-.8,5.36,5.36,0,0,0-1.5-.4A7,7,0,0,0,85.73,45ZM114,65.05a16,16,0,0,1-2,4.85,12.24,12.24,0,0,1-3,3.3,11.8,11.8,0,0,1-3.65,1.9,13.2,13.2,0,0,1-3.9.6,7.58,7.58,0,0,1-2.35-.4,6.2,6.2,0,0,1-3.75-3,5.78,5.78,0,0,1-.6-2.7v-.4a1.33,1.33,0,0,1,0-.4c.13-1.37.35-3,.65-4.95s.61-4,1-6.05.7-4.2,1.1-6.3.75-4.07,1-5.8.61-3.17.85-4.3.38-1.89.45-2.15l2.5-.25c1-.1,1.86-.19,2.7-.25l3.05-.3q-1.31,6-2.3,10.95l-.9,4.2c-.27,1.4-.54,2.68-.8,3.85s-.45,2.18-.65,3-.32,1.51-.45,2-.24,1.21-.4,2a12.74,12.74,0,0,0-.2,2.2,2.23,2.23,0,0,0,.4,1.35,1.23,1.23,0,0,0,1,.5,1.78,1.78,0,0,0,1.4-.65,6.5,6.5,0,0,0,.9-1.65,8.67,8.67,0,0,0,.55-1.9c.13-.67.25-1.19.35-1.55.2-1,.41-2,.65-3.2s.51-2.44.75-3.7.51-2.62.75-4,.51-2.64.75-3.9q.84-4.41,1.65-9.1l7.6-.5s-.09.43-.25,1.3-.39,2-.65,3.45-.57,3.06-.9,4.9S116.72,52,116.32,54s-.8,3.91-1.2,5.85S114.38,63.45,114,65.05Zm25.59-15.8a22.61,22.61,0,0,1-.75,5.55,34.09,34.09,0,0,1-2.1,5.8,31.25,31.25,0,0,1-3.35,5.5A25.52,25.52,0,0,1,129,70.7a22.32,22.32,0,0,1-5.5,3.15,16.51,16.51,0,0,1-6.3,1.2,11.11,11.11,0,0,1-1.4-.1l-1.4-.15q1.35-6.9,2.65-13.45l1-5.7q.56-3,1-5.9c.34-1.94.65-3.79,1-5.55s.6-3.37.8-4.8q2.16-.4,4.35-.75a27.88,27.88,0,0,1,4.5-.35,10.81,10.81,0,0,1,4.55.85,7.61,7.61,0,0,1,3.05,2.35,9.45,9.45,0,0,1,1.75,3.5A15.81,15.81,0,0,1,139.61,49.25Zm-11.8-3.9c-.36,2-.75,3.85-1.15,5.65s-.8,3.61-1.2,5.45-.8,3.75-1.2,5.75-.78,4.18-1.15,6.55a10.67,10.67,0,0,0,2.3-2.15,21,21,0,0,0,2.15-3.2,32.38,32.38,0,0,0,1.8-3.8c.57-1.34,1-2.64,1.45-3.9a29.37,29.37,0,0,0,.9-3.55,13.57,13.57,0,0,0,.35-2.85A3.91,3.91,0,0,0,131,46.4,4.24,4.24,0,0,0,127.81,45.35Zm33.87,3.9a22.61,22.61,0,0,1-.75,5.55,34.09,34.09,0,0,1-2.1,5.8,31.25,31.25,0,0,1-3.35,5.5A25.52,25.52,0,0,1,151,70.7a22.32,22.32,0,0,1-5.5,3.15,16.51,16.51,0,0,1-6.3,1.2,11.11,11.11,0,0,1-1.4-.1l-1.4-.15q1.35-6.9,2.65-13.45l1-5.7q.56-3,1.05-5.9c.34-1.94.65-3.79.95-5.55s.6-3.37.8-4.8q2.16-.4,4.35-.75a27.88,27.88,0,0,1,4.5-.35,10.81,10.81,0,0,1,4.55.85,7.61,7.61,0,0,1,3,2.35,9.45,9.45,0,0,1,1.75,3.5A15.81,15.81,0,0,1,161.68,49.25Zm-11.8-3.9c-.36,2-.75,3.85-1.15,5.65s-.8,3.61-1.2,5.45-.8,3.75-1.2,5.75-.78,4.18-1.15,6.55a10.67,10.67,0,0,0,2.3-2.15,21,21,0,0,0,2.15-3.2,32.38,32.38,0,0,0,1.8-3.8c.57-1.34,1-2.64,1.45-3.9a29.37,29.37,0,0,0,.9-3.55,13.57,13.57,0,0,0,.35-2.85,3.91,3.91,0,0,0-1-2.9A4.24,4.24,0,0,0,149.88,45.35Zm12.27,28.7,2.3-10c0-1.44,0-3-.1-4.65s-.1-3.4-.2-5.1-.2-3.34-.3-4.9-.18-3-.25-4.2-.13-2.22-.2-2.95-.1-1.1-.1-1.1l8.15-3.1v8.65c0,.86,0,1.71,0,2.55v4.2c.44-1.14.95-2.54,1.55-4.2s1.22-3.29,1.75-4.85q1-2.76,2-5.8l7.75,1.75q-2.15,4.29-4.2,8.55c-.56,1.23-1.16,2.51-1.8,3.85l-1.9,3.95-1.85,3.8q-.9,1.84-1.65,3.45c-.16.86-.38,1.81-.65,2.85s-.46,2-.7,3c-.3,1.1-.61,2.2-1,3.3Z" transform="translate(-3.86 -3.98)"/><path class="cls-3" d="M5.74,69.5c1.43-4.33,2.84-8.72,4.19-13q.86-2.7,1.75-5.65c.6-2,1.2-3.92,1.8-5.85s1.16-3.79,1.67-5.58,1-3.45,1.37-5l.2-.74h.77a41,41,0,0,0,5.08-.3c1.61-.19,3.41-.38,5.33-.55l1.25-.11L29,34c-.1.73-.21,1.55-.32,2.47s-.26,1.89-.41,2.89-.31,2-.47,3.11-.36,2.33-.58,3.92l1.7-4.53c.4-1.07.82-2.12,1.24-3.15s.82-2,1.2-2.9.76-1.76,1.09-2.47l.25-.53.58,0c.81-.07,1.58-.15,2.29-.24s1.45-.21,2.18-.33L40,31.8c.74-.11,1.56-.25,2.45-.42l1.41-.26-.25,1.42c-.33,1.91-.64,3.9-.94,5.92s-.57,4.06-.8,6-.46,4-.67,6-.41,3.82-.58,5.58c-.39,4.11-.75,8.18-1,12.08l-.05.77-10.64,1.9V69.62c0-.18,0-.65.08-1.42s.11-1.64.2-2.71.2-2.27.35-3.59l.37-3.21-.74,2c-.58,1.6-1.16,3.17-1.72,4.7s-1.06,3-1.49,4.35l-.21.69-.71,0q-1.74,0-3,.12l-4.06.24,1-12c-.22.8-.45,1.61-.68,2.44-.4,1.42-.78,2.74-1.13,4l-.87,3c-.24.79-.38,1.24-.41,1.35l-.21.64-10.41.69Z" transform="translate(-3.86 -3.98)"/><path d="M42.59,32.37c-.34,1.93-.65,3.91-1,6s-.57,4-.8,6.07-.46,4-.68,6-.41,3.83-.57,5.6q-.6,6.2-1.05,12.1l-8.7,1.55c0-.17,0-.62.07-1.35s.12-1.64.2-2.7.2-2.25.35-3.55l.45-3.9q.22-1.95.48-3.78c.16-1.22.33-2.26.5-3.12h-.45c-.47,1.4-1,2.87-1.55,4.42s-1.14,3.13-1.73,4.73-1.16,3.16-1.72,4.7-1.07,3-1.5,4.4q-1.76,0-3,.12l-2.9.18,1.6-18.55h-.75c-.07.43-.24,1.15-.5,2.17l-.93,3.5c-.35,1.32-.72,2.68-1.12,4.1s-.78,2.73-1.13,3.95-.64,2.22-.87,3-.37,1.23-.4,1.33l-8.25.55c1.47-4.44,2.86-8.79,4.2-13,.56-1.8,1.15-3.69,1.75-5.65s1.2-3.92,1.8-5.85,1.16-3.8,1.67-5.6,1-3.47,1.38-5a43,43,0,0,0,5.2-.3c1.63-.2,3.4-.39,5.3-.55-.1.73-.21,1.55-.33,2.47s-.25,1.88-.4,2.88-.31,2-.47,3.1-.37,2.43-.6,4.1-.55,3.75-1,6.25h.65l2.4-6.33,1.55-4.12c.4-1.07.81-2.11,1.22-3.13l1.2-2.9c.39-.92.74-1.72,1.08-2.42.83-.07,1.61-.15,2.35-.25l2.2-.33,2.22-.35,2.48-.42m2.46-2.49-2.83.52c-.87.16-1.69.3-2.41.41l-2.24.36c-.72.11-1.43.22-2.15.31s-1.45.18-2.24.24L32,31.81l-.5,1.05c-.34.72-.72,1.57-1.11,2.51l-.91,2.18c0-.34.09-.68.14-1,.11-.91.22-1.73.32-2.45l.34-2.49-2.5.22c-1.93.17-3.74.36-5.37.56a40.7,40.7,0,0,1-5,.29H15.94l-.39,1.49c-.39,1.5-.85,3.17-1.36,5s-1.08,3.69-1.66,5.56l-1.81,5.86c-.59,2-1.18,3.84-1.74,5.64-1.35,4.31-2.76,8.69-4.19,13L3.86,72l3-.2,8.25-.55,1.35-.09.42-1.29c0-.07.11-.35.25-.82l0,.53-.2,2.31,2.31-.14.83-.05,2.07-.12c.8,0,1.76-.09,2.93-.12l1.44,0,.42-1.36c.35-1.13.74-2.31,1.18-3.53,0,.6-.08,1.13-.11,1.6-.07,1-.08,1.33-.08,1.49V72l2.35-.42L38.89,70l1.52-.27.12-1.54c.3-3.9.65-8,1-12.06.17-1.77.36-3.64.57-5.57s.44-4,.67-6,.5-4,.8-6,.61-4,.94-5.9l.49-2.83Z" transform="translate(-3.86 -3.98)"/><path class="cls-3" d="M44.29,59.2c0-1.38,0-2.91-.08-4.53s-.12-3.38-.22-5.05-.2-3.33-.3-4.92-.19-3-.25-4.2-.17-2.54-.3-4l-.07-.76,10.22-3.88V42c0,.36,0,.73,0,1.09.46-1.27.9-2.51,1.31-3.72q.94-2.75,1.95-5.79l.28-.86,9.88,2.23-.57,1.14c-1.41,2.82-2.82,5.69-4.19,8.54-.56,1.22-1.17,2.5-1.8,3.82l-1.9,3.95C57.6,53.69,57,55,56.39,56.2s-1.11,2.3-1.59,3.33c-.17.86-.38,1.79-.62,2.77s-.49,2-.72,3c-.31,1.13-.63,2.24-1,3.35l-.19.62-10.61,1.3Z" transform="translate(-3.86 -3.98)"/><path d="M52.29,33.32V42q0,1.29,0,2.55c0,.83,0,1.61,0,2.35v1.85c.43-1.14.95-2.54,1.57-4.2s1.19-3.29,1.73-4.85q.95-2.76,2-5.8l7.75,1.75q-2.16,4.29-4.2,8.55c-.57,1.23-1.17,2.5-1.8,3.82s-1.27,2.63-1.9,3.95l-1.85,3.83q-.9,1.84-1.65,3.45-.26,1.29-.63,2.85L52.49,65c-.3,1.1-.62,2.2-1,3.3L43,69.37l2.3-10.05c0-1.44,0-3-.08-4.68s-.12-3.37-.22-5.07-.2-3.35-.3-4.93-.19-3-.25-4.2-.17-2.56-.3-4l8.15-3.1m2-2.9-2.71,1-8.15,3.1L42,35.09l.14,1.51c.13,1.44.22,2.77.29,3.95s.15,2.63.25,4.22.2,3.22.3,4.91.17,3.35.22,5,.07,3,.08,4.39L41,68.92,40.4,71.7l2.83-.35,8.55-1,1.29-.16.38-1.24c.34-1.12.66-2.24,1-3.36s.48-2,.74-3,.43-1.86.59-2.7c.47-1,1-2.06,1.54-3.2s1.21-2.51,1.85-3.83l1.9-4c.64-1.33,1.25-2.63,1.81-3.86,1.36-2.81,2.77-5.68,4.18-8.49l1.14-2.28-2.49-.56-7.75-1.75-1.78-.41-.56,1.73c-.44,1.35-.88,2.65-1.3,3.9V30.42Z" transform="translate(-3.86 -3.98)"/><path class="cls-3" d="M71.49,71.32A19.88,19.88,0,0,1,67.85,71l-1.07-.2.29-1a164.38,164.38,0,0,0,3.8-17.52c.95-5.88,1.86-11.89,2.73-17.86l.1-.69.68-.14c1.74-.37,3.58-.7,5.46-1a39.77,39.77,0,0,1,6-.43,13.24,13.24,0,0,1,2.85.32,8.08,8.08,0,0,1,2.92,1.25,7.88,7.88,0,0,1,2.21,2.41,7.38,7.38,0,0,1,.92,3.82,11.15,11.15,0,0,1-.69,3.9,13.86,13.86,0,0,1-1.73,3.23,12.39,12.39,0,0,1-2.42,2.53,11.89,11.89,0,0,1-1.24.85.52.52,0,0,0,.11.1,10.94,10.94,0,0,1,1.44,1.69,9,9,0,0,1,1.11,2.35,10.35,10.35,0,0,1,.42,3,9.61,9.61,0,0,1-1,4.23,12.52,12.52,0,0,1-2.5,3.45,16.73,16.73,0,0,1-3.59,2.66,25,25,0,0,1-4.22,1.88,28.8,28.8,0,0,1-4.5,1.14A27.79,27.79,0,0,1,71.49,71.32Zm8.6-18c-.09.49-.17.94-.25,1.36l-.32,1.76c-.1.57-.42,2.3-.47,2.59l.73-.14a9.43,9.43,0,0,0,2.08-.7A4.74,4.74,0,0,0,83.38,57a2.17,2.17,0,0,0,.51-1.47,1.38,1.38,0,0,0-.26-.88,3,3,0,0,0-.9-.75,4.9,4.9,0,0,0-1.3-.47A6.54,6.54,0,0,0,80.09,53.32Zm2.16-11.59c-.09.5-.18,1-.28,1.59s-.2,1-.3,1.53l.61-.19a12.4,12.4,0,0,0,1.84-.72,4.57,4.57,0,0,0,1.15-.75c.22-.2.22-.33.22-.37a.73.73,0,0,0-.18-.54,2.49,2.49,0,0,0-.83-.54,5.67,5.67,0,0,0-1.28-.36,7.66,7.66,0,0,0-.88-.1C82.3,41.42,82.27,41.57,82.25,41.73Z" transform="translate(-3.86 -3.98)"/><path d="M85.79,33.12a12.74,12.74,0,0,1,2.65.3A6.92,6.92,0,0,1,91,34.52a6.71,6.71,0,0,1,1.92,2.1,6.3,6.3,0,0,1,.78,3.3,9.89,9.89,0,0,1-.63,3.55,13,13,0,0,1-1.6,3,11.4,11.4,0,0,1-2.22,2.32,10.46,10.46,0,0,1-2.55,1.48,6.49,6.49,0,0,1,1.35,1,9.34,9.34,0,0,1,1.3,1.52,7.7,7.7,0,0,1,1,2.08,9,9,0,0,1,.38,2.7,8.7,8.7,0,0,1-.85,3.8,11.73,11.73,0,0,1-2.3,3.17A16,16,0,0,1,84.16,67a23.76,23.76,0,0,1-4,1.8,28.28,28.28,0,0,1-4.35,1.1,25.73,25.73,0,0,1-4.27.38A18.62,18.62,0,0,1,68,70a166.43,166.43,0,0,0,3.82-17.63q1.42-8.88,2.73-17.87,2.59-.56,5.4-1a39,39,0,0,1,5.8-.42m-5.4,13.05a20.21,20.21,0,0,0,2.2-.55,16.18,16.18,0,0,0,2-.78,5.57,5.57,0,0,0,1.4-.92,1.52,1.52,0,0,0,.53-1.1A1.73,1.73,0,0,0,86,41.59a3.36,3.36,0,0,0-1.18-.77,6.45,6.45,0,0,0-1.5-.43A9.08,9.08,0,0,0,82,40.27h-.5c-.07.36-.15.8-.23,1.3s-.17,1-.27,1.57-.21,1.09-.33,1.63-.21,1-.27,1.4m-2.55,14c.63-.07,1.35-.19,2.15-.35a10.4,10.4,0,0,0,2.3-.78,5.63,5.63,0,0,0,1.85-1.4,3.14,3.14,0,0,0,.75-2.12,2.33,2.33,0,0,0-.48-1.5,3.91,3.91,0,0,0-1.2-1,5.57,5.57,0,0,0-1.57-.58,7.72,7.72,0,0,0-1.6-.17h-.43a1.22,1.22,0,0,0-.37,0c-.14.8-.26,1.5-.38,2.12s-.22,1.21-.32,1.78-.21,1.15-.33,1.77-.24,1.34-.37,2.18m8-29.1a41.8,41.8,0,0,0-6.1.44c-1.9.29-3.75.63-5.52,1l-1.36.29-.2,1.38c-.87,6-1.78,12-2.72,17.84a167.54,167.54,0,0,1-3.78,17.42l-.58,2.09,2.14.4a20.88,20.88,0,0,0,3.82.34,27.47,27.47,0,0,0,4.6-.41,28.78,28.78,0,0,0,4.67-1.18,26.87,26.87,0,0,0,4.38-1.94A17.87,17.87,0,0,0,88.94,66a13.52,13.52,0,0,0,2.69-3.73,10.59,10.59,0,0,0,1.06-4.67,11.05,11.05,0,0,0-.47-3.3A9.69,9.69,0,0,0,91,51.66a11.11,11.11,0,0,0-.83-1.06l.31-.23a13.54,13.54,0,0,0,2.61-2.73,15.07,15.07,0,0,0,1.85-3.46,12.05,12.05,0,0,0,.76-4.26,8.37,8.37,0,0,0-1.06-4.33,8.57,8.57,0,0,0-2.5-2.71,8.93,8.93,0,0,0-3.27-1.42,14.71,14.71,0,0,0-3.07-.34ZM83,43.35c.06-.33.12-.65.17-1a5.43,5.43,0,0,1,.95.28l.14.07a4.91,4.91,0,0,1-.55.31c-.22.11-.46.21-.71.31ZM80.31,57.72c.07-.38.13-.75.2-1.1.09-.57.2-1.15.32-1.76,0-.15,0-.31.08-.47l.32.06a3.64,3.64,0,0,1,1,.37,1.93,1.93,0,0,1,.59.49.47.47,0,0,1,0,.26,1.18,1.18,0,0,1-.27.82,3.68,3.68,0,0,1-1.2.9,8.78,8.78,0,0,1-1.11.43Z" transform="translate(-3.86 -3.98)"/><path class="cls-3" d="M97.74,72a9.15,9.15,0,0,1-2.65-.42,7.68,7.68,0,0,1-2.47-1.3,7,7,0,0,1-1.84-2.21A6.62,6.62,0,0,1,90,64.92v-.4A2.76,2.76,0,0,1,90.1,64c.13-1.35.35-3,.65-4.94s.61-3.95,1-6,.7-4.21,1.1-6.35.76-4,1.08-5.77.59-3.19.83-4.35.39-1.9.46-2.17l.17-.68.7-.07,2.49-.25c1-.1,1.89-.18,2.73-.25l4.39-.44L105.36,34q-1.29,6-2.3,10.94c-.3,1.4-.59,2.8-.87,4.19s-.55,2.7-.8,3.87l-1.1,5.1c-.12.52-.25,1.19-.4,2a12.3,12.3,0,0,0-.2,2,1.13,1.13,0,0,0,.19.71c.1.14.15.14.21.14a.73.73,0,0,0,.62-.31,5.2,5.2,0,0,0,.77-1.36,9.84,9.84,0,0,0,.5-1.74c.12-.68.23-1.21.34-1.61.19-.9.41-2,.66-3.17s.5-2.4.75-3.68.5-2.59.75-3.92.49-2.63.72-3.9c.57-2.92,1.12-6,1.65-9.08l.13-.78,9.68-.64-.24,1.28q-.51,2.59-.9,4.74t-.87,4.89c-.33,1.87-.69,3.8-1.08,5.75l-1.18,5.85c-.38,1.91-.76,3.7-1.13,5.3a16.89,16.89,0,0,1-2.11,5.16,13.4,13.4,0,0,1-3.24,3.56,12.6,12.6,0,0,1-4,2.06A14.18,14.18,0,0,1,97.74,72Z" transform="translate(-3.86 -3.98)"/><path d="M104.39,33.77q-1.31,6-2.3,10.95c-.3,1.4-.6,2.8-.88,4.2s-.55,2.68-.8,3.85-.47,2.17-.65,3-.33,1.54-.45,2.08-.25,1.2-.4,2a12.43,12.43,0,0,0-.22,2.23,2.09,2.09,0,0,0,.4,1.32,1.21,1.21,0,0,0,1,.53,1.75,1.75,0,0,0,1.4-.68,6.29,6.29,0,0,0,.92-1.62,10.53,10.53,0,0,0,.55-1.93c.12-.65.23-1.16.33-1.52.2-1,.42-2,.67-3.23s.5-2.42.75-3.7.5-2.59.75-3.92.49-2.64.73-3.9q.84-4.41,1.65-9.1l7.6-.5c-.34,1.73-.64,3.31-.9,4.75s-.56,3.06-.88,4.9-.67,3.74-1.07,5.72-.8,3.93-1.18,5.85-.76,3.68-1.12,5.28a16.29,16.29,0,0,1-2,4.85,12.57,12.57,0,0,1-3,3.3,12,12,0,0,1-3.67,1.9,13.2,13.2,0,0,1-3.9.6,7.85,7.85,0,0,1-2.35-.38,6.58,6.58,0,0,1-2.15-1.12,6.13,6.13,0,0,1-1.58-1.9,5.55,5.55,0,0,1-.62-2.7v-.4a1.33,1.33,0,0,1,0-.4c.13-1.37.35-3,.65-5s.61-4,1-6.05.7-4.21,1.1-6.33.75-4,1.07-5.77.59-3.18.83-4.33.38-1.86.45-2.12l2.5-.25c1-.1,1.86-.19,2.7-.25l3-.3m2.53-2.27-2.73.28-3,.3c-.81.06-1.73.15-2.71.25L96,32.58l-1.41.13-.34,1.37c0,.11-.12.46-.47,2.22-.24,1.16-.52,2.63-.84,4.36s-.67,3.65-1.07,5.76-.78,4.3-1.11,6.38-.65,4.12-.95,6.06-.52,3.57-.65,4.94a3.51,3.51,0,0,0-.07.72v.4a7.63,7.63,0,0,0,.86,3.65A8.2,8.2,0,0,0,92,71.09a8.55,8.55,0,0,0,2.79,1.46,9.87,9.87,0,0,0,2.95.47,15.43,15.43,0,0,0,4.48-.69,13.82,13.82,0,0,0,4.29-2.22A14.43,14.43,0,0,0,110,66.29a18.29,18.29,0,0,0,2.23-5.45c.37-1.64.76-3.43,1.14-5.36s.78-3.86,1.18-5.84.76-3.9,1.08-5.78.61-3.45.87-4.88l.9-4.74.49-2.54-2.59.17-7.6.5-1,.07.2-.94Z" transform="translate(-3.86 -3.98)"/><path class="cls-3" d="M113.44,71.37a12.5,12.5,0,0,1-1.51-.09l-1.44-.17-1-.15.2-1Q111,63,112.3,56.47c.33-1.82.69-3.73,1-5.71s.72-3.93,1.05-5.86.66-3.79,1-5.56.57-3.36.77-4.76l.1-.72.7-.13q2.16-.4,4.38-.75a29.8,29.8,0,0,1,4.66-.36,11.93,11.93,0,0,1,5,.94,9,9,0,0,1,3.43,2.64,10.93,10.93,0,0,1,1.9,3.85,17.07,17.07,0,0,1,.59,4.52,23.35,23.35,0,0,1-.79,5.77,34.11,34.11,0,0,1-2.16,6A32.56,32.56,0,0,1,130.51,62a26.41,26.41,0,0,1-4.65,4.79,23.51,23.51,0,0,1-5.73,3.31A17.66,17.66,0,0,1,113.44,71.37Zm11.47-29.66c-.32,1.68-.66,3.3-1,4.82q-.6,2.7-1.2,5.45c-.4,1.83-.79,3.74-1.19,5.73-.24,1.16-.46,2.39-.68,3.67l.1-.12a21,21,0,0,0,2-3,36.17,36.17,0,0,0,1.78-3.7c.53-1.29,1-2.57,1.39-3.82a30.37,30.37,0,0,0,.9-3.44,14.5,14.5,0,0,0,.31-2.65,3,3,0,0,0-.75-2.21A2.81,2.81,0,0,0,124.91,41.71Z" transform="translate(-3.86 -3.98)"/><path d="M126,33.62a11,11,0,0,1,4.57.85,7.89,7.89,0,0,1,3.05,2.35,9.9,9.9,0,0,1,1.73,3.5,16.22,16.22,0,0,1,.55,4.25,22.26,22.26,0,0,1-.75,5.52,32.9,32.9,0,0,1-2.1,5.8,30.89,30.89,0,0,1-3.33,5.5,25.33,25.33,0,0,1-4.47,4.6,22.22,22.22,0,0,1-5.48,3.18,16.72,16.72,0,0,1-6.32,1.2,13,13,0,0,1-1.4-.08l-1.4-.17q1.35-6.9,2.65-13.45.49-2.76,1-5.73t1-5.87q.49-2.91,1-5.55t.78-4.8q2.14-.4,4.35-.75a27.71,27.71,0,0,1,4.5-.35m-6.6,30.45a10.89,10.89,0,0,0,2.32-2.18,21.86,21.86,0,0,0,2.13-3.17,38.11,38.11,0,0,0,1.82-3.8c.55-1.34,1-2.64,1.43-3.9a34,34,0,0,0,.92-3.55,14.84,14.84,0,0,0,.33-2.85,4,4,0,0,0-1-2.9,4.33,4.33,0,0,0-3.22-1c-.37,2-.75,3.85-1.15,5.65s-.8,3.61-1.2,5.45-.8,3.75-1.2,5.75-.79,4.18-1.15,6.55M126,31.62a30.73,30.73,0,0,0-4.82.37c-1.48.24-3,.49-4.4.76l-1.42.26-.19,1.43c-.2,1.39-.46,3-.77,4.72s-.64,3.63-1,5.57-.68,3.91-1,5.85-.72,3.89-1.05,5.73c-.86,4.33-1.75,8.82-2.65,13.42l-.4,2.07,2.08.3q.74.11,1.47.18a14.39,14.39,0,0,0,1.62.09A18.84,18.84,0,0,0,120.51,71a24.35,24.35,0,0,0,6-3.46,27.43,27.43,0,0,0,4.83-5,33.89,33.89,0,0,0,3.54-5.85,34.94,34.94,0,0,0,2.22-6.15,24.41,24.41,0,0,0,.82-6,17.74,17.74,0,0,0-.63-4.78,11.85,11.85,0,0,0-2.07-4.21,10,10,0,0,0-3.8-2.94,13.14,13.14,0,0,0-5.4-1Zm-3.18,24.75c.29-1.43.59-2.83.88-4.18q.6-2.74,1.2-5.44c.27-1.21.53-2.48.79-3.79a1.15,1.15,0,0,1,.2.15,2,2,0,0,1,.46,1.51,13.32,13.32,0,0,1-.29,2.46,31.17,31.17,0,0,1-.87,3.33c-.38,1.22-.84,2.48-1.37,3.74-.31.76-.65,1.5-1,2.22Z" transform="translate(-3.86 -3.98)"/><path class="cls-3" d="M135.48,71.37a12.45,12.45,0,0,1-1.5-.09l-1.44-.17-1-.15.2-1q1.35-6.9,2.65-13.45c.33-1.82.68-3.73,1.05-5.71s.72-3.93,1-5.86.66-3.79,1-5.56.57-3.36.76-4.76l.1-.72.71-.13q2.16-.4,4.38-.75a29.77,29.77,0,0,1,4.65-.36,12,12,0,0,1,5,.94,9,9,0,0,1,3.43,2.64,10.93,10.93,0,0,1,1.9,3.85,17.07,17.07,0,0,1,.58,4.52,23.32,23.32,0,0,1-.78,5.77,34.11,34.11,0,0,1-2.16,6A32.56,32.56,0,0,1,152.56,62a26.13,26.13,0,0,1-4.66,4.79,23.26,23.26,0,0,1-5.72,3.31A17.68,17.68,0,0,1,135.48,71.37ZM147,41.71c-.32,1.68-.65,3.3-1,4.82q-.6,2.7-1.2,5.45t-1.2,5.73c-.23,1.16-.45,2.39-.67,3.67l.1-.12a21,21,0,0,0,2-3,34.15,34.15,0,0,0,1.77-3.7c.54-1.29,1-2.57,1.4-3.82a30.37,30.37,0,0,0,.9-3.44,14.37,14.37,0,0,0,.3-2.65,3,3,0,0,0-.74-2.21A2.82,2.82,0,0,0,147,41.71Z" transform="translate(-3.86 -3.98)"/><path d="M148,33.62a11,11,0,0,1,4.58.85,7.89,7.89,0,0,1,3,2.35,9.72,9.72,0,0,1,1.72,3.5,15.81,15.81,0,0,1,.55,4.25,22.26,22.26,0,0,1-.75,5.52,32.9,32.9,0,0,1-2.1,5.8,30.83,30.83,0,0,1-3.32,5.5,25.06,25.06,0,0,1-4.48,4.6,22,22,0,0,1-5.47,3.18,16.74,16.74,0,0,1-6.33,1.2,13.29,13.29,0,0,1-1.4-.08l-1.4-.17q1.35-6.9,2.65-13.45.51-2.76,1-5.73t1.05-5.87c.34-1.94.66-3.79,1-5.55s.57-3.37.77-4.8q2.16-.4,4.35-.75a27.88,27.88,0,0,1,4.5-.35m-6.6,30.45a10.92,10.92,0,0,0,2.33-2.18,21.05,21.05,0,0,0,2.12-3.17,36.07,36.07,0,0,0,1.83-3.8c.55-1.34,1-2.64,1.42-3.9a34.22,34.22,0,0,0,.93-3.55,14.74,14.74,0,0,0,.32-2.85,4,4,0,0,0-1-2.9,4.34,4.34,0,0,0-3.23-1c-.36,2-.75,3.85-1.15,5.65s-.8,3.61-1.2,5.45-.8,3.75-1.2,5.75-.78,4.18-1.15,6.55M148,31.62a30.7,30.7,0,0,0-4.81.37c-1.48.24-3,.49-4.4.76L137.4,33l-.2,1.43c-.19,1.39-.45,3-.76,4.72s-.64,3.63-1,5.57-.68,3.91-1,5.85-.72,3.89-1,5.73c-.87,4.33-1.75,8.82-2.65,13.42l-.4,2.07,2.08.3q.73.11,1.47.18a14.35,14.35,0,0,0,1.61.09A18.86,18.86,0,0,0,142.56,71a24.11,24.11,0,0,0,6-3.46,27.15,27.15,0,0,0,4.84-5,33.21,33.21,0,0,0,3.53-5.85,35,35,0,0,0,2.23-6.15,24.38,24.38,0,0,0,.81-6,17.74,17.74,0,0,0-.62-4.78,11.7,11.7,0,0,0-2.08-4.21,10,10,0,0,0-3.79-2.94,13.16,13.16,0,0,0-5.41-1Zm-3.17,24.75c.29-1.43.58-2.83.88-4.18q.6-2.74,1.2-5.44c.27-1.21.53-2.48.79-3.79a1.15,1.15,0,0,1,.2.15,2,2,0,0,1,.45,1.51,13.19,13.19,0,0,1-.28,2.46,33.75,33.75,0,0,1-.87,3.33c-.39,1.22-.85,2.48-1.37,3.74-.31.76-.65,1.5-1,2.22Z" transform="translate(-3.86 -3.98)"/><path class="cls-3" d="M159.68,59.2c0-1.37,0-2.9-.07-4.53s-.12-3.36-.22-5-.2-3.34-.3-4.93-.19-3-.25-4.2-.17-2.55-.3-4l-.07-.76,10.21-3.88V43.05c.46-1.26.9-2.5,1.31-3.71q.94-2.75,1.94-5.79l.29-.86,9.88,2.23-.57,1.14c-1.42,2.83-2.83,5.7-4.19,8.54-.57,1.22-1.17,2.5-1.8,3.82l-1.9,3.95-1.86,3.83-1.59,3.33c-.16.85-.37,1.78-.61,2.77s-.49,2-.73,3c-.3,1.13-.62,2.24-1,3.34l-.19.63-10.61,1.3Z" transform="translate(-3.86 -3.98)"/><path d="M167.68,33.32V42c0,.86,0,1.71,0,2.55s0,1.61,0,2.35v1.85c.44-1.14,1-2.54,1.58-4.2s1.19-3.29,1.72-4.85q1-2.76,1.95-5.8l7.75,1.75q-2.15,4.29-4.2,8.55c-.56,1.23-1.16,2.5-1.8,3.82s-1.26,2.63-1.9,3.95-1.25,2.59-1.85,3.83-1.15,2.38-1.65,3.45c-.16.86-.37,1.81-.62,2.85s-.49,2-.73,2.95c-.3,1.1-.61,2.2-.95,3.3l-8.55,1.05,2.3-10.05c0-1.44,0-3-.07-4.68s-.13-3.37-.23-5.07-.2-3.35-.3-4.93-.18-3-.25-4.2-.16-2.56-.3-4l8.15-3.1m2-2.9-2.71,1-8.15,3.1-1.41.54.13,1.51c.13,1.42.23,2.76.3,3.95s.15,2.63.25,4.22.2,3.22.3,4.91.17,3.36.22,5,.07,3,.07,4.39l-2.25,9.83-.63,2.78,2.83-.35,8.55-1,1.29-.16.38-1.25c.34-1.14.67-2.26,1-3.35s.49-2,.74-3,.44-1.87.6-2.7c.47-1,1-2.06,1.53-3.2l1.86-3.83.76-1.59,1.14-2.36c.64-1.34,1.25-2.64,1.81-3.86,1.35-2.8,2.76-5.67,4.17-8.49l1.14-2.28-2.49-.56-7.75-1.75-1.77-.41L171,33.24c-.44,1.35-.87,2.65-1.3,3.9V30.42Z" transform="translate(-3.86 -3.98)"/></svg>