<svg id="Layer_1" data-name="Layer 1" xmlns="http://www.w3.org/2000/svg" viewBox="0 0 161 181"><defs><style>.cls-1{fill:#0094ce;}.cls-2{fill:#fff;}</style></defs><path class="cls-1" d="M159.72,53c0-.79,0-1.57,0-2.36C160,43,161.43,35.4,161,27.77,160.42,15.55,154,8,144.23,4c-10.37-4.28-22-2.48-32.68,1-4.44,1.42-8.89,3.17-12.62,6.29-5.46,4.57-8.82,11.58-13,17.62C74.52,45.15,54.15,42.66,38.65,50.09c-9,4.29-16.59,11.67-23.13,19.88-4.18,5.23-8,11-10.23,17.55-2.1,6.31-2.6,13.16-2.4,19.88.37,12,3,24,8.55,34.15,8.24,14.92,21,18.42,33.48,26.53a90.84,90.84,0,0,0,43.85,14.23c17,1.08,34.85-2.25,48.75-13.61,5.83-4.77,14.26-13,16.52-20.72,5.14-17.59,10.34-35.64,9.77-54.09C163.38,80.17,159.75,66.74,159.72,53Z" transform="translate(-2.85 -1.51)"/><path class="cls-2" d="M13.43,114c1.44-4.36,2.85-8.74,4.19-13q.86-2.7,1.75-5.64t1.8-5.86q.9-2.88,1.67-5.58c.52-1.79,1-3.45,1.37-5l.2-.75h.77a42.92,42.92,0,0,0,5.08-.29c1.61-.2,3.41-.39,5.33-.56l1.25-.1-.17,1.24c-.1.73-.21,1.55-.32,2.46s-.26,1.89-.41,2.9-.31,2-.47,3.1-.35,2.34-.58,3.92l1.7-4.52c.41-1.08.82-2.13,1.24-3.15L39,80.23c.39-.93.76-1.76,1.1-2.47l.24-.52.58,0c.81-.06,1.58-.14,2.29-.24l2.18-.32,2.23-.35,2.45-.42,1.41-.26L51.26,77c-.33,1.91-.64,3.91-.94,5.93s-.57,4-.8,6-.46,4-.67,6-.41,3.82-.58,5.58c-.39,4.12-.75,8.19-1,12.09l-.06.77-10.64,1.89v-1.19c0-.17,0-.65.08-1.42s.11-1.64.2-2.71.2-2.26.35-3.58l.37-3.22-.74,2c-.58,1.6-1.16,3.17-1.72,4.71s-1.06,3-1.49,4.35l-.21.68-.71,0q-1.74,0-3,.12l-4.06.25,1-12c-.22.79-.44,1.61-.68,2.44-.4,1.42-.77,2.73-1.12,4s-.65,2.23-.88,3l-.41,1.35-.21.64-10.41.7Z" transform="translate(-2.85 -1.51)"/><path d="M50.28,76.84c-.33,1.93-.65,3.92-1,6s-.57,4.06-.8,6.08-.46,4-.68,6-.4,3.83-.57,5.6q-.6,6.19-1.05,12.1l-8.7,1.55c0-.17,0-.62.07-1.35s.12-1.63.2-2.7.2-2.25.35-3.55l.45-3.9c.15-1.3.31-2.56.48-3.77s.33-2.26.5-3.13h-.45c-.47,1.4-1,2.88-1.55,4.43l-1.73,4.72q-.87,2.4-1.72,4.7c-.57,1.53-1.07,3-1.5,4.4-1.17,0-2.17.08-3,.13l-2.9.17,1.6-18.55h-.75c-.07.43-.23,1.16-.5,2.18l-.93,3.5c-.35,1.31-.72,2.68-1.12,4.1s-.78,2.73-1.13,4l-.87,3c-.23.78-.37,1.22-.4,1.32l-8.25.55q2.21-6.65,4.2-13.05.86-2.7,1.75-5.65t1.8-5.85q.9-2.89,1.67-5.6t1.38-5a42.83,42.83,0,0,0,5.2-.3c1.63-.2,3.4-.38,5.3-.55-.1.73-.21,1.56-.33,2.48s-.25,1.87-.4,2.87-.3,2-.47,3.1-.37,2.43-.6,4.1-.55,3.75-1,6.25h.65Q35,93.3,36,90.77c.63-1.69,1.15-3.06,1.55-4.13s.81-2.11,1.22-3.12l1.2-2.9q.59-1.38,1.08-2.43c.83-.07,1.62-.15,2.35-.25l2.2-.32,2.22-.35c.75-.12,1.58-.26,2.48-.43m2.46-2.49-2.83.52c-.87.17-1.68.31-2.41.42l-2.23.35c-.73.12-1.44.22-2.16.32s-1.45.17-2.24.24l-1.15.09-.5,1c-.34.73-.72,1.57-1.11,2.51L37.21,82c0-.34.09-.67.13-1,.11-.91.22-1.73.32-2.46L38,76.08l-2.5.22c-1.93.17-3.74.36-5.36.56a43.21,43.21,0,0,1-5,.28H23.63l-.39,1.5c-.39,1.5-.85,3.17-1.36,5s-1.08,3.68-1.66,5.56S19,93,18.42,95s-1.18,3.84-1.75,5.63c-1.34,4.29-2.75,8.67-4.19,13l-.93,2.82,3-.19,8.25-.55,1.35-.09.42-1.29c0-.07.11-.35.25-.83l0,.54-.2,2.31,2.31-.14.83,0,2.07-.13c.8,0,1.76-.09,2.94-.12l1.43,0,.42-1.37c.35-1.12.74-2.31,1.18-3.53,0,.6-.08,1.14-.11,1.6-.07,1-.08,1.33-.08,1.49v2.39l2.35-.42,8.7-1.55,1.53-.27.11-1.55c.3-3.89.65-8,1.05-12.06.17-1.77.36-3.64.57-5.57s.44-4,.68-6,.49-4,.79-6,.61-4,.94-5.9l.49-2.83Z" transform="translate(-2.85 -1.51)"/><path class="cls-2" d="M52,103.68c0-1.37,0-2.89-.08-4.54s-.12-3.39-.22-5-.2-3.34-.3-4.92-.18-3-.25-4.21-.17-2.53-.3-4l-.07-.75L61,76.34v10.1c0,.37,0,.73,0,1.09.46-1.27.9-2.5,1.31-3.71q.94-2.75,2-5.79l.28-.86,9.88,2.23-.57,1.14q-2.14,4.29-4.19,8.54c-.56,1.22-1.17,2.5-1.8,3.82l-1.9,3.95-1.85,3.83C63.5,101.86,63,103,62.49,104c-.17.87-.38,1.81-.61,2.78s-.5,2-.73,3c-.31,1.13-.63,2.24-1,3.35l-.19.62L49.39,115Z" transform="translate(-2.85 -1.51)"/><path d="M60,77.79v8.65q0,1.31,0,2.55c0,.83,0,1.62,0,2.35v1.85c.43-1.13,1-2.53,1.57-4.2s1.19-3.28,1.73-4.85c.63-1.83,1.28-3.77,2-5.8l7.75,1.75c-1.44,2.87-2.83,5.72-4.2,8.55-.57,1.23-1.17,2.51-1.8,3.83s-1.27,2.63-1.9,4-1.25,2.59-1.85,3.82-1.15,2.38-1.65,3.45q-.26,1.31-.63,2.85c-.25,1-.49,2-.72,2.95-.3,1.1-.62,2.2-1,3.3l-8.55,1,2.3-10c0-1.43,0-3-.08-4.67s-.12-3.38-.22-5.08-.2-3.34-.3-4.92-.19-3-.25-4.2-.17-2.56-.3-4L60,77.79m2-2.9-2.71,1L51.12,79l-1.42.54.14,1.51c.13,1.45.23,2.78.29,4s.15,2.62.25,4.21.2,3.22.3,4.92.17,3.33.22,5,.08,3.06.08,4.39l-2.25,9.82-.64,2.78,2.83-.34,8.55-1,1.3-.16.37-1.25c.36-1.2.68-2.3,1-3.36s.49-2,.74-3,.43-1.84.59-2.69c.47-1,1-2.07,1.54-3.21s1.21-2.51,1.85-3.83l1.9-4c.67-1.4,1.27-2.66,1.82-3.86,1.37-2.85,2.78-5.72,4.17-8.48l1.14-2.29-2.49-.56-7.75-1.75L63.84,76l-.56,1.73c-.44,1.32-.87,2.63-1.3,3.9V74.89Z" transform="translate(-2.85 -1.51)"/><path class="cls-2" d="M64.9,114.42c1-4.46,1.95-8.9,2.85-13.18.36-1.8.75-3.7,1.15-5.7s.78-4,1.15-5.89.71-3.79,1-5.59.62-3.43.85-4.92l.1-.62.59-.18c1-.31,2-.57,2.92-.8s1.93-.41,2.94-.58a17.19,17.19,0,0,1,2.94-.27,9.57,9.57,0,0,1,4.21.85,7.74,7.74,0,0,1,2.84,2.33A9,9,0,0,1,90,83.21a17.21,17.21,0,0,1,.43,3.88,15.65,15.65,0,0,1-1.1,5.77,17.08,17.08,0,0,1-2.92,4.9,14.67,14.67,0,0,1-4.23,3.46,10.63,10.63,0,0,1-4.85,1.32c-.2.89-.39,1.86-.57,2.87-.23,1.33-.43,2.55-.59,3.68-.24,1.35-.45,2.67-.65,4l-.11.7-10.84,2.13ZM80.62,85.07c-.3,1.78-.61,3.48-.91,5.1-.24,1.31-.5,2.67-.77,4.08a7.23,7.23,0,0,0,1-1.32,9.32,9.32,0,0,0,1.09-2.47,10.76,10.76,0,0,0,.41-3,3.26,3.26,0,0,0-.58-2.14A1.84,1.84,0,0,0,80.62,85.07Z" transform="translate(-2.85 -1.51)"/><path d="M81.43,77.69a8.47,8.47,0,0,1,3.77.75,6.79,6.79,0,0,1,2.48,2,8.08,8.08,0,0,1,1.35,3,16.26,16.26,0,0,1,.4,3.65,14.44,14.44,0,0,1-1,5.4,16.27,16.27,0,0,1-2.75,4.63,13.62,13.62,0,0,1-4,3.22,9.59,9.59,0,0,1-4.62,1.2h-.55c-.27,1.13-.52,2.37-.75,3.7s-.44,2.57-.6,3.7c-.24,1.33-.45,2.67-.65,4l-8.65,1.7q1.5-6.75,2.85-13.2c.36-1.8.75-3.7,1.15-5.7s.78-4,1.15-5.9.71-3.8,1-5.6.61-3.45.85-4.95c1-.3,1.91-.56,2.85-.77s1.89-.41,2.87-.58a16.39,16.39,0,0,1,2.78-.25m-3.9,18.6a4.31,4.31,0,0,0,1.67-.92,8.15,8.15,0,0,0,1.63-1.9A10.64,10.64,0,0,0,82,90.74a11.6,11.6,0,0,0,.45-3.25,4.16,4.16,0,0,0-.83-2.8,2.41,2.41,0,0,0-1.82-1Q79.27,87,78.73,90t-1.2,6.3m3.9-20.6a18.14,18.14,0,0,0-3.11.28c-1,.17-2,.37-3,.6s-2,.5-3,.81l-1.19.37L71,79c-.23,1.49-.51,3.13-.84,4.9s-.68,3.66-1,5.59-.74,3.88-1.14,5.88-.79,3.89-1.15,5.69c-.9,4.27-1.85,8.7-2.84,13.17l-.67,3,3-.59,8.65-1.7,1.39-.27.21-1.39c.2-1.35.41-2.68.64-3.95v-.06c.16-1.1.36-2.32.59-3.65.12-.72.26-1.42.4-2.09a11.77,11.77,0,0,0,4.5-1.39,15.62,15.62,0,0,0,4.53-3.69,18.33,18.33,0,0,0,3.08-5.19,16.49,16.49,0,0,0,1.17-6.13A17.49,17.49,0,0,0,91,83a9.92,9.92,0,0,0-1.69-3.71,8.71,8.71,0,0,0-3.19-2.62,10.44,10.44,0,0,0-4.66-1Z" transform="translate(-2.85 -1.51)"/><path class="cls-2" d="M97.34,111.12c.09-.91.18-1.84.27-2.77,0-.47.08-.91.12-1.31H95.24l-2,7.1-.66.09-2.62.33-2.8.32-4.66.6L83,114q2-6.65,4-13.1l1.68-5.64c.58-2,2.89-9.7,3.42-11.5s1-3.44,1.39-4.93l.19-.68.71-.06c2.26-.16,4.58-.36,6.89-.59s4.6-.55,6.8-.94l1.3-.24-.13,1.31c-.1,1.07-.2,2.38-.32,4s-.22,3.3-.32,5.15-.2,3.82-.3,5.85l-.3,6q-.25,6.89-.55,14.64l0,.81-.81.14c-1,.16-2,.3-3.06.41l-6.7,1.11S97.2,112.19,97.34,111.12ZM97,100l1.37-.06a1.8,1.8,0,0,1,0-.22c0-.47.1-1,.15-1.63s.11-1.29.17-2,.14-1.45.2-2.16.14-1.64.22-2.52Z" transform="translate(-2.85 -1.51)"/><path d="M108.18,77.54c-.1,1.07-.21,2.39-.33,4s-.22,3.3-.32,5.17-.2,3.82-.3,5.85-.2,4-.3,6q-.25,6.9-.55,14.65c-1,.17-2,.3-3,.4l-2.75.45-2.7.45c.13-1.1.26-2.18.4-3.25s.19-1.87.27-2.8.16-1.73.23-2.4H94.48l-2,7.2-2.6.33-2.8.32-3.15.4q2-6.65,3.95-13.1l1.67-5.65,1.75-5.87c.59-2,1.14-3.83,1.68-5.63s1-3.45,1.4-5q3.39-.25,6.92-.6t6.88-.95m-7.5,6.6-.75,0-1.15,4.3L95.68,101l.72,0,1.1,0,1.08,0a5,5,0,0,0,.7-.08c0-.2,0-.54.07-1s.1-1,.15-1.65.11-1.3.18-2,.13-1.45.2-2.15q.2-2.55.5-5.5l.3-4.35m9.74-9-2.59.46c-2.18.39-4.44.7-6.72.93s-4.63.43-6.88.6l-1.42.1-.36,1.37c-.4,1.48-.86,3.13-1.39,4.9S90,87.14,89.39,89.09,88.22,93,87.64,95s-1.15,3.85-1.68,5.65q-2,6.43-3.95,13.09l-.88,3,3.05-.4,3.15-.4,2.78-.32,2.64-.33,1.3-.18.36-1.26L96,108h.63l0,.22c-.08.92-.17,1.84-.27,2.77s-.26,2.12-.4,3.22l-.32,2.65,2.64-.44.2,0L101,116l2.68-.44c1-.1,2.06-.24,3.07-.41l1.6-.27.07-1.62q.3-7.76.55-14.66c.1-1.94.2-3.94.3-6s.2-4,.3-5.84.2-3.6.32-5.14.22-2.88.32-3.93l.25-2.62Z" transform="translate(-2.85 -1.51)"/><path class="cls-2" d="M117.78,116.79a9.07,9.07,0,0,1-4-.9,8.83,8.83,0,0,1-3.27-2.72,13.41,13.41,0,0,1-2.08-4.4,22.21,22.21,0,0,1-.74-6,32.18,32.18,0,0,1,1.92-11.61,27.16,27.16,0,0,1,4.85-8.3,20.59,20.59,0,0,1,6.37-5,15.11,15.11,0,0,1,6.46-1.65,9,9,0,0,1,3.9.8A7.72,7.72,0,0,1,134,79.14a8.43,8.43,0,0,1,1.57,3.12,13.94,13.94,0,0,1,.46,3.58v.83l-8.62,1.63-.21-.94a5.51,5.51,0,0,0-1-2.41,1.22,1.22,0,0,0-1-.51c-.29,0-.94.19-2,1.42a19.75,19.75,0,0,0-2.66,4.35,38.88,38.88,0,0,0-2.14,6,28.09,28.09,0,0,0-1,6.37c0,2.27.4,3.34.74,3.82a1.8,1.8,0,0,0,1.56.9,4,4,0,0,0,1.65-.41,5,5,0,0,0,1.61-1.19,7.48,7.48,0,0,0,1.26-1.9,5.54,5.54,0,0,0,.37-1.06l-5.44.81,1.35-7.05.72-.09,4.6-.6c1.25-.17,2.58-.36,4-.6s2.64-.44,3.7-.64l1.27-.24-.08,1.29a27.54,27.54,0,0,1-2.09,9.21,23.94,23.94,0,0,1-4.15,6.59,17,17,0,0,1-5.31,4A13.15,13.15,0,0,1,117.78,116.79Z" transform="translate(-2.85 -1.51)"/><path d="M127.33,77.19a8,8,0,0,1,3.47.7,6.82,6.82,0,0,1,2.43,1.88,7.33,7.33,0,0,1,1.37,2.75,12.38,12.38,0,0,1,.43,3.32l-6.85,1.3a6.59,6.59,0,0,0-1.2-2.85,2.22,2.22,0,0,0-1.7-.85c-.84,0-1.75.59-2.75,1.78a19.94,19.94,0,0,0-2.8,4.57,37.91,37.91,0,0,0-2.2,6.15,28.39,28.39,0,0,0-1,6.6,8.08,8.08,0,0,0,.92,4.43,2.8,2.8,0,0,0,2.38,1.32,4.94,4.94,0,0,0,2.07-.5,6.14,6.14,0,0,0,1.93-1.42,8.73,8.73,0,0,0,1.42-2.15,6.8,6.8,0,0,0,.63-2.68l-5.35.8,1-5,4.6-.6c1.26-.17,2.61-.37,4-.6s2.66-.45,3.73-.65a26.87,26.87,0,0,1-2,8.88,23,23,0,0,1-4,6.32,15.82,15.82,0,0,1-5,3.8,12,12,0,0,1-5.07,1.25,8.14,8.14,0,0,1-3.53-.8,7.93,7.93,0,0,1-2.9-2.42,12.46,12.46,0,0,1-1.92-4.08,20.9,20.9,0,0,1-.7-5.75,31.06,31.06,0,0,1,1.85-11.25,26.13,26.13,0,0,1,4.67-8,19.38,19.38,0,0,1,6-4.75,14,14,0,0,1,6-1.55m0-2a16,16,0,0,0-6.89,1.75,21.14,21.14,0,0,0-6.69,5.23,28.3,28.3,0,0,0-5,8.6,33.26,33.26,0,0,0-2,12,23.31,23.31,0,0,0,.77,6.3,14.44,14.44,0,0,0,2.26,4.73,9.81,9.81,0,0,0,3.63,3,10.1,10.1,0,0,0,4.39,1,14,14,0,0,0,5.92-1.44,18,18,0,0,0,5.63-4.26,24.82,24.82,0,0,0,4.33-6.87,28.54,28.54,0,0,0,2.16-9.54L136,93.1l-2.54.47c-1.08.21-2.32.42-3.68.65s-2.73.43-4,.59l-4.6.6-1.43.18L119.51,97l-1,4.95V102a27.52,27.52,0,0,1,.91-5.57,36.48,36.48,0,0,1,2.08-5.83,18.66,18.66,0,0,1,2.52-4.12c.78-.93,1.19-1.06,1.24-1.07s.06,0,.18.17a5,5,0,0,1,.75,2l.42,1.89,1.9-.36,6.85-1.3L137,87.5V85.84a14.78,14.78,0,0,0-.5-3.85,9.29,9.29,0,0,0-1.75-3.48,8.86,8.86,0,0,0-3.12-2.43,10.09,10.09,0,0,0-4.33-.89Zm-8.64,29.45,2.13-.32,2.3-.34a6.69,6.69,0,0,1-.76,1,4.25,4.25,0,0,1-1.3,1,2.93,2.93,0,0,1-1.23.31c-.17,0-.41,0-.74-.47a3.09,3.09,0,0,1-.4-1.18Z" transform="translate(-2.85 -1.51)"/><path class="cls-2" d="M137.68,78.16l18.06-1.54L155.28,78c-.22.71-.42,1.43-.57,2.16s-.33,1.31-.48,2-.27,1.27-.37,1.8l-.14.73-.74.08c-.35,0-.85.06-1.5.08l-2,0-2.15,0h-1L145,91.82l1.63-.08c.74,0,1.51,0,2.29,0a16.07,16.07,0,0,0,1.61,0l1.26-.11-.18,1.25c-.14.93-.26,1.84-.37,2.74s-.27,1.85-.44,2.8l-.13.74-.75.08c-.36,0-.92.06-1.7.08s-1.5,0-2.26.07l-2,.07-1.3,7,7.17-1.13-.68,7.76-18.32,2.83Z" transform="translate(-2.85 -1.51)"/><path d="M154.33,77.74a20.65,20.65,0,0,0-.6,2.25q-.25.95-.48,2c-.15.68-.27,1.29-.37,1.82-.34,0-.81.06-1.43.08l-2,0-2.13,0h-1.87l-1.75,9c1-.07,2-.12,2.9-.15.73,0,1.48,0,2.25,0s1.33,0,1.7,0c-.14.93-.26,1.85-.38,2.75s-.26,1.82-.42,2.75c-.34,0-.88.06-1.63.08s-1.51,0-2.27.07l-2.85.1-1.7,9.2,7.3-1.15-.5,5.7L132,114.64l6.55-35.55,15.8-1.35m2.81-2.25-3,.26-15.8,1.35-1.52.13-.28,1.5L130,114.28l-.51,2.77,2.78-.43,16.15-2.5,1.55-.24.14-1.56.5-5.71.22-2.54-2.52.39-4.51.72.89-4.84,1.25,0c.77,0,1.51-.06,2.25-.07s1.39,0,1.78-.09l1.5-.15.27-1.49c.17-1,.32-1.91.44-2.84s.24-1.8.37-2.73l.36-2.5-2.52.23c-.21,0-.65,0-1.52,0s-1.57,0-2.34,0l-.36,0,.94-4.82h.23l2.18,0,2-.06c.66,0,1.17,0,1.57-.08l1.49-.15.27-1.47c.1-.52.22-1.1.37-1.77s.3-1.31.45-1.89v-.09c.15-.69.34-1.39.55-2.06l.91-2.86Z" transform="translate(-2.85 -1.51)"/></svg>