<svg id="Layer_1" data-name="Layer 1" xmlns="http://www.w3.org/2000/svg" viewBox="0 0 157 98"><defs><style>.cls-1{fill:#ffa03a;}.cls-2{fill:#fff;}</style></defs><path class="cls-1" d="M4.68,51.66C9.21,43.88,17,38.71,24.53,33.82L51.38,16.37C61,10.11,71,3.73,82.23,1.73c17.45-3.08,35.5,5.21,47.86,18s19.82,29.58,25.49,46.49c2.27,6.76,4.25,14.35,1.27,20.82-2.89,6.29-9.79,9.74-16.53,11.1-15.43,3.09-31.18-2.37-46.9-2.94-23-.83-47.68,8.5-68-2.34C10.77,85.07-5.86,69.77,4.68,51.66Z" transform="translate(-1.36 -1.09)"/><path class="cls-2" d="M46.22,53.66c1-4.45,1.94-8.88,2.84-13.19q.55-2.69,1.15-5.69t1.15-5.89q.55-2.89,1-5.6c.33-1.79.62-3.45.85-4.92l.09-.61.6-.19c1-.3,1.95-.57,2.92-.79s1.93-.42,2.93-.59a17.31,17.31,0,0,1,2.94-.26,9.48,9.48,0,0,1,4.22.85A7.81,7.81,0,0,1,69.8,19.1a9.09,9.09,0,0,1,1.52,3.35,17.09,17.09,0,0,1,.42,3.88,15.55,15.55,0,0,1-1.09,5.76A17.27,17.27,0,0,1,67.73,37a14.74,14.74,0,0,1-4.24,3.46,10.74,10.74,0,0,1-4.85,1.31c-.19.9-.38,1.86-.56,2.88-.23,1.32-.43,2.55-.6,3.67-.23,1.35-.45,2.68-.65,4l-.1.7L45.89,55.15ZM61.93,24.3c-.3,1.78-.6,3.49-.9,5.11-.25,1.3-.5,2.66-.78,4.08a7.71,7.71,0,0,0,1-1.33,9.39,9.39,0,0,0,1.08-2.46,10.4,10.4,0,0,0,.41-3,3.23,3.23,0,0,0-.58-2.15A2.46,2.46,0,0,0,61.93,24.3Z" transform="translate(-1.36 -1.09)"/><path d="M62.74,16.93a8.54,8.54,0,0,1,3.78.75,6.73,6.73,0,0,1,2.47,2,7.74,7.74,0,0,1,1.35,3,15.71,15.71,0,0,1,.4,3.65,14.71,14.71,0,0,1-1,5.4A16.45,16.45,0,0,1,67,36.35,13.79,13.79,0,0,1,63,39.58a9.66,9.66,0,0,1-4.63,1.2h-.55c-.26,1.13-.51,2.36-.75,3.7s-.43,2.56-.6,3.7c-.23,1.33-.45,2.66-.65,4l-8.65,1.7q1.5-6.75,2.85-13.2Q50.6,38,51.19,35c.4-2,.79-4,1.15-5.9s.72-3.8,1-5.6.62-3.45.85-4.95q1.45-.45,2.85-.78T60,17.18a16.27,16.27,0,0,1,2.77-.25m-3.9,18.6a4.52,4.52,0,0,0,1.68-.93,8.16,8.16,0,0,0,1.62-1.9A10.42,10.42,0,0,0,63.34,30a11.65,11.65,0,0,0,.45-3.25,4.14,4.14,0,0,0-.82-2.8A2.38,2.38,0,0,0,61.14,23q-.54,3.3-1.1,6.25t-1.2,6.3m3.9-20.6a19.24,19.24,0,0,0-3.11.27c-1,.18-2,.38-3,.6s-2,.51-3,.82L52.46,17l-.19,1.23c-.23,1.46-.51,3.11-.84,4.89s-.69,3.66-1,5.59-.75,3.89-1.15,5.88-.78,3.9-1.15,5.7c-.89,4.29-1.85,8.72-2.84,13.16l-.66,3,3-.59,8.65-1.7,1.38-.27.21-1.4c.2-1.32.42-2.65.64-3.95v-.05c.16-1.11.36-2.33.59-3.65.13-.73.26-1.43.4-2.09A12.05,12.05,0,0,0,64,41.34a15.91,15.91,0,0,0,4.52-3.69,18.27,18.27,0,0,0,3.09-5.19,16.72,16.72,0,0,0,1.16-6.13,18,18,0,0,0-.45-4.11,10,10,0,0,0-1.69-3.71,8.69,8.69,0,0,0-3.2-2.63,10.58,10.58,0,0,0-4.66-1Z" transform="translate(-1.36 -1.09)"/><path class="cls-2" d="M65.9,53.79c.2-1.5.44-3.17.7-5s.58-3.75.93-5.73.7-3.95,1-5.95.72-4,1.08-5.77c.82-4.31,1.72-8.8,2.65-13.36l.15-.69,10.88-1.43L83,17.25q-1.35,5.81-2.6,11.3c-.37,1.57-.73,3.19-1.1,4.86s-.72,3.32-1,4.92-.63,3.14-.89,4.62c-.18,1-.33,1.91-.46,2.75l1.48-.05c1,0,1.8,0,2.54,0h1l0,.94c0,.62.08,1.22.15,1.82s.13,1.14.21,1.62.16,1,.21,1.36a6.05,6.05,0,0,0,.1.66l.32,1.25H81.64q-.44,0-.84,0c-.23,0-.46,0-.71,0-1,0-2.08,0-3.21.09s-2.29.17-3.42.3-2.27.3-3.35.51a24.39,24.39,0,0,0-2.9.74l-1.52.51Z" transform="translate(-1.36 -1.09)"/><path d="M82,17q-1.35,5.79-2.6,11.3c-.36,1.56-.73,3.19-1.1,4.87s-.71,3.33-1,4.93-.63,3.15-.9,4.65-.48,2.83-.65,4c.84-.07,1.73-.11,2.68-.13s1.79,0,2.52,0c0,.63.09,1.25.15,1.87s.14,1.18.23,1.68.15.94.2,1.32.09.64.12.78c-.26,0-.52,0-.77,0s-.51,0-.78,0c-1,0-2.12,0-3.27.1s-2.31.16-3.48.3-2.31.3-3.42.52a24.63,24.63,0,0,0-3,.78c.2-1.5.44-3.17.7-5s.58-3.74.93-5.7.7-3.95,1-5.95.71-3.92,1.07-5.75Q71.9,25,73.29,18.18L82,17m2.61-2.36L81.78,15,73,16.19l-1.41.19-.29,1.39c-.93,4.56-1.83,9.06-2.65,13.38C68.32,33,68,34.91,67.6,36.93s-.7,4-1,5.94-.67,3.93-.94,5.77-.5,3.51-.7,5l-.42,3.18,3-1a22.23,22.23,0,0,1,2.77-.71c1.06-.2,2.16-.37,3.27-.5s2.25-.22,3.37-.29,2.17-.09,3.15-.09c.22,0,.44,0,.65,0s.59,0,.9,0h2.57l-.63-2.5s0-.12-.08-.54-.12-.87-.21-1.39-.15-1-.21-1.56-.11-1.18-.14-1.77l-.1-1.89h-1.9c-.74,0-1.59,0-2.56,0H78.1c.08-.49.17-1,.26-1.53.26-1.47.56-3,.89-4.6s.68-3.23,1-4.9.73-3.33,1.09-4.85q1.26-5.51,2.6-11.3l.66-2.81Z" transform="translate(-1.36 -1.09)"/><path class="cls-2" d="M93.75,50.35c.1-.91.19-1.84.27-2.76,0-.47.08-.91.12-1.31H91.65l-2,7.1-.65.09c-.74.1-1.61.21-2.62.32l-2.8.33-4.67.59.45-1.47q2-6.66,4-13.1L85,34.49c.58-2,2.89-9.7,3.42-11.5s1-3.44,1.4-4.92l.18-.69.71-.05c2.26-.17,4.58-.37,6.9-.6s4.6-.54,6.8-.94l1.29-.23-.12,1.31c-.1,1.06-.21,2.38-.32,3.95s-.23,3.3-.33,5.16-.2,3.81-.3,5.84l-.3,6c-.16,4.58-.35,9.47-.55,14.63l0,.82-.8.13c-1,.17-2,.31-3.07.41l-6.7,1.11Zm-.37-11.13,1.37-.06a1.49,1.49,0,0,0,0-.21c0-.48.1-1,.15-1.63s.11-1.3.18-2,.13-1.46.2-2.16.13-1.65.21-2.53Z" transform="translate(-1.36 -1.09)"/><path d="M104.59,16.78c-.1,1.06-.21,2.39-.32,4s-.23,3.31-.33,5.18-.2,3.81-.3,5.85-.2,4-.3,6q-.24,6.9-.55,14.65c-1,.16-2,.3-3,.4L97,53.28l-2.7.45c.14-1.1.27-2.19.4-3.25s.19-1.87.28-2.8.16-1.74.22-2.4H90.89l-2,7.2c-.73.1-1.6.2-2.6.32l-2.8.33-3.15.4q2-6.66,4-13.1c.54-1.8,1.09-3.69,1.68-5.65s1.16-3.93,1.75-5.88,1.14-3.82,1.67-5.62,1-3.45,1.4-5q3.4-.25,6.93-.6c2.35-.24,4.64-.55,6.87-.95m-7.5,6.6-.75.05-1.15,4.3-3.1,12.55.73,0,1.1,0L95,40.15a5.09,5.09,0,0,0,.7-.07c0-.2,0-.55.08-1s.1-1,.15-1.65.11-1.29.17-2,.14-1.45.2-2.15c.14-1.7.3-3.54.5-5.5l.3-4.35m9.74-9-2.59.47c-2.17.39-4.43.7-6.72.93s-4.62.43-6.87.59l-1.42.11-.37,1.37c-.39,1.47-.86,3.12-1.38,4.9L85.8,28.33c-.58,2-1.17,3.91-1.75,5.88s-1.14,3.85-1.68,5.65Q80.44,46.3,78.43,53l-.89,2.95,3.06-.39,3.14-.4,2.79-.32,2.63-.33,1.31-.18L90.82,53l1.59-5.73h.64l0,.22c-.09.92-.18,1.84-.28,2.76s-.26,2.12-.39,3.23L92,56.14l2.63-.44.25,0,2.45-.41,2.68-.44c1-.1,2.06-.24,3.07-.41l1.61-.27.06-1.63q.3-7.74.55-14.65l0-.38c.09-1.84.19-3.7.28-5.6s.2-4,.3-5.84.21-3.61.32-5.13.22-2.83.32-3.94l.25-2.62Z" transform="translate(-1.36 -1.09)"/><path class="cls-2" d="M112.14,54.93a6.71,6.71,0,0,1-3.3-.83,7.55,7.55,0,0,1-2.58-2.41A12.89,12.89,0,0,1,104.61,48a18.81,18.81,0,0,1-.62-5.07,34.79,34.79,0,0,1,1.34-9.55,31.84,31.84,0,0,1,3.77-8.5A21.55,21.55,0,0,1,115,18.68a13.26,13.26,0,0,1,7.69-2.4,6.44,6.44,0,0,1,2.72.59,6.59,6.59,0,0,1,2.23,1.64A7.9,7.9,0,0,1,129.06,21a9.63,9.63,0,0,1,.53,3.25v.62a6,6,0,0,1-.06.82l-.09.65-8,2.14-.36-.75c-.29-.61-.5-.68-.5-.68a1.65,1.65,0,0,0-1,.61,12.18,12.18,0,0,0-1.58,2.21,31.77,31.77,0,0,0-1.6,3.2c-.52,1.18-1,2.39-1.37,3.58s-.71,2.36-1,3.44a12.33,12.33,0,0,0-.35,2.51,3.47,3.47,0,0,0,.26,1.7c.13.2.22.2.29.2a1.56,1.56,0,0,0,.73-.28,4.75,4.75,0,0,0,1.07-.91,8.44,8.44,0,0,0,1-1.37,5.3,5.3,0,0,0,.59-1.42l.27-1.14,7.73,3.12-.41.95a26.61,26.61,0,0,1-2.78,5A20.33,20.33,0,0,1,119.26,52a12.62,12.62,0,0,1-3.55,2.2A9.88,9.88,0,0,1,112.14,54.93Z" transform="translate(-1.36 -1.09)"/><path d="M122.64,17.28a5.39,5.39,0,0,1,2.3.5,5.49,5.49,0,0,1,1.9,1.4,6.68,6.68,0,0,1,1.28,2.2,8.52,8.52,0,0,1,.47,2.9v.62a4,4,0,0,1-.05.68L122,27.33c-.4-.84-.86-1.25-1.4-1.25a2.39,2.39,0,0,0-1.67.92,12.85,12.85,0,0,0-1.73,2.4,36.2,36.2,0,0,0-1.65,3.3c-.53,1.22-1,2.44-1.4,3.68s-.72,2.4-1,3.52a13.19,13.19,0,0,0-.38,2.73,4.3,4.3,0,0,0,.43,2.25,1.29,1.29,0,0,0,1.12.65,2.49,2.49,0,0,0,1.25-.43,5.55,5.55,0,0,0,1.3-1.1,9.7,9.7,0,0,0,1.1-1.52,6,6,0,0,0,.7-1.7l5.7,2.3a25.46,25.46,0,0,1-2.67,4.77,19.84,19.84,0,0,1-3.1,3.4,12,12,0,0,1-3.28,2,8.75,8.75,0,0,1-3.2.65,5.84,5.84,0,0,1-2.82-.7,6.61,6.61,0,0,1-2.23-2.1,11.94,11.94,0,0,1-1.52-3.45,17.63,17.63,0,0,1-.58-4.8,34,34,0,0,1,1.3-9.28,30.71,30.71,0,0,1,3.65-8.22,20.44,20.44,0,0,1,5.58-5.88,12.28,12.28,0,0,1,7.12-2.22m0-2a14.29,14.29,0,0,0-8.26,2.57,22.61,22.61,0,0,0-6.12,6.44,33,33,0,0,0-3.89,8.76A36.12,36.12,0,0,0,103,42.88a20,20,0,0,0,.65,5.34,13.85,13.85,0,0,0,1.8,4A8.5,8.5,0,0,0,108.36,55a7.71,7.71,0,0,0,3.78,1,10.81,10.81,0,0,0,3.94-.79,14.1,14.1,0,0,0,3.83-2.36A21.55,21.55,0,0,0,123.33,49a27.53,27.53,0,0,0,2.9-5.15l.82-1.89-1.91-.77-5.7-2.3-2.16-.87-.53,2.27a4.22,4.22,0,0,1-.48,1.14,8.16,8.16,0,0,1-.87,1.21,3.78,3.78,0,0,1-.59.55c0-.16,0-.36,0-.59a11,11,0,0,1,.33-2.29c.23-1.05.55-2.18.93-3.35a34.62,34.62,0,0,1,1.33-3.49,30.85,30.85,0,0,1,1.55-3.1,10.84,10.84,0,0,1,1.38-2l.6,1.25,1.6-.43,6.55-1.75,1.28-.34.18-1.31a6.39,6.39,0,0,0,.07-1v-.62a10.56,10.56,0,0,0-.59-3.59,8.83,8.83,0,0,0-1.66-2.84A7.49,7.49,0,0,0,125.77,16a7.39,7.39,0,0,0-3.13-.68Z" transform="translate(-1.36 -1.09)"/><path class="cls-2" d="M129.85,17.39l18.05-1.54-.45,1.43a22.13,22.13,0,0,0-.58,2.16c-.18.66-.33,1.31-.48,2s-.27,1.27-.37,1.79l-.13.74-.75.07c-.35,0-.85.06-1.5.08l-2,0c-.71,0-1.43,0-2.15,0h-1.05l-1.35,6.87,1.64-.07c.74,0,1.5-.05,2.28-.05s1.28,0,1.61-.05l1.26-.12L143.73,32c-.13.93-.26,1.84-.37,2.73s-.26,1.85-.43,2.8l-.13.74-.76.08c-.36,0-.92.06-1.7.08l-2.25.07L136,38.6l-1.3,7,7.17-1.13-.68,7.75L122.9,55.08Z" transform="translate(-1.36 -1.09)"/><path d="M146.49,17q-.35,1.1-.6,2.25c-.17.63-.32,1.29-.47,2s-.28,1.29-.38,1.83c-.33,0-.81,0-1.42.07l-2,0c-.7,0-1.41,0-2.12,0h-1.88l-1.75,9c1-.07,2-.12,2.9-.15.74,0,1.49-.05,2.25-.05s1.34,0,1.7-.05c-.13.93-.26,1.85-.37,2.75s-.26,1.81-.43,2.75c-.33,0-.87,0-1.62.07s-1.51,0-2.28.08l-2.85.1-1.7,9.2,7.3-1.15-.5,5.7-16.15,2.5,6.55-35.55L146.49,17m2.82-2.25-3,.25-15.8,1.35-1.52.13-.27,1.5-6.55,35.55-.51,2.77,2.78-.43,16.15-2.5,1.55-.24.13-1.56.5-5.7L143,43.3l-2.53.4-4.51.71.9-4.84,1.25,0,2.24-.07c.81,0,1.4-.05,1.78-.08l1.51-.16.26-1.48c.17-1,.32-1.92.44-2.85s.24-1.8.37-2.72l.36-2.51-2.52.23c-.21,0-.64.05-1.52.05s-1.57,0-2.34.05h-.35l.94-4.81h.23c.73,0,1.46,0,2.17,0l2,0c.67,0,1.18-.05,1.57-.08l1.49-.15L147,23.4q.15-.78.36-1.77c.15-.69.3-1.31.46-1.89v-.09a21,21,0,0,1,.55-2.07l.91-2.85Z" transform="translate(-1.36 -1.09)"/></svg>