<svg id="Layer_1" data-name="Layer 1" xmlns="http://www.w3.org/2000/svg" viewBox="0 0 180.99 62.92"><defs><style>.cls-1,.cls-3{fill:#ffb562;}.cls-2{fill:#fff;}.cls-3{font-size:50px;stroke:#ffb562;stroke-miterlimit:10;font-family:Bangers-Regular, Bangers;}</style></defs><path class="cls-1" d="M10.42,48.7q2.19-6.64,4.2-13.05c.56-1.8,1.15-3.68,1.75-5.65s1.2-3.92,1.8-5.85,1.15-3.8,1.65-5.6,1-3.47,1.4-5a43,43,0,0,0,5.2-.3c1.63-.2,3.4-.38,5.3-.55-.1.73-.22,1.57-.35,2.5s-.24,1.85-.4,2.85-.29,2-.45,3.1-.37,2.43-.6,4.1S29.37,29,29,31.5h.65q1.44-3.8,2.4-6.3c.63-1.7,1.15-3.08,1.55-4.15s.8-2.1,1.2-3.1l1.2-2.9c.4-.93.76-1.75,1.1-2.45.83-.07,1.61-.15,2.35-.25l2.2-.3c.73-.13,1.46-.25,2.2-.35l2.5-.45c-.34,1.93-.65,3.92-1,5.95s-.57,4.07-.8,6.1-.47,4-.7,5.95-.39,3.83-.55,5.6q-.6,6.19-1,12.1l-8.7,1.55c0-.17,0-.62,0-1.35s.13-1.63.2-2.7.21-2.25.35-3.55.31-2.6.45-3.9.33-2.55.5-3.75.33-2.28.5-3.15h-.45c-.47,1.4-1,2.88-1.55,4.45s-1.15,3.1-1.75,4.7-1.14,3.17-1.7,4.7-1.07,3-1.5,4.4q-1.76,0-3,.15c-.84,0-1.8.08-2.9.15l1.6-18.55h-.75c-.07.43-.24,1.17-.5,2.2l-.95,3.5c-.34,1.3-.7,2.67-1.1,4.1s-.79,2.72-1.15,4-.62,2.2-.85,3-.37,1.2-.4,1.3Zm36.3-.45,2.3-10c0-1.43,0-3-.1-4.65s-.1-3.4-.2-5.1-.2-3.33-.3-4.9-.18-3-.25-4.2-.13-2.22-.2-3-.1-1.1-.1-1.1L56,12.2v8.65c0,.87,0,1.72-.05,2.55v4.2c.44-1.13,1-2.53,1.55-4.2s1.22-3.28,1.75-4.85c.64-1.83,1.29-3.77,1.95-5.8L69,14.5q-2.14,4.31-4.2,8.55c-.56,1.23-1.16,2.52-1.8,3.85l-1.9,4-1.85,3.8q-.9,1.85-1.65,3.45c-.16.87-.38,1.82-.65,2.85s-.46,2-.7,2.95c-.3,1.1-.61,2.2-.95,3.3Zm47.71-11.8a8.54,8.54,0,0,1-.85,3.8,11.8,11.8,0,0,1-2.3,3.2,16.7,16.7,0,0,1-3.4,2.5,26.47,26.47,0,0,1-4,1.8,30.76,30.76,0,0,1-4.35,1.1,27.46,27.46,0,0,1-4.25.35,18.78,18.78,0,0,1-3.45-.3,161.49,161.49,0,0,0,3.8-17.6Q77,22.41,78.33,13.4c1.73-.37,3.53-.68,5.4-1a36.54,36.54,0,0,1,5.8-.45,12.67,12.67,0,0,1,2.65.3,7.09,7.09,0,0,1,2.55,1.1,6.32,6.32,0,0,1,1.9,2.1,6.25,6.25,0,0,1,.8,3.3,9.65,9.65,0,0,1-.65,3.55,11.66,11.66,0,0,1-1.6,3A11.45,11.45,0,0,1,93,27.7a10.27,10.27,0,0,1-2.55,1.45,6.87,6.87,0,0,1,1.35,1,8.4,8.4,0,0,1,1.3,1.55,6.81,6.81,0,0,1,1,2.05A8.42,8.42,0,0,1,94.43,36.45ZM83,31.25c-.13.8-.27,1.52-.4,2.15s-.2,1.18-.3,1.75-.22,1.17-.35,1.8-.22,1.32-.35,2.15c.63-.07,1.35-.18,2.15-.35A11.26,11.26,0,0,0,86,38a6.07,6.07,0,0,0,1.85-1.4,3.26,3.26,0,0,0,.75-2.15,2.28,2.28,0,0,0-.5-1.5,3.61,3.61,0,0,0-1.2-1,4.69,4.69,0,0,0-1.55-.55,7.21,7.21,0,0,0-1.6-.2h-.45A1.63,1.63,0,0,0,83,31.25Zm2.25-12.1c-.07.37-.15.8-.25,1.3s-.15,1-.25,1.6-.22,1.07-.35,1.6-.18,1-.25,1.4a17.69,17.69,0,0,0,2.2-.55,15.33,15.33,0,0,0,2-.75,5.4,5.4,0,0,0,1.4-.95,1.45,1.45,0,0,0,.55-1.1,1.62,1.62,0,0,0-.45-1.2,3.2,3.2,0,0,0-1.2-.8,5.72,5.72,0,0,0-1.5-.4,7,7,0,0,0-1.35-.15ZM114,39.25a15.94,15.94,0,0,1-2,4.85,12.24,12.24,0,0,1-3,3.3,11.59,11.59,0,0,1-3.65,1.9,13.2,13.2,0,0,1-3.9.6,7.3,7.3,0,0,1-2.35-.4,6.2,6.2,0,0,1-3.75-3,5.78,5.78,0,0,1-.6-2.7v-.4a1.37,1.37,0,0,1,0-.4c.13-1.37.35-3,.65-5s.61-3.95,1-6,.7-4.2,1.1-6.3.75-4.07,1-5.8.61-3.17.85-4.3.38-1.88.45-2.15l2.5-.25c1-.1,1.86-.18,2.7-.25l3.05-.3q-1.31,6-2.3,11l-.9,4.2c-.27,1.4-.54,2.68-.8,3.85s-.45,2.18-.65,3.05-.32,1.52-.45,2-.24,1.22-.4,2a12.74,12.74,0,0,0-.2,2.2,2.23,2.23,0,0,0,.4,1.35,1.23,1.23,0,0,0,1,.5,1.78,1.78,0,0,0,1.4-.65,6.5,6.5,0,0,0,.9-1.65,8.51,8.51,0,0,0,.55-1.9c.13-.67.25-1.18.35-1.55.2-1,.41-2,.65-3.2s.51-2.43.75-3.7.51-2.62.75-3.95.51-2.63.75-3.9c.56-2.93,1.11-6,1.65-9.1l7.6-.5s-.09.43-.25,1.3-.39,2-.65,3.45-.57,3.07-.9,4.9-.65,3.75-1.05,5.75-.8,3.92-1.2,5.85S114.38,37.65,114,39.25Zm25.59-15.8a22.61,22.61,0,0,1-.75,5.55,33.78,33.78,0,0,1-2.1,5.8,31.25,31.25,0,0,1-3.35,5.5A25.2,25.2,0,0,1,129,44.9a22.32,22.32,0,0,1-5.5,3.15,16.51,16.51,0,0,1-6.3,1.2,9.51,9.51,0,0,1-1.4-.1c-.46,0-.93-.08-1.4-.15q1.35-6.9,2.65-13.45.51-2.74,1-5.7t1-5.9c.34-1.93.65-3.78,1-5.55s.6-3.37.8-4.8q2.16-.4,4.35-.75a29.07,29.07,0,0,1,4.5-.35,10.81,10.81,0,0,1,4.55.85,7.7,7.7,0,0,1,3.05,2.35,9.53,9.53,0,0,1,1.75,3.5A15.81,15.81,0,0,1,139.61,23.45Zm-11.8-3.9c-.36,2-.75,3.85-1.15,5.65s-.8,3.62-1.2,5.45-.8,3.75-1.2,5.75-.78,4.18-1.15,6.55a10.42,10.42,0,0,0,2.3-2.15,20.51,20.51,0,0,0,2.15-3.2,32.38,32.38,0,0,0,1.8-3.8c.57-1.33,1-2.63,1.45-3.9a29.37,29.37,0,0,0,.9-3.55,13.57,13.57,0,0,0,.35-2.85A3.92,3.92,0,0,0,131,20.6,4.24,4.24,0,0,0,127.81,19.55Zm33.87,3.9a22.61,22.61,0,0,1-.75,5.55,33.78,33.78,0,0,1-2.1,5.8,31.25,31.25,0,0,1-3.35,5.5A25.2,25.2,0,0,1,151,44.9a22.32,22.32,0,0,1-5.5,3.15,16.51,16.51,0,0,1-6.3,1.2,9.51,9.51,0,0,1-1.4-.1c-.46,0-.93-.08-1.4-.15q1.35-6.9,2.65-13.45.51-2.74,1-5.7t1.05-5.9c.34-1.93.65-3.78.95-5.55s.6-3.37.8-4.8q2.16-.4,4.35-.75a29.07,29.07,0,0,1,4.5-.35,10.81,10.81,0,0,1,4.55.85,7.7,7.7,0,0,1,3,2.35,9.53,9.53,0,0,1,1.75,3.5A15.81,15.81,0,0,1,161.68,23.45Zm-11.8-3.9c-.36,2-.75,3.85-1.15,5.65s-.8,3.62-1.2,5.45-.8,3.75-1.2,5.75-.78,4.18-1.15,6.55a10.42,10.42,0,0,0,2.3-2.15,20.51,20.51,0,0,0,2.15-3.2,32.38,32.38,0,0,0,1.8-3.8c.57-1.33,1-2.63,1.45-3.9a29.37,29.37,0,0,0,.9-3.55,13.57,13.57,0,0,0,.35-2.85,3.92,3.92,0,0,0-1-2.9A4.24,4.24,0,0,0,149.88,19.55Zm12.27,28.7,2.3-10c0-1.43,0-3-.1-4.65s-.1-3.4-.2-5.1-.2-3.33-.3-4.9-.18-3-.25-4.2-.13-2.22-.2-3-.1-1.1-.1-1.1l8.15-3.1v8.65c0,.87,0,1.72,0,2.55v4.2c.44-1.13.95-2.53,1.55-4.2s1.22-3.28,1.75-4.85c.64-1.83,1.29-3.77,2-5.8l7.75,1.75q-2.15,4.31-4.2,8.55c-.56,1.23-1.16,2.52-1.8,3.85l-1.9,4-1.85,3.8q-.9,1.85-1.65,3.45c-.16.87-.38,1.82-.65,2.85s-.46,2-.7,2.95c-.3,1.1-.61,2.2-1,3.3Z" transform="translate(-3.86 -4.08)"/><path class="cls-2" d="M6.42,43.7q2.19-6.64,4.2-13.05c.56-1.8,1.15-3.68,1.75-5.65s1.2-3.92,1.8-5.85,1.15-3.8,1.65-5.6,1-3.47,1.4-5a43,43,0,0,0,5.2-.3c1.63-.2,3.4-.38,5.3-.55-.1.73-.22,1.57-.35,2.5s-.24,1.85-.4,2.85-.29,2-.45,3.1-.37,2.43-.6,4.1S25.37,24,25,26.5h.65q1.44-3.8,2.4-6.3c.63-1.7,1.15-3.08,1.55-4.15s.8-2.1,1.2-3.1l1.2-2.9c.4-.93.76-1.75,1.1-2.45.83-.07,1.61-.15,2.35-.25l2.2-.3c.73-.13,1.46-.25,2.2-.35l2.5-.45c-.34,1.93-.65,3.92-1,5.95s-.57,4.07-.8,6.1-.47,4-.7,5.95-.39,3.83-.55,5.6q-.6,6.19-1,12.1l-8.7,1.55c0-.17,0-.62.05-1.35s.13-1.63.2-2.7.21-2.25.35-3.55.31-2.6.45-3.9.33-2.55.5-3.75.33-2.28.5-3.15h-.45q-.71,2.1-1.55,4.45t-1.75,4.7q-.86,2.4-1.7,4.7c-.57,1.53-1.07,3-1.5,4.4q-1.76,0-3,.15c-.84,0-1.8.08-2.9.15l1.6-18.55h-.75c-.07.43-.24,1.17-.5,2.2l-.95,3.5c-.34,1.3-.7,2.67-1.1,4.1s-.79,2.72-1.15,4-.62,2.2-.85,3-.37,1.2-.4,1.3Zm36.3-.45,2.3-10c0-1.43,0-3-.1-4.65s-.1-3.4-.2-5.1-.2-3.33-.3-4.9-.18-3-.25-4.2S44,12.13,44,11.4s-.1-1.1-.1-1.1L52,7.2v8.65c0,.87,0,1.72-.05,2.55v4.2c.44-1.13,1-2.53,1.55-4.2s1.22-3.28,1.75-4.85c.64-1.83,1.29-3.77,1.95-5.8L65,9.5q-2.14,4.31-4.2,8.55c-.56,1.23-1.16,2.52-1.8,3.85l-1.9,4-1.85,3.8q-.9,1.84-1.65,3.45c-.16.87-.38,1.82-.65,2.85s-.46,2-.7,2.95c-.3,1.1-.61,2.2-.95,3.3Zm47.71-11.8a8.54,8.54,0,0,1-.85,3.8,11.8,11.8,0,0,1-2.3,3.2,16.7,16.7,0,0,1-3.4,2.5,26.47,26.47,0,0,1-4,1.8,30.76,30.76,0,0,1-4.35,1.1,27.46,27.46,0,0,1-4.25.35,18.78,18.78,0,0,1-3.45-.3,161.49,161.49,0,0,0,3.8-17.6Q73,17.41,74.33,8.4c1.73-.37,3.53-.68,5.4-1A36.54,36.54,0,0,1,85.53,7a12.67,12.67,0,0,1,2.65.3,7.09,7.09,0,0,1,2.55,1.1,6.32,6.32,0,0,1,1.9,2.1,6.25,6.25,0,0,1,.8,3.3,9.65,9.65,0,0,1-.65,3.55,11.66,11.66,0,0,1-1.6,3A11.45,11.45,0,0,1,89,22.7a10.27,10.27,0,0,1-2.55,1.45,6.87,6.87,0,0,1,1.35,1,8.4,8.4,0,0,1,1.3,1.55,6.81,6.81,0,0,1,1,2.05A8.42,8.42,0,0,1,90.43,31.45ZM79,26.25c-.13.8-.27,1.52-.4,2.15s-.2,1.18-.3,1.75-.22,1.17-.35,1.8-.22,1.32-.35,2.15c.63-.07,1.35-.18,2.15-.35A11.26,11.26,0,0,0,82,33a6.07,6.07,0,0,0,1.85-1.4,3.26,3.26,0,0,0,.75-2.15,2.28,2.28,0,0,0-.5-1.5,3.61,3.61,0,0,0-1.2-1,4.69,4.69,0,0,0-1.55-.55,7.21,7.21,0,0,0-1.6-.2h-.45A1.63,1.63,0,0,0,79,26.25Zm2.25-12.1c-.07.37-.15.8-.25,1.3s-.15,1-.25,1.6-.22,1.07-.35,1.6-.18,1-.25,1.4a17.69,17.69,0,0,0,2.2-.55,15.33,15.33,0,0,0,2-.75,5.4,5.4,0,0,0,1.4-.95,1.45,1.45,0,0,0,.55-1.1,1.62,1.62,0,0,0-.45-1.2,3.2,3.2,0,0,0-1.2-.8,5.72,5.72,0,0,0-1.5-.4,7,7,0,0,0-1.35-.15ZM110,34.25a15.94,15.94,0,0,1-2,4.85,12.24,12.24,0,0,1-3,3.3,11.59,11.59,0,0,1-3.65,1.9,13.2,13.2,0,0,1-3.9.6,7.3,7.3,0,0,1-2.35-.4,6.2,6.2,0,0,1-3.75-3,5.78,5.78,0,0,1-.6-2.7v-.4a1.37,1.37,0,0,1,0-.4c.13-1.37.35-3,.65-5s.61-3.95,1-6,.7-4.2,1.1-6.3.75-4.07,1-5.8.61-3.17.85-4.3.38-1.88.45-2.15l2.5-.25c1-.1,1.86-.18,2.7-.25l3.05-.3q-1.31,6-2.3,11l-.9,4.2c-.27,1.4-.54,2.68-.8,3.85s-.45,2.18-.65,3.05-.32,1.52-.45,2.05-.24,1.22-.4,2a12.74,12.74,0,0,0-.2,2.2,2.23,2.23,0,0,0,.4,1.35,1.23,1.23,0,0,0,1,.5,1.78,1.78,0,0,0,1.4-.65,6.5,6.5,0,0,0,.9-1.65,8.51,8.51,0,0,0,.55-1.9c.13-.67.25-1.18.35-1.55.2-1,.41-2,.65-3.2s.51-2.43.75-3.7.51-2.62.75-3.95.51-2.63.75-3.9c.56-2.93,1.11-6,1.65-9.1l7.6-.5s-.09.43-.25,1.3-.39,2-.65,3.45-.57,3.07-.9,4.9-.65,3.75-1.05,5.75-.8,3.92-1.2,5.85S110.38,32.65,110,34.25Zm25.59-15.8a22.61,22.61,0,0,1-.75,5.55,33.78,33.78,0,0,1-2.1,5.8,31.25,31.25,0,0,1-3.35,5.5A25.2,25.2,0,0,1,125,39.9a22.32,22.32,0,0,1-5.5,3.15,16.51,16.51,0,0,1-6.3,1.2,9.51,9.51,0,0,1-1.4-.1c-.46,0-.93-.08-1.4-.15q1.35-6.9,2.65-13.45.51-2.75,1-5.7t1-5.9c.34-1.93.65-3.78,1-5.55s.6-3.37.8-4.8q2.16-.4,4.35-.75a29.07,29.07,0,0,1,4.5-.35,10.81,10.81,0,0,1,4.55.85,7.7,7.7,0,0,1,3.05,2.35,9.53,9.53,0,0,1,1.75,3.5A15.81,15.81,0,0,1,135.61,18.45Zm-11.8-3.9c-.36,2-.75,3.85-1.15,5.65s-.8,3.62-1.2,5.45-.8,3.75-1.2,5.75-.78,4.18-1.15,6.55a10.42,10.42,0,0,0,2.3-2.15,20.51,20.51,0,0,0,2.15-3.2,32.38,32.38,0,0,0,1.8-3.8c.57-1.33,1-2.63,1.45-3.9a29.37,29.37,0,0,0,.9-3.55,13.57,13.57,0,0,0,.35-2.85,3.92,3.92,0,0,0-1-2.9A4.24,4.24,0,0,0,123.81,14.55Zm33.87,3.9a22.61,22.61,0,0,1-.75,5.55,33.78,33.78,0,0,1-2.1,5.8,31.25,31.25,0,0,1-3.35,5.5A25.2,25.2,0,0,1,147,39.9a22.32,22.32,0,0,1-5.5,3.15,16.51,16.51,0,0,1-6.3,1.2,9.51,9.51,0,0,1-1.4-.1c-.46,0-.93-.08-1.4-.15q1.35-6.9,2.65-13.45.51-2.75,1-5.7t1.05-5.9c.34-1.93.65-3.78.95-5.55s.6-3.37.8-4.8q2.16-.4,4.35-.75a29.07,29.07,0,0,1,4.5-.35,10.81,10.81,0,0,1,4.55.85,7.7,7.7,0,0,1,3,2.35,9.53,9.53,0,0,1,1.75,3.5A15.81,15.81,0,0,1,157.68,18.45Zm-11.8-3.9c-.36,2-.75,3.85-1.15,5.65s-.8,3.62-1.2,5.45-.8,3.75-1.2,5.75-.78,4.18-1.15,6.55a10.42,10.42,0,0,0,2.3-2.15,20.51,20.51,0,0,0,2.15-3.2,32.38,32.38,0,0,0,1.8-3.8c.57-1.33,1-2.63,1.45-3.9a29.37,29.37,0,0,0,.9-3.55,13.57,13.57,0,0,0,.35-2.85,3.92,3.92,0,0,0-1-2.9A4.24,4.24,0,0,0,145.88,14.55Zm12.27,28.7,2.3-10c0-1.43,0-3-.1-4.65s-.1-3.4-.2-5.1-.2-3.33-.3-4.9-.18-3-.25-4.2-.13-2.22-.2-2.95-.1-1.1-.1-1.1l8.15-3.1v8.65c0,.87,0,1.72,0,2.55v4.2c.44-1.13.95-2.53,1.55-4.2s1.22-3.28,1.75-4.85c.64-1.83,1.29-3.77,2-5.8L180.4,9.5q-2.15,4.31-4.2,8.55c-.56,1.23-1.16,2.52-1.8,3.85l-1.9,4-1.85,3.8q-.9,1.84-1.65,3.45c-.16.87-.38,1.82-.65,2.85s-.46,2-.7,2.95c-.3,1.1-.61,2.2-1,3.3Z" transform="translate(-3.86 -4.08)"/><text class="cls-3" transform="translate(8.05 44.62)">my buddy</text><path class="cls-2" d="M5.74,43.71c1.43-4.34,2.84-8.72,4.19-13Q10.79,28,11.68,25t1.8-5.86q.9-2.88,1.67-5.58c.52-1.79,1-3.45,1.37-5l.2-.75h.77a43,43,0,0,0,5.08-.29C24.18,7.38,26,7.19,27.9,7l1.25-.11L29,8.15c-.1.74-.21,1.56-.32,2.47s-.26,1.89-.41,2.9-.31,2-.47,3.1-.36,2.34-.58,3.92L28.9,16c.4-1.08.82-2.13,1.24-3.15s.82-2,1.2-2.91.76-1.76,1.09-2.47L32.68,7l.58,0c.81-.06,1.58-.14,2.29-.24l2.18-.32L40,6l2.45-.42,1.41-.27-.25,1.42c-.33,1.91-.64,3.9-.94,5.93s-.57,4-.8,6-.46,4-.67,6-.41,3.82-.58,5.58c-.39,4.12-.75,8.18-1,12.09l-.05.77L28.84,45V43.82c0-.18,0-.65.08-1.42s.11-1.64.2-2.71.2-2.27.35-3.58l.37-3.22-.74,2c-.58,1.6-1.16,3.17-1.72,4.71s-1.06,3-1.49,4.34l-.21.69-.71,0q-1.74,0-3,.12L17.94,45l1-12-.68,2.44c-.4,1.41-.78,2.73-1.13,4l-.87,3-.41,1.35-.21.64-10.41.7Z" transform="translate(-3.86 -4.08)"/><path d="M42.59,6.57c-.34,1.93-.65,3.92-1,5.95s-.57,4.06-.8,6.07-.46,4-.68,6-.41,3.83-.57,5.6q-.6,6.19-1.05,12.1l-8.7,1.55c0-.17,0-.62.07-1.35s.12-1.63.2-2.7.2-2.25.35-3.55l.45-3.9q.22-2,.48-3.78c.16-1.21.33-2.25.5-3.12h-.45c-.47,1.4-1,2.87-1.55,4.42S28.75,33,28.16,34.57s-1.16,3.17-1.72,4.7-1.07,3-1.5,4.4q-1.76,0-3,.12L19,44l1.6-18.55h-.75c-.07.43-.24,1.16-.5,2.17l-.93,3.5c-.35,1.32-.72,2.69-1.12,4.1s-.78,2.74-1.13,4-.64,2.22-.87,3l-.4,1.33L6.69,44c1.47-4.43,2.86-8.78,4.2-13.05.56-1.8,1.15-3.68,1.75-5.65s1.2-3.92,1.8-5.85,1.16-3.8,1.67-5.6,1-3.47,1.38-5a43,43,0,0,0,5.2-.3c1.63-.2,3.4-.38,5.3-.55-.1.73-.21,1.56-.33,2.47s-.25,1.88-.4,2.88-.31,2-.47,3.1-.37,2.43-.6,4.1-.55,3.75-1,6.25h.65l2.4-6.33,1.55-4.12c.4-1.07.81-2.11,1.22-3.13l1.2-2.9c.39-.91.74-1.72,1.08-2.42.83-.07,1.61-.15,2.35-.25l2.2-.33L40.11,7c.75-.11,1.58-.25,2.48-.42m2.46-2.49-2.83.52c-.87.17-1.69.31-2.41.42l-2.24.35-2.15.32c-.7.09-1.45.17-2.24.24L32,6l-.5,1c-.34.73-.72,1.57-1.11,2.51-.29.7-.59,1.43-.91,2.18,0-.34.09-.67.14-1,.11-.91.22-1.73.32-2.46l.34-2.48L27.81,6c-1.93.17-3.74.36-5.37.55a40.7,40.7,0,0,1-5,.29H15.94l-.39,1.5c-.39,1.5-.85,3.16-1.36,5S13.11,17,12.53,18.88s-1.2,3.89-1.81,5.86S9.54,28.57,9,30.37c-1.35,4.31-2.76,8.69-4.19,13l-.93,2.82,3-.19,8.25-.55,1.35-.09.42-1.29c0-.08.11-.36.25-.83l0,.54-.2,2.31L19.16,46l.83,0,2.07-.13c.8,0,1.76-.09,2.93-.12l1.44,0,.42-1.37c.35-1.12.74-2.31,1.18-3.53,0,.6-.08,1.14-.11,1.6-.07,1-.08,1.33-.08,1.49v2.39l2.35-.42,8.7-1.55L40.41,44l.12-1.55c.3-3.9.65-8,1-12.06.17-1.77.36-3.64.57-5.57s.44-3.95.67-6,.5-4,.8-6,.61-4,.94-5.9l.49-2.83Z" transform="translate(-3.86 -4.08)"/><path class="cls-2" d="M44.29,33.41c0-1.39,0-2.91-.08-4.54s-.12-3.37-.22-5-.2-3.34-.3-4.92-.19-3-.25-4.21-.17-2.54-.3-4L43.07,10,53.29,6.07v10.1c0,.37,0,.73,0,1.09.46-1.26.9-2.51,1.31-3.71q.94-2.75,1.95-5.79l.28-.87L66.7,9.13l-.57,1.14c-1.41,2.81-2.82,5.69-4.19,8.53-.56,1.23-1.17,2.51-1.8,3.83l-1.9,3.95-1.85,3.83c-.58,1.18-1.11,2.29-1.59,3.32-.17.86-.38,1.79-.62,2.77s-.49,2-.72,3c-.31,1.13-.63,2.24-1,3.35l-.19.62L41.69,44.74Z" transform="translate(-3.86 -4.08)"/><path d="M52.29,7.52v8.65q0,1.3,0,2.55c0,.83,0,1.62,0,2.35v1.85c.43-1.13.95-2.53,1.57-4.2s1.19-3.28,1.73-4.85c.63-1.83,1.28-3.77,2-5.8l7.75,1.75q-2.16,4.31-4.2,8.55c-.57,1.23-1.17,2.51-1.8,3.82s-1.27,2.64-1.9,4S56.09,28.74,55.49,30s-1.15,2.38-1.65,3.45q-.26,1.3-.63,2.85c-.25,1-.49,2-.72,2.95-.3,1.1-.62,2.2-1,3.3l-8.55,1,2.3-10c0-1.43,0-3-.08-4.68s-.12-3.37-.22-5.07-.2-3.34-.3-4.93-.19-3-.25-4.19-.17-2.56-.3-4l8.15-3.1m2-2.9-2.71,1-8.15,3.1L42,9.29l.14,1.51c.13,1.44.22,2.77.29,3.95s.15,2.63.25,4.22.2,3.22.3,4.92.17,3.35.22,5,.07,3.05.08,4.39L41,43.12,40.4,45.9l2.83-.35,8.55-1,1.29-.15.38-1.25c.34-1.11.66-2.24,1-3.35s.48-2,.74-3,.43-1.86.59-2.69c.47-1,1-2.07,1.54-3.21S58.5,28.33,59.14,27l1.9-4c.64-1.33,1.25-2.63,1.81-3.86,1.36-2.8,2.77-5.67,4.18-8.49l1.14-2.28-2.49-.56L57.93,6.12l-1.78-.4-.56,1.73c-.44,1.34-.88,2.64-1.3,3.89V4.62Z" transform="translate(-3.86 -4.08)"/><path class="cls-2" d="M71.49,45.52a19.88,19.88,0,0,1-3.64-.32L66.78,45l.29-1a164.92,164.92,0,0,0,3.8-17.52c.95-5.89,1.86-11.89,2.73-17.86l.1-.69.68-.15c1.74-.37,3.58-.7,5.46-1a39.76,39.76,0,0,1,6-.44,13.9,13.9,0,0,1,2.85.32A8.1,8.1,0,0,1,91.56,7.9a7.66,7.66,0,0,1,2.21,2.41,7.34,7.34,0,0,1,.92,3.81A11.11,11.11,0,0,1,94,18a14.13,14.13,0,0,1-1.73,3.24,12.58,12.58,0,0,1-3.66,3.38l.11.1a10.49,10.49,0,0,1,1.44,1.69,8.9,8.9,0,0,1,1.11,2.34,10.35,10.35,0,0,1,.42,3,9.65,9.65,0,0,1-1,4.24,12.82,12.82,0,0,1-2.5,3.45,17.07,17.07,0,0,1-3.59,2.66A25.77,25.77,0,0,1,80.43,44a28.8,28.8,0,0,1-4.5,1.14A26.68,26.68,0,0,1,71.49,45.52Zm8.6-18c-.09.49-.17.95-.25,1.36l-.32,1.76c-.1.57-.42,2.31-.47,2.59l.73-.14a8.94,8.94,0,0,0,2.08-.7,4.6,4.6,0,0,0,1.52-1.15,2.17,2.17,0,0,0,.51-1.47,1.4,1.4,0,0,0-.26-.88,3,3,0,0,0-.9-.75,4.9,4.9,0,0,0-1.3-.47A7.33,7.33,0,0,0,80.09,27.52Zm2.16-11.59c-.09.51-.18,1-.28,1.59s-.2,1-.3,1.53l.61-.18a13.6,13.6,0,0,0,1.84-.72,4.57,4.57,0,0,0,1.15-.75c.22-.21.22-.33.22-.38a.73.73,0,0,0-.18-.54,2.49,2.49,0,0,0-.83-.54,5.67,5.67,0,0,0-1.28-.36c-.32-.05-.61-.08-.88-.1C82.3,15.62,82.27,15.78,82.25,15.93Z" transform="translate(-3.86 -4.08)"/><path d="M85.79,7.32a12.74,12.74,0,0,1,2.65.3A7.09,7.09,0,0,1,91,8.72a6.71,6.71,0,0,1,1.92,2.1,6.35,6.35,0,0,1,.78,3.3,9.86,9.86,0,0,1-.63,3.55,13,13,0,0,1-1.6,3A11.4,11.4,0,0,1,89.24,23a9.85,9.85,0,0,1-2.55,1.48,6.87,6.87,0,0,1,1.35,1A9.34,9.34,0,0,1,89.34,27a7.84,7.84,0,0,1,1,2.08,9,9,0,0,1,.38,2.7,8.67,8.67,0,0,1-.85,3.8,11.58,11.58,0,0,1-2.3,3.17,15.68,15.68,0,0,1-3.38,2.5,23.76,23.76,0,0,1-4,1.8,27.17,27.17,0,0,1-4.35,1.1,25.73,25.73,0,0,1-4.27.38,18.62,18.62,0,0,1-3.45-.3,165.9,165.9,0,0,0,3.82-17.63q1.42-8.86,2.73-17.87c1.73-.37,3.53-.69,5.4-1a39,39,0,0,1,5.8-.42m-5.4,13.05a18.14,18.14,0,0,0,2.2-.55,13.48,13.48,0,0,0,2-.78,5.57,5.57,0,0,0,1.4-.92,1.5,1.5,0,0,0,.53-1.1A1.73,1.73,0,0,0,86,15.79,3.5,3.5,0,0,0,84.86,15a7,7,0,0,0-1.5-.43A9.08,9.08,0,0,0,82,14.47h-.5c-.07.37-.15.8-.23,1.3s-.17,1-.27,1.57-.21,1.1-.33,1.63-.21,1-.27,1.4M77.84,34.42c.63-.07,1.35-.18,2.15-.35a10.4,10.4,0,0,0,2.3-.78,5.5,5.5,0,0,0,1.85-1.4,3.14,3.14,0,0,0,.75-2.12,2.33,2.33,0,0,0-.48-1.5,4.06,4.06,0,0,0-1.2-1,5.57,5.57,0,0,0-1.57-.58,8.47,8.47,0,0,0-1.6-.17h-.43a1.64,1.64,0,0,0-.37.05c-.14.8-.26,1.51-.38,2.12s-.22,1.21-.32,1.78-.21,1.16-.33,1.77-.24,1.35-.37,2.18m8-29.1a40.44,40.44,0,0,0-6.1.45c-1.9.29-3.75.62-5.52,1l-1.36.29-.2,1.38c-.87,6-1.78,12-2.72,17.85a167.92,167.92,0,0,1-3.78,17.41l-.58,2.09,2.14.41a20.91,20.91,0,0,0,3.82.33,28.52,28.52,0,0,0,4.6-.4,31,31,0,0,0,4.67-1.18A26.91,26.91,0,0,0,85.14,43a17.87,17.87,0,0,0,3.8-2.82,13.37,13.37,0,0,0,2.69-3.73,10.53,10.53,0,0,0,1.06-4.67,11.05,11.05,0,0,0-.47-3.3A9.84,9.84,0,0,0,91,25.86a12.52,12.52,0,0,0-.83-1.06,3.55,3.55,0,0,0,.31-.23,13,13,0,0,0,2.61-2.73,14.87,14.87,0,0,0,1.85-3.46,12,12,0,0,0,.76-4.26A8.33,8.33,0,0,0,94.63,9.8a8.61,8.61,0,0,0-2.5-2.72,9.1,9.1,0,0,0-3.27-1.42,15.42,15.42,0,0,0-3.07-.34ZM83,17.56c.06-.34.12-.66.17-1a4.69,4.69,0,0,1,.95.28l.14.06a4.78,4.78,0,0,1-.55.32l-.71.31ZM80.31,31.93c.07-.38.13-.75.2-1.11.09-.56.2-1.14.32-1.75,0-.15,0-.31.08-.47l.32,0a3.64,3.64,0,0,1,1,.37,1.93,1.93,0,0,1,.59.49.54.54,0,0,1,0,.26,1.16,1.16,0,0,1-.27.82,3.42,3.42,0,0,1-1.2.9,8.84,8.84,0,0,1-1.11.44Z" transform="translate(-3.86 -4.08)"/><path class="cls-2" d="M97.74,46.22a8.82,8.82,0,0,1-2.65-.42,7.49,7.49,0,0,1-2.47-1.3,7.07,7.07,0,0,1-1.84-2.2A6.64,6.64,0,0,1,90,39.12v-.4a2.6,2.6,0,0,1,.06-.56c.13-1.35.35-3,.65-4.94s.61-4,1-6.06.7-4.21,1.1-6.35.76-4,1.08-5.77.59-3.19.83-4.34.39-1.9.46-2.17l.17-.69.7-.07,2.49-.24c1-.11,1.89-.19,2.73-.26l4.39-.43-.29,1.34q-1.29,6-2.3,10.94c-.3,1.41-.59,2.8-.87,4.2s-.55,2.69-.8,3.86l-1.1,5.1c-.12.53-.25,1.19-.4,2a12.18,12.18,0,0,0-.2,2,1.16,1.16,0,0,0,.19.72c.1.13.15.13.21.13a.73.73,0,0,0,.62-.31,5,5,0,0,0,.77-1.36,9.74,9.74,0,0,0,.5-1.73c.12-.69.23-1.21.34-1.61.19-.91.41-2,.66-3.17s.5-2.41.75-3.69.5-2.58.75-3.91.49-2.64.72-3.9c.57-2.92,1.12-6,1.65-9.09l.13-.78L116.66,7l-.24,1.27q-.51,2.6-.9,4.74t-.87,4.89c-.33,1.87-.69,3.81-1.08,5.75l-1.18,5.85c-.38,1.92-.76,3.7-1.13,5.3A17,17,0,0,1,109.15,40a13.56,13.56,0,0,1-3.24,3.56,13,13,0,0,1-4,2.06A14.5,14.5,0,0,1,97.74,46.22Z" transform="translate(-3.86 -4.08)"/><path d="M104.39,8q-1.31,6-2.3,11c-.3,1.4-.6,2.8-.88,4.2s-.55,2.68-.8,3.85-.47,2.17-.65,3-.33,1.55-.45,2.08-.25,1.21-.4,2a12.43,12.43,0,0,0-.22,2.23,2.09,2.09,0,0,0,.4,1.32,1.21,1.21,0,0,0,1,.53,1.75,1.75,0,0,0,1.4-.68,6.29,6.29,0,0,0,.92-1.62,10.31,10.31,0,0,0,.55-1.93c.12-.65.23-1.15.33-1.52.2-1,.42-2,.67-3.23s.5-2.41.75-3.7.5-2.59.75-3.92.49-2.63.73-3.9c.56-2.93,1.11-6,1.65-9.1l7.6-.5c-.34,1.73-.64,3.32-.9,4.75s-.56,3.07-.88,4.9-.67,3.74-1.07,5.72-.8,3.94-1.18,5.85-.76,3.68-1.12,5.28a16.18,16.18,0,0,1-2,4.85,12.57,12.57,0,0,1-3,3.3,11.79,11.79,0,0,1-3.67,1.9,13.2,13.2,0,0,1-3.9.6,7.85,7.85,0,0,1-2.35-.38,6.58,6.58,0,0,1-2.15-1.12,6,6,0,0,1-1.58-1.9,5.55,5.55,0,0,1-.62-2.7v-.4a1.37,1.37,0,0,1,0-.4c.13-1.37.35-3,.65-5s.61-3.95,1-6,.7-4.21,1.1-6.33.75-4,1.07-5.77.59-3.18.83-4.32.38-1.86.45-2.13l2.5-.25c1-.1,1.86-.18,2.7-.25l3-.3m2.53-2.26L104.19,6l-3,.3c-.81.06-1.73.15-2.71.25L96,6.78l-1.41.13L94.2,8.28c0,.11-.12.46-.47,2.22-.24,1.17-.52,2.64-.84,4.36s-.67,3.65-1.07,5.76S91,24.92,90.71,27s-.65,4.12-.95,6.05-.52,3.57-.65,4.95a3.35,3.35,0,0,0-.07.71v.4a7.57,7.57,0,0,0,.86,3.65A8.09,8.09,0,0,0,92,45.29a8.55,8.55,0,0,0,2.79,1.46,9.87,9.87,0,0,0,2.95.47,15.1,15.1,0,0,0,4.48-.69,14,14,0,0,0,4.29-2.21A14.58,14.58,0,0,0,110,40.5a18.52,18.52,0,0,0,2.23-5.45c.37-1.65.76-3.44,1.14-5.36s.78-3.87,1.18-5.85.76-3.9,1.08-5.78.61-3.45.87-4.87l.9-4.74.49-2.55-2.59.17-7.6.5-1,.07.2-.93Z" transform="translate(-3.86 -4.08)"/><path class="cls-2" d="M113.44,45.57a15,15,0,0,1-1.51-.08l-1.44-.18-1-.15.2-1q1.35-6.9,2.65-13.46c.33-1.81.69-3.72,1-5.71s.72-3.93,1.05-5.86.66-3.79,1-5.56.57-3.35.77-4.76l.1-.71.7-.13c1.44-.27,2.9-.52,4.38-.76A29.8,29.8,0,0,1,126,6.82a12.09,12.09,0,0,1,5,.94,9,9,0,0,1,3.43,2.64,10.93,10.93,0,0,1,1.9,3.85,17.07,17.07,0,0,1,.59,4.52,23.29,23.29,0,0,1-.79,5.77,34.11,34.11,0,0,1-2.16,6,32.27,32.27,0,0,1-3.43,5.68A26,26,0,0,1,125.86,41a23.54,23.54,0,0,1-5.73,3.32A17.85,17.85,0,0,1,113.44,45.57Zm11.47-29.65c-.32,1.67-.66,3.29-1,4.82q-.6,2.7-1.2,5.44c-.4,1.83-.79,3.74-1.19,5.74-.24,1.15-.46,2.38-.68,3.66l.1-.12a21,21,0,0,0,2-3,36,36,0,0,0,1.78-3.69c.53-1.29,1-2.58,1.39-3.82a31.5,31.5,0,0,0,.9-3.44,14.59,14.59,0,0,0,.31-2.66,3,3,0,0,0-.75-2.2A2.75,2.75,0,0,0,124.91,15.92Z" transform="translate(-3.86 -4.08)"/><path d="M126,7.82a11,11,0,0,1,4.57.85A8,8,0,0,1,133.61,11a10,10,0,0,1,1.73,3.5,16.22,16.22,0,0,1,.55,4.25,22.26,22.26,0,0,1-.75,5.52,32.61,32.61,0,0,1-2.1,5.8,30.89,30.89,0,0,1-3.33,5.5,25,25,0,0,1-4.47,4.6,22.22,22.22,0,0,1-5.48,3.18,16.72,16.72,0,0,1-6.32,1.2,13,13,0,0,1-1.4-.08c-.47-.05-.94-.1-1.4-.17q1.35-6.9,2.65-13.45.49-2.75,1-5.72t1-5.88q.49-2.89,1-5.55t.78-4.8q2.14-.4,4.35-.75a28.88,28.88,0,0,1,4.5-.35m-6.6,30.45a10.64,10.64,0,0,0,2.32-2.18,21.32,21.32,0,0,0,2.13-3.17,38.11,38.11,0,0,0,1.82-3.8c.55-1.33,1-2.63,1.43-3.9a34,34,0,0,0,.92-3.55,14.84,14.84,0,0,0,.33-2.85,4,4,0,0,0-1-2.9,4.33,4.33,0,0,0-3.22-1.05q-.56,3-1.15,5.65T121.74,26q-.6,2.75-1.2,5.75c-.4,2-.79,4.18-1.15,6.55M126,5.82a32,32,0,0,0-4.82.37c-1.48.24-3,.5-4.4.76l-1.42.27-.19,1.42c-.2,1.4-.46,3-.77,4.73s-.64,3.62-1,5.56-.68,3.92-1,5.85-.72,3.9-1.05,5.73Q110,37,108.67,43.94l-.4,2.06,2.08.3q.74.11,1.47.18a14.39,14.39,0,0,0,1.62.09,18.65,18.65,0,0,0,7.07-1.35,24,24,0,0,0,6-3.46,27.05,27.05,0,0,0,4.83-5,34.35,34.35,0,0,0,3.54-5.86,34.94,34.94,0,0,0,2.22-6.15,24.35,24.35,0,0,0,.82-6,17.74,17.74,0,0,0-.63-4.78,11.8,11.8,0,0,0-2.07-4.2,10,10,0,0,0-3.8-2.94,13.14,13.14,0,0,0-5.4-1Zm-3.18,24.76c.29-1.43.59-2.84.88-4.18q.6-2.74,1.2-5.45c.27-1.21.53-2.48.79-3.78a.62.62,0,0,1,.2.15,1.91,1.91,0,0,1,.46,1.5,13.32,13.32,0,0,1-.29,2.46,31.94,31.94,0,0,1-.87,3.34c-.38,1.21-.84,2.47-1.37,3.73-.31.76-.65,1.51-1,2.23Z" transform="translate(-3.86 -4.08)"/><path class="cls-2" d="M135.48,45.57a14.91,14.91,0,0,1-1.5-.08l-1.44-.18-1-.15.2-1q1.35-6.9,2.65-13.46c.33-1.81.68-3.72,1.05-5.71s.72-3.93,1-5.86.66-3.79,1-5.56.57-3.35.76-4.76l.1-.71.71-.13c1.44-.27,2.9-.52,4.38-.76A29.77,29.77,0,0,1,148,6.82a12.11,12.11,0,0,1,5,.94,9,9,0,0,1,3.43,2.64,10.93,10.93,0,0,1,1.9,3.85,17.07,17.07,0,0,1,.58,4.52,23.26,23.26,0,0,1-.78,5.77,34.11,34.11,0,0,1-2.16,6,32.27,32.27,0,0,1-3.43,5.68A25.76,25.76,0,0,1,147.9,41a23.3,23.3,0,0,1-5.72,3.32A17.87,17.87,0,0,1,135.48,45.57ZM147,15.92c-.32,1.67-.65,3.29-1,4.82q-.6,2.7-1.2,5.44t-1.2,5.74c-.23,1.15-.45,2.38-.67,3.66l.1-.12a21,21,0,0,0,2-3,34,34,0,0,0,1.77-3.69c.54-1.29,1-2.58,1.4-3.82a31.5,31.5,0,0,0,.9-3.44,14.47,14.47,0,0,0,.3-2.66,3,3,0,0,0-.74-2.2A2.76,2.76,0,0,0,147,15.92Z" transform="translate(-3.86 -4.08)"/><path d="M148,7.82a11,11,0,0,1,4.58.85,8,8,0,0,1,3,2.35,9.8,9.8,0,0,1,1.72,3.5,15.81,15.81,0,0,1,.55,4.25,22.26,22.26,0,0,1-.75,5.52,32.61,32.61,0,0,1-2.1,5.8,30.83,30.83,0,0,1-3.32,5.5,24.74,24.74,0,0,1-4.48,4.6,22,22,0,0,1-5.47,3.18,16.74,16.74,0,0,1-6.33,1.2,13.29,13.29,0,0,1-1.4-.08c-.46-.05-.93-.1-1.4-.17q1.35-6.9,2.65-13.45.51-2.75,1-5.72t1.05-5.88c.34-1.93.66-3.78,1-5.55s.57-3.37.77-4.8q2.16-.4,4.35-.75a29.07,29.07,0,0,1,4.5-.35m-6.6,30.45a10.67,10.67,0,0,0,2.33-2.18,20.55,20.55,0,0,0,2.12-3.17,36.07,36.07,0,0,0,1.83-3.8c.55-1.33,1-2.63,1.42-3.9a34.22,34.22,0,0,0,.93-3.55,14.74,14.74,0,0,0,.32-2.85,4,4,0,0,0-1-2.9,4.34,4.34,0,0,0-3.23-1.05c-.36,2-.75,3.85-1.15,5.65s-.8,3.62-1.2,5.45-.8,3.75-1.2,5.75-.78,4.18-1.15,6.55M148,5.82a32,32,0,0,0-4.81.37c-1.48.24-3,.5-4.4.76l-1.42.27-.2,1.42c-.19,1.4-.45,3-.76,4.73s-.64,3.62-1,5.56-.68,3.92-1,5.85-.72,3.9-1,5.73q-1.31,6.51-2.65,13.43l-.4,2.06,2.08.3q.73.11,1.47.18a14.35,14.35,0,0,0,1.61.09,18.66,18.66,0,0,0,7.08-1.35,23.8,23.8,0,0,0,6-3.46,26.78,26.78,0,0,0,4.84-5,33.66,33.66,0,0,0,3.53-5.86,35,35,0,0,0,2.23-6.15,24.32,24.32,0,0,0,.81-6,17.74,17.74,0,0,0-.62-4.78,11.65,11.65,0,0,0-2.08-4.2,10,10,0,0,0-3.79-2.94,13.15,13.15,0,0,0-5.41-1Zm-3.17,24.76c.29-1.43.58-2.84.88-4.18q.6-2.74,1.2-5.45c.27-1.21.53-2.48.79-3.78a.62.62,0,0,1,.2.15,1.92,1.92,0,0,1,.45,1.5,13.19,13.19,0,0,1-.28,2.46c-.21,1-.5,2.15-.87,3.34s-.85,2.47-1.37,3.73c-.31.76-.65,1.51-1,2.23Z" transform="translate(-3.86 -4.08)"/><path class="cls-2" d="M159.68,33.41c0-1.38,0-2.9-.07-4.54s-.12-3.36-.22-5-.2-3.34-.3-4.92-.19-3-.25-4.21-.17-2.55-.3-4l-.07-.76,10.21-3.88V17.26c.46-1.27.9-2.51,1.31-3.71q.94-2.75,1.94-5.79l.29-.87,9.88,2.24-.57,1.14c-1.42,2.82-2.83,5.7-4.19,8.53-.57,1.23-1.17,2.51-1.8,3.83l-1.9,3.95-1.86,3.83c-.57,1.18-1.1,2.29-1.59,3.32-.16.85-.37,1.78-.61,2.77s-.49,2-.73,3c-.3,1.13-.62,2.24-1,3.35l-.19.62-10.61,1.31Z" transform="translate(-3.86 -4.08)"/><path d="M167.68,7.52v8.65c0,.87,0,1.72,0,2.55s0,1.62,0,2.35v1.85c.44-1.13,1-2.53,1.58-4.2s1.19-3.28,1.72-4.85c.64-1.83,1.29-3.77,1.95-5.8l7.75,1.75q-2.15,4.31-4.2,8.55c-.56,1.23-1.16,2.51-1.8,3.82s-1.26,2.64-1.9,4L170.88,30q-.9,1.84-1.65,3.45c-.16.87-.37,1.82-.62,2.85s-.49,2-.73,2.95c-.3,1.1-.61,2.2-.95,3.3l-8.55,1,2.3-10c0-1.43,0-3-.07-4.68s-.13-3.37-.23-5.07-.2-3.34-.3-4.93-.18-3-.25-4.19-.16-2.56-.3-4l8.15-3.1m2-2.9-2.71,1-8.15,3.1-1.41.54.13,1.51c.13,1.43.23,2.76.3,4s.15,2.62.25,4.21.2,3.22.3,4.92.17,3.36.22,5,.07,3.06.07,4.39l-2.25,9.83-.63,2.78,2.83-.35,8.55-1,1.29-.15.38-1.25c.34-1.14.67-2.27,1-3.35s.49-2,.74-3,.44-1.86.6-2.69q.71-1.5,1.53-3.21L174.54,27l.76-1.59,1.14-2.36c.64-1.34,1.25-2.64,1.81-3.85,1.35-2.8,2.76-5.67,4.17-8.5l1.14-2.28-2.49-.56-7.75-1.75-1.77-.4L171,7.45c-.44,1.34-.87,2.65-1.3,3.89V4.62Z" transform="translate(-3.86 -4.08)"/></svg>