<svg width="60" height="59" viewBox="0 0 60 59" fill="none" xmlns="http://www.w3.org/2000/svg">
<path d="M56.5382 0H42.6911C41.773 0 40.8925 0.358643 40.2433 0.997032C39.5941 1.63542 39.2293 2.50126 39.2293 3.40408C39.2293 4.3069 39.5941 5.17274 40.2433 5.81113C40.8925 6.44952 41.773 6.80816 42.6911 6.80816H48.1723L38.7389 16.0843C33.8319 12.4782 27.7181 10.8334 21.6277 11.4809C15.5373 12.1284 9.92224 15.0201 5.91246 19.5742C1.90269 24.1283 -0.204243 30.0067 0.0156274 36.0267C0.235498 42.0466 2.76585 47.7613 7.09753 52.0208C11.4292 56.2802 17.2407 58.7684 23.3627 58.9846C29.4847 59.2008 35.4627 57.129 40.094 53.1861C44.7253 49.2431 47.666 43.7217 48.3245 37.7328C48.983 31.7438 47.3103 25.7319 43.6431 20.9067L53.0764 11.6306V17.0204C53.0764 17.9232 53.4412 18.7891 54.0904 19.4275C54.7396 20.0658 55.6201 20.4245 56.5382 20.4245C57.4563 20.4245 58.3369 20.0658 58.9861 19.4275C59.6353 18.7891 60 17.9232 60 17.0204V3.40408C60 2.50126 59.6353 1.63542 58.9861 0.997032C58.3369 0.358643 57.4563 0 56.5382 0ZM36.4599 47.2032C34.0401 49.5857 30.956 51.2089 27.5978 51.8673C24.2396 52.5258 20.7583 52.1899 17.5942 50.9023C14.4302 49.6147 11.7256 47.4332 9.82276 44.6337C7.91988 41.8343 6.90419 38.5427 6.90419 35.1755C6.90419 31.8083 7.91988 28.5167 9.82276 25.7173C11.7256 22.9178 14.4302 20.7363 17.5942 19.4487C20.7583 18.1611 24.2396 17.8252 27.5978 18.4837C30.956 19.1421 34.0401 20.7653 36.4599 23.1477C39.7013 26.3391 41.522 30.6651 41.522 35.1755C41.522 39.6859 39.7013 44.0119 36.4599 47.2032Z" fill="black"/>
</svg>
