<svg width="21" height="31" viewBox="0 0 21 31" fill="none" xmlns="http://www.w3.org/2000/svg">
<path d="M21 10.7803C21.0009 8.71469 20.4233 6.69229 19.3358 4.95404C18.2484 3.21578 16.697 1.83491 14.8664 0.975908C13.0359 0.116904 11.0033 -0.184036 9.0108 0.108932C7.01829 0.4019 5.14983 1.27643 3.62795 2.62836C2.10608 3.98028 0.994926 5.75263 0.426846 7.73431C-0.141234 9.71599 -0.142301 11.8235 0.423771 13.8058C0.989843 15.788 2.0992 17.5616 3.6197 18.9151C5.14021 20.2687 7.00779 21.1452 9 21.4403V23.6082H5.5C5.10217 23.6082 4.72064 23.7704 4.43934 24.0591C4.15803 24.3477 4 24.7393 4 25.1475C4 25.5558 4.15803 25.9473 4.43934 26.236C4.72064 26.5247 5.10217 26.6869 5.5 26.6869H9V29.2524C9 29.6607 9.15803 30.0522 9.43934 30.3409C9.72064 30.6296 10.1022 30.7918 10.5 30.7918C10.8978 30.7918 11.2794 30.6296 11.5607 30.3409C11.842 30.0522 12 29.6607 12 29.2524V26.6869H15.5C15.8978 26.6869 16.2794 26.5247 16.5607 26.236C16.842 25.9473 17 25.5558 17 25.1475C17 24.7393 16.842 24.3477 16.5607 24.0591C16.2794 23.7704 15.8978 23.6082 15.5 23.6082H12V21.4403C14.4982 21.0702 16.7829 19.7891 18.4357 17.8314C20.0885 15.8738 20.9988 13.3706 21 10.7803ZM3 10.7803C3 9.25807 3.43987 7.76999 4.26398 6.50427C5.08809 5.23855 6.25943 4.25205 7.62987 3.6695C9.00032 3.08695 10.5083 2.93453 11.9632 3.23151C13.418 3.52849 14.7544 4.26153 15.8033 5.33794C16.8522 6.41434 17.5665 7.78577 17.8559 9.27878C18.1453 10.7718 17.9968 12.3194 17.4291 13.7257C16.8614 15.1321 15.9001 16.3342 14.6668 17.1799C13.4334 18.0256 11.9834 18.477 10.5 18.477C8.51088 18.477 6.60322 17.6661 5.1967 16.2227C3.79018 14.7793 3 12.8216 3 10.7803Z" fill="#F87474"/>
</svg>
