<svg width="28" height="26" viewBox="0 0 28 26" fill="currentColor" xmlns="http://www.w3.org/2000/svg">
<path d="M12.6476 23.3943L12.6462 23.3929C9.02168 20.0666 6.09323 17.3733 4.05922 14.8548C2.03655 12.3503 1 10.1389 1 7.79292C1 3.95685 3.95038 1 7.7 1C9.82921 1 11.8927 2.00839 13.2373 3.59392L14 4.49326L14.7627 3.59392C16.1073 2.00839 18.1708 1 20.3 1C24.0496 1 27 3.95685 27 7.79292C27 10.1389 25.9635 12.3503 23.9408 14.8548C21.9068 17.3733 18.9783 20.0666 15.3538 23.3929L15.3524 23.3943L14 24.6403L12.6476 23.3943Z" fill="currentColor" stroke="#f87474" stroke-width="2"/>
</svg>
