<svg width="17" height="24" viewBox="0 0 17 24" fill="none" xmlns="http://www.w3.org/2000/svg">
<path d="M8.36691 11.8863C8.94213 11.8863 9.43473 11.6533 9.84471 11.1874C10.2547 10.7214 10.4593 10.162 10.4586 9.50904C10.4586 8.8553 10.2536 8.29545 9.84367 7.82951C9.43369 7.36357 8.94143 7.13099 8.36691 7.13178C7.79168 7.13178 7.29908 7.36475 6.8891 7.8307C6.47912 8.29664 6.27448 8.85609 6.27518 9.50904C6.27518 10.1628 6.48017 10.7226 6.89015 11.1886C7.30013 11.6545 7.79238 11.8871 8.36691 11.8863ZM8.36691 20.6227C10.4935 18.404 12.071 16.388 13.0994 14.575C14.1279 12.7619 14.6421 11.1525 14.6421 9.74677C14.6421 7.58742 14.0362 5.81953 12.8244 4.4431C11.6126 3.06667 10.1267 2.37805 8.36691 2.37726C6.60637 2.37726 5.1202 3.06587 3.90839 4.4431C2.69658 5.82033 2.09103 7.58822 2.09173 9.74677C2.09173 11.1533 2.60594 12.7631 3.63437 14.5762C4.66281 16.3892 6.24032 18.4048 8.36691 20.6227ZM8.36691 23.7726C5.56051 21.0586 3.4646 18.5379 2.07918 16.2105C0.693756 13.8832 0.000697242 11.7286 0 9.74677C0 6.77519 0.841223 4.40784 2.52367 2.6447C4.20611 0.881567 6.15386 0 8.36691 0C10.5807 0 12.5287 0.881567 14.2112 2.6447C15.8936 4.40784 16.7345 6.77519 16.7338 9.74677C16.7338 11.7278 16.0408 13.8824 14.6546 16.2105C13.2685 18.5387 11.1726 21.0594 8.36691 23.7726Z" fill="black"/>
</svg>
