<svg width="20" height="20" viewBox="0 0 20 20" fill="none" xmlns="http://www.w3.org/2000/svg">
<path d="M19.0406 0.959787C18.7364 0.655499 18.3751 0.414123 17.9776 0.249442C17.58 0.0847607 17.1539 0 16.7236 0C16.2933 0 15.8672 0.0847607 15.4697 0.249442C15.0721 0.414123 14.7109 0.655499 14.4066 0.959787L2.08459 13.2816C1.71794 13.6482 1.45128 14.1032 1.31212 14.6031L0.0230027 19.207C-0.00678193 19.3138 -0.00765744 19.4265 0.0204662 19.5337C0.0485898 19.6408 0.104701 19.7386 0.183051 19.817C0.261401 19.8953 0.359173 19.9514 0.466348 19.9795C0.573523 20.0077 0.686248 20.0068 0.792973 19.977L5.39613 18.6879C5.89606 18.548 6.35151 18.2817 6.71858 17.9146L16.874 7.76022C17.1301 8.0369 17.269 8.40198 17.2617 8.77888C17.2544 9.15578 17.1014 9.51521 16.8349 9.78177L15.1824 11.4342C15.121 11.4914 15.0718 11.5604 15.0376 11.637C15.0035 11.7137 14.9851 11.7965 14.9836 11.8804C14.9821 11.9643 14.9976 12.0476 15.029 12.1255C15.0604 12.2033 15.1072 12.274 15.1666 12.3333C15.2259 12.3927 15.2966 12.4394 15.3744 12.4709C15.4522 12.5023 15.5356 12.5177 15.6195 12.5163C15.7034 12.5148 15.7862 12.4964 15.8628 12.4623C15.9395 12.4281 16.0085 12.3789 16.0657 12.3175L17.7182 10.6659C18.2191 10.1649 18.5038 9.48746 18.5112 8.77898C18.5185 8.07051 18.2478 7.38737 17.7573 6.8761L19.0406 5.59285C19.6549 4.97841 20 4.14515 20 3.27632C20 2.40748 19.6549 1.57422 19.0406 0.959787ZM15.2908 1.84307C15.6709 1.46306 16.1864 1.24961 16.7239 1.24969C17.2614 1.24977 17.7769 1.46336 18.1569 1.84348C18.5369 2.22361 18.7504 2.73912 18.7503 3.27661C18.7502 3.81411 18.5366 4.32956 18.1565 4.70957L5.83528 17.0313C5.62017 17.2465 5.35327 17.4026 5.06031 17.4846L1.52628 18.4738L2.51541 14.9406C2.5976 14.6477 2.7537 14.3809 2.96872 14.1657L15.2908 1.84307Z" fill="black"/>
</svg>
