<svg width="34" height="24" viewBox="0 0 34 24" fill="currentColor" xmlns="http://www.w3.org/2000/svg">
<path d="M34 22.2943C34 23.2371 33.2418 24 32.3085 24H18.6915C18.2429 24 17.8126 23.8203 17.4954 23.5004C17.1782 23.1805 17 22.7467 17 22.2943C17 21.8419 17.1782 21.408 17.4954 21.0882C17.8126 20.7683 18.2429 20.5886 18.6915 20.5886H32.3085C33.2435 20.5886 34 21.3514 34 22.2943ZM34 12C34 12.9429 33.2418 13.7057 32.3085 13.7057H1.6915C1.24289 13.7057 0.812647 13.526 0.495429 13.2061C0.178211 12.8862 0 12.4524 0 12C0 11.5476 0.178211 11.1138 0.495429 10.7939C0.812647 10.474 1.24289 10.2943 1.6915 10.2943H32.3085C33.2435 10.2943 34 11.0589 34 12ZM32.3085 3.41143C32.7571 3.41143 33.1874 3.23172 33.5046 2.91184C33.8218 2.59195 34 2.1581 34 1.70571C34 1.25333 33.8218 0.819475 33.5046 0.499592C33.1874 0.179708 32.7571 1.34821e-08 32.3085 0H11.8915C11.6694 -6.67565e-09 11.4494 0.0441196 11.2442 0.12984C11.039 0.21556 10.8525 0.341202 10.6954 0.499592C10.5384 0.657982 10.4138 0.846019 10.3288 1.05297C10.2438 1.25991 10.2 1.48172 10.2 1.70571C10.2 1.92971 10.2438 2.15152 10.3288 2.35846C10.4138 2.56541 10.5384 2.75345 10.6954 2.91184C10.8525 3.07023 11.039 3.19587 11.2442 3.28159C11.4494 3.36731 11.6694 3.41143 11.8915 3.41143H32.3085Z" fill="currentColor"/>
</svg>
