<svg width="12" height="7" viewBox="0 0 12 7" fill="currentColor" xmlns="http://www.w3.org/2000/svg">
<path d="M5.5749 -1.23978e-05C5.70824 -1.23978e-05 5.83757 0.0249882 5.9629 0.0749884C6.08824 0.124989 6.19224 0.191655 6.2749 0.274988L10.8749 4.87499C11.0582 5.05832 11.1499 5.29166 11.1499 5.57499C11.1499 5.85832 11.0582 6.09165 10.8749 6.27499C10.6916 6.45832 10.4582 6.54999 10.1749 6.54999C9.89157 6.54999 9.65824 6.45832 9.4749 6.27499L5.5749 2.37499L1.6749 6.27499C1.49157 6.45832 1.25824 6.54999 0.974902 6.54999C0.691568 6.54999 0.458237 6.45832 0.274903 6.27499C0.0915699 6.09165 -9.82285e-05 5.85832 -9.82285e-05 5.57499C-9.82285e-05 5.29166 0.0915699 5.05832 0.274903 4.87499L4.8749 0.274988C4.9749 0.174988 5.08324 0.103988 5.1999 0.0619879C5.31657 0.0199881 5.44157 -0.000679016 5.5749 -1.23978e-05Z" fill="currentColor"/>
</svg>
