<svg width="20" height="20" viewBox="0 0 20 20" fill="currentColor" xmlns="http://www.w3.org/2000/svg">
<path fill-rule="evenodd" clip-rule="evenodd" d="M10.0167 11.9035L17.6987 19.5854C17.9548 19.8328 18.2978 19.9697 18.6538 19.9666C19.0099 19.9635 19.3505 19.8207 19.6023 19.5689C19.854 19.3171 19.9969 18.9765 19.9999 18.6205C20.003 18.2644 19.8662 17.9214 19.6188 17.6653L11.9368 9.98331L19.6188 2.30135C19.8662 2.04523 20.003 1.70221 19.9999 1.34616C19.9969 0.990106 19.854 0.649513 19.6023 0.397737C19.3505 0.145961 19.0099 0.00314533 18.6538 5.13344e-05C18.2978 -0.00304266 17.9548 0.133832 17.6987 0.381195L10.0167 8.06316L2.33472 0.381195C2.07745 0.139946 1.73642 0.00825272 1.38378 0.0139789C1.03115 0.0197052 0.694569 0.162402 0.445271 0.411876C0.195974 0.66135 0.0535141 0.998028 0.0480374 1.35067C0.0425606 1.70331 0.174496 2.04425 0.415926 2.30135L8.09654 9.98331L0.414568 17.6653C0.284869 17.7905 0.181418 17.9404 0.110248 18.1061C0.0390791 18.2717 0.00161811 18.4499 5.12725e-05 18.6302C-0.00151556 18.8106 0.0328428 18.9894 0.101122 19.1563C0.169401 19.3231 0.270234 19.4748 0.397736 19.6023C0.525239 19.7298 0.676857 19.8306 0.843745 19.8989C1.01063 19.9672 1.18945 20.0015 1.36976 20C1.55007 19.9984 1.72826 19.9609 1.89393 19.8898C2.05961 19.8186 2.20945 19.7151 2.33472 19.5854L10.0167 11.9035Z" fill="currentColor"/>
</svg>
