<svg width="48" height="69" viewBox="0 0 48 69" fill="currentColor" xmlns="http://www.w3.org/2000/svg">
<path d="M48 24.1572C48.0021 19.5284 46.6817 14.9965 44.1962 11.1013C41.7106 7.2061 38.1646 4.11178 33.9804 2.18687C29.7963 0.261966 25.1504 -0.412398 20.5961 0.244101C16.0418 0.9006 11.771 2.86029 8.29247 5.88977C4.81389 8.91925 2.27412 12.8908 0.975648 17.3315C-0.32282 21.7721 -0.32526 26.4947 0.968619 30.9367C2.2625 35.3787 4.79816 39.353 8.27361 42.3861C11.7491 45.4192 16.0178 47.3834 20.5714 48.0446V52.9026H12.5714C11.6621 52.9026 10.79 53.266 10.1471 53.9129C9.50408 54.5598 9.14286 55.4372 9.14286 56.352C9.14286 57.2669 9.50408 58.1443 10.1471 58.7912C10.79 59.4381 11.6621 59.8015 12.5714 59.8015H20.5714V65.5506C20.5714 66.4654 20.9326 67.3428 21.5756 67.9897C22.2186 68.6366 23.0907 69 24 69C24.9093 69 25.7814 68.6366 26.4244 67.9897C27.0673 67.3428 27.4286 66.4654 27.4286 65.5506V59.8015H35.4286C36.3379 59.8015 37.2099 59.4381 37.8529 58.7912C38.4959 58.1443 38.8571 57.2669 38.8571 56.352C38.8571 55.4372 38.4959 54.5598 37.8529 53.9129C37.2099 53.266 36.3379 52.9026 35.4286 52.9026H27.4286V48.0446C33.1387 47.2154 38.3608 44.3445 42.1387 39.9577C45.9166 35.5708 47.9974 29.9616 48 24.1572ZM6.85714 24.1572C6.85714 20.746 7.86255 17.4114 9.74623 14.5751C11.6299 11.7388 14.3073 9.52823 17.4397 8.22283C20.5722 6.91742 24.019 6.57587 27.3444 7.24136C30.6698 7.90685 33.7244 9.54949 36.1218 11.9616C38.5193 14.3736 40.152 17.4468 40.8135 20.7924C41.4749 24.1381 41.1354 27.6059 39.8379 30.7574C38.5404 33.9089 36.3432 36.6026 33.5241 38.4977C30.7049 40.3929 27.3905 41.4044 24 41.4044C19.4534 41.4044 15.0931 39.5873 11.8782 36.3528C8.66326 33.1183 6.85714 28.7314 6.85714 24.1572Z" fill="currentColor"/>
</svg>
