<svg width="20" height="23" viewBox="0 0 20 23" fill="none" xmlns="http://www.w3.org/2000/svg">
<path d="M7.85714 1.4375H12.1429C12.3323 1.4375 12.514 1.51323 12.6479 1.64802C12.7819 1.78281 12.8571 1.96563 12.8571 2.15625V3.59375H7.14286V2.15625C7.14286 1.96563 7.21811 1.78281 7.35207 1.64802C7.48602 1.51323 7.6677 1.4375 7.85714 1.4375ZM14.2857 3.59375V2.15625C14.2857 1.58438 14.0599 1.03593 13.6581 0.631551C13.2562 0.227176 12.7112 0 12.1429 0L7.85714 0C7.28882 0 6.74378 0.227176 6.34191 0.631551C5.94005 1.03593 5.71429 1.58438 5.71429 2.15625V3.59375H2.15143C2.14667 3.59371 2.1419 3.59371 2.13714 3.59375H0.714286C0.524845 3.59375 0.343164 3.66948 0.209209 3.80427C0.0752549 3.93906 0 4.12188 0 4.3125C0 4.50312 0.0752549 4.68594 0.209209 4.82073C0.343164 4.95552 0.524845 5.03125 0.714286 5.03125H1.48286L2.70143 20.355C2.75889 21.0755 3.08393 21.7477 3.61182 22.2379C4.13971 22.728 4.83171 23.0001 5.55 23H14.45C15.1683 23.0001 15.8603 22.728 16.3882 22.2379C16.9161 21.7477 17.2411 21.0755 17.2986 20.355L18.5171 5.03125H19.2857C19.4752 5.03125 19.6568 4.95552 19.7908 4.82073C19.9247 4.68594 20 4.50312 20 4.3125C20 4.12188 19.9247 3.93906 19.7908 3.80427C19.6568 3.66948 19.4752 3.59375 19.2857 3.59375H17.8643C17.8595 3.59371 17.8548 3.59371 17.85 3.59375H14.2857ZM17.0829 5.03125L15.8743 20.24C15.8456 20.6002 15.683 20.9364 15.4191 21.1814C15.1551 21.4265 14.8091 21.5626 14.45 21.5625H5.55C5.19085 21.5626 4.84485 21.4265 4.58091 21.1814C4.31697 20.9364 4.15445 20.6002 4.12571 20.24L2.91714 5.03125H17.0829ZM6.38714 6.46875C6.57619 6.45776 6.76184 6.52275 6.90328 6.64944C7.04472 6.77613 7.13038 6.95415 7.14143 7.14437L7.85571 19.3631C7.86322 19.5511 7.79717 19.7346 7.67174 19.8741C7.54631 20.0137 7.37151 20.0981 7.18487 20.1094C6.99823 20.1207 6.81463 20.0579 6.67349 19.9345C6.53235 19.8111 6.44493 19.6369 6.43 19.4494L5.71429 7.23063C5.70849 7.1362 5.72127 7.04155 5.7519 6.95211C5.78253 6.86267 5.83041 6.78019 5.89279 6.7094C5.95517 6.63862 6.03082 6.58093 6.11541 6.53963C6.2 6.49833 6.29186 6.47425 6.38571 6.46875H6.38714ZM13.6129 6.46875C13.7067 6.47425 13.7986 6.49833 13.8832 6.53963C13.9677 6.58093 14.0434 6.63862 14.1058 6.7094C14.1682 6.78019 14.216 6.86267 14.2467 6.95211C14.2773 7.04155 14.2901 7.1362 14.2843 7.23063L13.57 19.4494C13.5662 19.5449 13.5435 19.6387 13.5032 19.7253C13.4629 19.8118 13.4059 19.8895 13.3354 19.9536C13.265 20.0177 13.1825 20.067 13.0929 20.0987C13.0033 20.1304 12.9083 20.1437 12.8134 20.138C12.7186 20.1322 12.6259 20.1075 12.5406 20.0653C12.4554 20.023 12.3794 19.9641 12.3171 19.892C12.2548 19.8198 12.2074 19.7359 12.1778 19.6451C12.1481 19.5543 12.1367 19.4584 12.1443 19.3631L12.8586 7.14437C12.8696 6.95415 12.9553 6.77613 13.0967 6.64944C13.2382 6.52275 13.4238 6.45776 13.6129 6.46875ZM10 6.46875C10.1894 6.46875 10.3711 6.54448 10.5051 6.67927C10.639 6.81406 10.7143 6.99688 10.7143 7.1875V19.4062C10.7143 19.5969 10.639 19.7797 10.5051 19.9145C10.3711 20.0493 10.1894 20.125 10 20.125C9.81056 20.125 9.62888 20.0493 9.49492 19.9145C9.36097 19.7797 9.28571 19.5969 9.28571 19.4062V7.1875C9.28571 6.99688 9.36097 6.81406 9.49492 6.67927C9.62888 6.54448 9.81056 6.46875 10 6.46875Z" fill="black"/>
</svg>
