<svg width="62" height="60" viewBox="0 0 62 60" fill="none" xmlns="http://www.w3.org/2000/svg">
<mask id="path-1-inside-1_701_1088" fill="white">
<path d="M0 0H62V60H0V0Z"/>
</mask>
<path d="M0 0H62V60H0V0Z" fill="#3AB0FF"/>
<path d="M62 60V61.5H63.5V60H62ZM0 60H-1.5V61.5H0V60ZM60.5 0V60H63.5V0H60.5ZM62 58.5H0V61.5H62V58.5ZM1.5 60V0H-1.5V60H1.5Z" fill="black" mask="url(#path-1-inside-1_701_1088)"/>
<path d="M17 43.9406L19.0127 36.8956C17.2732 33.8938 16.6439 30.3391 17.2419 26.8923C17.8398 23.4454 19.6243 20.3411 22.2636 18.1564C24.9029 15.9718 28.2173 14.8554 31.5906 15.015C34.9639 15.1746 38.1666 16.5992 40.6031 19.024C43.0396 21.4488 44.5442 24.7087 44.8371 28.1977C45.1301 31.6867 44.1914 35.1673 42.1956 37.9923C40.1998 40.8173 37.2827 42.7946 33.9868 43.5564C30.6908 44.3183 27.2403 43.8129 24.2766 42.1342L17 43.9406ZM30.934 29.4893V29.5074ZM24.7411 29.4893V29.5074ZM37.1269 29.4893V29.5074Z" fill="#3AB0FF"/>
<path d="M30.934 29.4893V29.5074M24.7411 29.4893V29.5074M37.1269 29.4893V29.5074M17 43.9406L19.0127 36.8956C17.2732 33.8938 16.6439 30.3391 17.2419 26.8923C17.8398 23.4454 19.6243 20.3411 22.2636 18.1564C24.9029 15.9718 28.2173 14.8554 31.5906 15.015C34.9639 15.1746 38.1666 16.5992 40.6031 19.024C43.0396 21.4488 44.5442 24.7087 44.8371 28.1977C45.1301 31.6867 44.1914 35.1673 42.1956 37.9923C40.1998 40.8173 37.2827 42.7946 33.9868 43.5564C30.6908 44.3183 27.2403 43.8129 24.2766 42.1342L17 43.9406Z" stroke="white" stroke-width="2" stroke-linecap="round" stroke-linejoin="round"/>
</svg>
