<svg width="27" height="27" viewBox="0 0 27 27" fill="currentColor" xmlns="http://www.w3.org/2000/svg">
<path d="M25.4422 0H19.211C18.7978 0 18.4016 0.164125 18.1095 0.456269C17.8173 0.748413 17.6532 1.14465 17.6532 1.5578C17.6532 1.97095 17.8173 2.36719 18.1095 2.65933C18.4016 2.95147 18.7978 3.1156 19.211 3.1156H21.6775L17.4325 7.3606C15.2244 5.71036 12.4732 4.95766 9.73247 5.25398C6.99177 5.55029 4.46501 6.87363 2.66061 8.9577C0.85621 11.0418 -0.0919092 13.7319 0.00703234 16.4868C0.105974 19.2417 1.24463 21.8569 3.19389 23.8061C5.14314 25.7554 7.75833 26.894 10.5132 26.993C13.2681 27.0919 15.9582 26.1438 18.0423 24.3394C20.1264 22.535 21.4497 20.0082 21.746 17.2675C22.0423 14.5268 21.2896 11.7756 19.6394 9.56749L23.8844 5.32248V7.789C23.8844 8.20215 24.0485 8.59838 24.3407 8.89053C24.6328 9.18267 25.029 9.3468 25.4422 9.3468C25.8554 9.3468 26.2516 9.18267 26.5437 8.89053C26.8359 8.59838 27 8.20215 27 7.789V1.5578C27 1.14465 26.8359 0.748413 26.5437 0.456269C26.2516 0.164125 25.8554 0 25.4422 0ZM16.407 21.6015C15.318 22.6918 13.9302 23.4346 12.419 23.7359C10.9078 24.0372 9.34122 23.8835 7.9174 23.2943C6.49358 22.705 5.27654 21.7067 4.42024 20.4256C3.56395 19.1445 3.10689 17.6382 3.10689 16.0973C3.10689 14.5563 3.56395 13.05 4.42024 11.7689C5.27654 10.4878 6.49358 9.48949 7.9174 8.90024C9.34122 8.31099 10.9078 8.15731 12.419 8.45864C13.9302 8.75996 15.318 9.50276 16.407 10.593C17.8656 12.0535 18.6849 14.0332 18.6849 16.0973C18.6849 18.1614 17.8656 20.141 16.407 21.6015Z" fill="currentColor"/>
</svg>
   